<?xml version="1.0" encoding="UTF-8" standalone="no"?>
<!-- Created with Inkscape (http://www.inkscape.org/) -->

<svg
   width="64.0px"
   height="64.0px"
   viewBox="0 0 64.0 64.0"
   version="1.1"
   id="SVGRoot"
   sodipodi:docname="mobile-phone.svg"
   inkscape:version="1.1.2 (b8e25be833, 2022-02-05)"
   xmlns:inkscape="http://www.inkscape.org/namespaces/inkscape"
   xmlns:sodipodi="http://sodipodi.sourceforge.net/DTD/sodipodi-0.dtd"
   xmlns="http://www.w3.org/2000/svg"
   xmlns:svg="http://www.w3.org/2000/svg">
  <sodipodi:namedview
     id="namedview4138"
     pagecolor="#787878"
     bordercolor="#666666"
     borderopacity="1.0"
     inkscape:pageshadow="2"
     inkscape:pageopacity="0"
     inkscape:pagecheckerboard="0"
     inkscape:document-units="px"
     showgrid="false"
     inkscape:zoom="6.0364197"
     inkscape:cx="38.102056"
     inkscape:cy="28.907864"
     inkscape:window-width="1920"
     inkscape:window-height="1002"
     inkscape:window-x="-8"
     inkscape:window-y="-8"
     inkscape:window-maximized="1"
     inkscape:current-layer="layer1"
     inkscape:snap-global="false">
    <inkscape:grid
       type="xygrid"
       id="grid4201" />
  </sodipodi:namedview>
  <defs
     id="defs4133" />
  <g
     inkscape:label="Warstwa 1"
     inkscape:groupmode="layer"
     id="layer1">
    <path
       class="fil5"
       d="m 34.090804,45.73472 v -7.049198 c 0,-7.447182 6.10167,-13.545829 13.54734,-13.545829 h 7.670552 v -2.933669 c -12.986458,0 -25.97405,0 -38.960508,0 -6.4705517,0 -11.7641587,5.293985 -11.7641587,11.763025 V 45.73472 c 9.8358437,0 19.6705527,0 29.5067747,0 z m -2.251843,-4.208883 c 0.490961,0 0.891213,0.400252 0.891213,0.891591 0,0.49096 -0.400252,0.891212 -0.891213,0.891212 H 6.9825173 c -0.49096,0 -0.891212,-0.400252 -0.891212,-0.891212 0,-0.491339 0.400252,-0.891591 0.891212,-0.891591 z m 0,-4.400882 c 0.490961,0 0.891213,0.400252 0.891213,0.891212 0,0.490961 -0.400252,0.891591 -0.891213,0.891591 H 6.9825173 c -0.49096,0 -0.891212,-0.40063 -0.891212,-0.891591 0,-0.49096 0.400252,-0.891212 0.891212,-0.891212 z m 0.112252,-4.220221 c 0.490961,0 0.891591,0.40063 0.891591,0.89159 0,0.490961 -0.40063,0.891213 -0.891591,0.891213 H 7.0951473 c -0.49096,0 -0.89159,-0.400252 -0.89159,-0.891213 0,-0.49096 0.40063,-0.89159 0.89159,-0.89159 z m 2.178142,-4.126489 c 0.490961,0 0.891213,0.400252 0.891213,0.891213 0,0.49096 -0.400252,0.89159 -0.891213,0.89159 H 9.2729113 c -0.49096,0 -0.89159,-0.40063 -0.89159,-0.89159 0,-0.490961 0.40063,-0.891213 0.89159,-0.891213 z m 2.358804,-3.810142 c 0.49096,0 0.89159,0.40063 0.89159,0.891591 0,0.49096 -0.40063,0.891212 -0.89159,0.891212 H 11.631715 c -0.490961,0 -0.891213,-0.400252 -0.891213,-0.891212 0,-0.490961 0.400252,-0.891591 0.891213,-0.891591 z m -8.615435,22.54942 v 4.380473 H 59.07613 V 12.350905 H 27.872724 v 8.072316 h 10.645041 17.682144 c 0.491339,0 0.891591,0.400252 0.891591,0.89159 v 4.716095 c 0,0.490961 -0.400252,0.891591 -0.891591,0.891591 h -8.561765 c -6.466394,0 -11.764537,5.29663 -11.764537,11.763025 v 7.940788 c 0,0.490961 -0.400252,0.891213 -0.891212,0.891213 z M 26.089921,20.423221 c 0,-2.995276 0,-5.992064 0,-8.98734 0.01361,-4.4405681 3.652158,-8.0708047 8.094237,-8.0708047 H 52.76583 c 4.442457,0 8.079497,3.6287248 8.093103,8.0708047 0,13.776379 0,27.554271 0,41.330272 0,4.465513 -3.621922,8.117671 -8.093103,8.117671 H 34.184158 c -4.468158,0 -8.094237,-3.656316 -8.094237,-8.117671 v -5.24863 H 3.6924383 c -0.490961,0 -0.8915905,-0.400252 -0.8915905,-0.891213 V 33.969049 c 0,-7.447182 6.1005365,-13.545828 13.5473402,-13.545828 z m 21.82942,35.057011 c 0.490961,0 0.891213,0.40063 0.891213,0.891591 0,0.490961 -0.400252,0.891591 -0.891213,0.891591 h -8.889828 c -0.490961,0 -0.89159,-0.40063 -0.89159,-0.891591 0,-0.490961 0.400629,-0.891591 0.89159,-0.891591 z M 37.269765,8.7066835 c -0.490961,0 -0.891213,-0.400252 -0.891213,-0.891213 0,-0.4909607 0.400252,-0.8915907 0.891213,-0.8915907 h 0.680315 c 0.490961,0 0.891591,0.40063 0.891591,0.8915907 0,0.490961 -0.40063,0.891213 -0.891591,0.891213 z m 12.50797,-1.7828037 c 0.490961,0 0.891213,0.40063 0.891213,0.8915907 0,0.490961 -0.400252,0.891213 -0.891213,0.891213 h -8.889828 c -0.490961,0 -0.891591,-0.400252 -0.891591,-0.891213 0,-0.4909607 0.40063,-0.8915907 0.891591,-0.8915907 z M 27.935843,53.681177 c 0.444094,3.088252 3.111685,5.419843 6.248315,5.419843 H 52.76583 c 3.129827,0 5.805355,-2.328567 6.247182,-5.419843 z M 59.013012,10.567723 C 58.571185,7.4764468 55.895657,5.1478796 52.76583,5.1478796 H 34.184158 c -3.130961,0 -5.804221,2.3300791 -6.248315,5.4198434 z"
       id="path91"
       style="clip-rule:evenodd;fill:#ffffff;fill-opacity:1;fill-rule:nonzero;stroke:none;stroke-width:0.0377953;image-rendering:optimizeQuality;shape-rendering:geometricPrecision;text-rendering:geometricPrecision" />
  </g>
</svg>
