<?xml version="1.0" encoding="UTF-8" standalone="no"?>
<!-- Created with Inkscape (http://www.inkscape.org/) -->

<svg
   width="64.0px"
   height="64.0px"
   viewBox="0 0 64.0 64.0"
   version="1.1"
   id="SVGRoot"
   sodipodi:docname="money-airship.svg"
   inkscape:version="1.1.2 (b8e25be833, 2022-02-05)"
   xmlns:inkscape="http://www.inkscape.org/namespaces/inkscape"
   xmlns:sodipodi="http://sodipodi.sourceforge.net/DTD/sodipodi-0.dtd"
   xmlns="http://www.w3.org/2000/svg"
   xmlns:svg="http://www.w3.org/2000/svg">
  <sodipodi:namedview
     id="namedview4138"
     pagecolor="#787878"
     bordercolor="#666666"
     borderopacity="1.0"
     inkscape:pageshadow="2"
     inkscape:pageopacity="0"
     inkscape:pagecheckerboard="0"
     inkscape:document-units="px"
     showgrid="false"
     inkscape:zoom="6.0364197"
     inkscape:cx="38.102056"
     inkscape:cy="28.907864"
     inkscape:window-width="1920"
     inkscape:window-height="1002"
     inkscape:window-x="-8"
     inkscape:window-y="-8"
     inkscape:window-maximized="1"
     inkscape:current-layer="layer1"
     inkscape:snap-global="false">
    <inkscape:grid
       type="xygrid"
       id="grid4201" />
  </sodipodi:namedview>
  <defs
     id="defs4133" />
  <g
     inkscape:label="Warstwa 1"
     inkscape:groupmode="layer"
     id="layer1">
    <path
       class="fil5"
       d="m 31.010585,39.370054 c -0.49096,0 -0.891212,-0.40063 -0.891212,-0.89159 0,-0.490961 0.400252,-0.891213 0.891212,-0.891213 h 2.393197 c 0.490961,0 0.891591,0.400252 0.891591,0.891213 0,0.49096 -0.40063,0.89159 -0.891591,0.89159 z m 9.465828,3.712623 -0.818646,0.119055 v 14.088947 c 0,0.828472 -1.032945,1.2 -1.564724,0.583181 -1.130079,-1.123276 -2.319497,-1.998237 -3.575434,-2.412473 -1.208315,-0.397984 -2.518299,-0.367748 -3.944315,0.289134 -2.791182,1.286551 -5.752064,1.286551 -8.541733,-0.0026 -1.819843,-0.840567 -3.500977,-0.604724 -5.218395,0.384 l -3.746646,2.162978 c -0.68863,0.393449 -1.500473,-0.249827 -1.298646,-0.997417 l 1.217764,-4.554331 -1.667905,-3.107906 c -0.231686,-0.432 -0.06992,-0.972095 0.362078,-1.204158 l 4.490458,-2.62337 c 2.21896,-1.303182 4.536567,-1.571906 6.899528,-0.474709 2.280945,1.060158 4.61367,1.086236 6.91767,0.07824 1.827024,-0.798236 3.528945,-0.813354 5.122394,-0.282708 0.970961,0.323905 1.891276,0.850393 2.765103,1.523905 v -3.233764 c -1.881827,0.193134 -3.77726,0.29178 -5.668536,0.29178 -2.760567,0 -5.54041,-0.206741 -8.269607,-0.626646 -0.291024,-0.04384 -0.528,-0.226394 -0.654237,-0.470173 l -3.646866,-6.31445 C 15.036032,35.066306 11.124599,33.170872 8.310362,30.842317 0.00484923,23.965843 3.0330071,15.320173 12.076284,10.418503 18.079308,7.1586604 25.591876,5.8830697 32.206428,5.8830697 c 7.843654,0 14.965419,1.7336695 20.130522,4.5354333 9.040631,4.900158 12.072946,13.549986 3.765922,20.423814 -3.229985,2.67287 -7.293356,4.376304 -11.32838,5.456871 l -3.664252,6.349977 c -0.140221,0.241512 -0.377197,0.392315 -0.633827,0.433512 z m -19.69701,-8.326293 c 3.696378,-0.691275 7.447182,-1.036724 11.245986,-1.036724 3.799181,0 7.663748,0.348094 11.5903,1.040882 1.411276,-0.351118 2.756788,-0.765355 4.022552,-1.235528 0.458079,-1.50463 0.831118,-3.096934 1.106646,-4.755013 -2.863371,0.552567 -6.127749,0.96567 -9.649513,1.2 -1.575686,1.34967 -3.550489,2.247674 -5.722962,2.485029 -0.486803,0.05216 -0.925984,-0.301607 -0.977764,-0.788398 -0.05216,-0.486804 0.301607,-0.925985 0.78841,-0.978142 2.213669,-0.241134 4.185827,-1.308095 5.595591,-2.884158 1.392,-1.55641 2.240882,-3.616252 2.240882,-5.877922 0,-2.304 -0.884409,-4.403906 -2.330079,-5.972788 -1.250646,-1.359118 -2.929512,-2.32441 -4.817764,-2.685355 v 3.467339 c 0,0.490961 -0.40063,0.891213 -0.891591,0.891213 h -2.129764 c -2.378079,0 -2.345197,3.408 0,3.408 h 2.711056 c 4.701355,0 4.734614,6.972474 0,6.972474 h -2.934804 v 3.299905 c 0,0.676147 -0.589606,0.973596 -1.175433,0.851517 -1.546961,-0.41537 -2.956725,-1.175044 -4.138961,-2.190225 -3.52063,-0.234331 -6.780473,-0.648567 -9.643844,-1.2 0.275528,1.651275 0.649701,3.245091 1.109292,4.757658 1.260472,0.467528 2.598803,0.88063 4.001764,1.230236 z m 19.005734,6.629663 2.880001,-4.98519 c -3.584883,-0.596787 -7.134237,-0.898394 -10.639749,-0.898394 -3.479056,0 -6.906332,0.294803 -10.282962,0.887433 l 2.885291,4.996151 c 2.509985,0.366236 5.043025,0.541606 7.57871,0.541606 2.604473,0 5.047182,-0.196157 7.578709,-0.541606 z m 9.941671,-8.721253 c 2.024315,-0.919938 3.793512,-1.996714 5.240315,-3.194068 1.430552,-1.184882 2.540221,-2.48504 3.261355,-3.864568 -1.009134,0.622489 -2.275276,1.190174 -3.759118,1.695119 -1.152001,0.391937 -2.445355,0.75137 -3.86041,1.076409 -0.221103,1.470237 -0.51704,2.903434 -0.882142,4.287108 z m 8.542867,-14.420778 c -1.216252,-2.379591 -3.591685,-4.528631 -6.783119,-6.259276 -0.566551,-0.307276 -1.157669,-0.602079 -1.773354,-0.88063 0.370393,1.395023 0.672,2.84863 0.895748,4.343433 1.426016,0.326551 2.731843,0.691276 3.892158,1.086236 1.490646,0.508725 2.760567,1.082079 3.768567,1.710237 z M 47.617453,10.241621 C 43.241138,8.6164244 37.933925,7.6658731 32.206428,7.6658731 c -5.728253,0 -11.035844,0.9505513 -15.412159,2.5772599 -0.466394,1.522016 -0.846237,3.133607 -1.125922,4.812473 2.871686,-0.554079 6.146647,-0.967181 9.678238,-1.201512 1.289197,-1.095685 2.845606,-1.889764 4.557354,-2.268473 0.478489,-0.105448 0.953197,0.196158 1.058646,0.674646 0.105827,0.478866 -0.196157,0.953197 -0.674646,1.059024 -4.007433,0.887055 -6.894237,4.473449 -6.894237,8.607119 0,2.017512 0.676158,3.87704 1.810394,5.357103 0.938079,1.223055 2.192883,2.19704 3.639686,2.793449 V 27.11608 c 0,-0.490961 0.40063,-0.891591 0.89159,-0.891591 h 3.826017 c 2.370142,0 2.353512,-3.406488 0,-3.406488 h -2.711056 c -4.701355,0 -4.727433,-6.973985 0,-6.973985 h 1.238174 v -3.590552 c 0,-0.551433 0.483023,-0.946394 1.005354,-0.88441 2.268473,0.187843 4.336631,1.09304 5.9743,2.486174 2.983937,0.08504 6.726804,0.631181 9.676726,1.200378 -0.278174,-1.672063 -0.658394,-3.284788 -1.127434,-4.813985 z M 14.701166,11.10411 c -0.615685,0.280063 -1.208315,0.573354 -1.774488,0.88063 -3.1929457,1.730645 -5.5680011,3.881197 -6.7846312,6.261922 1.0355907,-0.64441 2.3451971,-1.232883 3.8880002,-1.751056 1.130079,-0.38022 2.395843,-0.730961 3.774237,-1.046551 l 0.0026,-0.02192 c 0.222232,-1.483844 0.524216,-2.928002 0.894232,-4.323025 z M 6.1843775,25.606158 c 0.7215119,1.379528 1.8311814,2.679686 3.2613547,3.864568 1.4456698,1.197354 3.2133548,2.272619 5.2376698,3.192934 C 14.321323,31.285277 14.025008,29.85208 13.804284,28.376552 12.396032,28.054159 11.105323,27.694726 9.9559685,27.305434 8.4664565,26.800489 7.1965351,26.230159 6.1843775,25.606158 Z M 37.874964,55.314363 v -6.30841 c -1.059024,-1.01896 -2.168315,-1.805102 -3.330142,-2.19326 -1.18337,-0.39496 -2.461607,-0.376819 -3.846804,0.227906 -2.755276,1.205291 -5.642079,1.175433 -8.371276,-0.09184 C 20.4846,46.09572 18.792505,46.334208 17.06715,47.342208 l -3.778394,2.205355 1.420725,2.646803 c 0.111118,0.196158 0.149669,0.435024 0.08655,0.669355 l -0.755906,2.821039 1.890142,-1.091527 c 2.209135,-1.275591 4.505198,-1.544316 6.844726,-0.460725 2.305512,1.066961 4.748221,1.066961 7.054867,0.0026 1.881449,-0.866646 3.621921,-0.90104 5.244473,-0.366237 0.983433,0.323528 1.914331,0.861355 2.80063,1.545449 z m 2.971843,-27.261716 c 2.98167,-0.26041 5.736567,-0.651213 8.164158,-1.147843 0.192,-1.614236 0.29367,-3.284788 0.29367,-4.992 0,-1.709103 -0.10167,-3.378142 -0.29367,-4.992379 -2.432882,-0.496252 -5.193449,-0.887055 -8.181922,-1.147843 1.242331,1.736316 1.973292,3.860788 1.973292,6.153828 0,2.277922 -0.725292,4.395591 -1.955528,6.126237 z M 50.84895,26.494725 c 1.105134,-0.270236 2.125606,-0.563527 3.050079,-0.877606 7.017449,-2.38526 7.046552,-5.004473 0.03137,-7.399182 -0.93241,-0.318236 -1.963843,-0.614173 -3.081449,-0.887433 0.156094,1.495181 0.238488,3.027024 0.238488,4.5823 0,1.555275 -0.08239,3.087118 -0.238488,4.581921 z M 23.584191,15.772582 c -2.988473,0.259276 -5.74904,0.650079 -8.180789,1.146709 -0.192,1.615371 -0.294803,3.285922 -0.294803,4.993513 0,1.707212 0.101669,3.377764 0.293669,4.990488 2.426079,0.495119 5.178332,0.885922 8.160001,1.146709 -1.228724,-1.729512 -1.951748,-3.844158 -1.951748,-6.123591 0,-2.291528 0.732473,-4.416001 1.97367,-6.153828 z M 13.564284,17.32937 c -1.073764,0.261921 -2.066646,0.547276 -2.969197,0.850394 -7.072631,2.379213 -7.1947098,5.026394 -0.06841,7.441513 0.920315,0.312567 1.936252,0.603212 3.037606,0.871937 -0.157606,-1.494804 -0.238488,-3.025135 -0.238488,-4.58041 0,-1.555276 0.08239,-3.090142 0.238489,-4.583434 z m 12.093734,22.040684 c -0.490961,0 -0.891591,-0.40063 -0.891591,-0.89159 0,-0.490961 0.40063,-0.891213 0.891591,-0.891213 h 2.393197 c 0.490961,0 0.891213,0.400252 0.891213,0.891213 0,0.49096 -0.400252,0.89159 -0.891213,0.89159 z m 10.704001,0 c -0.490961,0 -0.891213,-0.40063 -0.891213,-0.89159 0,-0.490961 0.400252,-0.891213 0.891213,-0.891213 h 2.393197 c 0.490961,0 0.891591,0.400252 0.891591,0.891213 0,0.49096 -0.40063,0.89159 -0.891591,0.89159 z"
       id="path68"
       style="clip-rule:evenodd;fill:#ffffff;fill-opacity:1;fill-rule:nonzero;stroke:none;stroke-width:0.0377953;image-rendering:optimizeQuality;shape-rendering:geometricPrecision;text-rendering:geometricPrecision" />
  </g>
</svg>
