<?xml version="1.0" encoding="UTF-8" standalone="no"?>
<!-- Created with Inkscape (http://www.inkscape.org/) -->

<svg
   width="64.0px"
   height="64.0px"
   viewBox="0 0 64.0 64.0"
   version="1.1"
   id="SVGRoot"
   sodipodi:docname="search.svg"
   inkscape:version="1.1.2 (b8e25be833, 2022-02-05)"
   xmlns:inkscape="http://www.inkscape.org/namespaces/inkscape"
   xmlns:sodipodi="http://sodipodi.sourceforge.net/DTD/sodipodi-0.dtd"
   xmlns="http://www.w3.org/2000/svg"
   xmlns:svg="http://www.w3.org/2000/svg">
  <sodipodi:namedview
     id="namedview4138"
     pagecolor="#787878"
     bordercolor="#666666"
     borderopacity="1.0"
     inkscape:pageshadow="2"
     inkscape:pageopacity="0"
     inkscape:pagecheckerboard="0"
     inkscape:document-units="px"
     showgrid="false"
     inkscape:zoom="6.0364197"
     inkscape:cx="38.102056"
     inkscape:cy="28.907864"
     inkscape:window-width="1920"
     inkscape:window-height="1002"
     inkscape:window-x="-8"
     inkscape:window-y="-8"
     inkscape:window-maximized="1"
     inkscape:current-layer="layer1"
     inkscape:snap-global="false">
    <inkscape:grid
       type="xygrid"
       id="grid4201" />
  </sodipodi:namedview>
  <defs
     id="defs4133" />
  <g
     inkscape:label="Warstwa 1"
     inkscape:groupmode="layer"
     id="layer1">
    <path
       class="fil5"
       d="m 4.6014194,53.047798 c -0.4909607,0 -0.8912127,-0.400252 -0.8912127,-0.891175 0,-0.491339 0.400252,-0.891591 0.8912127,-0.891591 H 57.255914 c 1.206803,0 2.190236,-0.986079 2.190236,-2.192882 0,-1.204196 -0.986079,-2.190274 -2.190236,-2.190274 H 4.6014194 c -0.4909607,0 -0.8912127,-0.40063 -0.8912127,-0.891591 V 11.788977 c 0,-0.490961 0.400252,-0.891591 0.8912127,-0.891591 H 45.710967 c 0.490961,0 0.891591,0.40063 0.891591,0.891591 V 42.81397 c 0,0.490998 -0.40063,0.89159 -0.891591,0.89159 H 7.791341 c -0.490961,0 -0.8912127,-0.400592 -0.8912127,-0.89159 0,-0.490923 0.4002517,-0.891175 0.8912127,-0.891175 H 44.819377 V 12.680567 H 5.49301 v 32.418505 h 51.762904 c 2.184567,0 3.97304,1.788095 3.97304,3.973078 0,2.186079 -1.78545,3.975648 -3.97304,3.975648 z m 6.0922216,-3.141922 c -0.490961,0 -0.891591,-0.40063 -0.891591,-0.891591 0,-0.49096 0.40063,-0.891212 0.891591,-0.891212 h 9.434079 c 0.490961,0 0.891591,0.400252 0.891591,0.891212 0,0.490961 -0.40063,0.891591 -0.891591,0.891591 z M 30.04747,29.679751 c -0.02608,0.489449 -0.447119,0.864 -0.936567,0.837921 -0.489827,-0.02608 -0.864001,-0.447118 -0.837922,-0.936945 0.0412,-0.748724 -0.07408,-1.507276 -0.344315,-2.217449 -0.785764,-2.061355 -2.778709,-3.440882 -5.004473,-3.440882 -2.960882,0 -5.354079,2.393197 -5.354079,5.354079 0,2.95937 2.394331,5.354079 5.354079,5.354079 2.024315,0 3.813922,-1.117606 4.761827,-2.884157 0.315213,-0.595276 0.928253,-0.56504 1.411276,-0.211276 l 4.997292,4.999182 c 0.953197,1.009115 0.936945,2.612391 -0.04649,3.595862 -0.999685,0.999685 -2.64567,1.001159 -3.645355,0.0015 l -2.832,-2.832378 c -0.346961,-0.345487 -0.348473,-0.908995 -0.0026,-1.255956 0.345449,-0.347339 0.908977,-0.348472 1.255937,-0.003 l 2.836158,2.830886 c 0.30463,0.304252 0.82167,0.307238 1.127433,0.0011 0.296315,-0.295975 0.307276,-0.786898 0.03175,-1.100977 l -4.202125,-4.200943 c -1.348157,1.793764 -3.442394,2.842961 -5.693103,2.842961 -3.940158,0 -7.136883,-3.196725 -7.136883,-7.136883 0,-3.940158 3.196725,-7.137261 7.136883,-7.137261 2.969197,0 5.617513,1.844788 6.66671,4.590237 0.359433,0.943748 0.512882,1.95326 0.456567,2.9503 z M 7.873735,14.708662 H 42.43714 c 0.490961,0 0.891591,0.40063 0.891591,0.891591 v 4.173355 c 0,0.490961 -0.40063,0.89159 -0.891591,0.89159 H 7.873735 c -0.490961,0 -0.891213,-0.400629 -0.891213,-0.89159 v -4.173355 c 0,-0.490961 0.400252,-0.891591 0.891213,-0.891591 z m 33.672193,1.783182 H 8.765325 v 2.390173 h 32.780603 z"
       id="path66"
       style="clip-rule:evenodd;fill:#ffffff;fill-opacity:1;fill-rule:nonzero;stroke:none;stroke-width:0.0377953;image-rendering:optimizeQuality;shape-rendering:geometricPrecision;text-rendering:geometricPrecision" />
  </g>
</svg>
