<?xml version="1.0" encoding="UTF-8" standalone="no"?>
<!-- Created with Inkscape (http://www.inkscape.org/) -->

<svg
   width="64.0px"
   height="64.0px"
   viewBox="0 0 64.0 64.0"
   version="1.1"
   id="SVGRoot"
   sodipodi:docname="thumbs-up.svg"
   inkscape:version="1.1.2 (b8e25be833, 2022-02-05)"
   xmlns:inkscape="http://www.inkscape.org/namespaces/inkscape"
   xmlns:sodipodi="http://sodipodi.sourceforge.net/DTD/sodipodi-0.dtd"
   xmlns="http://www.w3.org/2000/svg"
   xmlns:svg="http://www.w3.org/2000/svg">
  <sodipodi:namedview
     id="namedview4138"
     pagecolor="#787878"
     bordercolor="#666666"
     borderopacity="1.0"
     inkscape:pageshadow="2"
     inkscape:pageopacity="0"
     inkscape:pagecheckerboard="0"
     inkscape:document-units="px"
     showgrid="true"
     inkscape:zoom="6.0364197"
     inkscape:cx="38.102056"
     inkscape:cy="28.907864"
     inkscape:window-width="1920"
     inkscape:window-height="1002"
     inkscape:window-x="-8"
     inkscape:window-y="-8"
     inkscape:window-maximized="1"
     inkscape:current-layer="layer1"
     inkscape:snap-global="false">
    <inkscape:grid
       type="xygrid"
       id="grid4201" />
  </sodipodi:namedview>
  <defs
     id="defs4133" />
  <g
     inkscape:label="Warstwa 1"
     inkscape:groupmode="layer"
     id="layer1">
    <path
       class="fil5"
       d="m 47.644529,22.203498 c 2.205355,0 4.010079,1.806237 4.010079,4.011591 0,0.947528 -0.332976,1.822488 -0.885921,2.509607 1.525039,0.60359 2.547024,2.083275 2.547024,3.733039 0,1.652788 -1.017827,3.131339 -2.547024,3.734552 0.554079,0.68863 0.885921,1.563591 0.885921,2.508473 0,1.747276 -1.138016,3.287433 -2.790803,3.822236 0.512882,0.673512 0.818646,1.512568 0.818646,2.419276 0,2.208001 -1.804725,4.014237 -4.012725,4.014237 h -1.018961 c -0.308788,1.773355 -1.859906,3.092788 -3.667276,3.092788 h -7.87767 v 6.045355 c 0,0.544252 -0.452788,0.887055 -0.981922,0.887055 l -17.741104,0.0015 c -0.607748,0 -1.105512,-0.436158 -0.953197,-1.087748 l 6.171591,-26.485421 c 0.0026,-1.512567 0.07521,-2.856567 0.289134,-4.211906 0.215433,-1.376881 0.577512,-2.73033 1.15767,-4.236094 L 27.730952,5.6060792 c 0.104315,-0.3771967 0.449764,-0.6527243 0.858709,-0.6527243 h 0.722645 c 3.279119,0 5.761513,2.8951183 5.275844,6.1371971 L 32.900212,22.20501 c 4.915277,0 9.829041,-0.0015 14.744317,-0.0015 z M 31.323015,57.207219 v -5.157922 h -3.42463 c -4.564158,0 -8.297198,-3.733418 -8.297198,-8.297576 v -0.685606 c 0,-0.490961 0.400252,-0.891591 0.891213,-0.891591 0.490961,0 0.891591,0.40063 0.891591,0.891591 v 0.685606 c 0,3.587906 2.926488,6.514394 6.514394,6.514394 4.361197,0 8.723907,0 13.085104,0 0.825449,0 1.563591,-0.533291 1.832315,-1.309606 h -5.136378 c -2.206489,0 -4.011214,-1.804725 -4.011214,-4.011591 0,-1.226079 0.552567,-2.352 1.497449,-3.122646 -0.94337,-0.769512 -1.497449,-1.895433 -1.497449,-3.12 0,-1.2223 0.555213,-2.353512 1.497449,-3.121513 -0.94337,-0.768 -1.497449,-1.896945 -1.497449,-3.12 0,-1.226079 0.552567,-2.352378 1.497449,-3.123024 -0.94337,-0.769512 -1.497449,-1.895433 -1.497449,-3.12 0,-0.824315 0.252095,-1.592315 0.679938,-2.229921 h -2.483528 c -0.490961,0 -0.891591,-0.40063 -0.891591,-0.891591 L 32.827267,10.827119 C 33.156464,8.6550242 31.511992,6.7361582 29.312306,6.7361582 H 29.197031 L 22.704558,23.598144 c -0.534804,1.390867 -0.866646,2.626394 -1.061292,3.871748 -0.195023,1.238552 -0.259275,2.534552 -0.259275,4.036158 l -0.03704,0.253607 -5.930079,25.450207 z M 30.793503,41.941327 c 0,0.490961 -0.400629,0.891591 -0.89159,0.891591 -0.490961,0 -0.891213,-0.40063 -0.891213,-0.891591 v -1.031055 c 0,-1.554142 -1.261984,-2.815748 -2.815748,-2.815748 h -1.147843 c -0.490961,0 -0.891591,-0.40063 -0.891591,-0.891591 0,-0.490961 0.40063,-0.891213 0.891591,-0.891213 h 1.147843 c 1.555276,0 2.815748,-1.260472 2.815748,-2.816882 v -1.031433 c 0,-0.490961 0.400252,-0.891591 0.891213,-0.891591 0.490961,0 0.89159,0.40063 0.89159,0.891591 v 1.031433 c 0,1.469858 -0.711685,2.845607 -1.885606,3.706961 1.178079,0.865134 1.885606,2.240882 1.885606,3.708473 z m 12.691655,-17.955025 -0.04535,0.0015 h -5.819339 c -1.191685,0 -2.169449,1.056 -2.169449,2.227275 0,1.252158 1.010646,2.231433 2.254488,2.231433 h 9.939025 c 0.591118,0 1.155024,-0.23622 1.57304,-0.654236 0.403275,-0.403276 0.654236,-0.961512 0.654236,-1.574551 0,-1.227591 -0.998551,-2.231433 -2.227276,-2.231433 z m 2.184568,18.727183 h -7.966867 c -1.242331,0 -2.251843,0.981921 -2.251843,2.228787 0,1.227591 0.999685,2.231434 2.22841,2.231434 2.663433,0 5.326866,0 7.9903,0 1.22759,0 2.229921,-1.000063 2.229921,-2.228788 0,-0.615685 -0.25096,-1.173921 -0.654236,-1.577197 -0.416882,-0.416882 -0.984567,-0.654236 -1.575685,-0.654236 z m 1.974803,-6.242647 H 37.70437 c -1.243842,0 -2.253354,0.981922 -2.253354,2.229922 0,1.256315 1.013291,2.229921 2.262803,2.229921 3.310867,0 6.620221,0 9.93071,0 1.226079,0 2.227276,-1.00233 2.227276,-2.228409 0,-1.227591 -0.998551,-2.231434 -2.227276,-2.231434 z M 35.451016,32.457735 c 0,1.251024 1.009512,2.2303 2.256,2.2303 3.864945,0 7.732158,0 11.597104,0 1.22759,0 2.22841,-1.000063 2.22841,-2.227276 0,-1.227591 -0.999686,-2.231433 -2.22841,-2.231433 -3.849827,0 -7.700788,0 -11.550616,0 -1.272567,0 -2.302488,0.939212 -2.302488,2.228409 z"
       id="path21"
       style="clip-rule:evenodd;fill:#ffffff;fill-opacity:1;fill-rule:nonzero;stroke-width:0.0377953;image-rendering:optimizeQuality;shape-rendering:geometricPrecision;text-rendering:geometricPrecision" />
  </g>
</svg>
