<svg xmlns="http://www.w3.org/2000/svg" width="64" height="64"><path d="M17.388 39.582c0 .491-.4.892-.891.892s-.892-.401-.892-.892v-4.254H5.071v4.253c0 .491-.4.891-.891.891s-.892-.4-.892-.891v-5.145c0-.491.401-.891.892-.891h12.317c.491 0 .891.4.891.891zm-.238 6.089l7.75-1.052v-.06c0-3.891 3.159-7.05 7.05-7.05a7.02 7.02 0 0 1 4.192 1.385L48.085 26.42c-.983-1.211-1.574-2.755-1.574-4.434 0-3.891 3.158-7.05 7.049-7.05a7.06 7.06 0 0 1 7.049 7.05c0 3.891-3.159 7.049-7.049 7.049a7.02 7.02 0 0 1-4.193-1.385L37.425 40.123c.982 1.212 1.573 2.759 1.573 4.436 0 3.891-3.159 7.049-7.049 7.049-3.202 0-5.988-2.164-6.811-5.228l-7.75 1.052v.059c0 3.891-3.159 7.049-7.049 7.049a7.06 7.06 0 0 1-7.049-7.049c0-3.891 3.159-7.05 7.049-7.05 3.202 0 5.989 2.166 6.811 5.229zM53.56 16.72c-2.91 0-5.266 2.356-5.266 5.266s2.355 5.266 5.266 5.266 5.266-2.356 5.266-5.266a5.26 5.26 0 0 0-5.266-5.266zM31.949 39.293c-2.91 0-5.266 2.356-5.266 5.266s2.355 5.266 5.266 5.266 5.266-2.356 5.266-5.266a5.26 5.26 0 0 0-5.266-5.266zm-21.61 2.932c-2.91 0-5.266 2.356-5.266 5.266s2.355 5.266 5.266 5.266 5.266-2.356 5.266-5.266a5.26 5.26 0 0 0-5.266-5.266zm50.271-28.119c0 .491-.4.892-.892.892s-.891-.401-.891-.892V5.641H48.292v8.466c0 .491-.4.892-.891.892s-.892-.401-.892-.892V4.75c0-.491.401-.892.892-.892h12.317c.491 0 .892.401.892.892zm-14.1 19.843c0-.491.401-.892.892-.892s.891.401.891.892v25.646h10.534V29.867c0-.491.4-.892.891-.892s.892.401.892.892v30.619c0 .491-.4.892-.892.892H47.401c-.491 0-.892-.401-.892-.892zM39 33.505c0 .491-.401.891-.892.891s-.892-.4-.892-.891V20.486H26.682v16.193c0 .491-.401.892-.892.892s-.892-.401-.892-.892V19.594c0-.491.401-.891.892-.891h12.317c.491 0 .892.4.892.891zm-14.1 18.934c0-.491.401-.892.892-.892s.892.401.892.892v7.156h10.534v-7.158c0-.491.401-.892.892-.892s.892.401.892.892v8.049c0 .491-.401.891-.892.891H25.791c-.491 0-.892-.4-.892-.891zM3.288 55.341c0-.491.401-.892.892-.892s.891.401.891.892v4.253h10.534V55.34c0-.491.401-.891.892-.891s.891.4.891.891v5.146c0 .491-.4.892-.891.892H4.18c-.491 0-.892-.401-.892-.892z" fill="#fff" image-rendering="optimizeQuality" shape-rendering="geometricPrecision" text-rendering="geometricPrecision"/></svg>