<svg xmlns="http://www.w3.org/2000/svg" width="64" height="64"><path d="M37.651 40.03c-.491 0-.892-.401-.892-.892s.401-.891.892-.891h19.118c.491 0 .892.4.892.891s-.401.892-.892.892zM14.199 28.887h42.459v-6.022a.6.6 0 0 0-.605-.605H11.508c-.336 0-.605.269-.605.605v26.968c0 .335.27.605.605.605h.303V31.275c0-1.313 1.075-2.388 2.388-2.388zm44.242 0h.303a2.4 2.4 0 0 1 2.388 2.388v26.968a2.4 2.4 0 0 1-2.388 2.388H14.199a2.4 2.4 0 0 1-2.388-2.388v-6.022h-.303a2.4 2.4 0 0 1-2.388-2.388V43.81h-.305c-1.311 0-2.388-1.075-2.388-2.388V35.4h-.303a2.4 2.4 0 0 1-2.388-2.388V6.044c0-1.312 1.075-2.388 2.388-2.388H50.67a2.4 2.4 0 0 1 2.388 2.388v6.022h.303a2.4 2.4 0 0 1 2.388 2.388v6.023h.305a2.4 2.4 0 0 1 2.388 2.388zm.303 1.783H14.199a.6.6 0 0 0-.605.605v26.968c0 .335.27.605.605.605h44.545c.336 0 .605-.269.605-.605V31.275c0-.336-.269-.605-.605-.605zm-42.326 1.794h17.227c.491 0 .891.4.891.891v22.388c0 .491-.4.892-.891.892H16.418c-.491 0-.892-.401-.892-.892V33.355c0-.491.401-.891.892-.891zm16.335 1.783H17.309v18.228l4.73-2.902v-1.161c-2.245-1.133-3.671-3.426-3.671-5.955a6.67 6.67 0 0 1 6.663-6.663 6.67 6.67 0 0 1 2.993 12.616v1.163l4.73 2.902zM17.309 54.559v.292h15.444v-.292l-6.023-3.696c-.291-.148-.49-.449-.49-.796V49.01c-.392.071-.797.11-1.209.11a6.6 6.6 0 0 1-1.208-.11v1.058c0 .347-.199.647-.489.796zm7.721-16.983a4.88 4.88 0 0 0 0 9.761c2.628 0 4.88-2.112 4.88-4.881a4.87 4.87 0 0 0-4.88-4.88zm12.62-1.292c-.491 0-.892-.401-.892-.892s.401-.891.892-.891h19.118c.491 0 .892.4.892.891s-.401.892-.892.892zm0 18.73c-.491 0-.892-.4-.892-.891s.401-.892.892-.892h19.118c.491 0 .892.401.892.892s-.401.891-.892.891zM9.12 42.027V22.865c0-1.313 1.075-2.388 2.388-2.388h42.457v-6.023a.6.6 0 0 0-.605-.605H8.815a.6.6 0 0 0-.605.605v26.968c0 .334.27.605.605.605zm-2.692-8.41V14.454c0-1.312 1.075-2.388 2.388-2.388h42.459V6.044a.6.6 0 0 0-.605-.605H6.125a.6.6 0 0 0-.605.605v26.968c0 .334.27.605.605.605zm31.223 17.652c-.491 0-.892-.401-.892-.892s.401-.892.892-.892h19.118c.491 0 .892.401.892.892s-.401.892-.892.892zm0-3.747c-.491 0-.892-.4-.892-.891s.401-.892.892-.892h19.118c.491 0 .892.401.892.892s-.401.891-.892.891zm0-3.746c-.491 0-.892-.4-.892-.891s.401-.892.892-.892h19.118c.491 0 .892.401.892.892s-.401.891-.892.891z" fill="#fff" image-rendering="optimizeQuality" shape-rendering="geometricPrecision" text-rendering="geometricPrecision"/></svg>