<svg xmlns="http://www.w3.org/2000/svg" width="64" height="64"><path d="M37.485 14.171c-.491 0-.892-.4-.892-.891s.401-.892.892-.892h4.535c.491 0 .891.401.891.892s-.4.891-.891.891zm17.898 15.658c0-.491.4-.892.891-.892s.892.401.892.892v21.048c0 .491-.401.891-.892.891H31.475v3.356h6.93c.491 0 .891.401.891.892v3.681c0 .491-.4.892-.891.892H13.865c-.491 0-.892-.401-.892-.892v-3.681c0-.491.401-.892.892-.892h2.482v-3.356H5.198c-.491 0-.891-.4-.891-.891V14.064c0-.491.4-.891.891-.891h20.383V8.478c0-2.86 2.348-5.209 5.207-5.209h25.83c2.86 0 5.207 2.349 5.207 5.209v13.114c0 2.864-2.345 5.206-5.207 5.206h-25.83a5.23 5.23 0 0 1-5.207-5.206v-2.648H6.09v22.693h49.293zM27.364 15.791h32.679V8.478c0-1.886-1.538-3.426-3.425-3.426h-25.83c-1.886 0-3.425 1.539-3.425 3.426v7.313zm-1.783-.835H6.09v2.205h19.491v-2.205zM6.09 43.42v6.565h49.293V43.42zm23.603 8.349H18.13v3.354h11.563zm7.821 5.138H14.756v1.898h22.758zm-6.778-12.709c1.369 0 2.488 1.121 2.488 2.488s-1.119 2.488-2.488 2.488a2.49 2.49 0 0 1-2.488-2.488c0-1.369 1.119-2.488 2.488-2.488zm0 1.783a.7.7 0 0 0-.705.705c0 .391.314.705.705.705a.7.7 0 0 0 .705-.705c0-.395-.31-.705-.705-.705zm-3.372-28.407v1.754h32.679v-1.754zm0 3.537v.482c0 1.884 1.54 3.423 3.425 3.423h25.83c1.884 0 3.425-1.538 3.425-3.423v-.482zm2.229-6.94c-.491 0-.892-.4-.892-.891s.401-.892.892-.892h4.535c.491 0 .892.401.892.892s-.401.891-.892.891zm23.678 0c-.491 0-.892-.4-.892-.891s.401-.892.892-.892h4.535c.491 0 .891.401.891.892s-.4.891-.891.891zm-7.893 0c-.491 0-.892-.4-.892-.891s.401-.892.892-.892h4.535c.491 0 .891.401.891.892s-.4.891-.891.891z" fill="#fff" image-rendering="optimizeQuality" shape-rendering="geometricPrecision" text-rendering="geometricPrecision"/></svg>