<svg xmlns="http://www.w3.org/2000/svg" width="64" height="64"><path d="M26.858 3.237c0-.491.401-.891.892-.891s.891.4.891.891v2.949h3.49V3.237c0-.491.401-.891.892-.891s.891.4.891.891v2.949h3.489V3.237c0-.491.4-.891.891-.891s.892.4.892.891v2.949h3.489V3.237c0-.491.401-.891.892-.891s.891.4.891.891v2.949h3.49V3.237c0-.491.401-.891.892-.891s.892.4.892.891v2.949h3.489V3.237c0-.491.4-.891.892-.891s.891.4.891.891v2.949h3.972c.491 0 .891.4.891.891v52.456c0 .491-.4.891-.891.891H17.616c-.491 0-.892-.4-.892-.891V47.678l-7.258-1.865a.89.89 0 0 1-.64-1.079l1.835-7.14a.89.89 0 0 1 1.079-.64l4.984 1.281v-9.562L2.768 20.007a.89.89 0 0 1-.285-1.226l3.888-6.262a.89.89 0 0 1 1.226-.285l9.127 5.667V7.077c0-.491.401-.891.892-.891h3.97V3.237c0-.491.401-.891.892-.891s.892.4.892.891v2.949h3.489zm1.783 4.732v2.946c0 .491-.4.892-.891.892s-.892-.401-.892-.892V7.969h-3.489v2.946c0 .491-.401.892-.892.892s-.892-.401-.892-.892V7.969h-3.079v11.039l15.53 9.643c.209.129.344.332.396.554l1.186 5.074a.89.89 0 0 1-.665 1.068l-5.074 1.189c-.239.055-.479.008-.672-.111l-8.058-5.003a.89.89 0 1 1 .941-1.511l7.743 4.808 3.849-.903-.901-3.848-25.37-15.753-2.949 4.749 13.668 8.487a.89.89 0 0 1 .374 1.035v10.205l23.375 6.007c.237.06.428.213.544.409l2.654 4.486a.89.89 0 0 1-.313 1.218l-4.487 2.652c-.224.133-.483.155-.715.084L21.6 48.93a.89.89 0 0 1-.641-1.079.89.89 0 0 1 1.079-.641l17.652 4.537 3.407-2.013-2.013-3.406-28.924-7.434-1.394 5.42 6.922 1.779c.463.129.819.353.819.898v11.65h39.576V7.969h-3.08v2.946c0 .491-.4.892-.891.892s-.892-.401-.892-.892V7.969h-3.489v2.946c0 .491-.401.892-.892.892s-.892-.401-.892-.892V7.969h-3.49v2.946c0 .491-.4.892-.891.892s-.892-.401-.892-.892V7.969h-3.489v2.946c0 .491-.401.892-.892.892s-.891-.401-.891-.892V7.969h-3.489v2.946c0 .491-.4.892-.891.892s-.892-.401-.892-.892V7.969zm1.233 22.434a.89.89 0 1 1-.941 1.511L7.364 18.523a.89.89 0 1 1 .941-1.511zm8.562 17.216a.89.89 0 0 1 .641 1.079.89.89 0 0 1-1.079.64l-24.589-6.32a.89.89 0 0 1-.641-1.079.89.89 0 0 1 1.079-.641zM24.773 17.561c-.491 0-.891-.401-.891-.892s.4-.892.891-.892H54.62c.491 0 .891.401.891.892s-.4.892-.891.892zm7.712 7.258c-.491 0-.891-.401-.891-.892s.4-.892.891-.892H54.62c.491 0 .891.401.891.892s-.4.892-.891.892zm6.623 7.257c-.491 0-.892-.4-.892-.891s.401-.892.892-.892H54.62c.491 0 .891.401.891.892s-.4.891-.891.891zm-14.335 7.257c-.491 0-.891-.401-.891-.892s.4-.892.891-.892H54.62c.491 0 .891.401.891.892s-.4.892-.891.892zM45.5 46.59c-.491 0-.891-.4-.891-.891s.4-.892.891-.892h9.12c.491 0 .891.401.891.892s-.4.891-.891.891zm-15.185 5.475c.491 0 .891.4.891.891s-.4.892-.891.892h-5.542c-.491 0-.891-.4-.891-.892s.4-.891.891-.891h5.542z" fill="#fff" image-rendering="optimizeQuality" shape-rendering="geometricPrecision" text-rendering="geometricPrecision"/></svg>