<?xml version="1.0" encoding="UTF-8" standalone="no"?>
<!-- Created with Inkscape (http://www.inkscape.org/) -->

<svg
   width="64.0px"
   height="64.0px"
   viewBox="0 0 64.0 64.0"
   version="1.1"
   id="SVGRoot"
   sodipodi:docname="edit.svg"
   inkscape:version="1.1.2 (b8e25be833, 2022-02-05)"
   xmlns:inkscape="http://www.inkscape.org/namespaces/inkscape"
   xmlns:sodipodi="http://sodipodi.sourceforge.net/DTD/sodipodi-0.dtd"
   xmlns="http://www.w3.org/2000/svg"
   xmlns:svg="http://www.w3.org/2000/svg">
  <sodipodi:namedview
     id="namedview4138"
     pagecolor="#787878"
     bordercolor="#666666"
     borderopacity="1.0"
     inkscape:pageshadow="2"
     inkscape:pageopacity="0"
     inkscape:pagecheckerboard="0"
     inkscape:document-units="px"
     showgrid="false"
     inkscape:zoom="6.0364197"
     inkscape:cx="38.102056"
     inkscape:cy="28.907864"
     inkscape:window-width="1920"
     inkscape:window-height="1002"
     inkscape:window-x="-8"
     inkscape:window-y="-8"
     inkscape:window-maximized="1"
     inkscape:current-layer="layer1"
     inkscape:snap-global="false">
    <inkscape:grid
       type="xygrid"
       id="grid4201" />
  </sodipodi:namedview>
  <defs
     id="defs4133" />
  <g
     inkscape:label="Warstwa 1"
     inkscape:groupmode="layer"
     id="layer1">
    <path
       class="fil5"
       d="m 26.857762,3.2369223 c 0,-0.4909607 0.40063,-0.8912127 0.89159,-0.8912127 0.490961,0 0.891213,0.400252 0.891213,0.8912127 v 2.9487878 h 3.490394 V 3.2369223 c 0,-0.4909607 0.40063,-0.8912127 0.891591,-0.8912127 0.49096,0 0.891213,0.400252 0.891213,0.8912127 v 2.9487878 h 3.48926 V 3.2369223 c 0,-0.4909607 0.400252,-0.8912127 0.891212,-0.8912127 0.490961,0 0.891591,0.400252 0.891591,0.8912127 v 2.9487878 h 3.488882 V 3.2369223 c 0,-0.4909607 0.40063,-0.8912127 0.891591,-0.8912127 0.490961,0 0.891213,0.400252 0.891213,0.8912127 v 2.9487878 h 3.490394 V 3.2369223 c 0,-0.4909607 0.40063,-0.8912127 0.891591,-0.8912127 0.49096,0 0.89159,0.400252 0.89159,0.8912127 v 2.9487878 h 3.488882 V 3.2369223 c 0,-0.4909607 0.400253,-0.8912127 0.891591,-0.8912127 0.490961,0 0.891213,0.400252 0.891213,0.8912127 v 2.9487878 h 3.971906 c 0.490961,0 0.891213,0.400252 0.891213,0.8912127 V 59.532614 c 0,0.490961 -0.400252,0.891213 -0.891213,0.891213 H 17.615682 c -0.490961,0 -0.891591,-0.400252 -0.891591,-0.891213 V 47.677746 L 9.4662636,45.812549 C 8.9919328,45.691982 8.7050667,45.207825 8.8260116,44.733116 L 10.660972,37.59321 c 0.120567,-0.474331 0.604725,-0.761197 1.079056,-0.640252 l 4.984063,1.280882 V 28.672012 L 2.7681841,20.007066 C 2.3513021,19.74779 2.2235541,19.197869 2.4828297,18.780987 l 3.8880005,-6.261922 c 0.2592756,-0.416882 0.8091969,-0.54463 1.2260789,-0.285354 l 9.1271819,5.667024 V 7.0769228 c 0,-0.4909607 0.40063,-0.8912127 0.891591,-0.8912127 h 3.970016 V 3.2369223 c 0,-0.4909607 0.40063,-0.8912127 0.891591,-0.8912127 0.49096,0 0.89159,0.400252 0.89159,0.8912127 v 2.9487878 h 3.488883 z m 1.782803,4.7315911 v 2.9457636 c 0,0.490961 -0.400252,0.891591 -0.891213,0.891591 -0.49096,0 -0.89159,-0.40063 -0.89159,-0.891591 V 7.9685134 h -3.488883 v 2.9457636 c 0,0.490961 -0.40063,0.891591 -0.89159,0.891591 -0.490961,0 -0.891591,-0.40063 -0.891591,-0.891591 V 7.9685134 H 18.506895 V 19.007381 l 15.530458,9.64271 c 0.20863,0.128881 0.344315,0.331842 0.396473,0.554078 l 1.186015,5.074395 c 0.111119,0.478488 -0.18633,0.957354 -0.664819,1.068472 l -5.074394,1.18904 c -0.238866,0.0548 -0.478866,0.0079 -0.672,-0.111118 l -8.057576,-5.00334 C 20.73417,31.162721 20.6068,30.612799 20.865698,30.19554 c 0.259276,-0.416882 0.809197,-0.544252 1.226079,-0.284977 l 7.743497,4.808316 3.849449,-0.902552 -0.901039,-3.848315 C 24.326234,24.716736 15.871052,19.466971 7.413224,14.215317 l -2.9487878,4.749355 13.6682848,8.48693 c 0.354898,0.220725 0.50041,0.653859 0.374174,1.035213 v 10.205103 l 23.375246,6.006804 c 0.237355,0.06047 0.427843,0.212788 0.544252,0.408945 l 2.653985,4.485922 c 0.249449,0.422551 0.109606,0.968315 -0.312567,1.217764 l -4.487434,2.652473 c -0.223748,0.133039 -0.483023,0.15496 -0.714708,0.08353 L 21.599682,48.929904 c -0.474708,-0.120945 -0.761197,-0.604725 -0.64063,-1.079433 0.120945,-0.474331 0.604725,-0.761197 1.079434,-0.64063 l 17.651907,4.536945 3.406867,-2.013354 -2.013355,-3.406489 -28.923972,-7.433576 -1.393512,5.420221 6.921828,1.778646 c 0.46337,0.128882 0.818646,0.35263 0.818646,0.898394 V 58.641023 H 58.083088 V 7.9685134 h -3.080315 v 2.9457636 c 0,0.490961 -0.400252,0.891591 -0.891213,0.891591 -0.491338,0 -0.891591,-0.40063 -0.891591,-0.891591 V 7.9685134 h -3.488882 v 2.9457636 c 0,0.490961 -0.40063,0.891591 -0.89159,0.891591 -0.490961,0 -0.891591,-0.40063 -0.891591,-0.891591 V 7.9685134 h -3.490394 v 2.9457636 c 0,0.490961 -0.400252,0.891591 -0.891213,0.891591 -0.490961,0 -0.891591,-0.40063 -0.891591,-0.891591 V 7.9685134 h -3.488882 v 2.9457636 c 0,0.490961 -0.40063,0.891591 -0.891591,0.891591 -0.49096,0 -0.891212,-0.40063 -0.891212,-0.891591 V 7.9685134 h -3.48926 v 2.9457636 c 0,0.490961 -0.400253,0.891591 -0.891213,0.891591 -0.490961,0 -0.891591,-0.40063 -0.891591,-0.891591 V 7.9685134 Z m 1.232882,22.4341446 c 0.41726,0.259275 0.54463,0.809197 0.285354,1.226079 -0.259275,0.416881 -0.809196,0.54463 -1.226078,0.285354 L 7.3637122,18.523223 C 6.9468303,18.263948 6.8194602,17.714026 7.0787358,17.297144 7.3376335,16.880262 7.8879327,16.752514 8.3048147,17.01179 Z m 8.562143,17.216128 c 0.474709,0.120567 0.761197,0.604724 0.64063,1.079433 -0.120945,0.474331 -0.605103,0.760819 -1.079433,0.640252 L 13.407933,43.018722 c -0.474708,-0.120567 -0.761197,-0.604724 -0.64063,-1.079055 0.120945,-0.474709 0.605103,-0.761197 1.079434,-0.64063 z M 24.772974,17.560577 c -0.490961,0 -0.891213,-0.40063 -0.891213,-0.89159 0,-0.490961 0.400252,-0.891591 0.891213,-0.891591 h 29.847311 c 0.49096,0 0.891212,0.40063 0.891212,0.891591 0,0.49096 -0.400252,0.89159 -0.891212,0.89159 z m 7.711749,7.257828 c -0.490961,0 -0.891213,-0.40063 -0.891213,-0.891591 0,-0.49096 0.400252,-0.89159 0.891213,-0.89159 h 22.135562 c 0.49096,0 0.891212,0.40063 0.891212,0.89159 0,0.490961 -0.400252,0.891591 -0.891212,0.891591 z m 6.622867,7.25745 c -0.490961,0 -0.891591,-0.400252 -0.891591,-0.891213 0,-0.490961 0.40063,-0.891591 0.891591,-0.891591 h 15.512695 c 0.49096,0 0.891212,0.40063 0.891212,0.891591 0,0.490961 -0.400252,0.891213 -0.891212,0.891213 z m -14.334616,7.256693 c -0.490961,0 -0.891213,-0.400629 -0.891213,-0.89159 0,-0.490961 0.400252,-0.891591 0.891213,-0.891591 h 29.847311 c 0.49096,0 0.891212,0.40063 0.891212,0.891591 0,0.490961 -0.400252,0.89159 -0.891212,0.89159 z m 20.726932,7.25745 c -0.490961,0 -0.891213,-0.400252 -0.891213,-0.891213 0,-0.49096 0.400252,-0.89159 0.891213,-0.89159 h 9.120379 c 0.49096,0 0.891212,0.40063 0.891212,0.89159 0,0.490961 -0.400252,0.891213 -0.891212,0.891213 z m -15.184632,5.475024 c 0.490961,0 0.891213,0.400252 0.891213,0.891213 0,0.491339 -0.400252,0.891591 -0.891213,0.891591 -1.847433,0 -3.694867,0 -5.5423,0 -0.490961,0 -0.891213,-0.400252 -0.891213,-0.891591 0,-0.490961 0.400252,-0.891213 0.891213,-0.891213 1.847433,0 3.694867,0 5.5423,0 z"
       id="path51"
       style="clip-rule:evenodd;fill:#ffffff;fill-opacity:1;fill-rule:nonzero;stroke:none;stroke-width:0.0377953;image-rendering:optimizeQuality;shape-rendering:geometricPrecision;text-rendering:geometricPrecision" />
  </g>
</svg>
