<svg xmlns="http://www.w3.org/2000/svg" width="64" height="64"><path d="M45.102 35.779a.89.89 0 0 1-.584 1.114.89.89 0 0 1-1.114-.584c-.642-2.057-1.729-3.925-3.186-5.512a.89.89 0 0 1-.088-1.092l1.732-3.001-6.418-3.705-1.76 3.044a.89.89 0 0 1-1.01.41c-2.084-.455-4.242-.447-6.325.011-.387.085-.772-.094-.96-.421l-1.76-3.044-6.418 3.705 1.76 3.049a.89.89 0 0 1-.117 1.042c-1.455 1.591-2.541 3.453-3.184 5.513a.89.89 0 0 1-.849.624l-3.51.003v7.406h3.51c.415 0 .766.288.864.675a14.56 14.56 0 0 0 3.171 5.463.89.89 0 0 1 .088 1.092l-1.732 2.999 6.421 3.707 1.755-3.04a.89.89 0 0 1 .964-.424c2.087.462 4.28.468 6.368-.002a.89.89 0 0 1 .97.429l1.753 3.035 6.418-3.706-1.76-3.047c-.196-.343-.137-.765.117-1.042 1.455-1.586 2.544-3.458 3.186-5.512a.89.89 0 0 1 .849-.624l3.51-.003V15.518c0-.491.401-.891.892-.891h5.703l-8.629-9.532-8.21 9.532h4.885c.491 0 .892.4.892.891v6.198c0 .491-.401.892-.892.892s-.891-.401-.891-.892V16.41h-5.934c-.746-.01-1.177-.89-.672-1.473L45.114 3.096a.89.89 0 0 1 1.254.063l10.599 11.707c.587.546.207 1.544-.606 1.544h-6.815v28.822c0 .491-.4.892-.891.892h-3.762c-.662 1.853-1.657 3.57-2.932 5.068l1.883 3.259a.89.89 0 0 1-.324 1.215l-7.956 4.594a.89.89 0 0 1-1.215-.324l-1.883-3.26c-1.939.351-3.92.355-5.859-.002l-1.88 3.261a.89.89 0 0 1-1.215.324l-7.957-4.594a.89.89 0 0 1-.324-1.211l1.883-3.262a16.34 16.34 0 0 1-2.93-5.068H10.42c-.491 0-.891-.401-.891-.892v-9.189c0-.491.4-.891.891-.891h3.762c.666-1.863 1.652-3.56 2.932-5.069L15.23 26.82a.89.89 0 0 1 .328-1.211l7.953-4.593a.89.89 0 0 1 1.215.324l1.883 3.261c1.931-.354 3.924-.355 5.855-.002l1.884-3.26a.89.89 0 0 1 1.211-.324l7.956 4.593a.89.89 0 0 1 .328 1.211l-1.883 3.262c1.421 1.672 2.488 3.6 3.142 5.696zm-15.565-7.621c6.89 0 12.48 5.59 12.48 12.48a12.49 12.49 0 0 1-12.48 12.48 12.49 12.49 0 0 1-12.48-12.48c0-6.89 5.59-12.48 12.48-12.48zm0 1.783A10.7 10.7 0 0 0 18.84 40.638a10.7 10.7 0 0 0 10.697 10.698 10.7 10.7 0 0 0 10.697-10.698A10.7 10.7 0 0 0 29.537 29.94zm0 2.692c4.416 0 8.005 3.591 8.005 8.005a8.01 8.01 0 0 1-8.005 8.005c-4.416 0-8.005-3.591-8.005-8.005s3.589-8.005 8.005-8.005zm0 1.783a6.22 6.22 0 0 0 0 12.445c3.437 0 6.222-2.786 6.222-6.223a6.22 6.22 0 0 0-6.222-6.222z" fill="#fff" image-rendering="optimizeQuality" shape-rendering="geometricPrecision" text-rendering="geometricPrecision"/></svg>