<svg xmlns="http://www.w3.org/2000/svg" width="64" height="64"><path d="M34.091 45.735v-7.049c0-7.447 6.102-13.546 13.547-13.546h7.671v-2.934H16.348c-6.471 0-11.764 5.294-11.764 11.763v11.766h29.507zm-2.252-4.209c.491 0 .891.4.891.892s-.4.891-.891.891H6.983c-.491 0-.891-.4-.891-.891s.4-.892.891-.892zm0-4.401c.491 0 .891.4.891.891s-.4.892-.891.892H6.983c-.491 0-.891-.401-.891-.892s.4-.891.891-.891zm.112-4.22c.491 0 .892.401.892.892s-.401.891-.892.891H7.095c-.491 0-.892-.4-.892-.891s.401-.892.892-.892zm2.178-4.126c.491 0 .891.4.891.891s-.4.892-.891.892H9.273c-.491 0-.892-.401-.892-.892s.401-.891.892-.891zm2.359-3.81c.491 0 .892.401.892.892s-.401.891-.892.891H11.632c-.491 0-.891-.4-.891-.891s.4-.892.891-.892zm-8.615 22.549v4.38h31.203V12.351H27.873v8.072h10.645H56.2c.491 0 .892.4.892.892v4.716c0 .491-.4.892-.892.892h-8.562c-6.466 0-11.765 5.297-11.765 11.763v7.941c0 .491-.4.891-.891.891zM26.09 20.423v-8.987c.014-4.441 3.652-8.071 8.094-8.071h18.582a8.12 8.12 0 0 1 8.093 8.071v41.33c0 4.466-3.622 8.118-8.093 8.118H34.184c-4.468 0-8.094-3.656-8.094-8.118v-5.249H3.692c-.491 0-.892-.4-.892-.891V33.969c0-7.447 6.101-13.546 13.547-13.546zM47.919 55.48c.491 0 .891.401.891.892s-.4.892-.891.892h-8.89c-.491 0-.892-.401-.892-.892s.401-.892.892-.892zM37.27 8.707c-.491 0-.891-.4-.891-.891s.4-.892.891-.892h.68c.491 0 .892.401.892.892s-.401.891-.892.891zm12.508-1.783c.491 0 .891.401.891.892s-.4.891-.891.891h-8.89c-.491 0-.892-.4-.892-.891s.401-.892.892-.892zM27.936 53.681c.444 3.088 3.112 5.42 6.248 5.42h18.582c3.13 0 5.805-2.329 6.247-5.42zm31.077-43.113c-.442-3.091-3.117-5.42-6.247-5.42H34.184a6.34 6.34 0 0 0-6.248 5.42z" fill="#fff" image-rendering="optimizeQuality" shape-rendering="geometricPrecision" text-rendering="geometricPrecision"/></svg>