<svg xmlns="http://www.w3.org/2000/svg" width="64" height="64"><path d="M28.731 45.216c-5.669-1.522-9.621-6.689-9.621-12.556a13.01 13.01 0 0 1 10.175-12.689.89.89 0 0 1 1.059.675.89.89 0 0 1-.675 1.059 11.22 11.22 0 0 0-1.532 21.452v-4.02c0-.491.401-.892.892-.892h4.774c1.429 0 2.422-.926 2.422-2.34s-.991-2.355-2.422-2.355h-3.383c-2.431 0-4.205-1.743-4.205-4.138 0-2.4 1.77-4.121 4.205-4.121h1.765V20.59c0-.491.401-.892.892-.892l.023.002h.022.001l.022.001.022.002h.002l.022.003c6.731.551 11.924 6.204 11.924 12.955a13.02 13.02 0 0 1-11.57 12.921.89.89 0 0 1-.978-.789.89.89 0 0 1 .789-.978A11.22 11.22 0 0 0 43.33 32.66c0-5.475-3.965-10.171-9.363-11.068v4.592c0 .491-.401.892-.892.892h-2.657c-1.428 0-2.422.926-2.422 2.338s.994 2.355 2.422 2.355h3.383c2.428 0 4.205 1.747 4.205 4.137 0 2.399-1.772 4.123-4.205 4.123H29.92v4.338c0 .687-.588.968-1.189.849zM9.403 7.12c1.409 0 2.7.51 3.698 1.355 2.068-.869 4.548-1.109 7.269-.773 2.966.366 6.247 1.423 9.617 3.097a.89.89 0 0 1 .403 1.191.89.89 0 0 1-1.19.403c-3.189-1.584-6.274-2.581-9.046-2.924-2.183-.269-4.165-.132-5.833.443.514.859.809 1.863.809 2.935a5.73 5.73 0 0 1-5.726 5.726c-.147 0-.294-.005-.438-.016.023 3.28 1.112 7.147 3.134 11.173 2.186 4.353 5.467 8.891 9.669 13.093 5.79 5.79 23.146 18.354 31.092 10.408 4.462-4.463 1.78-12.881-.605-17.722a.89.89 0 0 1 .403-1.19.89.89 0 0 1 1.191.403c2.773 5.632 5.384 14.654.27 19.768-8.905 8.905-26.989-3.787-33.61-10.408-4.327-4.327-7.72-9.03-9.995-13.559-2.233-4.445-3.394-8.743-3.323-12.393A5.73 5.73 0 0 1 9.403 7.12zm0 1.783a3.94 3.94 0 1 0 0 7.886c2.182 0 3.943-1.759 3.943-3.943a3.94 3.94 0 0 0-3.943-3.943zm47.62 9.024a5.73 5.73 0 0 1-1.554 11.239c-.364 0-.719-.034-1.064-.1-1.093 2.411-2.518 4.893-4.246 7.359-1.828 2.613-3.991 5.199-6.447 7.655-2.479 2.48-5.191 4.766-8.085 6.748a.89.89 0 0 1-1.234-.233.89.89 0 0 1 .233-1.234c2.806-1.925 5.421-4.133 7.827-6.539s4.498-4.906 6.252-7.411c1.628-2.323 2.979-4.664 4.021-6.945a5.73 5.73 0 0 1-2.983-5.025c0-3.072 2.429-5.598 5.495-5.723-.113-2.22-.776-4.383-2.377-5.989-2.774-2.772-7.587-3.057-13.121-1.278-5.724 1.841-12.169 5.884-17.973 11.688-2.459 2.459-4.744 5.175-6.695 8.055a.89.89 0 0 1-1.232.236.89.89 0 0 1-.236-1.232c2.022-2.981 4.359-5.772 6.904-8.318 6.002-6.002 12.706-10.197 18.689-12.121 6.173-1.985 11.638-1.57 14.922 1.713 1.996 2.004 2.813 4.685 2.903 7.457zm-1.554 1.569a3.94 3.94 0 0 0-3.943 3.944c0 2.183 1.758 3.943 3.943 3.943a3.94 3.94 0 1 0 0-7.887zM10.154 35.163a.89.89 0 1 1 1.607.765c-2.285 4.783-4.76 12.943-.402 17.301 4.35 4.35 12.482 1.895 17.26-.383a.89.89 0 1 1 .765 1.607c-5.559 2.65-14.297 5.021-19.284.034-4.996-4.996-2.603-13.761.053-19.325z" fill="#fff" image-rendering="optimizeQuality" shape-rendering="geometricPrecision" text-rendering="geometricPrecision"/></svg>