<svg xmlns="http://www.w3.org/2000/svg" width="64" height="64"><path d="M10.122 53.923c0-.491.4-.891.891-.891s.892.4.892.891v1.665c0 .491-.401.891-.892.891s-.891-.4-.891-.891zm20.447-24.021a10.61 10.61 0 0 1-7.841-10.233c0-4.953 3.453-9.271 8.293-10.341a.89.89 0 0 1 1.059.675.89.89 0 0 1-.675 1.059c-4.03.893-6.894 4.485-6.894 8.607 0 3.575 2.149 6.79 5.45 8.151V24.86c0-.491.4-.892.891-.892h3.826c1.045 0 1.764-.664 1.764-1.698 0-1.006-.7-1.709-1.764-1.709h-2.711c-2.046 0-3.545-1.48-3.545-3.493.011-2.023 1.485-3.481 3.545-3.481h1.239V9.997c0-.491.4-.891.892-.891l.041.001h.004l.018.002h.006l.018.002h.004l.023.003c5.481.455 9.708 5.059 9.708 10.557 0 2.706-1.023 5.184-2.702 7.061-1.696 1.895-4.065 3.177-6.728 3.468a.89.89 0 0 1-.978-.788.89.89 0 0 1 .789-.978 8.79 8.79 0 0 0 5.595-2.884c1.392-1.557 2.241-3.617 2.241-5.878 0-4.224-3.002-7.867-7.148-8.658v3.467c0 .491-.4.891-.891.891h-2.13c-1.042 0-1.766.663-1.766 1.698.016 1.035.708 1.71 1.766 1.71h2.711c2.068 0 3.547 1.515 3.547 3.492 0 2.02-1.496 3.481-3.547 3.481h-2.935v3.3c0 .676-.59.974-1.175.852zm2.755-23.969c7.577 0 13.723 6.146 13.723 13.723 0 3.785-1.537 7.217-4.02 9.7-.871.872-1.858 1.627-2.938 2.24h4.797c.491 0 .892.401.892.892v5.47h4.973c.491 0 .892.401.892.892v6.362c0 .491-.401.892-.892.892h-4.973v4.579h14.215c.491 0 .891.4.891.892v6.362c0 .491-.4.891-.891.891H34.457c-.491 0-.891-.4-.891-.891v-5.471h-2.894v5.471c0 .491-.4.891-.891.891H4.243c-.491 0-.891-.4-.891-.891v-6.362c0-.491.4-.892.891-.892h14.215v-5.471c0-.491.401-.891.892-.891h4.973v-4.579H19.35c-.491 0-.892-.401-.892-.892v-6.362c0-.491.401-.892.892-.892h7.209a13.73 13.73 0 0 1 6.764-25.663zm0 1.783c-6.598 0-11.94 5.34-11.94 11.94a11.94 11.94 0 0 0 11.94 11.94 11.91 11.91 0 0 0 11.94-11.94 11.94 11.94 0 0 0-11.94-11.94zM5.135 52.466v4.579h23.754v-4.579H5.135zm.931 1.458c0-.491.4-.891.891-.891s.892.4.892.891v1.665c0 .491-.401.891-.892.891s-.891-.4-.891-.891zm20.278 0c0-.491.4-.891.891-.891s.892.4.892.891v1.665c0 .491-.401.891-.892.891s-.891-.4-.891-.891zm32.757-1.458H35.348v4.579h23.754zm-22.822 1.458c0-.491.4-.891.891-.891s.892.4.892.891v1.665c0 .491-.401.891-.892.891s-.891-.4-.891-.891zm20.278 0c0-.491.4-.891.892-.891s.891.4.891.891v1.665c0 .491-.4.891-.891.891s-.892-.4-.892-.891zm-36.316-7.82v4.579h23.754v-4.579H20.241zm.931 1.458c0-.491.401-.892.892-.892s.891.401.891.892v1.665c0 .491-.4.892-.891.892s-.892-.401-.892-.892zm20.278 0c0-.491.401-.892.892-.892s.892.401.892.892v1.665c0 .491-.401.892-.892.892s-.892-.401-.892-.892zm8.409-7.82H26.106v4.579H49.86zm-22.823 1.458c0-.491.401-.892.892-.892s.891.401.891.892v1.665c0 .491-.4.892-.891.892s-.892-.401-.892-.892zm20.278 0c0-.491.401-.892.892-.892s.892.401.892.892v1.665c0 .491-.401.892-.892.892s-.892-.401-.892-.892zm-3.32-7.82H33.324 20.241v4.579h4.95.023 18.78zm-22.822 1.458c0-.491.401-.892.892-.892s.891.4.891.892v1.665c0 .491-.4.891-.891.891s-.892-.4-.892-.891zm20.278 0c0-.491.401-.892.892-.892s.892.4.892.892v1.665c0 .491-.401.891-.892.891s-.892-.4-.892-.891zm-4.055 0c0-.491.401-.892.892-.892s.892.4.892.892v1.665c0 .491-.401.891-.892.891s-.892-.4-.892-.891zm-4.055 0c0-.491.4-.892.891-.892s.892.4.892.892v1.665c0 .491-.401.891-.892.891s-.891-.4-.891-.891zm-4.057 0c0-.491.401-.892.892-.892s.891.4.891.892v1.665c0 .491-.4.891-.891.891s-.892-.4-.892-.891zm-4.055 0c0-.491.401-.892.892-.892s.891.4.891.892v1.665c0 .491-.4.891-.891.891s-.892-.4-.892-.891zm18.032 6.362c0-.491.4-.892.891-.892s.892.401.892.892v1.665c0 .491-.401.892-.892.892s-.891-.401-.891-.892zm-4.055 0c0-.491.4-.892.891-.892s.892.401.892.892v1.665c0 .491-.401.892-.892.892s-.891-.401-.891-.892zm-4.057 0c0-.491.401-.892.892-.892s.891.401.891.892v1.665c0 .491-.4.892-.891.892s-.892-.401-.892-.892zm-4.055 0c0-.491.401-.892.892-.892s.891.401.891.892v1.665c0 .491-.4.892-.891.892s-.892-.401-.892-.892zm6.303 6.362c0-.491.401-.892.892-.892s.892.401.892.892v1.665c0 .491-.401.892-.892.892s-.892-.401-.892-.892zm-4.055 0c0-.491.4-.892.891-.892s.892.401.892.892v1.665c0 .491-.401.892-.892.892s-.891-.401-.891-.892zm-4.057 0c0-.491.401-.892.892-.892s.891.401.891.892v1.665c0 .491-.4.892-.891.892s-.892-.401-.892-.892zm-4.055 0c0-.491.401-.892.892-.892s.891.401.891.892v1.665c0 .491-.4.892-.891.892s-.892-.401-.892-.892zm27.274 6.362c0-.491.401-.891.892-.891s.891.4.891.891v1.665c0 .491-.4.891-.891.891s-.892-.4-.892-.891zm-4.055 0c0-.491.401-.891.892-.891s.891.4.891.891v1.665c0 .491-.4.891-.891.891s-.892-.4-.892-.891zm-4.057 0c0-.491.4-.891.891-.891s.892.4.892.891v1.665c0 .491-.401.891-.892.891s-.891-.4-.891-.891zm-4.055 0c0-.491.4-.891.891-.891s.892.4.892.891v1.665c0 .491-.401.891-.892.891s-.891-.4-.891-.891zm-18.046 0c0-.491.4-.891.891-.891s.892.4.892.891v1.665c0 .491-.4.891-.892.891s-.891-.4-.891-.891zm-4.055 0c0-.491.401-.891.892-.891s.891.4.891.891v1.665c0 .491-.4.891-.891.891s-.892-.4-.892-.891zm-4.057 0c0-.491.401-.891.892-.891s.892.4.892.891v1.665c0 .491-.401.891-.892.891s-.892-.4-.892-.891z" fill="#fff" image-rendering="optimizeQuality" shape-rendering="geometricPrecision" text-rendering="geometricPrecision"/></svg>