<svg xmlns="http://www.w3.org/2000/svg" width="64" height="64"><path d="M31.011 39.37c-.491 0-.891-.401-.891-.892s.4-.891.891-.891h2.393c.491 0 .892.4.892.891s-.401.892-.892.892zm9.466 3.713l-.819.119v14.089c0 .828-1.033 1.2-1.565.583-1.13-1.123-2.319-1.998-3.575-2.412-1.208-.398-2.518-.368-3.944.289-2.791 1.287-5.752 1.287-8.542-.003-1.82-.841-3.501-.605-5.218.384l-3.747 2.163a.89.89 0 0 1-1.299-.997l1.218-4.554-1.668-3.108a.89.89 0 0 1 .362-1.204l4.49-2.623c2.219-1.303 4.537-1.572 6.9-.475 2.281 1.06 4.614 1.086 6.918.078 1.827-.798 3.529-.813 5.122-.283.971.324 1.891.85 2.765 1.524v-3.234c-1.882.193-3.777.292-5.669.292-2.761 0-5.54-.207-8.27-.627-.291-.044-.528-.226-.654-.47l-3.647-6.314c-4.6-1.233-8.511-3.128-11.325-5.457-8.306-6.876-5.277-15.522 3.766-20.424 6.003-3.26 13.516-4.535 20.13-4.535 7.844 0 14.965 1.734 20.131 4.535 9.041 4.9 12.073 13.55 3.766 20.424-3.23 2.673-7.293 4.376-11.328 5.457l-3.664 6.35c-.14.242-.377.392-.634.434zm-19.697-8.326c3.696-.691 7.447-1.037 11.246-1.037s7.664.348 11.59 1.041c1.411-.351 2.757-.765 4.023-1.236.458-1.505.831-3.097 1.107-4.755-2.863.553-6.128.966-9.65 1.2a10.55 10.55 0 0 1-5.723 2.485.89.89 0 0 1-.978-.788.89.89 0 0 1 .788-.978c2.214-.241 4.186-1.308 5.596-2.884 1.392-1.556 2.241-3.616 2.241-5.878a8.79 8.79 0 0 0-2.33-5.973 8.8 8.8 0 0 0-4.818-2.685v3.467c0 .491-.401.891-.892.891h-2.13c-2.378 0-2.345 3.408 0 3.408h2.711c4.701 0 4.735 6.972 0 6.972h-2.935v3.3c0 .676-.59.974-1.175.852a10.56 10.56 0 0 1-4.139-2.19c-3.521-.234-6.78-.649-9.644-1.2a37.78 37.78 0 0 0 1.109 4.758 37.81 37.81 0 0 0 4.002 1.23zm19.006 6.63l2.88-4.985c-3.585-.597-7.134-.898-10.64-.898-3.479 0-6.906.295-10.283.887l2.885 4.996c2.51.366 5.043.542 7.579.542 2.604 0 5.047-.196 7.579-.542zm9.942-8.721c2.024-.92 3.794-1.997 5.24-3.194 1.431-1.185 2.54-2.485 3.261-3.865-1.009.622-2.275 1.19-3.759 1.695-1.152.392-2.445.751-3.86 1.076-.221 1.47-.517 2.903-.882 4.287zm8.543-14.421c-1.216-2.38-3.592-4.529-6.783-6.259a27.47 27.47 0 0 0-1.773-.881c.37 1.395.672 2.849.896 4.343 1.426.327 2.732.691 3.892 1.086 1.491.509 2.761 1.082 3.769 1.71zm-10.652-8.002c-4.376-1.625-9.684-2.576-15.411-2.576s-11.036.951-15.412 2.577c-.466 1.522-.846 3.134-1.126 4.812 2.872-.554 6.147-.967 9.678-1.202a10.56 10.56 0 0 1 4.557-2.268.89.89 0 0 1 1.059.675.89.89 0 0 1-.675 1.059 8.83 8.83 0 0 0-6.894 8.607 8.78 8.78 0 0 0 1.81 5.357 8.85 8.85 0 0 0 3.64 2.793v-2.961c0-.491.401-.892.892-.892h3.826c2.37 0 2.354-3.406 0-3.406H30.85c-4.701 0-4.727-6.974 0-6.974h1.238v-3.591c0-.551.483-.946 1.005-.884a10.55 10.55 0 0 1 5.974 2.486c2.984.085 6.727.631 9.677 1.2a37.34 37.34 0 0 0-1.127-4.814zm-32.916.862c-.616.28-1.208.573-1.774.881-3.193 1.731-5.568 3.881-6.785 6.262 1.036-.644 2.345-1.233 3.888-1.751 1.13-.38 2.396-.731 3.774-1.047l.003-.022a39.95 39.95 0 0 1 .894-4.323zM6.184 25.606c.722 1.38 1.831 2.68 3.261 3.865 1.446 1.197 3.213 2.273 5.238 3.193-.362-1.378-.658-2.812-.879-4.287-1.408-.322-2.699-.682-3.848-1.071-1.49-.505-2.759-1.075-3.772-1.699zm31.691 29.708v-6.308c-1.059-1.019-2.168-1.805-3.33-2.193-1.183-.395-2.462-.377-3.847.228-2.755 1.205-5.642 1.175-8.371-.092-1.842-.853-3.534-.615-5.26.393l-3.778 2.205 1.421 2.647c.111.196.15.435.087.669l-.756 2.821 1.89-1.092c2.209-1.276 4.505-1.544 6.845-.461a8.18 8.18 0 0 0 7.055.003c1.881-.867 3.622-.901 5.244-.366.983.324 1.914.861 2.801 1.545zm2.972-27.262c2.982-.26 5.737-.651 8.164-1.148.192-1.614.294-3.285.294-4.992s-.102-3.378-.294-4.992c-2.433-.496-5.193-.887-8.182-1.148a10.54 10.54 0 0 1 1.973 6.154c0 2.278-.725 4.396-1.956 6.126zm10.002-1.558c1.105-.27 2.126-.564 3.05-.878 7.017-2.385 7.047-5.004.031-7.399-.932-.318-1.964-.614-3.081-.887.156 1.495.238 3.027.238 4.582a44.15 44.15 0 0 1-.238 4.582zM23.584 15.773c-2.988.259-5.749.65-8.181 1.147-.192 1.615-.295 3.286-.295 4.994a42.27 42.27 0 0 0 .294 4.99c2.426.495 5.178.886 8.16 1.147a10.54 10.54 0 0 1-1.952-6.124c0-2.292.732-4.416 1.974-6.154zm-10.02 1.557c-1.074.262-2.067.547-2.969.85-7.073 2.379-7.195 5.026-.068 7.442.92.313 1.936.603 3.038.872-.158-1.495-.238-3.025-.238-4.58s.082-3.09.238-4.583zM25.658 39.37c-.491 0-.892-.401-.892-.892s.401-.891.892-.891h2.393c.491 0 .891.4.891.891s-.4.892-.891.892zm10.704 0c-.491 0-.891-.401-.891-.892s.4-.891.891-.891h2.393c.491 0 .892.4.892.891s-.401.892-.892.892z" fill="#fff" image-rendering="optimizeQuality" shape-rendering="geometricPrecision" text-rendering="geometricPrecision"/></svg>