<svg xmlns="http://www.w3.org/2000/svg" width="64" height="64"><path d="M28.868 51.523l2.292 2.292V36.657A17.05 17.05 0 0 1 15.01 19.64c0-9.408 7.632-17.04 17.04-17.04a17.05 17.05 0 0 1 17.04 17.04c0 7.258-4.614 13.739-11.476 16.106a.89.89 0 0 1-1.127-.549c-.159-.462.086-.968.548-1.127 6.151-2.123 10.272-7.929 10.272-14.431A15.26 15.26 0 0 0 32.051 4.382 15.26 15.26 0 0 0 16.794 19.64c0 8.367 6.819 15.293 15.212 15.258.525-.002.937.404.937.915v14.395l2.205-2.205c.306-.306.592-.269.949-.238a11.24 11.24 0 0 0 4.815-.574c3.187-1.116 5.724-3.652 6.839-6.839a11.23 11.23 0 0 0 .617-4.223 11.22 11.22 0 0 0-4.221.617c-2.539.887-4.711 2.714-6.032 5.055a11.25 11.25 0 0 0-1.113 2.817.89.89 0 0 1-1.075.65.89.89 0 0 1-.65-1.075c.277-1.129.709-2.23 1.289-3.26 1.552-2.733 4.024-4.822 6.997-5.863a13.02 13.02 0 0 1 5.729-.65.89.89 0 0 1 .786.786c.213 1.92-.004 3.885-.65 5.73a12.95 12.95 0 0 1-7.931 7.931 13.05 13.05 0 0 1-5.378.684l-3.176 3.176v6.073h12.626c.491 0 .892.401.892.892s-.401.891-.892.891H18.534c-.491 0-.891-.4-.891-.891s.4-.892.891-.892H31.16v-2.464l-3.256-3.256c-3.778.291-7.487-1.071-10.168-3.752-2.784-2.784-4.144-6.689-3.711-10.6a.89.89 0 0 1 .786-.786 12.97 12.97 0 0 1 10.597 3.714c1.662 1.662 2.858 3.773 3.418 6.057a.89.89 0 0 1-.65 1.075.89.89 0 0 1-1.075-.65c-.488-1.995-1.499-3.77-2.951-5.222-2.231-2.231-5.265-3.41-8.415-3.264-.146 3.152 1.028 6.186 3.261 8.418a11.15 11.15 0 0 0 9.094 3.209c.291-.036.565.034.779.248zm3.305-44.567c0-.491.401-.891.892-.891l.023.001h.022.001l.022.002.022.002h.002l.022.003c7.051.58 12.488 6.497 12.488 13.568A13.63 13.63 0 0 1 33.55 33.17a.89.89 0 0 1-.978-.788.89.89 0 0 1 .789-.978c5.994-.658 10.523-5.74 10.523-11.765 0-5.797-4.208-10.756-9.928-11.682v4.877c0 .491-.4.891-.891.891h-2.792c-1.522 0-2.594.993-2.594 2.503.017 1.506 1.058 2.519 2.594 2.519h3.556c2.537 0 4.364 1.809 4.37 4.303.018 2.494-1.847 4.286-4.37 4.286h-4.125v4.604c0 .691-.591.967-1.193.849a13.63 13.63 0 0 1-10.075-13.15c0-6.366 4.435-11.914 10.656-13.29a.89.89 0 0 1 1.059.675.89.89 0 0 1-.675 1.059c-5.412 1.197-9.258 6.021-9.258 11.556 0 4.947 3.069 9.371 7.702 11.095v-4.29c0-.491.4-.891.891-.891h5.017c1.527 0 2.59-.993 2.59-2.503.018-1.5-1.087-2.519-2.59-2.519h-3.556c-2.529 0-4.372-1.813-4.372-4.302.011-2.5 1.828-4.286 4.372-4.286h1.901z" fill="#fff" image-rendering="optimizeQuality" shape-rendering="geometricPrecision" text-rendering="geometricPrecision"/></svg>