<?xml version="1.0" encoding="UTF-8" standalone="no"?>
<!-- Created with Inkscape (http://www.inkscape.org/) -->

<svg
   width="64.0px"
   height="64.0px"
   viewBox="0 0 64.0 64.0"
   version="1.1"
   id="SVGRoot"
   sodipodi:docname="money-atom.svg"
   inkscape:version="1.1.2 (b8e25be833, 2022-02-05)"
   xmlns:inkscape="http://www.inkscape.org/namespaces/inkscape"
   xmlns:sodipodi="http://sodipodi.sourceforge.net/DTD/sodipodi-0.dtd"
   xmlns="http://www.w3.org/2000/svg"
   xmlns:svg="http://www.w3.org/2000/svg">
  <sodipodi:namedview
     id="namedview4138"
     pagecolor="#787878"
     bordercolor="#666666"
     borderopacity="1.0"
     inkscape:pageshadow="2"
     inkscape:pageopacity="0"
     inkscape:pagecheckerboard="0"
     inkscape:document-units="px"
     showgrid="false"
     inkscape:zoom="6.0364197"
     inkscape:cx="38.102056"
     inkscape:cy="28.907864"
     inkscape:window-width="1920"
     inkscape:window-height="1002"
     inkscape:window-x="-8"
     inkscape:window-y="-8"
     inkscape:window-maximized="1"
     inkscape:current-layer="layer1"
     inkscape:snap-global="false">
    <inkscape:grid
       type="xygrid"
       id="grid4201" />
  </sodipodi:namedview>
  <defs
     id="defs4133" />
  <g
     inkscape:label="Warstwa 1"
     inkscape:groupmode="layer"
     id="layer1">
    <path
       class="fil5"
       d="m 28.73083,45.216213 c -5.669292,-1.522394 -9.620788,-6.688631 -9.620788,-12.55597 0,-6.079371 4.235339,-11.374867 10.174867,-12.688631 0.478866,-0.105449 0.953197,0.196157 1.059024,0.674645 0.105449,0.478867 -0.196158,0.953197 -0.675024,1.059024 -5.131843,1.13537 -8.775686,5.705198 -8.775686,10.954962 0,4.671497 2.882646,8.84334 7.243843,10.497261 v -4.019528 c 0,-0.491339 0.40063,-0.891591 0.891591,-0.891591 h 4.773922 c 1.429039,0 2.421921,-0.925606 2.421921,-2.339905 0,-1.409764 -0.99137,-2.354646 -2.421921,-2.354646 h -3.383434 c -2.43137,0 -4.204725,-1.743119 -4.204725,-4.137828 0,-2.4 1.770331,-4.121197 4.204725,-4.121197 h 1.76504 V 20.59032 c 0,-0.49096 0.40063,-0.89159 0.891591,-0.89159 l 0.02343,0.0015 h 0.02192 0.0011 l 0.02192,0.0011 0.02192,0.0015 h 0.0015 l 0.02192,0.0026 c 6.73134,0.551433 11.923655,6.204473 11.923655,12.95471 0,6.610394 -4.996536,12.200694 -11.569891,12.920694 -0.486803,0.05216 -0.925606,-0.301606 -0.977764,-0.788787 -0.05216,-0.486803 0.301607,-0.925606 0.788788,-0.977764 5.681764,-0.622488 9.975686,-5.444788 9.975686,-11.154143 0,-5.474646 -3.964725,-10.17071 -9.362647,-11.067592 v 4.591749 c 0,0.49096 -0.40063,0.89159 -0.89159,0.89159 h -2.656631 c -1.427527,0 -2.421921,0.925607 -2.421921,2.338016 0,1.40863 0.994394,2.355024 2.421921,2.355024 h 3.383434 c 2.427591,0 4.205103,1.747276 4.205103,4.13745 0,2.398866 -1.772221,4.122709 -4.205103,4.122709 h -3.882709 v 4.338142 c 0,0.68674 -0.588095,0.967937 -1.18904,0.848882 z M 9.4030801,7.119705 c 1.4086299,0 2.7004729,0.510236 3.6975119,1.35496 2.068158,-0.869291 4.547528,-1.109291 7.268788,-0.773291 2.966174,0.365858 6.246804,1.42337 9.616631,3.096567 0.438804,0.216567 0.619843,0.751748 0.402898,1.190552 -0.216567,0.438803 -0.75137,0.619842 -1.190173,0.403275 -3.188788,-1.584 -6.274395,-2.581417 -9.046301,-2.924221 -2.183433,-0.268724 -4.165039,-0.131527 -5.832567,0.442961 0.514016,0.858709 0.808819,1.862551 0.808819,2.935181 0,3.159686 -2.567055,5.725607 -5.7256069,5.725607 -0.1466457,0 -0.2936694,-0.0053 -0.4376694,-0.01625 0.023433,3.280253 1.1123153,7.14671 3.1339843,11.173041 2.186079,4.353261 5.46671,8.89134 9.668789,13.093419 5.790237,5.790237 23.145829,18.354144 31.092287,10.408064 4.462488,-4.462866 1.780157,-12.880631 -0.604725,-17.722207 -0.216945,-0.438803 -0.0359,-0.973606 0.402898,-1.190173 0.439181,-0.216945 0.973984,-0.0359 1.190551,0.403276 2.77304,5.632252 5.384316,14.653986 0.270237,19.768065 C 45.214486,63.393475 27.130578,50.70182 20.509223,44.080465 16.182041,39.753661 12.789159,35.050794 10.513883,30.52103 8.2813161,26.075927 7.1194892,21.777848 7.1909223,18.128336 c -2.121827,-0.890079 -3.514961,-2.969197 -3.514961,-5.282647 0,-3.162709 2.5659215,-5.725984 5.7271188,-5.725984 z m 0,1.782803 c -2.1819216,0 -3.9443155,1.76126 -3.9443155,3.943181 0,2.18041 1.7635278,3.942804 3.9443155,3.942804 2.1819219,0 3.9428039,-1.75937 3.9428039,-3.942804 0,-2.178141 -1.756725,-3.943181 -3.9428039,-3.943181 z m 47.6197849,9.024379 c 2.461607,0.692409 4.171843,2.947276 4.171843,5.513197 0,3.161198 -2.56441,5.725985 -5.725607,5.725985 -0.363591,0 -0.718866,-0.03439 -1.064315,-0.100157 -1.09304,2.410961 -2.517922,4.893355 -4.2463,7.359119 -1.828158,2.612788 -3.990803,5.199119 -6.447119,7.655434 -2.47937,2.479748 -5.190803,4.765985 -8.084788,6.747591 -0.40441,0.275528 -0.958488,0.171591 -1.234394,-0.233197 -0.275527,-0.404409 -0.171212,-0.958488 0.233197,-1.234394 2.8063,-1.925291 5.421355,-4.133291 7.827025,-6.538961 2.402646,-2.402646 4.498394,-4.905827 6.252473,-7.411276 1.627842,-2.323276 2.978646,-4.664316 4.02104,-6.945261 -1.825135,-1.001197 -2.982804,-2.914394 -2.982804,-5.024883 0,-3.072 2.428725,-5.598236 5.495434,-5.722961 C 55.12592,15.49665 54.462235,13.333627 52.861605,11.727705 50.087431,8.956177 45.274958,8.670823 39.740973,10.449469 34.0165,12.290099 27.572027,16.33306 21.768184,22.137281 c -2.458961,2.458961 -4.744064,5.174552 -6.695434,8.054552 -0.274394,0.40441 -0.826961,0.510237 -1.231748,0.235843 -0.40441,-0.274394 -0.510236,-0.826961 -0.235843,-1.231748 2.02167,-2.981292 4.358552,-5.772473 6.904064,-8.317608 6.001512,-6.001512 12.706395,-10.196788 18.688632,-12.120946 6.173103,-1.98463 11.638301,-1.570394 14.921577,1.712882 1.99559,2.003528 2.812724,4.684725 2.903433,7.456631 z m -1.553764,1.568882 c -2.180788,0 -3.943182,1.763528 -3.943182,3.944315 0,2.183434 1.758237,3.942804 3.943182,3.942804 2.18041,0 3.942804,-1.762016 3.942804,-3.942804 0,-2.181921 -1.760883,-3.944315 -3.942804,-3.944315 z M 10.15445,35.163424 c 0.211276,-0.44296 0.743433,-0.632315 1.186394,-0.421039 0.442961,0.210898 0.632315,0.743055 0.421039,1.186016 -2.2847242,4.782615 -4.7603151,12.942616 -0.401763,17.301167 4.350236,4.350237 12.481513,1.895434 17.259592,-0.382866 0.443339,-0.210898 0.975118,-0.02192 1.186394,0.421039 0.211275,0.443339 0.02192,0.975119 -0.42104,1.186394 -5.558551,2.649827 -14.297198,5.021103 -19.283907,0.03439 C 5.1050008,49.492367 7.4981979,40.727264 10.15445,35.16342 Z"
       id="path83"
       style="clip-rule:evenodd;fill:#ffffff;fill-opacity:1;fill-rule:nonzero;stroke:none;stroke-width:0.0377953;image-rendering:optimizeQuality;shape-rendering:geometricPrecision;text-rendering:geometricPrecision" />
  </g>
</svg>
