<svg xmlns="http://www.w3.org/2000/svg" width="64" height="64"><path d="M4.284 3.292H60.02c.491 0 .891.4.891.891v55.736c0 .491-.4.891-.891.891H4.284c-.491 0-.891-.4-.891-.891V4.183c0-.491.4-.891.891-.891zM32.151 20.99a16.87 16.87 0 0 1 16.858 16.857 16.87 16.87 0 0 1-16.858 16.858 16.87 16.87 0 0 1-16.857-16.858c0-9.301 7.555-16.857 16.857-16.857zm0 1.783a15.07 15.07 0 0 0-15.074 15.073c0 8.327 6.746 15.075 15.074 15.075s15.075-6.745 15.075-15.075-6.746-15.073-15.075-15.073zm.071 3.054c0-.547.455-.92.982-.887a12.98 12.98 0 0 1 11.914 12.924 12.98 12.98 0 0 1-11.54 12.885.89.89 0 0 1-.978-.789.89.89 0 0 1 .788-.978c5.666-.62 9.946-5.426 9.946-11.119 0-5.463-3.947-10.134-9.33-11.033v4.574c0 .491-.401.892-.892.892h-2.649c-1.425 0-2.412.923-2.412 2.332 0 1.374.967 2.345 2.412 2.345h3.374c2.428 0 4.195 1.739 4.195 4.128 0 2.397-1.764 4.113-4.195 4.113h-3.869v4.323c0 .687-.588.968-1.189.849a12.98 12.98 0 0 1-9.595-12.522c0-6.063 4.222-11.343 10.147-12.656a.89.89 0 0 1 1.059.675.89.89 0 0 1-.675 1.059c-5.116 1.134-8.748 5.689-8.748 10.922a11.18 11.18 0 0 0 7.218 10.462v-4.003c0-.491.401-.892.892-.892h4.76c1.425 0 2.412-.921 2.412-2.33 0-1.402-.992-2.345-2.412-2.345h-3.374c-2.445 0-4.196-1.788-4.196-4.128 0-2.396 1.764-4.114 4.196-4.114h1.758zm18.248-13.624c.491 0 .891.4.891.891s-.4.892-.891.892H32.958l1.562 1.562h19.503v-5.474H29.045l2.149 2.149c.062-.014.125-.02.189-.02zM21.527 5.075H5.175v53.953h53.953V17.331H34.153a.9.9 0 0 1-.63-.262L21.527 5.075zm5.735 3.218h27.653c.491 0 .891.4.891.891v6.365h3.322V5.075H24.045z" fill="#fff" image-rendering="optimizeQuality" shape-rendering="geometricPrecision" text-rendering="geometricPrecision"/></svg>