<svg xmlns="http://www.w3.org/2000/svg" width="64" height="64"><path d="M46.25 34.501c0-.491.4-.892.891-.892s.892.401.892.892v24.812c0 .491-.401.892-.892.892H5.308c-.491 0-.892-.401-.892-.892V9.735c0-.491.401-.892.892-.892H31.9c.491 0 .892.401.892.892s-.401.891-.892.891H6.199v47.796H46.25zm-7.282 12.597c2.718 0 4.927 2.21 4.927 4.928s-2.211 4.927-4.927 4.927a4.94 4.94 0 0 1-4.928-4.927c0-2.716 2.212-4.928 4.928-4.928zm0 1.783c-1.739 0-3.145 1.407-3.145 3.145a3.14 3.14 0 0 0 6.29 0c0-1.739-1.406-3.145-3.145-3.145zm-12.742-1.783c2.718 0 4.928 2.21 4.928 4.928s-2.211 4.927-4.928 4.927a4.94 4.94 0 0 1-4.928-4.927c0-2.716 2.212-4.928 4.928-4.928zm0 1.783c-1.739 0-3.145 1.407-3.145 3.145a3.14 3.14 0 1 0 6.29 0c0-1.739-1.406-3.145-3.145-3.145zm-12.744-1.783c2.718 0 4.928 2.21 4.928 4.928s-2.211 4.927-4.928 4.927a4.94 4.94 0 0 1-4.927-4.927c0-2.716 2.212-4.928 4.927-4.928zm0 1.783c-1.739 0-3.145 1.407-3.145 3.145a3.14 3.14 0 0 0 6.29 0c0-1.739-1.406-3.145-3.145-3.145zm25.486-13.35c2.718 0 4.927 2.21 4.927 4.928s-2.211 4.927-4.927 4.927a4.94 4.94 0 0 1-4.928-4.927c0-2.716 2.212-4.928 4.928-4.928zm0 1.783c-1.739 0-3.145 1.407-3.145 3.145a3.14 3.14 0 0 0 6.29 0 3.14 3.14 0 0 0-3.145-3.145zm-12.742-1.783c2.718 0 4.928 2.21 4.928 4.928s-2.211 4.927-4.928 4.927a4.94 4.94 0 0 1-4.928-4.927c0-2.716 2.212-4.928 4.928-4.928zm0 1.783c-1.739 0-3.145 1.407-3.145 3.145a3.14 3.14 0 1 0 6.29 0 3.14 3.14 0 0 0-3.145-3.145zm-12.744-1.783c2.718 0 4.928 2.21 4.928 4.928s-2.211 4.927-4.928 4.927a4.94 4.94 0 0 1-4.927-4.927c0-2.716 2.212-4.928 4.927-4.928zm0 1.783c-1.739 0-3.145 1.407-3.145 3.145a3.14 3.14 0 0 0 6.29 0 3.14 3.14 0 0 0-3.145-3.145zm25.486-5.277c.491 0 .891.401.891.892s-.4.891-.891.891a4.94 4.94 0 0 1-4.928-4.927c0-.491.4-.892.891-.892s.892.401.892.892a3.14 3.14 0 0 0 3.145 3.145zm-12.742-8.072c2.718 0 4.928 2.21 4.928 4.928s-2.211 4.927-4.928 4.927a4.94 4.94 0 0 1-4.928-4.927c0-2.716 2.212-4.928 4.928-4.928zm0 1.783c-1.739 0-3.145 1.407-3.145 3.145a3.14 3.14 0 1 0 6.29 0 3.14 3.14 0 0 0-3.145-3.145zm-12.744-1.783c2.718 0 4.928 2.21 4.928 4.928s-2.211 4.927-4.928 4.927a4.94 4.94 0 0 1-4.927-4.927c0-2.716 2.212-4.928 4.927-4.928zm0 1.783c-1.739 0-3.145 1.407-3.145 3.145a3.14 3.14 0 0 0 6.29 0 3.14 3.14 0 0 0-3.145-3.145zm17.814-4.553c.491 0 .892.401.892.892s-.401.891-.892.891H9.455c-.491 0-.892-.4-.892-.891v-9.266c0-.491.401-.891.892-.891h20.75c.491 0 .892.4.892.891s-.401.892-.892.892H10.346v7.483zM47.424 2.686a14.6 14.6 0 0 1 14.588 14.588c0 8.053-6.536 14.588-14.588 14.588s-14.588-6.534-14.588-14.588S39.372 2.686 47.424 2.686zm0 1.783c-7.074 0-12.805 5.731-12.805 12.805s5.731 12.805 12.805 12.805 12.805-5.73 12.805-12.805-5.73-12.805-12.805-12.805zm-.067 2.494c0-.491.401-.891.892-.891l.042.001h.003l.019.002h.004l.019.001h.003l.023.003a11.26 11.26 0 0 1 10.312 11.21c0 5.718-4.326 10.558-10.013 11.179a.89.89 0 0 1-.978-.788.89.89 0 0 1 .788-.978c4.797-.525 8.419-4.592 8.419-9.413a9.47 9.47 0 0 0-7.751-9.314v3.773c0 .491-.4.891-.891.891h-2.273c-1.147 0-1.946.735-1.946 1.874.016 1.137.784 1.884 1.946 1.884h2.895c2.148 0 3.725 1.552 3.725 3.667 0 2.126-1.567 3.655-3.725 3.655h-3.194v3.582c0 .681-.59.969-1.178.852-4.904-1.316-8.325-5.79-8.325-10.865 0-5.261 3.665-9.843 8.805-10.98a.89.89 0 0 1 1.059.675.89.89 0 0 1-.675 1.059 9.47 9.47 0 0 0-7.406 9.246c0 3.87 2.348 7.35 5.937 8.79v-3.25c0-.491.4-.891.891-.891h4.086c1.15 0 1.942-.734 1.942-1.872s-.794-1.884-1.942-1.884h-2.895c-2.151 0-3.725-1.551-3.725-3.667.011-2.129 1.558-3.656 3.725-3.656h1.381z" fill="#fff" image-rendering="optimizeQuality" shape-rendering="geometricPrecision" text-rendering="geometricPrecision"/></svg>