<svg xmlns="http://www.w3.org/2000/svg" width="64" height="64"><path d="M30.114 61.344a28.66 28.66 0 0 1-18.498-9.255A28.67 28.67 0 0 1 4.12 32.72c0-15.883 12.877-28.76 28.76-28.76s28.76 12.879 28.76 28.76c0 14.733-11.164 27.12-25.829 28.607-1.166.111-1.33-1.655-.173-1.766 13.754-1.395 24.219-13.026 24.219-26.841 0-14.902-12.074-26.977-26.977-26.977S5.904 17.818 5.904 32.72a26.89 26.89 0 0 0 7.029 18.173c4.196 4.608 9.97 7.756 16.47 8.587v-4.173c0-.491.401-.892.892-.892h6.027v-.982h-7.772c-.491 0-.892-.401-.892-.892v-2.88a.89.89 0 0 1 .915-.915h7.748v-1.082h-7.748a.89.89 0 0 1-.915-.915v-1.98h-.673c-.491 0-.892-.401-.892-.892v-4.771c0-.491.401-.891.892-.891s.891.4.891.891v3.88h10.01v-6.693a.9.9 0 0 1 .488-.79 12.15 12.15 0 0 0 4.819-4.466c1.12-1.83 1.768-3.99 1.768-6.302 0-3.185-1.222-6.08-3.22-8.231-1.805-1.946-4.25-3.294-7.004-3.71v5.316c0 .491-.4.892-.891.892h-2.657c-1.428 0-2.422.926-2.422 2.338s.994 2.355 2.422 2.355h3.383c2.428 0 4.205 1.747 4.205 4.138 0 2.398-1.772 4.122-4.205 4.122H30.69v4.315a.89.89 0 0 1-.915.915h-2.791c-.176 0-.34-.051-.477-.14-4.599-2.383-7.491-7.127-7.491-12.309a13.88 13.88 0 0 1 11.198-13.605c1.149-.22 1.483 1.528.335 1.747-5.667 1.104-9.75 6.091-9.75 11.858 0 4.471 2.452 8.559 6.395 10.666h1.713v-4.338c0-.491.401-.892.892-.892h4.774c1.429 0 2.422-.926 2.422-2.34s-.991-2.355-2.422-2.355h-3.383c-2.431 0-4.205-1.743-4.205-4.137 0-2.4 1.77-4.121 4.205-4.121h1.765v-5.418a.87.87 0 0 1 .955-.887c3.604.255 6.823 1.89 9.132 4.38a13.83 13.83 0 0 1 3.703 9.441c0 2.644-.745 5.12-2.034 7.226-1.234 2.016-2.973 3.696-5.042 4.859v7.056c0 .491-.401.892-.892.892h-9.337v1.112h7.748a.89.89 0 0 1 .915.915v2.818a.89.89 0 0 1-.915.915h-7.748v1.121h7.748a.89.89 0 0 1 .915.915v2.742c0 .491-.401.891-.892.891h-6.028v4.272c0 .573-.517.976-1.071.873z" fill="#fff" image-rendering="optimizeQuality" shape-rendering="geometricPrecision" text-rendering="geometricPrecision"/></svg>