<?xml version="1.0" encoding="UTF-8" standalone="no"?>
<!-- Created with Inkscape (http://www.inkscape.org/) -->

<svg
   width="64.0px"
   height="64.0px"
   viewBox="0 0 64.0 64.0"
   version="1.1"
   id="SVGRoot"
   sodipodi:docname="notes.svg"
   inkscape:version="1.1.2 (b8e25be833, 2022-02-05)"
   xmlns:inkscape="http://www.inkscape.org/namespaces/inkscape"
   xmlns:sodipodi="http://sodipodi.sourceforge.net/DTD/sodipodi-0.dtd"
   xmlns="http://www.w3.org/2000/svg"
   xmlns:svg="http://www.w3.org/2000/svg">
  <sodipodi:namedview
     id="namedview4138"
     pagecolor="#787878"
     bordercolor="#666666"
     borderopacity="1.0"
     inkscape:pageshadow="2"
     inkscape:pageopacity="0"
     inkscape:pagecheckerboard="0"
     inkscape:document-units="px"
     showgrid="false"
     inkscape:zoom="6.0364197"
     inkscape:cx="38.102056"
     inkscape:cy="28.907864"
     inkscape:window-width="1920"
     inkscape:window-height="1002"
     inkscape:window-x="-8"
     inkscape:window-y="-8"
     inkscape:window-maximized="1"
     inkscape:current-layer="layer1"
     inkscape:snap-global="false">
    <inkscape:grid
       type="xygrid"
       id="grid4201" />
  </sodipodi:namedview>
  <defs
     id="defs4133" />
  <g
     inkscape:label="Warstwa 1"
     inkscape:groupmode="layer"
     id="layer1">
    <path
       class="fil5"
       d="M 41.608628,5.1632978 H 23.809697 c 0,1.478551 0,2.956725 0,4.435276 0,1.1576702 0.944882,2.1036852 2.102552,2.1036852 h 13.593828 c 1.158803,0 2.102551,-0.94337 2.102551,-2.1036852 0,-1.478551 0,-2.956725 0,-4.435276 z M 31.325289,54.394674 c -0.490961,0 -0.891591,-0.40063 -0.891591,-0.891591 0,-0.490961 0.40063,-0.89159 0.891591,-0.89159 h 11.003339 c 0.490961,0 0.891213,0.400629 0.891213,0.89159 0,0.490961 -0.400252,0.891591 -0.891213,0.891591 z m 0,-3.17367 c -0.490961,0 -0.891591,-0.40063 -0.891591,-0.891591 0,-0.49096 0.40063,-0.891212 0.891591,-0.891212 h 6.558237 c 0.49096,0 0.89159,0.400252 0.89159,0.891212 0,0.490961 -0.40063,0.891591 -0.89159,0.891591 z m 0,-3.043276 c -0.490961,0 -0.891591,-0.40063 -0.891591,-0.89159 0,-0.490961 0.40063,-0.891213 0.891591,-0.891213 h 13.58967 c 0.490961,0 0.891591,0.400252 0.891591,0.891213 0,0.49096 -0.40063,0.89159 -0.891591,0.89159 z m -7.707592,-1.782803 h 4.495749 c 0.49096,0 0.891212,0.400252 0.891212,0.891213 v 4.495748 c 0,0.490961 -0.400252,0.891591 -0.891212,0.891591 h -4.495749 c -0.490961,0 -0.89159,-0.40063 -0.89159,-0.891591 v -4.495748 c 0,-0.490961 0.400629,-0.891213 0.89159,-0.891213 z m 3.604158,1.782803 h -2.712567 v 2.712567 h 2.712567 z m -1.645606,5.825765 c 0.49096,0 0.891212,0.40063 0.891212,0.89159 0,0.490961 -0.400252,0.891591 -0.891212,0.891591 H 20.5045 c -0.490961,0 -0.891591,-0.40063 -0.891591,-0.891591 v -5.071748 c 0,-0.490961 0.40063,-0.891213 0.891591,-0.891213 0.490961,0 0.891591,0.400252 0.891591,0.891213 v 4.180158 z m 5.74904,-14.714081 c -0.490961,0 -0.891591,-0.40063 -0.891591,-0.89159 0,-0.490961 0.40063,-0.891591 0.891591,-0.891591 h 11.003339 c 0.490961,0 0.891213,0.40063 0.891213,0.891591 0,0.49096 -0.400252,0.89159 -0.891213,0.89159 z m 0,-3.173669 c -0.490961,0 -0.891591,-0.40063 -0.891591,-0.891591 0,-0.490961 0.40063,-0.891213 0.891591,-0.891213 h 6.558237 c 0.49096,0 0.89159,0.400252 0.89159,0.891213 0,0.490961 -0.40063,0.891591 -0.89159,0.891591 z m 0,-3.043276 c -0.490961,0 -0.891591,-0.40063 -0.891591,-0.891591 0,-0.490961 0.40063,-0.891213 0.891591,-0.891213 h 13.58967 c 0.490961,0 0.891591,0.400252 0.891591,0.891213 0,0.490961 -0.40063,0.891591 -0.891591,0.891591 z m -7.707592,-1.782804 h 4.495749 c 0.49096,0 0.891212,0.400252 0.891212,0.891213 v 4.495749 c 0,0.49096 -0.400252,0.89159 -0.891212,0.89159 h -4.495749 c -0.490961,0 -0.89159,-0.40063 -0.89159,-0.89159 v -4.495749 c 0,-0.490961 0.400629,-0.891213 0.89159,-0.891213 z m 3.604158,1.782804 h -2.712567 v 2.712567 h 2.712567 z m -1.645606,5.825764 c 0.49096,0 0.891212,0.40063 0.891212,0.891591 0,0.49096 -0.400252,0.89159 -0.891212,0.89159 H 20.5045 c -0.490961,0 -0.891591,-0.40063 -0.891591,-0.89159 v -5.071749 c 0,-0.490961 0.40063,-0.891213 0.891591,-0.891213 0.490961,0 0.891591,0.400252 0.891591,0.891213 v 4.180158 z m 5.74904,-14.715592 c -0.490961,0 -0.891591,-0.400252 -0.891591,-0.891591 0,-0.490961 0.40063,-0.891213 0.891591,-0.891213 h 11.003339 c 0.490961,0 0.891213,0.400252 0.891213,0.891213 0,0.491339 -0.400252,0.891591 -0.891213,0.891591 z m 0,-3.17367 c -0.490961,0 -0.891591,-0.400252 -0.891591,-0.891213 0,-0.49096 0.40063,-0.89159 0.891591,-0.89159 h 6.558237 c 0.49096,0 0.89159,0.40063 0.89159,0.89159 0,0.490961 -0.40063,0.891213 -0.89159,0.891213 z m 0,-3.043276 c -0.490961,0 -0.891591,-0.400252 -0.891591,-0.891213 0,-0.49096 0.40063,-0.89159 0.891591,-0.89159 h 13.58967 c 0.490961,0 0.891591,0.40063 0.891591,0.89159 0,0.490961 -0.40063,0.891213 -0.891591,0.891213 z M 23.617697,16.18289 h 4.495749 c 0.49096,0 0.891212,0.40063 0.891212,0.89159 v 4.495749 c 0,0.490961 -0.400252,0.891213 -0.891212,0.891213 h -4.495749 c -0.490961,0 -0.89159,-0.400252 -0.89159,-0.891213 V 17.07448 c 0,-0.49096 0.400629,-0.89159 0.89159,-0.89159 z m 3.604158,1.782803 h -2.712567 v 2.712945 h 2.712567 z m -1.645606,5.826143 c 0.49096,0 0.891212,0.40063 0.891212,0.89159 0,0.490961 -0.400252,0.891213 -0.891212,0.891213 H 20.5045 c -0.490961,0 -0.891591,-0.400252 -0.891591,-0.891213 v -5.071748 c 0,-0.490961 0.40063,-0.891591 0.891591,-0.891591 0.490961,0 0.891591,0.40063 0.891591,0.891591 v 4.180158 z M 26.758485,7.7980068 c -0.490961,0 -0.891591,-0.40063 -0.891591,-0.891591 0,-0.49096 0.40063,-0.89159 0.891591,-0.89159 h 11.394143 c 1.398803,0 2.394331,1.056 2.394331,2.41663 0,1.338709 -0.983433,2.4177642 -2.394331,2.4177642 H 26.758485 c -0.490961,0 -0.891591,-0.400252 -0.891591,-0.8912132 0,-0.49096 0.40063,-0.89159 0.891591,-0.89159 h 11.394143 c 0.409701,0 0.611528,-0.263434 0.611528,-0.634961 0,-0.379843 -0.207119,-0.633449 -0.611528,-0.633449 z m 16.632947,0.402898 h 7.845922 c 0.490961,0 0.891591,0.40063 0.891591,0.89159 V 60.008029 c 0,0.49096 -0.40063,0.891213 -0.891591,0.891213 h -37.05676 c -0.490961,0 -0.891213,-0.400253 -0.891213,-0.891213 V 9.0924948 c 0,-0.49096 0.400252,-0.89159 0.891213,-0.89159 h 7.8463 v -3.929198 c 0,-0.49096 0.400252,-0.891212 0.891213,-0.891212 h 19.581734 c 0.490961,0 0.891591,0.400252 0.891591,0.891212 z M 22.046169,9.9840858 H 15.072184 V 59.116438 H 50.346141 V 9.9840858 H 43.372156 C 43.17751,11.957378 41.494865,13.485441 39.506077,13.485441 H 25.912249 c -1.984631,0 -3.671434,-1.529197 -3.86608,-3.5013552 z"
       id="path40"
       style="clip-rule:evenodd;fill:#ffffff;fill-opacity:1;fill-rule:nonzero;stroke:none;stroke-width:0.0377953;image-rendering:optimizeQuality;shape-rendering:geometricPrecision;text-rendering:geometricPrecision" />
  </g>
</svg>
