<svg xmlns="http://www.w3.org/2000/svg" width="64" height="64"><path d="M41.609 5.163H23.81v4.435a2.11 2.11 0 0 0 2.103 2.104h13.594c1.159 0 2.103-.943 2.103-2.104V5.163zM31.325 54.395c-.491 0-.892-.401-.892-.892s.401-.892.892-.892h11.003c.491 0 .891.401.891.892s-.4.892-.891.892zm0-3.174c-.491 0-.892-.401-.892-.892s.401-.891.892-.891h6.558c.491 0 .892.4.892.891s-.401.892-.892.892zm0-3.043c-.491 0-.892-.401-.892-.892s.401-.891.892-.891h13.59c.491 0 .892.4.892.891s-.401.892-.892.892zm-7.708-1.783h4.496c.491 0 .891.4.891.891v4.496c0 .491-.4.892-.891.892h-4.496c-.491 0-.892-.401-.892-.892v-4.496c0-.491.401-.891.892-.891zm3.604 1.783h-2.713v2.713h2.713zm-1.646 5.826c.491 0 .891.401.891.892s-.4.892-.891.892h-5.072c-.491 0-.892-.401-.892-.892v-5.072c0-.491.401-.891.892-.891s.892.4.892.891v4.18zm5.749-14.714c-.491 0-.892-.401-.892-.892s.401-.892.892-.892h11.003c.491 0 .891.401.891.892s-.4.892-.891.892zm0-3.174c-.491 0-.892-.401-.892-.892s.401-.891.892-.891h6.558c.491 0 .892.4.892.891s-.401.892-.892.892zm0-3.043c-.491 0-.892-.401-.892-.892s.401-.891.892-.891h13.59c.491 0 .892.4.892.891s-.401.892-.892.892zm-7.708-1.783h4.496c.491 0 .891.4.891.891v4.496c0 .491-.4.892-.891.892h-4.496c-.491 0-.892-.401-.892-.892v-4.496c0-.491.401-.891.892-.891zm3.604 1.783h-2.713v2.713h2.713zm-1.646 5.826c.491 0 .891.401.891.892s-.4.892-.891.892h-5.072c-.491 0-.892-.401-.892-.892v-5.072c0-.491.401-.891.892-.891s.892.4.892.891v4.18zm5.749-14.716c-.491 0-.892-.4-.892-.892s.401-.891.892-.891h11.003c.491 0 .891.4.891.891s-.4.892-.891.892zm0-3.174c-.491 0-.892-.4-.892-.891s.401-.892.892-.892h6.558c.491 0 .892.401.892.892s-.401.891-.892.891zm0-3.043c-.491 0-.892-.4-.892-.891s.401-.892.892-.892h13.59c.491 0 .892.401.892.892s-.401.891-.892.891zm-7.708-1.783h4.496c.491 0 .891.401.891.892v4.496c0 .491-.4.891-.891.891h-4.496c-.491 0-.892-.4-.892-.891v-4.496c0-.491.401-.892.892-.892zm3.604 1.783h-2.713v2.713h2.713zm-1.646 5.826c.491 0 .891.401.891.892s-.4.891-.891.891h-5.072c-.491 0-.892-.4-.892-.891v-5.072c0-.491.401-.892.892-.892s.892.401.892.892v4.18zm1.182-15.994c-.491 0-.892-.401-.892-.892s.401-.892.892-.892h11.394c1.399 0 2.394 1.056 2.394 2.417 0 1.339-.983 2.418-2.394 2.418H26.758c-.491 0-.892-.4-.892-.891s.401-.892.892-.892h11.394c.41 0 .612-.263.612-.635 0-.38-.207-.633-.612-.633zm16.633.403h7.846c.491 0 .892.401.892.892v50.916c0 .491-.401.891-.892.891H14.181c-.491 0-.891-.4-.891-.891V9.092c0-.491.4-.892.891-.892h7.846V4.272c0-.491.4-.891.891-.891H42.5c.491 0 .892.4.892.891zM22.046 9.984h-6.974v49.132h35.274V9.984h-6.974a3.9 3.9 0 0 1-3.866 3.501H25.912c-1.985 0-3.671-1.529-3.866-3.501z" fill="#fff" image-rendering="optimizeQuality" shape-rendering="geometricPrecision" text-rendering="geometricPrecision"/></svg>