<svg xmlns="http://www.w3.org/2000/svg" width="64" height="64"><path d="M32.788 36.011a.89.89 0 0 1 1.218-.307.89.89 0 0 1 .307 1.218l-3.815 6.395a.89.89 0 0 1-1.218.307.89.89 0 0 1-.307-1.218zm11.384 5.726a.89.89 0 0 1-.407-1.186.89.89 0 0 1 1.186-.407 11.24 11.24 0 0 1 2.903 2.049c.656.642 1.234 1.365 1.716 2.149a8.85 8.85 0 0 1 2.924-.503 8.71 8.71 0 0 1 4.044.99c.883-1.732 1.587-3.571 2.08-5.49a27.09 27.09 0 0 0 .848-6.749c0-3.23-.565-6.324-1.601-9.182-.847-2.345-2.016-4.544-3.448-6.536-.151.631-.333 1.251-.549 1.86-.784 2.212-1.999 4.272-3.645 6.184l-.939 1.092c.606.551 1.024 1.259 1.229 2.02.277 1.036.162 2.182-.417 3.183l-3.744 6.482a.89.89 0 0 1-1.211.328l-5.735-3.309a.89.89 0 0 1-.324-1.215l1.732-2.999-2.785-1.607-1.732 2.998a.89.89 0 0 1-1.211.328l-5.735-3.309a.89.89 0 0 1-.324-1.215l3.744-6.484c.578-.997 1.513-1.674 2.551-1.951.761-.204 1.582-.195 2.361.053l.473-1.355c.833-2.384 2.011-4.466 3.534-6.251a18.47 18.47 0 0 1 2.975-2.787c-4.032-2.21-7.536-3.301-12.176-3.301-14.899 0-26.976 12.076-26.976 26.976a27.12 27.12 0 0 0 .847 6.749c.495 1.922 1.197 3.761 2.079 5.491a8.71 8.71 0 0 1 4.047-.991 8.85 8.85 0 0 1 2.924.503c1.6-2.606 4.204-4.453 7.197-5.088a.89.89 0 0 1 1.053.686.89.89 0 0 1-.686 1.053 9.41 9.41 0 0 0-6.376 4.854.89.89 0 0 1-1.173.421 6.87 6.87 0 0 0-2.94-.646c-1.927 0-3.671.782-4.932 2.042a6.94 6.94 0 0 0-2.042 4.93 6.97 6.97 0 0 0 6.974 6.972h1.337c-.01-.172.03-.348.126-.506l1.106-1.827a.89.89 0 1 1 1.525.919l-.856 1.414h3.041c-.008-.172.031-.348.127-.506l2.185-3.606a.89.89 0 0 1 1.218-.299.89.89 0 0 1 .299 1.218l-1.935 3.193h3.043c-.01-.172.03-.348.126-.506l5.856-9.674a.89.89 0 0 1 1.525.919l-5.607 9.261h3.041c-.008-.172.031-.348.127-.506l1.686-2.784c.254-.418.799-.553 1.218-.299s.553.799.299 1.218l-1.436 2.371h21.956c3.857 0 6.972-3.115 6.972-6.972s-3.115-6.972-6.972-6.972a6.87 6.87 0 0 0-2.94.646.89.89 0 0 1-1.161-.401 9.49 9.49 0 0 0-1.778-2.401c-.716-.7-1.543-1.288-2.443-1.728zm-16.754 3.232a.89.89 0 1 1 1.525.919l-4.509 7.45a.89.89 0 1 1-1.525-.919zm9.255-7.13a.89.89 0 0 1 1.525.919l-5.524 9.128a.89.89 0 1 1-1.525-.919zm4.939 0a.89.89 0 0 1 1.525.919l-1.521 2.515a.89.89 0 1 1-1.525-.919zm-2.979 4.922a.89.89 0 0 1 1.525.919l-1.26 2.083a.89.89 0 1 1-1.525-.919zm-2.744 4.541c.254-.418.8-.553 1.218-.299s.553.799.299 1.218l-1.26 2.082a.89.89 0 0 1-1.218.299.89.89 0 0 1-.299-1.218zm-3.055 5.043a.89.89 0 1 1 1.525.919l-.687 1.136a.89.89 0 1 1-1.525-.919zM30.097 32.12a.89.89 0 0 1 1.215-.324.89.89 0 0 1 .324 1.215l-4.294 7.361a.89.89 0 0 1-1.215.324.89.89 0 0 1-.324-1.215zm-5.78 9.814a.89.89 0 0 1 1.525.919l-2.419 3.998a.89.89 0 1 1-1.525-.919zm-4.511 7.452a.89.89 0 0 1 1.525.919l-2.926 4.836a.89.89 0 1 1-1.525-.919zm31.497-34.584a4.03 4.03 0 0 1-2.846 4.923 4.03 4.03 0 0 1-4.924-2.846c-.57-2.141.706-4.349 2.846-4.924s4.349.706 4.924 2.846zm-1.72.458c-.324-1.2-1.544-1.905-2.745-1.584s-1.905 1.544-1.584 2.746a2.24 2.24 0 1 0 4.329-1.161zm-3.747 11.517c-.598.159-1.138.55-1.47 1.123l-3.298 5.714 4.193 2.42 3.298-5.718c.33-.573.396-1.234.236-1.833-.348-1.303-1.668-2.053-2.958-1.706zm1.88-1.675l1.161-1.348c1.5-1.743 2.606-3.615 3.316-5.618.737-2.078 1.029-4.26.963-6.457l-.162-5.497-4.844 2.61c-2.027 1.093-3.73 2.445-5.11 4.061s-2.45 3.508-3.208 5.681l-.587 1.68a4.2 4.2 0 0 1 1.212 2.005c.277 1.036.162 2.182-.417 3.183l-1.122 1.943 2.784 1.607 1.123-1.945c.577-.997 1.513-1.674 2.551-1.951.754-.202 1.566-.196 2.338.045zm-11.936-4.131c-.598.159-1.138.55-1.47 1.123l-3.298 5.714 4.193 2.42 3.298-5.718c.331-.573.396-1.234.236-1.833a2.4 2.4 0 0 0-2.958-1.706zm19.047-6.494c2.002 2.467 3.608 5.277 4.71 8.322 1.108 3.061 1.713 6.358 1.713 9.788 0 2.471-.318 4.882-.91 7.188a28.64 28.64 0 0 1-2.31 6.036 8.75 8.75 0 0 1 3.22 6.78c0 4.83-3.925 8.755-8.755 8.755H12.488c-4.831 0-8.757-3.927-8.757-8.755 0-2.412.983-4.604 2.567-6.188.209-.208.427-.406.654-.592a28.66 28.66 0 0 1-2.311-6.036c-.592-2.306-.91-4.716-.91-7.188C3.731 16.711 16.613 3.83 32.49 3.83c5.305 0 9.259 1.356 13.818 3.972.325-.197.66-.389 1.001-.573l6.11-3.292a.89.89 0 0 1 1.204.362c.075.141.11.293.105.443l.203 6.89a21.18 21.18 0 0 1-.104 2.847z" fill="#fff" image-rendering="optimizeQuality" shape-rendering="geometricPrecision" text-rendering="geometricPrecision"/></svg>