<?xml version="1.0" encoding="UTF-8" standalone="no"?>
<!-- Created with Inkscape (http://www.inkscape.org/) -->

<svg
   width="64.0px"
   height="64.0px"
   viewBox="0 0 64.0 64.0"
   version="1.1"
   id="SVGRoot"
   sodipodi:docname="rocket.svg"
   inkscape:version="1.1.2 (b8e25be833, 2022-02-05)"
   xmlns:inkscape="http://www.inkscape.org/namespaces/inkscape"
   xmlns:sodipodi="http://sodipodi.sourceforge.net/DTD/sodipodi-0.dtd"
   xmlns="http://www.w3.org/2000/svg"
   xmlns:svg="http://www.w3.org/2000/svg">
  <sodipodi:namedview
     id="namedview4138"
     pagecolor="#787878"
     bordercolor="#666666"
     borderopacity="1.0"
     inkscape:pageshadow="2"
     inkscape:pageopacity="0"
     inkscape:pagecheckerboard="0"
     inkscape:document-units="px"
     showgrid="true"
     inkscape:zoom="6.0364197"
     inkscape:cx="38.102056"
     inkscape:cy="28.907864"
     inkscape:window-width="1920"
     inkscape:window-height="1002"
     inkscape:window-x="-8"
     inkscape:window-y="-8"
     inkscape:window-maximized="1"
     inkscape:current-layer="layer1"
     inkscape:snap-global="false">
    <inkscape:grid
       type="xygrid"
       id="grid4201" />
  </sodipodi:namedview>
  <defs
     id="defs4133" />
  <g
     inkscape:label="Warstwa 1"
     inkscape:groupmode="layer"
     id="layer1">
    <path
       class="fil5"
       d="m 32.788,36.011195 c 0.250961,-0.421039 0.796725,-0.558236 1.217764,-0.307275 0.421039,0.25096 0.558236,0.796724 0.307276,1.217764 l -3.815434,6.395339 c -0.250961,0.421039 -0.796724,0.558236 -1.217764,0.307276 -0.421039,-0.250961 -0.558236,-0.797103 -0.307275,-1.218142 z m 11.384316,5.725985 c -0.438803,-0.213921 -0.621354,-0.74759 -0.407055,-1.186394 0.213921,-0.438803 0.747213,-0.621354 1.186016,-0.407433 1.076788,0.528 2.060221,1.224567 2.903433,2.048882 0.655749,0.641764 1.234394,1.364788 1.715906,2.14904 0.93241,-0.329197 1.935119,-0.503055 2.923843,-0.503055 1.457764,0 2.834646,0.357921 4.044473,0.990236 0.883276,-1.732157 1.586646,-3.571276 2.080252,-5.490142 0.551433,-2.144882 0.847748,-4.409198 0.847748,-6.749103 0,-3.229607 -0.565039,-6.323529 -1.60063,-9.181608 -0.84737,-2.345197 -2.016,-4.543748 -3.447685,-6.536315 -0.150803,0.630803 -0.333355,1.250645 -0.548788,1.859527 -0.784252,2.212158 -1.99937,4.272001 -3.645354,6.184064 l -0.939213,1.091528 c 0.606236,0.551433 1.024252,1.258961 1.228724,2.020158 0.27704,1.03559 0.161764,2.181921 -0.416882,3.183118 l -3.744,6.481513 c -0.242646,0.423685 -0.787276,0.570708 -1.210961,0.327685 l -5.735434,-3.309355 c -0.424063,-0.245291 -0.569196,-0.791055 -0.323905,-1.215118 l 1.732158,-2.999056 -2.785135,-1.607433 -1.732157,2.997922 c -0.243024,0.423685 -0.787276,0.570708 -1.211339,0.327685 L 29.350897,28.904171 C 28.927212,28.65888 28.782078,28.113116 29.02737,27.689053 l 3.744,-6.484159 c 0.577512,-0.997039 1.512945,-1.67433 2.551182,-1.95137 0.760819,-0.204472 1.582488,-0.195024 2.361449,0.05329 l 0.473197,-1.35496 c 0.83263,-2.383749 2.010708,-4.465513 3.534236,-6.250961 0.876473,-1.027276 1.867843,-1.9559061 2.974867,-2.7870243 -4.032379,-2.2095121 -7.536379,-3.3010398 -12.176128,-3.3010398 -14.899278,0 -26.9763813,12.0755921 -26.9763813,26.9763811 0,2.338394 0.296315,4.604221 0.8473702,6.749103 0.4951182,1.921512 1.1973545,3.76063 2.0791184,5.491276 1.2113387,-0.633449 2.5882207,-0.99137 4.0474967,-0.99137 0.988724,0 1.991055,0.173858 2.923843,0.503055 1.600252,-2.605607 4.203591,-4.45304 7.197355,-5.088001 0.48,-0.101291 0.951685,0.205607 1.053355,0.685607 0.101291,0.48 -0.205607,0.952063 -0.685985,1.053354 -2.737134,0.580159 -5.085355,2.372789 -6.375686,4.853671 -0.209764,0.434646 -0.732472,0.622488 -1.172787,0.42104 -0.935056,-0.434646 -1.90904,-0.645922 -2.940095,-0.645922 -1.927182,0 -3.6714337,0.781607 -4.9319063,2.042079 -1.2616064,1.257449 -2.042079,3.003591 -2.042079,4.930395 0,3.852472 3.1200004,6.972473 6.9739853,6.972473 h 1.337197 c -0.0098,-0.171591 0.02986,-0.348473 0.125858,-0.506079 l 1.105512,-1.826646 c 0.253606,-0.421039 0.800882,-0.557102 1.221921,-0.303118 0.42104,0.253606 0.556725,0.800882 0.303119,1.221921 l -0.855686,1.413922 h 3.040631 c -0.0083,-0.171591 0.03137,-0.348473 0.12737,-0.506079 l 2.184567,-3.60567 c 0.253985,-0.418016 0.799749,-0.552567 1.218142,-0.29896 0.418016,0.253984 0.552567,0.799748 0.298961,1.217764 l -1.935118,3.192945 h 3.043276 c -0.0098,-0.171591 0.02986,-0.348473 0.125858,-0.506079 l 5.856378,-9.67408 c 0.253607,-0.421039 0.800882,-0.557102 1.221922,-0.303118 0.421039,0.253606 0.556724,0.800882 0.303118,1.221921 l -5.606552,9.261356 h 3.04063 c -0.0083,-0.171591 0.03137,-0.348473 0.127371,-0.506079 l 1.685669,-2.784 c 0.253606,-0.418394 0.79937,-0.552567 1.217764,-0.298961 0.418394,0.253606 0.552567,0.79937 0.298961,1.217764 l -1.435843,2.371276 h 21.955656 c 3.85663,0 6.972473,-3.114709 6.972473,-6.972473 0,-3.856631 -3.114709,-6.972474 -6.972473,-6.972474 -1.031433,0 -2.00504,0.211276 -2.940473,0.645922 -0.429354,0.197669 -0.942236,0.02343 -1.161449,-0.40063 -0.462236,-0.891213 -1.065827,-1.703056 -1.777512,-2.401135 -0.715842,-0.69959 -1.542803,-1.288063 -2.442709,-1.728 z m -16.753513,3.232253 c 0.253606,-0.42104 0.800882,-0.556725 1.221921,-0.303119 0.421039,0.253985 0.556724,0.800882 0.303118,1.221922 l -4.509355,7.449828 c -0.253984,0.421039 -0.800882,0.557102 -1.221921,0.303118 -0.42104,-0.253607 -0.557103,-0.800882 -0.303118,-1.221922 z m 9.254552,-7.13008 c 0.253606,-0.421039 0.800882,-0.556724 1.221921,-0.303118 0.42104,0.253606 0.556725,0.800882 0.303118,1.221921 l -5.524158,9.128316 c -0.253984,0.42104 -0.800882,0.557103 -1.221921,0.303118 -0.42104,-0.253606 -0.557103,-0.800882 -0.303118,-1.221921 z m 4.938709,0 c 0.253606,-0.421039 0.800882,-0.556724 1.221921,-0.303118 0.42104,0.253606 0.556725,0.800882 0.303119,1.221921 l -1.52126,2.515276 c -0.253607,0.42104 -0.800882,0.556725 -1.221922,0.303118 -0.421039,-0.253606 -0.556724,-0.800882 -0.303118,-1.221921 z m -2.979024,4.922079 c 0.253606,-0.421039 0.800882,-0.556724 1.221921,-0.303118 0.42104,0.253985 0.556725,0.800882 0.303119,1.221922 l -1.260473,2.083275 c -0.253606,0.42104 -0.800882,0.557103 -1.221921,0.303119 -0.42104,-0.253607 -0.556725,-0.800882 -0.303118,-1.221922 z m -2.744315,4.541103 c 0.253606,-0.418393 0.799748,-0.552945 1.217764,-0.29896 0.418393,0.253606 0.552945,0.79937 0.29896,1.217764 l -1.260094,2.081764 c -0.253985,0.418393 -0.799748,0.552567 -1.217764,0.29896 -0.418394,-0.253606 -0.552945,-0.79937 -0.299339,-1.217764 z m -3.055371,5.042647 c 0.253607,-0.42104 0.800882,-0.556725 1.221922,-0.303119 0.421039,0.253985 0.556724,0.800882 0.303118,1.221922 l -0.687118,1.135748 c -0.253985,0.421039 -0.800882,0.556724 -1.221922,0.303118 -0.421039,-0.253606 -0.557102,-0.800882 -0.303118,-1.221921 z M 30.096976,32.120171 c 0.245669,-0.423685 0.791433,-0.568819 1.215118,-0.323527 0.424063,0.245669 0.569197,0.791433 0.323906,1.215118 l -4.2943,7.360631 c -0.245291,0.423685 -0.791055,0.569197 -1.215118,0.323527 -0.423685,-0.245291 -0.568819,-0.791055 -0.323528,-1.215118 z m -5.78041,9.814301 c 0.253606,-0.42104 0.800882,-0.556725 1.221921,-0.303119 0.42104,0.253607 0.556725,0.800882 0.303119,1.221922 L 23.42233,46.85126 c -0.253985,0.421039 -0.800882,0.556724 -1.221922,0.303118 -0.421039,-0.253985 -0.557102,-0.800882 -0.303118,-1.221922 z m -4.510867,7.452473 c 0.253607,-0.421039 0.800882,-0.556725 1.221922,-0.303118 0.421039,0.253984 0.556724,0.800882 0.303118,1.221921 l -2.926489,4.835906 c -0.253984,0.42104 -0.80126,0.556725 -1.222299,0.303118 -0.42104,-0.253606 -0.556725,-0.800882 -0.302741,-1.221921 z M 51.302774,14.80313 c 0.570331,2.140725 -0.706394,4.350237 -2.845985,4.923213 -2.140724,0.570709 -4.348725,-0.706016 -4.923591,-2.845607 -0.570331,-2.140724 0.706394,-4.348724 2.845985,-4.92359 2.140724,-0.570331 4.348725,0.706393 4.923591,2.845984 z m -1.720063,0.458079 c -0.323528,-1.200378 -1.544315,-1.90526 -2.745449,-1.584378 -1.200001,0.323905 -1.904883,1.544315 -1.584001,2.745827 0.323528,1.2 1.545449,1.903748 2.745449,1.584 1.200001,-0.323528 1.903749,-1.545449 1.584001,-2.745449 z m -3.746646,11.517355 c -0.597922,0.159118 -1.138394,0.549922 -1.470237,1.123276 -1.101354,1.906394 -2.197039,3.805607 -3.298394,5.713513 l 4.19263,2.420409 3.298395,-5.71767 c 0.33033,-0.572976 0.396094,-1.234016 0.235842,-1.833449 -0.348472,-1.302803 -1.667906,-2.053039 -2.958236,-1.706079 z m 1.880315,-1.674708 1.161449,-1.348158 c 1.500472,-1.743118 2.605984,-3.615119 3.316158,-5.617513 0.73663,-2.077606 1.028787,-4.259528 0.963023,-6.456567 L 52.994869,6.1846725 48.151025,8.7944366 c -2.02696,1.0930395 -3.730394,2.4453544 -5.109921,4.0611024 -1.379906,1.616882 -2.449512,3.508158 -3.208064,5.680631 l -0.58696,1.68 c 0.596787,0.548409 1.010645,1.250646 1.212472,2.005039 0.27704,1.035591 0.161764,2.181922 -0.416882,3.183119 l -1.121764,1.943433 2.784001,1.607434 1.123275,-1.944946 c 0.577134,-0.997039 1.512567,-1.67433 2.550804,-1.95137 0.754394,-0.201827 1.566236,-0.196157 2.338394,0.04498 z M 35.78063,20.973209 c -0.598299,0.159118 -1.138394,0.549922 -1.470236,1.123276 l -3.298394,5.713513 4.19263,2.420409 c 1.102489,-1.910173 2.19704,-3.80863 3.298016,-5.71767 0.330709,-0.572976 0.396473,-1.234016 0.236221,-1.833449 -0.345827,-1.293354 -1.655433,-2.055685 -2.958237,-1.706079 z m 19.046554,-6.493985 c 2.002394,2.467276 3.608315,5.277355 4.70967,8.322143 1.108157,3.06104 1.712882,6.357922 1.712882,9.787844 0,2.471433 -0.318237,4.882394 -0.910489,7.187906 -0.545763,2.116158 -1.326236,4.140473 -2.309669,6.035906 2.031118,1.651276 3.220158,4.147276 3.220158,6.780474 0,4.830236 -3.92504,8.755276 -8.755277,8.755276 H 12.487777 c -4.8306149,0 -8.7567886,-3.926552 -8.7567886,-8.755276 0,-2.412473 0.9830552,-4.603844 2.5670554,-6.188222 C 6.5066737,46.197023 6.7247525,45.999354 6.9522801,45.813023 5.967713,43.913433 5.1861067,41.890629 4.6414767,39.777117 4.0492246,37.471605 3.7309884,35.060644 3.7309884,32.589211 c 0,-15.878553 12.8821436,-28.7591844 28.7591846,-28.7591844 5.304946,0 9.25871,1.3560946 13.817577,3.971528 0.325039,-0.1972914 0.659527,-0.3892914 1.001197,-0.5729765 l 6.109985,-3.2915909 c 0.432,-0.2316851 0.972094,-0.069921 1.204157,0.3620788 0.07521,0.1409764 0.109607,0.2932913 0.105449,0.4429607 l 0.202961,6.8900793 c 0.02872,0.972472 -0.0068,1.921512 -0.104315,2.847118 z"
       id="path34"
       style="clip-rule:evenodd;fill:#ffffff;fill-opacity:1;fill-rule:nonzero;stroke:none;stroke-width:0.0377953;image-rendering:optimizeQuality;shape-rendering:geometricPrecision;text-rendering:geometricPrecision" />
  </g>
</svg>
