<svg xmlns="http://www.w3.org/2000/svg" width="64" height="64"><path d="M4.601 53.048c-.491 0-.891-.4-.891-.891s.4-.892.891-.892h52.654c1.207 0 2.19-.986 2.19-2.193a2.2 2.2 0 0 0-2.19-2.19H4.601c-.491 0-.891-.401-.891-.892V11.789c0-.491.4-.892.891-.892h41.11c.491 0 .892.401.892.892v31.025c0 .491-.401.892-.892.892H7.791c-.491 0-.891-.401-.891-.892s.4-.891.891-.891h37.028V12.681H5.493v32.419h51.763c2.185 0 3.973 1.788 3.973 3.973s-1.785 3.976-3.973 3.976zm6.092-3.142c-.491 0-.892-.401-.892-.892s.401-.891.892-.891h9.434c.491 0 .892.4.892.891s-.401.892-.892.892zM30.047 29.68a.89.89 0 0 1-.937.838.89.89 0 0 1-.838-.937 5.41 5.41 0 0 0-.344-2.217 5.36 5.36 0 0 0-5.004-3.441 5.35 5.35 0 1 0 0 10.708c2.024 0 3.814-1.118 4.762-2.884.315-.595.928-.565 1.411-.211l4.997 4.999a2.59 2.59 0 0 1-.046 3.596 2.59 2.59 0 0 1-3.645.002l-2.832-2.832a.89.89 0 0 1-.003-1.256.89.89 0 0 1 1.256-.003l2.836 2.831a.81.81 0 0 0 1.127.001c.296-.296.307-.787.032-1.101l-4.202-4.201a7.1 7.1 0 0 1-5.693 2.843 7.14 7.14 0 0 1-7.137-7.137 7.14 7.14 0 0 1 7.137-7.137c2.969 0 5.618 1.845 6.667 4.59a7.17 7.17 0 0 1 .457 2.95zM7.874 14.709h34.563c.491 0 .892.401.892.892v4.173c0 .491-.401.892-.892.892H7.874c-.491 0-.891-.401-.891-.892V15.6c0-.491.4-.892.891-.892zm33.672 1.783H8.765v2.39h32.781z" fill="#fff" image-rendering="optimizeQuality" shape-rendering="geometricPrecision" text-rendering="geometricPrecision"/></svg>