<svg xmlns="http://www.w3.org/2000/svg" width="64" height="64"><path d="M47.645 22.203c2.205 0 4.01 1.806 4.01 4.012 0 .948-.333 1.822-.886 2.51 1.525.604 2.547 2.083 2.547 3.733a4.02 4.02 0 0 1-2.547 3.735c.554.689.886 1.564.886 2.508 0 1.747-1.138 3.287-2.791 3.822.513.674.819 1.513.819 2.419 0 2.208-1.805 4.014-4.013 4.014h-1.019a3.74 3.74 0 0 1-3.667 3.093h-7.878v6.045c0 .544-.453.887-.982.887l-17.741.002c-.608 0-1.106-.436-.953-1.088l6.172-26.485c.003-1.513.075-2.857.289-4.212.215-1.377.578-2.73 1.158-4.236l6.683-17.356a.89.89 0 0 1 .859-.653h.723c3.279 0 5.762 2.895 5.276 6.137L32.9 22.205l14.744-.002zM31.323 57.207v-5.158h-3.425c-4.564 0-8.297-3.733-8.297-8.298v-.686c0-.491.4-.892.891-.892s.892.401.892.892v.686a6.53 6.53 0 0 0 6.514 6.514h13.085a1.95 1.95 0 0 0 1.832-1.31h-5.136c-2.206 0-4.011-1.805-4.011-4.012 0-1.226.553-2.352 1.497-3.123-.943-.77-1.497-1.895-1.497-3.12s.555-2.354 1.497-3.122c-.943-.768-1.497-1.897-1.497-3.12s.553-2.352 1.497-3.123c-.943-.77-1.497-1.895-1.497-3.12 0-.824.252-1.592.68-2.23h-2.484c-.491 0-.892-.401-.892-.892l1.854-12.269c.329-2.172-1.315-4.091-3.515-4.091h-.115l-6.492 16.862c-.535 1.391-.867 2.626-1.061 3.872-.195 1.239-.259 2.535-.259 4.036l-.037.254-5.93 25.45zm-.53-15.266c0 .491-.401.892-.892.892s-.891-.401-.891-.892V40.91a2.82 2.82 0 0 0-2.816-2.816h-1.148c-.491 0-.892-.401-.892-.892s.401-.891.892-.891h1.148c1.555 0 2.816-1.26 2.816-2.817v-1.031c0-.491.4-.892.891-.892s.892.401.892.892v1.031a4.61 4.61 0 0 1-1.886 3.707 4.61 4.61 0 0 1 1.886 3.708zm12.692-17.955l-.045.002H37.62c-1.192 0-2.169 1.056-2.169 2.227 0 1.252 1.011 2.231 2.254 2.231h9.939c.591 0 1.155-.236 1.573-.654.403-.403.654-.962.654-1.575 0-1.228-.999-2.231-2.227-2.231zm2.185 18.727h-7.967c-1.242 0-2.252.982-2.252 2.229 0 1.228 1 2.231 2.228 2.231h7.99c1.228 0 2.23-1 2.23-2.229 0-.616-.251-1.174-.654-1.577a2.23 2.23 0 0 0-1.576-.654zm1.975-6.243h-9.94c-1.244 0-2.253.982-2.253 2.23 0 1.256 1.013 2.23 2.263 2.23h9.931c1.226 0 2.227-1.002 2.227-2.228s-.999-2.231-2.227-2.231zm-12.194-4.013c0 1.251 1.01 2.23 2.256 2.23h11.597c1.228 0 2.228-1 2.228-2.227s-1-2.231-2.228-2.231H37.754c-1.273 0-2.302.939-2.302 2.228z" fill="#fff" image-rendering="optimizeQuality" shape-rendering="geometricPrecision" text-rendering="geometricPrecision"/></svg>