<?xml version="1.0" encoding="UTF-8" standalone="no"?>
<!-- Created with Inkscape (http://www.inkscape.org/) -->

<svg
   width="64.0px"
   height="64.0px"
   viewBox="0 0 64.0 64.0"
   version="1.1"
   id="SVGRoot"
   sodipodi:docname="tools.svg"
   inkscape:version="1.1.2 (b8e25be833, 2022-02-05)"
   xmlns:inkscape="http://www.inkscape.org/namespaces/inkscape"
   xmlns:sodipodi="http://sodipodi.sourceforge.net/DTD/sodipodi-0.dtd"
   xmlns="http://www.w3.org/2000/svg"
   xmlns:svg="http://www.w3.org/2000/svg">
  <sodipodi:namedview
     id="namedview4138"
     pagecolor="#787878"
     bordercolor="#666666"
     borderopacity="1.0"
     inkscape:pageshadow="2"
     inkscape:pageopacity="0"
     inkscape:pagecheckerboard="0"
     inkscape:document-units="px"
     showgrid="true"
     inkscape:zoom="6.0364197"
     inkscape:cx="38.102056"
     inkscape:cy="28.907864"
     inkscape:window-width="1920"
     inkscape:window-height="1002"
     inkscape:window-x="-8"
     inkscape:window-y="-8"
     inkscape:window-maximized="1"
     inkscape:current-layer="layer1"
     inkscape:snap-global="false">
    <inkscape:grid
       type="xygrid"
       id="grid4201" />
  </sodipodi:namedview>
  <defs
     id="defs4133" />
  <g
     inkscape:label="Warstwa 1"
     inkscape:groupmode="layer"
     id="layer1">
    <path
       class="fil5"
       d="M 53.777546,12.744828 C 53.427562,11.558812 52.730995,10.146024 51.813325,8.7321026 51.103152,7.6349056 50.259561,6.5403536 49.343404,5.555787 l 1.548473,5.304946 c 0.76233,2.622236 -2.707276,4.377449 -4.792064,4.985197 -2.093859,0.606237 -5.964473,1.016315 -6.735119,-1.625197 L 37.817733,8.9225906 c -0.242645,1.3303944 -0.364724,2.7061424 -0.374551,4.0047884 -0.01096,1.671685 0.163276,3.231118 0.502299,4.42167 0.316725,1.003842 0.70904,1.826645 1.359119,2.585197 0.571842,0.651212 1.266897,1.138394 2.04737,1.488 1.79263,0.776315 4.061103,0.766488 6.399119,0.08353 1.625197,-0.47433 3.048945,-1.208315 4.131024,-2.155842 0.541606,-0.489449 1.124409,-1.121764 1.460409,-1.767686 0.935434,-1.661102 0.854552,-3.154394 0.435024,-4.837417 z M 22.687905,38.765744 c -0.319748,0.148158 -0.607748,0.356409 -0.844725,0.610016 -0.450142,0.48 -0.728315,1.128945 -0.728315,1.839118 v 6.532536 c 0,0.710174 0.278173,1.359119 0.728315,1.839119 0.236977,0.253606 0.524977,0.462236 0.844725,0.610015 z m 0,13.31112 c -0.831118,-0.216567 -1.570394,-0.665197 -2.139591,-1.272567 -0.75137,-0.800882 -1.216252,-1.880316 -1.216252,-3.056883 v -6.532536 c 0,-1.176567 0.464882,-2.256 1.216252,-3.056882 0.569197,-0.60737 1.308473,-1.056 2.139591,-1.272567 v -2.683843 h -3.642709 -0.02343 -3.628725 -0.02343 -3.642331 v 2.683843 c 0.831118,0.216567 1.570015,0.665197 2.139212,1.272567 0.751749,0.800882 1.21663,1.880315 1.21663,3.056882 v 6.532536 c 0,1.176567 -0.464881,2.256001 -1.21663,3.056883 -0.569197,0.60737 -1.308094,1.056 -2.139212,1.272567 v 1.255181 c 0,1.506898 0.617196,2.876977 1.610078,3.870237 0.992882,0.992882 2.362961,1.610079 3.870237,1.610079 1.507276,0 2.878489,-0.617197 3.871371,-1.610079 0.99326,-0.99326 1.608945,-2.363339 1.608945,-3.870237 z M 19.913353,21.477049 v 10.941356 h 3.665764 c 0.491339,0 0.891591,0.40063 0.891591,0.89159 v 20.02205 c 0,1.996725 -0.817512,3.813922 -2.13241,5.129197 -1.315275,1.315276 -3.133984,2.133922 -5.130709,2.133922 -1.997102,0 -3.8143,-0.818646 -5.129197,-2.133922 C 10.763116,57.145967 9.9440921,55.32877 9.9440921,53.332045 v -20.02205 c 0,-0.49096 0.4006299,-0.89159 0.8915909,-0.89159 h 3.665764 V 21.45664 C 13.937919,21.16297 13.42088,20.783128 12.971116,20.333364 11.886392,19.251285 11.188313,17.760261 11.188313,16.1173 L 11.728407,5.8313146 c 0.02343,-0.4743308 0.416882,-0.8432127 0.887434,-0.8432127 l 9.169512,-0.00302 c 0.490961,0 0.891591,0.40063 0.891591,0.8915907 0,3.331276 0.474331,6.8999074 0.541606,10.2640644 l 0.0057,0.218079 c 0.0042,1.589292 -0.696945,3.000568 -1.766552,4.029355 -0.453921,0.436158 -0.977764,0.80504 -1.544315,1.088882 z m -3.628725,0.578646 v 10.36271 h 1.845922 v -10.36271 c -0.207118,0.03439 -0.415748,0.05632 -0.624,0.06728 l -0.301984,0.0068 c -0.309922,0.0015 -0.618331,-0.02457 -0.919938,-0.07408 z M 15.110707,9.9101816 c -0.491339,0 -0.891591,-0.40063 -0.891591,-0.891591 0,-0.490961 0.400252,-0.891213 0.891591,-0.891213 h 4.195276 c 0.490961,0 0.891213,0.400252 0.891213,0.891213 0,0.490961 -0.400252,0.891591 -0.891213,0.891591 z m 6.336001,6.4486304 c -0.048,-3.123024 -0.336,-6.4486304 -0.503433,-9.5905524 H 13.459431 L 12.971116,16.1173 c 0,1.147843 0.492473,2.192883 1.256315,2.957103 0.41537,0.41537 0.910489,0.749858 1.450961,0.970961 l 0.0083,0.0026 0.0121,0.0053 0.02079,0.0072 0.01512,0.0068 0.0053,0.0011 0.0057,0.003 c 0.461858,0.181039 0.953197,0.279685 1.458898,0.279685 l 0.211275,-0.0026 c 0.415748,-0.02192 0.826961,-0.108472 1.220788,-0.250961 l 0.01928,-0.0072 v -0.0011 l 0.114898,-0.04384 c 0.540472,-0.216945 1.037102,-0.536315 1.455118,-0.938079 0.735118,-0.707906 1.219276,-1.672063 1.220788,-2.748473 z m -9.719434,33.837736 c 0.31937,-0.147779 0.606236,-0.356409 0.844724,-0.610015 0.449764,-0.48 0.728315,-1.128945 0.728315,-1.839119 v -6.532536 c 0,-0.710173 -0.278551,-1.359118 -0.728315,-1.839118 -0.237354,-0.253607 -0.525354,-0.461858 -0.844724,-0.610016 z m 36.420287,-7.877292 c 0,0.490961 -0.40063,0.891213 -0.89159,0.891213 -0.490961,0 -0.891213,-0.400252 -0.891213,-0.891213 V 28.125995 c 0,-0.334866 -0.267591,-0.602079 -0.602079,-0.602079 -0.331842,0 -0.603591,0.270236 -0.603591,0.602079 v 19.098711 c 0,0.367748 -0.237354,0.725669 -0.597921,0.850393 -1.435843,0.508725 -2.38904,1.867843 -2.38904,3.388725 0,1.98463 1.605922,3.589418 3.590552,3.589418 1.984252,0 3.590552,-1.604788 3.590552,-3.589418 0,-0.49096 0.400252,-0.891212 0.891212,-0.891212 0.490961,0 0.891591,0.400252 0.891591,0.891212 0,2.96504 -2.409827,5.372221 -5.373355,5.372221 -2.963906,0 -5.373355,-2.407181 -5.373355,-5.372221 0,-2.044724 1.160315,-3.903118 2.986961,-4.812473 V 28.125995 c 0,-1.31263 1.075276,-2.38526 2.386394,-2.38526 1.306961,0 2.384882,1.076787 2.384882,2.38526 z m 7.334552,-30.068035 c 0.698079,2.231434 0.403276,4.771276 -0.917669,6.736631 -0.481134,0.714709 -0.899528,1.123276 -1.49178,1.682646 -0.491338,0.469039 -0.865512,0.989102 -1.115339,1.551118 -0.266078,0.599433 -0.401763,1.275591 -0.401763,2.010709 v 20.342931 c 2.062866,1.719686 3.267024,4.272001 3.267024,6.960001 0,4.99767 -4.063749,9.059907 -9.059907,9.059907 -4.999182,0 -9.059906,-4.061103 -9.059906,-9.059907 0,-2.720882 1.219275,-5.275843 3.317669,-7.001197 V 25.216892 c 0,-0.715843 -0.130394,-1.374236 -0.385512,-1.963843 -0.242645,-0.563527 -0.608882,-1.086236 -1.091527,-1.555275 -1.04504,-0.991371 -1.943434,-2.401513 -2.296064,-3.833198 -0.390803,-1.350803 -0.591118,-3.09241 -0.578645,-4.945512 0.01247,-1.795276 0.220724,-3.7054494 0.639118,-5.4693554 0.485291,-1.563213 2.489197,-1.482331 2.906079,-0.08088 l 1.856882,6.3579224 c 0.373039,1.28126 3.512315,0.709039 4.527119,0.414236 1.017827,-0.29896 3.962457,-1.497449 3.587906,-2.786646 L 47.331561,5.0043538 c -0.426709,-1.4713702 1.385197,-2.5644097 2.486552,-1.5000946 1.309606,1.2642521 2.513764,2.7605674 3.484724,4.2595284 0.920316,1.416945 1.674709,2.8747094 2.179276,4.4874334 z m -5.517355,10.343435 c -0.548409,0.235842 -1.123275,0.44296 -1.719685,0.617196 -2.357669,0.687119 -4.687749,0.772158 -6.687497,0.170079 0.162142,0.584315 0.24567,1.197355 0.24567,1.834961 v 19.747656 c -0.0042,0.271748 -0.127748,0.538961 -0.362079,0.713197 -1.867843,1.381039 -2.955591,3.535748 -2.955591,5.857512 0,4.018394 3.258709,7.277104 7.277103,7.277104 4.02104,0 7.276725,-3.254552 7.276725,-7.277104 0,-2.277921 -1.040882,-4.392945 -2.849764,-5.779276 -0.249449,-0.159118 -0.416882,-0.437669 -0.416882,-0.754394 V 24.232325 c 0,-0.566551 0.06463,-1.112315 0.192,-1.637669 z"
       id="path53"
       style="clip-rule:evenodd;fill:#ffffff;fill-opacity:1;fill-rule:nonzero;stroke:none;stroke-width:0.0377953;image-rendering:optimizeQuality;shape-rendering:geometricPrecision;text-rendering:geometricPrecision" />
  </g>
</svg>
