<svg xmlns="http://www.w3.org/2000/svg" width="64" height="64"><path d="M53.778 12.745c-.35-1.186-1.047-2.599-1.964-4.013a23.33 23.33 0 0 0-2.47-3.176l1.548 5.305c.762 2.622-2.707 4.377-4.792 4.985-2.094.606-5.964 1.016-6.735-1.625l-1.547-5.298c-.243 1.33-.365 2.706-.375 4.005-.011 1.672.163 3.231.502 4.422.317 1.004.709 1.827 1.359 2.585.572.651 1.267 1.138 2.047 1.488 1.793.776 4.061.766 6.399.084 1.625-.474 3.049-1.208 4.131-2.156.542-.489 1.124-1.122 1.46-1.768.935-1.661.855-3.154.435-4.837zm-31.09 26.021c-.32.148-.608.356-.845.61-.45.48-.728 1.129-.728 1.839v6.533c0 .71.278 1.359.728 1.839a2.72 2.72 0 0 0 .845.61zm0 13.311c-.831-.217-1.57-.665-2.14-1.273-.751-.801-1.216-1.88-1.216-3.057v-6.533c0-1.177.465-2.256 1.216-3.057.569-.607 1.308-1.056 2.14-1.273v-2.684h-3.643-.023-3.629-.023-3.642v2.684c.831.217 1.57.665 2.139 1.273.752.801 1.217 1.88 1.217 3.057v6.533c0 1.177-.465 2.256-1.217 3.057-.569.607-1.308 1.056-2.139 1.273v1.255c0 1.507.617 2.877 1.61 3.87s2.363 1.61 3.87 1.61 2.878-.617 3.871-1.61 1.609-2.363 1.609-3.87zm-2.775-30.6v10.941h3.666c.491 0 .892.401.892.892v20.022c0 1.997-.818 3.814-2.132 5.129s-3.134 2.134-5.131 2.134-3.814-.819-5.129-2.134-2.134-3.132-2.134-5.129V33.31c0-.491.401-.892.892-.892h3.666V21.457c-.564-.294-1.081-.674-1.53-1.123-1.085-1.082-1.783-2.573-1.783-4.216l.54-10.286a.89.89 0 0 1 .887-.843l9.17-.003c.491 0 .892.401.892.892 0 3.331.474 6.9.542 10.264l.006.218c.004 1.589-.697 3.001-1.767 4.029a6.32 6.32 0 0 1-1.544 1.089zm-3.629.579v10.363h1.846V22.056a5.61 5.61 0 0 1-.624.067l-.302.007a5.52 5.52 0 0 1-.92-.074zM15.111 9.91c-.491 0-.892-.401-.892-.892s.4-.891.892-.891h4.195c.491 0 .891.4.891.891s-.4.892-.891.892zm6.336 6.449c-.048-3.123-.336-6.449-.503-9.591h-7.484l-.488 9.349c0 1.148.492 2.193 1.256 2.957a4.44 4.44 0 0 0 1.451.971l.008.003.012.005.021.007.015.007.005.001.006.003a3.99 3.99 0 0 0 1.459.28l.211-.003a4.25 4.25 0 0 0 1.221-.251l.019-.007v-.001l.115-.044a4.55 4.55 0 0 0 1.455-.938c.735-.708 1.219-1.672 1.221-2.748zm-9.719 33.838c.319-.148.606-.356.845-.61.45-.48.728-1.129.728-1.839v-6.533c0-.71-.279-1.359-.728-1.839-.237-.254-.525-.462-.845-.61zm36.42-7.877c0 .491-.401.891-.892.891s-.891-.4-.891-.891V28.126a.6.6 0 0 0-.602-.602c-.332 0-.604.27-.604.602v19.099a.91.91 0 0 1-.598.85 3.59 3.59 0 0 0 1.202 6.978 3.59 3.59 0 0 0 3.591-3.589c0-.491.4-.891.891-.891s.892.4.892.891a5.38 5.38 0 0 1-5.373 5.372 5.38 5.38 0 0 1-5.373-5.372c0-2.045 1.16-3.903 2.987-4.812V28.126c0-1.313 1.075-2.385 2.386-2.385a2.4 2.4 0 0 1 2.385 2.385zm7.335-30.068c.698 2.231.403 4.771-.918 6.737-.481.715-.9 1.123-1.492 1.683-.491.469-.866.989-1.115 1.551-.266.599-.402 1.276-.402 2.011v20.343c2.063 1.72 3.267 4.272 3.267 6.96a9.07 9.07 0 0 1-9.06 9.06 9.07 9.07 0 0 1-9.06-9.06 9.05 9.05 0 0 1 3.318-7.001V25.217c0-.716-.13-1.374-.386-1.964-.243-.564-.609-1.086-1.092-1.555-1.045-.991-1.943-2.402-2.296-3.833-.391-1.351-.591-3.092-.579-4.946.012-1.795.221-3.705.639-5.469.485-1.563 2.489-1.482 2.906-.081l1.857 6.358c.373 1.281 3.512.709 4.527.414s3.962-1.497 3.588-2.787l-1.854-6.35c-.427-1.471 1.385-2.564 2.487-1.5 1.31 1.264 2.514 2.761 3.485 4.26.92 1.417 1.675 2.875 2.179 4.487zm-5.517 10.343a15.01 15.01 0 0 1-1.72.617c-2.358.687-4.688.772-6.687.17a6.84 6.84 0 0 1 .246 1.835v19.748a.9.9 0 0 1-.362.713c-1.868 1.381-2.956 3.536-2.956 5.858a7.28 7.28 0 0 0 7.277 7.277c4.021 0 7.277-3.255 7.277-7.277a7.24 7.24 0 0 0-2.85-5.779c-.249-.159-.417-.438-.417-.754V24.232c0-.567.065-1.112.192-1.638z" fill="#fff" image-rendering="optimizeQuality" shape-rendering="geometricPrecision" text-rendering="geometricPrecision"/></svg>