<svg xmlns="http://www.w3.org/2000/svg" width="64" height="64"><path d="M31.809 13.831l2.057.089V9.99h-4.113v3.931l2.056-.089zm20.085.452l4.302 4.618a.89.89 0 0 1-.045 1.255l-2.374 2.212a.89.89 0 0 1-1.255-.045l-.214-.229-1.511 1.409c2.824 3.876 4.491 8.65 4.491 13.808 0 12.965-10.515 23.48-23.479 23.48S8.33 50.271 8.33 37.31a23.41 23.41 0 0 1 6.878-16.602c3.392-3.391 7.819-5.752 12.763-6.565V9.99h-.924c-.491 0-.892-.401-.892-.892V4.199c0-.491.401-.892.892-.892h9.526c.491 0 .892.401.892.892v4.899c0 .491-.401.892-.892.892h-.923v4.154c4.25.701 8.117 2.544 11.274 5.202l1.513-1.409-.215-.232a.89.89 0 0 1 .045-1.255l2.374-2.212a.89.89 0 0 1 1.255.045zm-.796 6.51l-1.452-1.558-1.404 1.308c.506.502.989 1.016 1.452 1.559zm3.193-1.332L51.2 16.143l-1.075 1.001 3.091 3.319zM28.605 35.366L19.89 26.65a.89.89 0 1 1 1.259-1.259l8.716 8.716c.568-.346 1.234-.545 1.945-.545a3.75 3.75 0 0 1 3.748 3.748 3.75 3.75 0 0 1-3.748 3.748 3.75 3.75 0 0 1-3.748-3.748 3.73 3.73 0 0 1 .544-1.945zm3.204-.021a1.96 1.96 0 0 0-1.965 1.965c0 1.088.878 1.965 1.965 1.965s1.965-.878 1.965-1.965-.878-1.965-1.965-1.965zm-2.199-13.83c0 .491-.4.892-.891.892s-.892-.401-.892-.892v-1.641c-3.355.768-6.359 2.496-8.709 4.871-2.356 2.382-4.054 5.417-4.791 8.79h1.686c.491 0 .891.4.891.891s-.4.892-.891.892h-2.755c-.547-.06-.966-.442-.876-1.027.656-4.172 2.626-7.924 5.469-10.799 2.828-2.86 6.525-4.863 10.658-5.565.58-.071 1.101.231 1.101.866zm4.397 31.59c0-.491.4-.891.891-.891s.892.4.892.891v1.642c6.724-1.539 12.029-6.927 13.499-13.661h-1.686c-.491 0-.891-.401-.891-.892s.4-.891.891-.891h2.755c.547.06.966.441.876 1.027-1.306 8.31-7.827 14.954-16.127 16.365-.58.071-1.101-.231-1.101-.866zm-3.09-1.86c0-.491.401-.892.892-.892s.892.401.892.892v2.625c0 .491-.401.892-.892.892a17.4 17.4 0 0 1-12.339-5.113c-3.157-3.157-5.113-7.524-5.113-12.339 0-.491.401-.891.892-.891h2.625c.491 0 .892.4.892.891s-.401.892-.892.892h-1.709c.223 3.972 1.927 7.551 4.564 10.188s6.217 4.341 10.188 4.564zm1.783-27.871c0 .491-.401.891-.892.891s-.892-.4-.892-.891V20.75c0-.513.412-.891.918-.891 9.621.014 17.426 7.832 17.426 17.452 0 .491-.401.892-.892.892h-2.625c-.491 0-.892-.401-.892-.892s.401-.891.892-.891h1.709c-.444-7.948-6.805-14.309-14.753-14.753zm2.98-15.168V5.09h-7.743v3.116h7.743zm11.472 13.76c-3.924-3.925-9.351-6.353-15.344-6.353a21.63 21.63 0 0 0-15.343 6.354c-3.924 3.924-6.354 9.351-6.354 15.342 0 11.985 9.711 21.696 21.696 21.696s21.696-9.713 21.696-21.696c0-5.993-2.427-11.42-6.353-15.344z" fill="#fff" image-rendering="optimizeQuality" shape-rendering="geometricPrecision" text-rendering="geometricPrecision"/></svg>