<?xml version="1.0" encoding="UTF-8" standalone="no"?>
<!-- Created with Inkscape (http://www.inkscape.org/) -->

<svg
   width="64.0px"
   height="64.0px"
   viewBox="0 0 64.0 64.0"
   version="1.1"
   id="SVGRoot"
   sodipodi:docname="watch.svg"
   inkscape:version="1.1.2 (b8e25be833, 2022-02-05)"
   xmlns:inkscape="http://www.inkscape.org/namespaces/inkscape"
   xmlns:sodipodi="http://sodipodi.sourceforge.net/DTD/sodipodi-0.dtd"
   xmlns="http://www.w3.org/2000/svg"
   xmlns:svg="http://www.w3.org/2000/svg">
  <sodipodi:namedview
     id="namedview4138"
     pagecolor="#787878"
     bordercolor="#666666"
     borderopacity="1.0"
     inkscape:pageshadow="2"
     inkscape:pageopacity="0"
     inkscape:pagecheckerboard="0"
     inkscape:document-units="px"
     showgrid="true"
     inkscape:zoom="6.0364197"
     inkscape:cx="38.102056"
     inkscape:cy="28.907864"
     inkscape:window-width="1920"
     inkscape:window-height="1002"
     inkscape:window-x="-8"
     inkscape:window-y="-8"
     inkscape:window-maximized="1"
     inkscape:current-layer="layer1"
     inkscape:snap-global="false">
    <inkscape:grid
       type="xygrid"
       id="grid4201" />
  </sodipodi:namedview>
  <defs
     id="defs4133" />
  <g
     inkscape:label="Warstwa 1"
     inkscape:groupmode="layer"
     id="layer1">
    <path
       class="fil5"
       d="m 31.809365,13.831022 c 0.69241,0 1.378394,0.03024 2.057197,0.0892 V 9.9895128 H 29.75368 v 3.9307092 c 0.677291,-0.05896 1.363275,-0.0892 2.055685,-0.0892 z m 20.085168,0.45241 4.302236,4.617827 c 0.332977,0.357921 0.312567,0.921449 -0.04535,1.254803 l -2.373921,2.212158 c -0.357922,0.333354 -0.921827,0.312567 -1.255182,-0.04535 l -0.213921,-0.22904 -1.511055,1.40863 c 2.823685,3.875906 4.491213,8.649828 4.491213,13.80775 0,12.964537 -10.514647,23.479562 -23.479184,23.479562 -12.961513,0 -23.4791835,-10.519182 -23.4791835,-23.479562 0,-6.481512 2.6301735,-12.354143 6.8776075,-16.601577 3.391748,-3.39137 7.818709,-5.751685 12.762709,-6.56504 V 9.9895138 h -0.924094 c -0.490961,0 -0.891591,-0.40063 -0.891591,-0.891591 V 4.1992729 c 0,-0.4909607 0.40063,-0.8915907 0.891591,-0.8915907 h 9.525922 c 0.490961,0 0.891591,0.40063 0.891591,0.8915907 v 4.8986459 c 0,0.490961 -0.40063,0.891591 -0.891591,0.891591 h -0.922961 v 4.1540792 c 4.25008,0.700725 8.116537,2.544001 11.273577,5.202143 l 1.512567,-1.408631 -0.215433,-0.231685 c -0.332977,-0.357921 -0.312567,-0.921826 0.04535,-1.255181 l 2.373921,-2.212158 c 0.357922,-0.332976 0.921827,-0.312567 1.255182,0.04536 z m -0.795591,6.510237 -1.452473,-1.557922 -1.404472,1.308473 c 0.506079,0.501921 0.989102,1.016315 1.452472,1.559433 z m 3.192567,-1.331528 -3.091276,-3.318804 -1.074897,1.001197 c 1.025764,1.109292 2.059842,2.215938 3.091276,3.318804 z m -25.68605,15.903498 -8.715591,-8.715592 c -0.346961,-0.34696 -0.346961,-0.912 0,-1.25896 0.34696,-0.346961 0.912,-0.346961 1.259338,0 l 8.715592,8.715591 c 0.567685,-0.345827 1.234016,-0.54463 1.944567,-0.54463 2.068158,0 3.748158,1.68 3.748158,3.748158 0,2.068158 -1.68,3.748158 -3.748158,3.748158 -2.068158,0 -3.748158,-1.68 -3.748158,-3.748158 0,-0.710173 0.198803,-1.376882 0.544252,-1.944567 z m 3.203906,-0.02079 c -1.088882,0 -1.965355,0.876472 -1.965355,1.965354 0,1.087748 0.877607,1.965355 1.965355,1.965355 1.087748,0 1.965355,-0.877607 1.965355,-1.965355 0,-1.08737 -0.877607,-1.965354 -1.965355,-1.965354 z M 29.610814,21.515181 c 0,0.49096 -0.400252,0.89159 -0.891213,0.89159 -0.490961,0 -0.891591,-0.40063 -0.891591,-0.89159 v -1.641449 c -3.354709,0.768 -6.359434,2.496 -8.708788,4.871433 -2.356158,2.382237 -4.053922,5.417198 -4.790552,8.789671 h 1.68567 c 0.490961,0 0.891213,0.400252 0.891213,0.891212 0,0.490961 -0.400252,0.891591 -0.891213,0.891591 h -2.755276 c -0.547276,-0.06047 -0.965669,-0.441827 -0.876473,-1.027276 0.655749,-4.171843 2.626394,-7.924158 5.469355,-10.798867 2.828221,-2.859591 6.525355,-4.863119 10.657513,-5.565355 0.580158,-0.07143 1.101355,0.230551 1.101355,0.865512 z m 4.397102,31.590051 c 0,-0.490961 0.400252,-0.891213 0.891213,-0.891213 0.490961,0 0.891591,0.400252 0.891591,0.891213 v 1.641827 C 42.514878,53.208035 47.819824,47.81994 49.29006,41.085955 h -1.68567 c -0.49096,0 -0.891212,-0.40063 -0.891212,-0.891591 0,-0.490961 0.400252,-0.891213 0.891212,-0.891213 h 2.755276 c 0.547276,0.06009 0.96567,0.441449 0.876473,1.026898 -1.305827,8.30967 -7.827025,14.954458 -16.126868,16.3646 -0.580158,0.07106 -1.101355,-0.230551 -1.101355,-0.865512 z m -3.090142,-1.859528 c 0,-0.490961 0.40063,-0.891591 0.891591,-0.891591 0.490961,0 0.891591,0.40063 0.891591,0.891591 v 2.624882 c 0,0.490961 -0.40063,0.891591 -0.891591,0.891591 -4.642394,0 -9.057261,-1.830804 -12.339025,-5.112946 -3.157039,-3.15704 -5.112945,-7.523906 -5.112945,-12.339025 0,-0.490961 0.40063,-0.891213 0.89159,-0.891213 h 2.624883 c 0.49096,0 0.89159,0.400252 0.89159,0.891213 0,0.490961 -0.40063,0.891591 -0.89159,0.891591 h -1.708725 c 0.22337,3.971528 1.926803,7.551119 4.564158,10.188473 2.637354,2.637355 6.216945,4.340788 10.188473,4.564158 z m 1.783182,-27.870618 c 0,0.490961 -0.40063,0.891213 -0.891591,0.891213 -0.490961,0 -0.891591,-0.400252 -0.891591,-0.891213 v -2.62526 c 0,-0.512882 0.411591,-0.891213 0.91767,-0.891213 9.620788,0.01361 17.425892,7.832316 17.425892,17.451593 0,0.490961 -0.40063,0.891591 -0.891591,0.891591 h -2.624882 c -0.490961,0 -0.891591,-0.40063 -0.891591,-0.891591 0,-0.490961 0.40063,-0.891213 0.891591,-0.891213 h 1.708724 C 47.009115,28.471402 40.648547,22.110456 32.700956,21.665984 Z M 35.681113,8.2067068 V 5.0904856 h -7.743497 v 3.1162212 c 2.58104,0 5.162458,0 7.743497,0 z M 47.153115,21.966456 c -3.923528,-3.92504 -9.350552,-6.35263 -15.34375,-6.35263 -5.992064,0 -11.417198,2.428724 -15.342616,6.354142 -3.923528,3.923528 -6.353764,9.350552 -6.353764,15.342238 0,11.985261 9.711119,21.696381 21.69638,21.696381 11.983749,0 21.69638,-9.712631 21.69638,-21.696381 0,-5.993197 -2.427212,-11.420222 -6.35263,-15.34375 z"
       id="path32"
       style="clip-rule:evenodd;fill:#ffffff;fill-opacity:1;fill-rule:nonzero;stroke:none;stroke-width:0.0377953;image-rendering:optimizeQuality;shape-rendering:geometricPrecision;text-rendering:geometricPrecision" />
  </g>
</svg>
