<?xml version="1.0" encoding="UTF-8" standalone="no"?>
<!-- Created with Inkscape (http://www.inkscape.org/) -->

<svg
   width="64.0px"
   height="64.0px"
   viewBox="0 0 64.0 64.0"
   version="1.1"
   id="SVGRoot"
   sodipodi:docname="chart.svg"
   inkscape:version="1.1.2 (b8e25be833, 2022-02-05)"
   xmlns:inkscape="http://www.inkscape.org/namespaces/inkscape"
   xmlns:sodipodi="http://sodipodi.sourceforge.net/DTD/sodipodi-0.dtd"
   xmlns="http://www.w3.org/2000/svg"
   xmlns:svg="http://www.w3.org/2000/svg">
  <sodipodi:namedview
     id="namedview4138"
     pagecolor="#787878"
     bordercolor="#666666"
     borderopacity="1.0"
     inkscape:pageshadow="2"
     inkscape:pageopacity="0"
     inkscape:pagecheckerboard="0"
     inkscape:document-units="px"
     showgrid="false"
     inkscape:zoom="6.0364197"
     inkscape:cx="38.102056"
     inkscape:cy="28.907864"
     inkscape:window-width="1920"
     inkscape:window-height="1002"
     inkscape:window-x="-8"
     inkscape:window-y="-8"
     inkscape:window-maximized="1"
     inkscape:current-layer="layer1"
     inkscape:snap-global="false">
    <inkscape:grid
       type="xygrid"
       id="grid4201" />
  </sodipodi:namedview>
  <defs
     id="defs4133" />
  <g
     inkscape:label="Warstwa 1"
     inkscape:groupmode="layer"
     id="layer1">
    <path
       class="fil5"
       d="m 17.387839,39.581856 c 0,0.490961 -0.400252,0.891591 -0.891213,0.891591 -0.49096,0 -0.89159,-0.40063 -0.89159,-0.891591 V 35.327619 H 5.0707349 v 4.253103 c 0,0.490961 -0.400252,0.891213 -0.8912127,0.891213 -0.4909606,0 -0.8915906,-0.400252 -0.8915906,-0.891213 v -5.144693 c 0,-0.490961 0.40063,-0.891213 0.8915906,-0.891213 H 16.496626 c 0.490961,0 0.891213,0.400252 0.891213,0.891213 z m -0.238488,6.089197 7.749922,-1.051842 v -0.06009 c 0,-3.891024 3.158551,-7.049575 7.049576,-7.049575 1.56737,0 3.019842,0.515905 4.192252,1.385197 l 11.944064,-12.47471 c -0.983055,-1.210961 -1.574173,-2.755276 -1.574173,-4.433765 0,-3.891024 3.158174,-7.049575 7.049198,-7.049575 3.886488,0 7.049197,3.162709 7.049197,7.049575 0,3.890646 -3.158551,7.049198 -7.049197,7.049198 -1.568882,0 -3.019843,-0.515906 -4.192631,-1.385197 L 37.425007,40.123462 c 0.981921,1.212473 1.573039,2.759434 1.573039,4.435654 0,3.890646 -3.158551,7.049198 -7.049197,7.049198 -3.202395,0 -5.987907,-2.164158 -6.81071,-5.228221 l -7.7503,1.05222 v 0.05896 c 0,3.890646 -3.158552,7.049198 -7.049198,7.049198 -3.8868665,0 -7.0491976,-3.162709 -7.0491976,-7.049198 0,-3.891024 3.1585516,-7.049576 7.0491976,-7.049576 3.202394,0 5.98904,2.16567 6.81071,5.229355 z M 53.56019,16.719869 c -2.910237,0 -5.266395,2.356158 -5.266395,5.266394 0,2.911371 2.354646,5.266395 5.266395,5.266395 2.910236,0 5.266394,-2.356158 5.266394,-5.266395 0,-2.914394 -2.352,-5.266394 -5.266394,-5.266394 z M 31.948849,39.292722 c -2.910237,0 -5.266395,2.356158 -5.266395,5.266394 0,2.911371 2.354646,5.266395 5.266395,5.266395 2.910236,0 5.266394,-2.356158 5.266394,-5.266395 0,-2.918551 -2.356158,-5.266394 -5.266394,-5.266394 z M 10.338641,42.22488 c -2.9102362,0 -5.2663942,2.356158 -5.2663942,5.266394 0,2.911371 2.354646,5.266394 5.2663942,5.266394 2.910237,0 5.266395,-2.356157 5.266395,-5.266394 0,-2.914394 -2.352001,-5.266394 -5.266395,-5.266394 z M 60.609387,14.105569 c 0,0.490961 -0.400252,0.891591 -0.89159,0.891591 -0.490961,0 -0.891213,-0.40063 -0.891213,-0.891591 V 5.640938 H 48.292283 v 8.466143 c 0,0.490961 -0.400252,0.891591 -0.891212,0.891591 -0.490961,0 -0.891591,-0.40063 -0.891591,-0.891591 V 4.7497253 c 0,-0.4909607 0.40063,-0.8915906 0.891591,-0.8915906 h 12.316726 c 0.491338,0 0.89159,0.4006299 0.89159,0.8915906 z M 46.50948,33.948091 c 0,-0.49096 0.40063,-0.89159 0.891591,-0.89159 0.49096,0 0.891212,0.40063 0.891212,0.89159 v 25.645988 h 10.534301 v -29.7275 c 0,-0.490961 0.400252,-0.891591 0.891213,-0.891591 0.491338,0 0.89159,0.40063 0.89159,0.891591 v 30.61909 c 0,0.490961 -0.400252,0.891591 -0.89159,0.891591 H 47.401071 c -0.490961,0 -0.891591,-0.40063 -0.891591,-0.891591 z m -7.509922,-0.44296 c 0,0.49096 -0.40063,0.891212 -0.891591,0.891212 -0.49096,0 -0.89159,-0.400252 -0.89159,-0.891212 V 20.485791 H 26.682454 v 16.192631 c 0,0.490961 -0.40063,0.891591 -0.89159,0.891591 -0.490961,0 -0.891591,-0.40063 -0.891591,-0.891591 V 19.5942 c 0,-0.490961 0.40063,-0.891213 0.891591,-0.891213 h 12.317103 c 0.490961,0 0.891591,0.400252 0.891591,0.891213 z M 24.899273,52.439432 c 0,-0.490961 0.40063,-0.89159 0.891591,-0.89159 0.49096,0 0.89159,0.400629 0.89159,0.89159 v 7.156158 h 10.533923 v -7.15767 c 0,-0.49096 0.40063,-0.89159 0.89159,-0.89159 0.490961,0 0.891591,0.40063 0.891591,0.89159 v 8.049261 c 0,0.490961 -0.40063,0.891213 -0.891591,0.891213 H 25.790864 c -0.490961,0 -0.891591,-0.400252 -0.891591,-0.891213 z M 3.2879316,55.341354 c 0,-0.490961 0.40063,-0.891591 0.8915906,-0.891591 0.4909607,0 0.8912127,0.40063 0.8912127,0.891591 v 4.252725 H 15.605036 v -4.254237 c 0,-0.490961 0.40063,-0.891213 0.89159,-0.891213 0.490961,0 0.891213,0.400252 0.891213,0.891213 v 5.145827 c 0,0.490961 -0.400252,0.891591 -0.891213,0.891591 H 4.1795222 c -0.4909606,0 -0.8915906,-0.40063 -0.8915906,-0.891591 z"
       id="path57"
       style="clip-rule:evenodd;fill:#ffffff;fill-opacity:1;fill-rule:nonzero;stroke:none;stroke-width:0.0377953;image-rendering:optimizeQuality;shape-rendering:geometricPrecision;text-rendering:geometricPrecision" />
  </g>
</svg>
