<?xml version="1.0" encoding="UTF-8" standalone="no"?>
<!-- Created with Inkscape (http://www.inkscape.org/) -->

<svg
   width="64.0px"
   height="64.0px"
   viewBox="0 0 64.0 64.0"
   version="1.1"
   id="SVGRoot"
   sodipodi:docname="contacts.svg"
   inkscape:version="1.1.2 (b8e25be833, 2022-02-05)"
   xmlns:inkscape="http://www.inkscape.org/namespaces/inkscape"
   xmlns:sodipodi="http://sodipodi.sourceforge.net/DTD/sodipodi-0.dtd"
   xmlns="http://www.w3.org/2000/svg"
   xmlns:svg="http://www.w3.org/2000/svg">
  <sodipodi:namedview
     id="namedview4138"
     pagecolor="#787878"
     bordercolor="#666666"
     borderopacity="1.0"
     inkscape:pageshadow="2"
     inkscape:pageopacity="0"
     inkscape:pagecheckerboard="0"
     inkscape:document-units="px"
     showgrid="true"
     inkscape:zoom="6.0364197"
     inkscape:cx="38.102056"
     inkscape:cy="28.907864"
     inkscape:window-width="1920"
     inkscape:window-height="1002"
     inkscape:window-x="-8"
     inkscape:window-y="-8"
     inkscape:window-maximized="1"
     inkscape:current-layer="layer1"
     inkscape:snap-global="false">
    <inkscape:grid
       type="xygrid"
       id="grid4201" />
  </sodipodi:namedview>
  <defs
     id="defs4133" />
  <g
     inkscape:label="Warstwa 1"
     inkscape:groupmode="layer"
     id="layer1">
    <path
       class="fil5"
       d="m 37.650578,40.030167 c -0.49096,0 -0.89159,-0.40063 -0.89159,-0.891591 0,-0.49096 0.40063,-0.891212 0.89159,-0.891212 h 19.117987 c 0.490961,0 0.891591,0.400252 0.891591,0.891212 0,0.490961 -0.40063,0.891591 -0.891591,0.891591 z M 14.198607,28.886985 h 42.45884 v -6.021921 c 0,-0.336 -0.268725,-0.605102 -0.604725,-0.605102 -14.848631,0 -29.696129,0 -44.544761,0 -0.336378,0 -0.605103,0.269102 -0.605103,0.605102 0,8.989984 0,17.978457 0,26.968065 0,0.334866 0.270237,0.605102 0.605103,0.605102 h 0.30274 V 31.27489 c 0,-1.31263 1.075276,-2.387905 2.387906,-2.387905 z m 44.241643,0 h 0.303118 c 1.309985,0 2.387906,1.077921 2.387906,2.387905 v 26.968067 c 0,1.309984 -1.077921,2.387905 -2.387906,2.387905 H 14.198607 c -1.311118,0 -2.387906,-1.075275 -2.387906,-2.387905 v -6.021922 h -0.30274 c -1.311118,0 -2.3879058,-1.075276 -2.3879058,-2.387906 v -6.023434 h -0.30463 c -1.3111183,0 -2.3875278,-1.074898 -2.3875278,-2.387528 V 35.400245 H 6.1247792 c -1.3111182,0 -2.3875278,-1.075276 -2.3875278,-2.387906 V 6.0438966 c 0,-1.312252 1.0748978,-2.387528 2.3875278,-2.387528 H 50.669918 c 1.309607,0 2.387528,1.077921 2.387528,2.387528 v 6.0223004 h 0.303118 c 1.309607,0 2.387528,1.077921 2.387528,2.387528 v 6.023433 h 0.30463 c 1.309607,0 2.387528,1.077922 2.387528,2.387906 z m 0.303118,1.782803 c -14.848631,0 -29.696129,0 -44.544761,0 -0.336,0 -0.604724,0.269102 -0.604724,0.605102 0,8.989608 0,17.978459 0,26.968067 0,0.334866 0.270236,0.605102 0.604724,0.605102 h 44.544761 c 0.336,0 0.605103,-0.269102 0.605103,-0.605102 V 31.27489 c 0,-0.336 -0.269103,-0.605102 -0.605103,-0.605102 z m -42.3258,1.794142 h 17.227089 c 0.49096,0 0.891212,0.400252 0.891212,0.891213 v 22.387656 c 0,0.49096 -0.400252,0.89159 -0.891212,0.89159 H 16.417568 c -0.490961,0 -0.891591,-0.40063 -0.891591,-0.89159 V 33.355143 c 0,-0.490961 0.40063,-0.891213 0.891591,-0.891213 z m 16.335498,1.782803 H 17.309159 v 18.227908 l 4.730079,-2.901922 V 48.41127 c -2.24504,-1.133102 -3.671434,-3.426142 -3.671434,-5.955024 0,-3.676725 2.985828,-6.662552 6.662552,-6.662552 3.675591,0 6.662552,2.986961 6.662552,6.662552 0,2.534551 -1.435842,4.826079 -3.669921,5.953512 v 1.162961 l 4.730079,2.901922 z M 17.309159,54.559428 v 0.292158 h 15.443907 v -0.292158 l -6.023434,-3.696 c -0.290645,-0.148157 -0.489827,-0.44863 -0.489827,-0.795591 v -1.057512 c -0.391937,0.07143 -0.796724,0.109985 -1.209449,0.109985 -0.412724,0 -0.816,-0.03704 -1.208315,-0.109985 v 1.057512 c 0,0.346961 -0.198803,0.647434 -0.489449,0.795591 z m 7.721197,-16.982931 c -2.696315,0 -4.879748,2.183434 -4.879748,4.879749 0,2.697827 2.181921,4.880882 4.879748,4.880882 2.627528,0 4.879749,-2.112 4.879749,-4.880882 0,-2.701607 -2.178142,-4.879749 -4.879749,-4.879749 z m 12.620222,-1.291842 c -0.49096,0 -0.89159,-0.40063 -0.89159,-0.891591 0,-0.490961 0.40063,-0.891213 0.89159,-0.891213 h 19.117987 c 0.490961,0 0.891591,0.400252 0.891591,0.891213 0,0.490961 -0.40063,0.891591 -0.891591,0.891591 z m 0,18.729829 c -0.49096,0 -0.89159,-0.400252 -0.89159,-0.891213 0,-0.490961 0.40063,-0.891591 0.89159,-0.891591 h 19.117987 c 0.490961,0 0.891591,0.40063 0.891591,0.891591 0,0.490961 -0.40063,0.891213 -0.891591,0.891213 z M 9.1200552,42.026892 V 22.865064 c 0,-1.31263 1.0752758,-2.387906 2.3879058,-2.387906 h 42.457328 v -6.023433 c 0,-0.336001 -0.268724,-0.604725 -0.604725,-0.604725 -14.848631,0 -29.696129,0 -44.5451388,0 -0.336,0 -0.6047245,0.268724 -0.6047245,0.604725 0,8.989985 0,17.978457 0,26.968442 0,0.334488 0.2702363,0.604725 0.6047245,0.604725 z M 6.4278974,33.617064 V 14.453725 c 0,-1.312253 1.0752757,-2.387528 2.3875278,-2.387528 H 51.274643 V 6.0438966 c 0,-0.336 -0.268724,-0.604725 -0.604725,-0.604725 H 6.1247792 c -0.336,0 -0.6047245,0.268725 -0.6047245,0.604725 V 33.012339 c 0,0.334489 0.2702363,0.604725 0.6047245,0.604725 z M 37.650578,51.269349 c -0.49096,0 -0.89159,-0.40063 -0.89159,-0.89159 0,-0.490961 0.40063,-0.891591 0.89159,-0.891591 h 19.117987 c 0.490961,0 0.891591,0.40063 0.891591,0.891591 0,0.49096 -0.40063,0.89159 -0.891591,0.89159 z m 0,-3.747024 c -0.49096,0 -0.89159,-0.400252 -0.89159,-0.891212 0,-0.490961 0.40063,-0.891591 0.89159,-0.891591 h 19.117987 c 0.490961,0 0.891591,0.40063 0.891591,0.891591 0,0.49096 -0.40063,0.891212 -0.891591,0.891212 z m 0,-3.745512 c -0.49096,0 -0.89159,-0.400252 -0.89159,-0.891213 0,-0.49096 0.40063,-0.89159 0.89159,-0.89159 h 19.117987 c 0.490961,0 0.891591,0.40063 0.891591,0.89159 0,0.490961 -0.40063,0.891213 -0.891591,0.891213 z"
       id="path36"
       style="clip-rule:evenodd;fill:#ffffff;fill-opacity:1;fill-rule:nonzero;stroke:none;stroke-width:0.0377953;image-rendering:optimizeQuality;shape-rendering:geometricPrecision;text-rendering:geometricPrecision" />
  </g>
</svg>
