<?xml version="1.0" encoding="UTF-8" standalone="no"?>
<!-- Created with Inkscape (http://www.inkscape.org/) -->

<svg
   width="64.0px"
   height="64.0px"
   viewBox="0 0 64.0 64.0"
   version="1.1"
   id="SVGRoot"
   sodipodi:docname="credit-card.svg"
   inkscape:version="1.1.2 (b8e25be833, 2022-02-05)"
   xmlns:inkscape="http://www.inkscape.org/namespaces/inkscape"
   xmlns:sodipodi="http://sodipodi.sourceforge.net/DTD/sodipodi-0.dtd"
   xmlns="http://www.w3.org/2000/svg"
   xmlns:svg="http://www.w3.org/2000/svg">
  <sodipodi:namedview
     id="namedview4138"
     pagecolor="#787878"
     bordercolor="#666666"
     borderopacity="1.0"
     inkscape:pageshadow="2"
     inkscape:pageopacity="0"
     inkscape:pagecheckerboard="0"
     inkscape:document-units="px"
     showgrid="false"
     inkscape:zoom="6.0364197"
     inkscape:cx="38.102056"
     inkscape:cy="28.907864"
     inkscape:window-width="1920"
     inkscape:window-height="1002"
     inkscape:window-x="-8"
     inkscape:window-y="-8"
     inkscape:window-maximized="1"
     inkscape:current-layer="layer1"
     inkscape:snap-global="false">
    <inkscape:grid
       type="xygrid"
       id="grid4201" />
  </sodipodi:namedview>
  <defs
     id="defs4133" />
  <g
     inkscape:label="Warstwa 1"
     inkscape:groupmode="layer"
     id="layer1">
    <path
       class="fil5"
       d="m 37.485119,14.17087 c -0.490961,0 -0.891591,-0.400252 -0.891591,-0.891213 0,-0.490961 0.40063,-0.891591 0.891591,-0.891591 h 4.535433 c 0.490961,0 0.891213,0.40063 0.891213,0.891591 0,0.490961 -0.400252,0.891213 -0.891213,0.891213 z m 17.897576,15.658206 c 0,-0.49096 0.400253,-0.89159 0.891213,-0.89159 0.490961,0 0.891591,0.40063 0.891591,0.89159 0,7.016316 0,14.03112 0,21.047814 0,0.49096 -0.40063,0.891212 -0.891591,0.891212 H 31.475291 v 3.355843 h 6.930143 c 0.49096,0 0.891212,0.40063 0.891212,0.891591 v 3.680882 c 0,0.490961 -0.400252,0.891591 -0.891212,0.891591 H 13.86458 c -0.49096,0 -0.89159,-0.40063 -0.89159,-0.891591 v -3.680882 c 0,-0.490961 0.40063,-0.891591 0.89159,-0.891591 h 2.482394 V 51.768102 H 5.1981224 c -0.4909607,0 -0.8912127,-0.400252 -0.8912127,-0.891212 0,-12.270616 0,-24.542365 0,-36.812981 0,-0.490961 0.400252,-0.891213 0.8912127,-0.891213 H 25.580739 V 8.4781449 c 0,-2.8595908 2.347843,-5.2089455 5.207434,-5.2089455 h 25.83005 c 2.859591,0 5.207434,2.3493547 5.207434,5.2089455 0,4.3706461 0,8.7431821 0,13.1138281 0,2.863748 -2.345197,5.205922 -5.207434,5.205922 h -25.83005 c -2.860725,0 -5.207434,-2.345197 -5.207434,-5.205922 0,-0.883276 0,-1.76504 0,-2.648315 H 6.0897131 v 22.69342 H 55.382695 Z M 27.363543,15.790775 H 60.042854 V 8.4781449 c 0,-1.8856065 -1.537512,-3.4257641 -3.424631,-3.4257641 h -25.83005 c -1.885607,0 -3.42463,1.5386458 -3.42463,3.4257641 0,2.4385511 0,4.8755911 0,7.3126301 z M 25.580739,14.9555 H 6.0897131 v 2.205354 H 25.580739 c 0,-0.735118 0,-1.470236 0,-2.205354 z M 6.0897131,43.420259 v 6.56504 H 55.382695 v -6.56504 z m 23.6027749,8.349355 h -11.56271 v 3.354331 h 11.56271 z m 7.821355,5.137513 c -7.585513,0 -15.172537,0 -22.75805,0 v 1.898079 h 22.75805 z M 30.736015,44.197708 c 1.368945,0 2.488064,1.12063 2.488064,2.487685 0,1.368945 -1.119119,2.488063 -2.488064,2.488063 -1.371212,0 -2.487685,-1.116472 -2.487685,-2.488063 0,-1.368567 1.119118,-2.487685 2.487685,-2.487685 z m 0,1.782803 c -0.391937,0 -0.704882,0.312945 -0.704882,0.704882 0,0.391181 0.314079,0.70526 0.704882,0.70526 0.392315,0 0.704882,-0.311433 0.704882,-0.70526 0,-0.39496 -0.309921,-0.704882 -0.704882,-0.704882 z M 27.363543,17.573579 c 0,0.584315 0,1.169764 0,1.754079 h 32.679311 v -1.754079 z m 0,3.536882 v 0.481512 c 0,1.884473 1.540157,3.423118 3.42463,3.423118 h 25.83005 c 1.884473,0 3.424631,-1.537512 3.424631,-3.423118 V 21.110461 Z M 29.59233,14.17087 c -0.49096,0 -0.89159,-0.400252 -0.89159,-0.891213 0,-0.490961 0.40063,-0.891591 0.89159,-0.891591 h 4.535434 c 0.490961,0 0.891591,0.40063 0.891591,0.891591 0,0.490961 -0.40063,0.891213 -0.891591,0.891213 z m 23.678365,0 c -0.49096,0 -0.89159,-0.400252 -0.89159,-0.891213 0,-0.490961 0.40063,-0.891591 0.89159,-0.891591 h 4.535434 c 0.490961,0 0.891213,0.40063 0.891213,0.891591 0,0.490961 -0.400252,0.891213 -0.891213,0.891213 z m -7.892788,0 c -0.490961,0 -0.891591,-0.400252 -0.891591,-0.891213 0,-0.490961 0.40063,-0.891591 0.891591,-0.891591 h 4.535434 c 0.49096,0 0.891212,0.40063 0.891212,0.891591 0,0.490961 -0.400252,0.891213 -0.891212,0.891213 z"
       id="path87"
       style="clip-rule:evenodd;fill:#ffffff;fill-opacity:1;fill-rule:nonzero;stroke:none;stroke-width:0.0377953;image-rendering:optimizeQuality;shape-rendering:geometricPrecision;text-rendering:geometricPrecision" />
  </g>
</svg>
