<?xml version="1.0" encoding="UTF-8" standalone="no"?>
<!-- Created with Inkscape (http://www.inkscape.org/) -->

<svg
   width="64.0px"
   height="64.0px"
   viewBox="0 0 64.0 64.0"
   version="1.1"
   id="SVGRoot"
   sodipodi:docname="growth.svg"
   inkscape:version="1.1.2 (b8e25be833, 2022-02-05)"
   xmlns:inkscape="http://www.inkscape.org/namespaces/inkscape"
   xmlns:sodipodi="http://sodipodi.sourceforge.net/DTD/sodipodi-0.dtd"
   xmlns="http://www.w3.org/2000/svg"
   xmlns:svg="http://www.w3.org/2000/svg">
  <sodipodi:namedview
     id="namedview4138"
     pagecolor="#787878"
     bordercolor="#666666"
     borderopacity="1.0"
     inkscape:pageshadow="2"
     inkscape:pageopacity="0"
     inkscape:pagecheckerboard="0"
     inkscape:document-units="px"
     showgrid="true"
     inkscape:zoom="6.0364197"
     inkscape:cx="38.102056"
     inkscape:cy="28.907864"
     inkscape:window-width="1920"
     inkscape:window-height="1002"
     inkscape:window-x="-8"
     inkscape:window-y="-8"
     inkscape:window-maximized="1"
     inkscape:current-layer="layer1"
     inkscape:snap-global="false">
    <inkscape:grid
       type="xygrid"
       id="grid4201" />
  </sodipodi:namedview>
  <defs
     id="defs4133" />
  <g
     inkscape:label="Warstwa 1"
     inkscape:groupmode="layer"
     id="layer1">
    <path
       class="fil5"
       d="m 45.101848,35.778653 c 0.145134,0.467905 -0.116788,0.968315 -0.584315,1.113827 -0.467906,0.145134 -0.968315,-0.116788 -1.113827,-0.584315 -0.641764,-2.057197 -1.729134,-3.92504 -3.185764,-5.512064 -0.281197,-0.305764 -0.307276,-0.758173 -0.08768,-1.091528 l 1.732157,-3.000945 -6.418394,-3.705449 -1.759748,3.04441 c -0.207118,0.357921 -0.628158,0.517039 -1.009512,0.410078 -2.08441,-0.455055 -4.241764,-0.447118 -6.32504,0.01096 -0.386646,0.08504 -0.772158,-0.09449 -0.96,-0.421039 l -1.759749,-3.04441 -6.418394,3.705449 1.759748,3.048945 c 0.196158,0.342804 0.137197,0.765355 -0.116787,1.042394 -1.455119,1.590804 -2.540977,3.453355 -3.184253,5.513198 -0.117921,0.379842 -0.470551,0.624 -0.848882,0.624 l -3.509669,0.0026 v 7.405986 h 3.509669 c 0.41537,0 0.766489,0.288 0.864,0.674645 0.642898,2.029607 1.728001,3.896316 3.170647,5.462552 0.281196,0.305764 0.307275,0.758551 0.08769,1.091528 l -1.732158,2.999433 6.421418,3.706961 1.755213,-3.040252 c 0.197669,-0.344315 0.594142,-0.506079 0.964157,-0.423685 2.087434,0.461858 4.280316,0.467527 6.367749,-0.0015 0.392315,-0.08768 0.781607,0.096 0.969827,0.429354 l 1.752567,3.034961 6.418395,-3.705827 -1.759749,-3.047433 c -0.195779,-0.342803 -0.136819,-0.764977 0.116788,-1.042016 1.455118,-1.585512 2.544,-3.457512 3.185764,-5.512064 0.117921,-0.379842 0.470551,-0.624 0.848882,-0.624 l 3.50967,-0.0026 V 15.518115 c 0,-0.490961 0.40063,-0.891213 0.89159,-0.891213 H 54.35641 L 45.726992,5.0949326 37.517479,14.626902 h 4.88504 c 0.490961,0 0.891591,0.400252 0.891591,0.891213 v 6.19767 c 0,0.490961 -0.40063,0.891591 -0.891591,0.891591 -0.490961,0 -0.891213,-0.40063 -0.891213,-0.891591 v -5.306079 h -5.934237 c -0.746078,-0.0098 -1.176945,-0.890079 -0.672,-1.472882 L 45.113942,3.0955616 c 0.363591,-0.327685 0.925607,-0.300472 1.25367,0.06312 L 56.966164,14.865391 c 0.586961,0.545763 0.207118,1.544315 -0.606236,1.544315 h -6.814867 v 28.822302 c 0,0.490961 -0.400252,0.891591 -0.891213,0.891591 h -3.762142 c -0.662173,1.852725 -1.656567,3.569764 -2.932158,5.067591 l 1.882961,3.258709 c 0.245669,0.423685 0.100158,0.969449 -0.323527,1.215118 l -7.955907,4.594395 c -0.423685,0.245291 -0.969449,0.09978 -1.215118,-0.323906 l -1.882961,-3.259843 c -1.939276,0.351118 -3.919749,0.355276 -5.858646,-0.0015 l -1.880316,3.261355 c -0.245669,0.423685 -0.791433,0.569197 -1.215118,0.323906 L 15.553498,55.665017 C 15.132459,55.419348 14.987325,54.87623 15.22997,54.453679 l 1.882961,-3.262489 c -1.278236,-1.507276 -2.261669,-3.208063 -2.929512,-5.067591 h -3.763276 c -0.4909606,0 -0.8912126,-0.40063 -0.8912126,-0.891591 V 36.04322 c 0,-0.490961 0.400252,-0.891213 0.8912126,-0.891213 h 3.762142 c 0.666331,-1.862551 1.65241,-3.560315 2.932158,-5.069103 L 15.22997,26.820416 c -0.242645,-0.423686 -0.096,-0.968316 0.327685,-1.210961 l 7.953261,-4.593261 c 0.423685,-0.245291 0.969449,-0.100157 1.215118,0.323906 l 1.882961,3.261355 c 1.930961,-0.354142 3.923528,-0.355276 5.854867,-0.0015 l 1.884095,-3.259843 c 0.245669,-0.421039 0.788787,-0.566551 1.210961,-0.323906 l 7.955906,4.593261 c 0.423685,0.242645 0.570709,0.787275 0.327685,1.210961 l -1.882961,3.262488 c 1.421103,1.672063 2.488064,3.600378 3.1423,5.695749 z m -15.564852,-7.62104 c 6.890079,0 12.480379,5.589921 12.480379,12.480001 0,6.888946 -5.591434,12.480379 -12.480379,12.480379 -6.888946,0 -12.48038,-5.591433 -12.48038,-12.480379 0,-6.89008 5.5903,-12.480001 12.48038,-12.480001 z m 0,1.782803 c -5.90967,0 -10.697198,4.787906 -10.697198,10.697198 0,5.90967 4.787528,10.697576 10.697198,10.697576 5.90967,0 10.697198,-4.787906 10.697198,-10.697576 0,-5.909292 -4.787528,-10.697198 -10.697198,-10.697198 z m 0,2.692158 c 4.416,0 8.00504,3.590551 8.00504,8.00504 0,4.417512 -3.587528,8.005418 -8.00504,8.005418 -4.416001,0 -8.005041,-3.590551 -8.005041,-8.005418 0,-4.416001 3.58904,-8.00504 8.005041,-8.00504 z m 0,1.782803 c -3.439749,0 -6.222237,2.784 -6.222237,6.222237 0,3.44126 2.781354,6.222615 6.222237,6.222615 3.436724,0 6.222237,-2.785512 6.222237,-6.222615 0,-3.440882 -2.781355,-6.222237 -6.222237,-6.222237 z"
       id="path49"
       style="clip-rule:evenodd;fill:#ffffff;fill-opacity:1;fill-rule:nonzero;stroke:none;stroke-width:0.0377953;image-rendering:optimizeQuality;shape-rendering:geometricPrecision;text-rendering:geometricPrecision" />
  </g>
</svg>
