<?xml version="1.0" encoding="UTF-8" standalone="no"?>
<!-- Created with Inkscape (http://www.inkscape.org/) -->

<svg
   width="64.0px"
   height="64.0px"
   viewBox="0 0 64.0 64.0"
   version="1.1"
   id="SVGRoot"
   sodipodi:docname="money.svg"
   inkscape:version="1.1.2 (b8e25be833, 2022-02-05)"
   xmlns:inkscape="http://www.inkscape.org/namespaces/inkscape"
   xmlns:sodipodi="http://sodipodi.sourceforge.net/DTD/sodipodi-0.dtd"
   xmlns="http://www.w3.org/2000/svg"
   xmlns:svg="http://www.w3.org/2000/svg">
  <sodipodi:namedview
     id="namedview4138"
     pagecolor="#787878"
     bordercolor="#666666"
     borderopacity="1.0"
     inkscape:pageshadow="2"
     inkscape:pageopacity="0"
     inkscape:pagecheckerboard="0"
     inkscape:document-units="px"
     showgrid="true"
     inkscape:zoom="6.0364197"
     inkscape:cx="37.27375"
     inkscape:cy="12.838736"
     inkscape:window-width="1920"
     inkscape:window-height="1002"
     inkscape:window-x="-8"
     inkscape:window-y="-8"
     inkscape:window-maximized="1"
     inkscape:current-layer="layer1"
     inkscape:snap-global="false">
    <inkscape:grid
       type="xygrid"
       id="grid4201" />
  </sodipodi:namedview>
  <defs
     id="defs4133" />
  <g
     inkscape:label="Warstwa 1"
     inkscape:groupmode="layer"
     id="layer1">
    <path
       class="fil5"
       d="m 28.867722,51.523384 2.291906,2.291528 V 36.656611 C 22.117485,36.191729 15.01046,28.698059 15.01046,19.639664 c 0,-9.408001 7.632379,-17.0403802 17.04038,-17.0403802 9.406868,0 17.04038,7.6335132 17.04038,17.0403802 0,7.257827 -4.61367,13.73934 -11.476159,16.106458 -0.462236,0.159118 -0.968315,-0.08655 -1.127433,-0.548787 -0.159118,-0.461858 0.08617,-0.967937 0.54841,-1.127055 6.151182,-2.122961 10.272379,-7.928694 10.272379,-14.430616 0,-8.427592 -6.829985,-15.2575768 -15.257577,-15.2575768 -8.427591,0 -15.257198,6.8299848 -15.257198,15.2575768 0,8.367119 6.818646,15.293104 15.211844,15.257576 0.525354,-0.0015 0.936945,0.40441 0.936945,0.914646 v 14.39471 l 2.205355,-2.205354 c 0.305763,-0.305764 0.592252,-0.268725 0.949039,-0.238488 1.618394,0.159118 3.266646,-0.03137 4.815119,-0.574489 3.187276,-1.116472 5.724473,-3.652158 6.839434,-6.839433 0.475842,-1.359119 0.68296,-2.796473 0.617196,-4.222867 -1.424882,-0.06576 -2.863748,0.141354 -4.221354,0.617197 -2.538709,0.887433 -4.711182,2.714079 -6.031749,5.055119 -0.501921,0.896882 -0.876473,1.847433 -1.113449,2.816882 -0.116787,0.475842 -0.599433,0.766866 -1.075276,0.650079 -0.475842,-0.11641 -0.766866,-0.599056 -0.650079,-1.075276 0.27704,-1.128567 0.70904,-2.229922 1.289197,-3.259843 1.552253,-2.733355 4.023686,-4.821922 6.997041,-5.862804 1.843275,-0.645921 3.809764,-0.862866 5.72863,-0.650079 0.40441,0.04498 0.739276,0.364725 0.785764,0.785764 0.212787,1.92 -0.0042,3.885355 -0.650079,5.729765 -1.291842,3.700535 -4.230803,6.639496 -7.930961,7.931339 -1.732158,0.606236 -3.570142,0.833764 -5.377513,0.684473 l -3.176315,3.176315 c 0,2.023937 0,4.048252 0,6.072568 h 12.625513 c 0.490961,0 0.891591,0.40063 0.891591,0.89159 0,0.490961 -0.40063,0.891213 -0.891591,0.891213 -9.011906,0 -18.022301,0 -27.034208,0 -0.49096,0 -0.891212,-0.400252 -0.891212,-0.891213 0,-0.49096 0.400252,-0.89159 0.891212,-0.89159 H 31.159628 V 56.333211 L 27.903564,53.077148 C 24.12517,53.367794 20.416697,52.00603 17.7355,49.324833 c -2.784,-2.784001 -4.144252,-6.688631 -3.711119,-10.600065 0.04687,-0.421039 0.381355,-0.740409 0.785764,-0.785764 3.911434,-0.433511 7.81493,0.931276 10.597419,3.713765 1.662236,1.662236 2.858079,3.773102 3.417827,6.056693 0.11641,0.475843 -0.174236,0.958489 -0.650079,1.074898 -0.475842,0.116787 -0.958866,-0.173858 -1.075275,-0.650079 -0.488315,-1.995213 -1.498961,-3.770079 -2.951434,-5.222174 -2.231433,-2.231433 -5.264882,-3.409512 -8.415119,-3.264378 -0.145512,3.151748 1.02841,6.185576 3.260977,8.418143 2.400378,2.4 5.720693,3.565984 9.0943,3.209197 0.290646,-0.03553 0.565039,0.03439 0.778961,0.248315 z M 32.172919,6.9563241 c 0,-0.4909611 0.40063,-0.8912131 0.891591,-0.8912131 l 0.02305,0.00113 h 0.0223 0.0011 l 0.02192,0.00151 0.02192,0.00151 h 0.0015 l 0.02192,0.00265 c 7.05071,0.5801581 12.488317,6.496631 12.488317,13.56775 0,6.924473 -5.230489,12.777828 -12.116789,13.53071 -0.486803,0.05216 -0.925606,-0.301606 -0.977764,-0.78841 -0.05216,-0.486803 0.301607,-0.925984 0.788788,-0.977763 5.994331,-0.658394 10.522962,-5.739592 10.522962,-11.764537 0,-5.79704 -4.207749,-10.7561589 -9.928065,-11.6821429 v 4.8771029 c 0,0.49096 -0.400252,0.891212 -0.891212,0.891212 h -2.792316 c -1.522393,0 -2.593512,0.992882 -2.593512,2.503182 0.01663,1.505764 1.057512,2.519055 2.593512,2.519055 h 3.556158 c 2.537197,0 4.363843,1.80926 4.369513,4.302615 0.01776,2.494488 -1.847434,4.285607 -4.369513,4.285607 h -4.125355 v 4.603843 c 0,0.691275 -0.591118,0.967181 -1.193197,0.84926 -5.938394,-1.593827 -10.074709,-7.004222 -10.074709,-13.149734 0,-6.366237 4.435276,-11.9138289 10.656379,-13.2895767 0.478488,-0.1054488 0.953197,0.1961575 1.058646,0.6750238 0.105448,0.478488 -0.196158,0.953197 -0.674646,1.058646 -5.411906,1.197354 -9.257576,6.0207879 -9.257576,11.5559069 0,4.947024 3.069355,9.371339 7.7023,11.095182 v -4.290142 c 0,-0.490961 0.400252,-0.891213 0.891213,-0.891213 h 5.016945 c 1.526552,0 2.590489,-0.992882 2.590489,-2.502803 0.01814,-1.500473 -1.08737,-2.519434 -2.590489,-2.519434 h -3.556158 c -2.528882,0 -4.372158,-1.813039 -4.372158,-4.302236 0.01096,-2.500158 1.828158,-4.285985 4.372158,-4.285985 h 1.900725 z"
       id="path17"
       style="clip-rule:evenodd;fill:#ffffff;fill-opacity:1;fill-rule:nonzero;stroke-width:0.0377953;image-rendering:optimizeQuality;shape-rendering:geometricPrecision;text-rendering:geometricPrecision" />
  </g>
</svg>
