<?xml version="1.0" encoding="UTF-8" standalone="no"?>
<!-- Created with Inkscape (http://www.inkscape.org/) -->

<svg
   width="64.0px"
   height="64.0px"
   viewBox="0 0 64.0 64.0"
   version="1.1"
   id="SVGRoot"
   sodipodi:docname="money.svg"
   inkscape:version="1.1.2 (b8e25be833, 2022-02-05)"
   xmlns:inkscape="http://www.inkscape.org/namespaces/inkscape"
   xmlns:sodipodi="http://sodipodi.sourceforge.net/DTD/sodipodi-0.dtd"
   xmlns="http://www.w3.org/2000/svg"
   xmlns:svg="http://www.w3.org/2000/svg">
  <sodipodi:namedview
     id="namedview4138"
     pagecolor="#787878"
     bordercolor="#666666"
     borderopacity="1.0"
     inkscape:pageshadow="2"
     inkscape:pageopacity="0"
     inkscape:pagecheckerboard="0"
     inkscape:document-units="px"
     showgrid="false"
     inkscape:zoom="6.0364197"
     inkscape:cx="38.102056"
     inkscape:cy="28.907864"
     inkscape:window-width="1920"
     inkscape:window-height="1002"
     inkscape:window-x="-8"
     inkscape:window-y="-8"
     inkscape:window-maximized="1"
     inkscape:current-layer="layer1"
     inkscape:snap-global="false">
    <inkscape:grid
       type="xygrid"
       id="grid4201" />
  </sodipodi:namedview>
  <defs
     id="defs4133" />
  <g
     inkscape:label="Warstwa 1"
     inkscape:groupmode="layer"
     id="layer1">
    <path
       class="fil5"
       d="m 10.121643,53.92335 c 0,-0.490961 0.400252,-0.891213 0.891212,-0.891213 0.490961,0 0.891591,0.400252 0.891591,0.891213 v 1.66526 c 0,0.490961 -0.40063,0.891213 -0.891591,0.891213 -0.49096,0 -0.891212,-0.400252 -0.891212,-0.891213 z M 30.568512,29.90256 c -4.620473,-1.242709 -7.840631,-5.448946 -7.840631,-10.232695 0,-4.953449 3.453355,-9.270804 8.29304,-10.3407882 0.478866,-0.1054489 0.953197,0.1961575 1.059024,0.6750242 0.105449,0.478488 -0.196158,0.952819 -0.675024,1.058645 -4.030488,0.892725 -6.894237,4.484788 -6.894237,8.607119 0,3.575434 2.14904,6.7903 5.450457,8.150553 v -2.960883 c 0,-0.49096 0.400253,-0.89159 0.891213,-0.89159 h 3.826394 c 1.04504,0 1.763906,-0.663685 1.763906,-1.697764 0,-1.006489 -0.699591,-1.708725 -1.763906,-1.708725 h -2.711433 c -2.046236,0 -3.545197,-1.479685 -3.545197,-3.49304 0.01096,-2.023181 1.485354,-3.480945 3.545197,-3.480945 h 1.238551 V 9.9969194 c 0,-0.4909607 0.400252,-0.8912127 0.891591,-0.8912127 l 0.04082,0.00113 h 0.0042 l 0.01776,0.00151 h 0.0057 l 0.01776,0.00151 h 0.0042 l 0.02343,0.00265 c 5.481449,0.4554331 9.708473,5.0592763 9.708473,10.5573553 0,2.706143 -1.023118,5.184379 -2.701984,7.060537 -1.696252,1.895055 -4.064883,3.177449 -6.728316,3.468095 -0.486803,0.05216 -0.925606,-0.301607 -0.977764,-0.78841 -0.05216,-0.486803 0.301606,-0.925606 0.788788,-0.977764 2.213291,-0.241512 4.185449,-1.308472 5.595213,-2.884158 1.392378,-1.556787 2.24126,-3.61663 2.24126,-5.8783 0,-4.224 -3.002079,-7.866709 -7.148221,-8.657764 v 3.466961 c 0,0.49096 -0.400252,0.891212 -0.891213,0.891212 h -2.130142 c -1.042394,0 -1.766173,0.662552 -1.766173,1.698142 0.01625,1.035213 0.707527,1.710237 1.766173,1.710237 h 2.711433 c 2.068158,0 3.546709,1.515213 3.546709,3.491528 0,2.020157 -1.496315,3.480945 -3.546709,3.480945 h -2.934803 v 3.299528 c 0,0.676158 -0.589984,0.973984 -1.175433,0.851906 z M 33.323788,5.9335488 c 7.577197,0 13.72271,6.1455122 13.72271,13.7227102 0,3.785197 -1.537134,7.216631 -4.019528,9.700159 -0.871181,0.872315 -1.858394,1.626709 -2.937827,2.239748 h 4.797355 c 0.49096,0 0.89159,0.40063 0.89159,0.891591 v 5.470489 h 4.972725 c 0.490961,0 0.891591,0.40063 0.891591,0.89159 v 6.36208 c 0,0.49096 -0.40063,0.89159 -0.891591,0.89159 h -4.972725 v 4.579276 h 14.215183 c 0.490961,0 0.891213,0.400252 0.891213,0.891591 v 6.36208 c 0,0.49096 -0.400252,0.891212 -0.891213,0.891212 H 34.456512 c -0.490961,0 -0.891213,-0.400252 -0.891213,-0.891212 v -5.470867 h -2.893984 v 5.470867 c 0,0.49096 -0.400252,0.891212 -0.891213,0.891212 H 4.2433429 c -0.4909607,0 -0.8912127,-0.400252 -0.8912127,-0.891212 v -6.36208 c 0,-0.491339 0.400252,-0.891591 0.8912127,-0.891591 H 18.458526 v -5.470866 c 0,-0.490961 0.40063,-0.891213 0.891591,-0.891213 h 4.972725 v -4.579276 h -4.972725 c -0.490961,0 -0.891591,-0.40063 -0.891591,-0.891591 v -6.362079 c 0,-0.490961 0.40063,-0.891591 0.891591,-0.891591 h 7.209449 c -4.272,-2.424567 -6.958489,-6.967182 -6.958489,-11.939907 0,-7.576064 6.148158,-13.7227102 13.722711,-13.7227102 z m 0,1.7828034 c -6.597922,0 -11.939907,5.3404728 -11.939907,11.9399068 0,6.597922 5.341985,11.939907 11.939907,11.939907 3.298394,0 6.285355,-1.337197 8.444221,-3.495685 2.158488,-2.158867 3.495685,-5.14734 3.495685,-8.444222 0,-6.596788 -5.343118,-11.9399068 -11.939906,-11.9399068 z M 5.1349336,52.465586 v 4.579276 H 28.888511 v -4.579276 c -7.917355,0 -15.836222,0 -23.7535774,0 z m 0.9312757,1.457764 c 0,-0.490961 0.400252,-0.891213 0.8912127,-0.891213 0.4909607,0 0.8915906,0.400252 0.8915906,0.891213 v 1.66526 c 0,0.490961 -0.4006299,0.891213 -0.8915906,0.891213 -0.4909607,0 -0.8912127,-0.400252 -0.8912127,-0.891213 z m 20.2783017,0 c 0,-0.490961 0.400252,-0.891213 0.891213,-0.891213 0.490961,0 0.891591,0.400252 0.891591,0.891213 v 1.66526 c 0,0.490961 -0.40063,0.891213 -0.891591,0.891213 -0.490961,0 -0.891213,-0.400252 -0.891213,-0.891213 z M 59.10168,52.465586 c -7.917355,0 -15.836222,0 -23.753577,0 v 4.579276 H 59.10168 Z M 36.279378,53.92335 c 0,-0.490961 0.400252,-0.891213 0.891213,-0.891213 0.490961,0 0.891591,0.400252 0.891591,0.891213 v 1.66526 c 0,0.490961 -0.40063,0.891213 -0.891591,0.891213 -0.490961,0 -0.891213,-0.400252 -0.891213,-0.891213 z m 20.278302,0 c 0,-0.490961 0.400252,-0.891213 0.891591,-0.891213 0.49096,0 0.891212,0.400252 0.891212,0.891213 v 1.66526 c 0,0.490961 -0.400252,0.891213 -0.891212,0.891213 -0.491339,0 -0.891591,-0.400252 -0.891591,-0.891213 z M 20.241329,46.103506 v 4.579276 c 7.917356,0 15.836223,0 23.753578,0 v -4.579276 c -7.917355,0 -15.836222,0 -23.753578,0 z m 0.931276,1.457764 c 0,-0.49096 0.40063,-0.89159 0.891591,-0.89159 0.49096,0 0.891212,0.40063 0.891212,0.89159 v 1.664882 c 0,0.490961 -0.400252,0.891591 -0.891212,0.891591 -0.490961,0 -0.891591,-0.40063 -0.891591,-0.891591 z m 20.278302,0 c 0,-0.49096 0.40063,-0.89159 0.89159,-0.89159 0.490961,0 0.891591,0.40063 0.891591,0.89159 v 1.664882 c 0,0.490961 -0.40063,0.891591 -0.891591,0.891591 -0.49096,0 -0.89159,-0.40063 -0.89159,-0.891591 z m 8.408694,-7.819843 c -7.917734,0 -15.836223,0 -23.753956,0 v 4.579276 c 7.917733,0 15.836222,0 23.753956,0 z m -22.82268,1.457764 c 0,-0.490961 0.40063,-0.891591 0.89159,-0.891591 0.490961,0 0.891213,0.40063 0.891213,0.891591 v 1.664882 c 0,0.490961 -0.400252,0.891591 -0.891213,0.891591 -0.49096,0 -0.89159,-0.40063 -0.89159,-0.891591 z m 20.278301,0 c 0,-0.490961 0.40063,-0.891591 0.891591,-0.891591 0.490961,0 0.891591,0.40063 0.891591,0.891591 v 1.664882 c 0,0.490961 -0.40063,0.891591 -0.891591,0.891591 -0.490961,0 -0.891591,-0.40063 -0.891591,-0.891591 z M 43.994907,33.378969 H 33.323788 20.241329 v 4.579277 h 4.94967 0.02343 18.780475 z m -22.822302,1.458142 c 0,-0.491338 0.40063,-0.89159 0.891591,-0.89159 0.49096,0 0.891212,0.400252 0.891212,0.89159 v 1.664882 c 0,0.490961 -0.400252,0.891213 -0.891212,0.891213 -0.490961,0 -0.891591,-0.400252 -0.891591,-0.891213 z m 20.278302,0 c 0,-0.491338 0.40063,-0.89159 0.89159,-0.89159 0.490961,0 0.891591,0.400252 0.891591,0.89159 v 1.664882 c 0,0.490961 -0.40063,0.891213 -0.891591,0.891213 -0.49096,0 -0.89159,-0.400252 -0.89159,-0.891213 z m -4.055434,0 c 0,-0.491338 0.40063,-0.89159 0.891591,-0.89159 0.49096,0 0.89159,0.400252 0.89159,0.89159 v 1.664882 c 0,0.490961 -0.40063,0.891213 -0.89159,0.891213 -0.490961,0 -0.891591,-0.400252 -0.891591,-0.891213 z m -4.055056,0 c 0,-0.491338 0.400252,-0.89159 0.891213,-0.89159 0.490961,0 0.891591,0.400252 0.891591,0.89159 v 1.664882 c 0,0.490961 -0.40063,0.891213 -0.891591,0.891213 -0.490961,0 -0.891213,-0.400252 -0.891213,-0.891213 z m -4.056945,0 c 0,-0.491338 0.40063,-0.89159 0.891591,-0.89159 0.49096,0 0.891212,0.400252 0.891212,0.89159 v 1.664882 c 0,0.490961 -0.400252,0.891213 -0.891212,0.891213 -0.490961,0 -0.891591,-0.400252 -0.891591,-0.891213 z m -4.055433,0 c 0,-0.491338 0.40063,-0.89159 0.89159,-0.89159 0.490961,0 0.891213,0.400252 0.891213,0.89159 v 1.664882 c 0,0.490961 -0.400252,0.891213 -0.891213,0.891213 -0.49096,0 -0.89159,-0.400252 -0.89159,-0.891213 z m 18.032128,6.36208 c 0,-0.490961 0.400252,-0.891591 0.891212,-0.891591 0.490961,0 0.891591,0.40063 0.891591,0.891591 v 1.664882 c 0,0.490961 -0.40063,0.891591 -0.891591,0.891591 -0.49096,0 -0.891212,-0.40063 -0.891212,-0.891591 z m -4.055434,0 c 0,-0.490961 0.400252,-0.891591 0.891213,-0.891591 0.490961,0 0.89159,0.40063 0.89159,0.891591 v 1.664882 c 0,0.490961 -0.400629,0.891591 -0.89159,0.891591 -0.490961,0 -0.891213,-0.40063 -0.891213,-0.891591 z m -4.056945,0 c 0,-0.490961 0.40063,-0.891591 0.89159,-0.891591 0.490961,0 0.891213,0.40063 0.891213,0.891591 v 1.664882 c 0,0.490961 -0.400252,0.891591 -0.891213,0.891591 -0.49096,0 -0.89159,-0.40063 -0.89159,-0.891591 z m -4.055434,0 c 0,-0.490961 0.40063,-0.891591 0.891591,-0.891591 0.490961,0 0.891213,0.40063 0.891213,0.891591 v 1.664882 c 0,0.490961 -0.400252,0.891591 -0.891213,0.891591 -0.490961,0 -0.891591,-0.40063 -0.891591,-0.891591 z m 6.303119,6.362079 c 0,-0.49096 0.40063,-0.89159 0.891591,-0.89159 0.49096,0 0.89159,0.40063 0.89159,0.89159 v 1.664882 c 0,0.490961 -0.40063,0.891591 -0.89159,0.891591 -0.490961,0 -0.891591,-0.40063 -0.891591,-0.891591 z m -4.055056,0 c 0,-0.49096 0.400252,-0.89159 0.891213,-0.89159 0.490961,0 0.891591,0.40063 0.891591,0.89159 v 1.664882 c 0,0.490961 -0.40063,0.891591 -0.891591,0.891591 -0.490961,0 -0.891213,-0.40063 -0.891213,-0.891591 z m -4.056945,0 c 0,-0.49096 0.40063,-0.89159 0.891591,-0.89159 0.49096,0 0.891212,0.40063 0.891212,0.89159 v 1.664882 c 0,0.490961 -0.400252,0.891591 -0.891212,0.891591 -0.490961,0 -0.891591,-0.40063 -0.891591,-0.891591 z m -4.055433,0 c 0,-0.49096 0.40063,-0.89159 0.89159,-0.89159 0.490961,0 0.891213,0.40063 0.891213,0.89159 v 1.664882 c 0,0.490961 -0.400252,0.891591 -0.891213,0.891591 -0.49096,0 -0.89159,-0.40063 -0.89159,-0.891591 z m 27.274207,6.36208 c 0,-0.490961 0.40063,-0.891213 0.891591,-0.891213 0.490961,0 0.891213,0.400252 0.891213,0.891213 v 1.66526 c 0,0.490961 -0.400252,0.891213 -0.891213,0.891213 -0.490961,0 -0.891591,-0.400252 -0.891591,-0.891213 z m -4.055433,0 c 0,-0.490961 0.40063,-0.891213 0.891591,-0.891213 0.49096,0 0.891212,0.400252 0.891212,0.891213 v 1.66526 c 0,0.490961 -0.400252,0.891213 -0.891212,0.891213 -0.490961,0 -0.891591,-0.400252 -0.891591,-0.891213 z m -4.056567,0 c 0,-0.490961 0.400252,-0.891213 0.891212,-0.891213 0.490961,0 0.891591,0.400252 0.891591,0.891213 v 1.66526 c 0,0.490961 -0.40063,0.891213 -0.891591,0.891213 -0.49096,0 -0.891212,-0.400252 -0.891212,-0.891213 z m -4.055434,0 c 0,-0.490961 0.400252,-0.891213 0.891213,-0.891213 0.49096,0 0.89159,0.400252 0.89159,0.891213 v 1.66526 c 0,0.490961 -0.40063,0.891213 -0.89159,0.891213 -0.490961,0 -0.891213,-0.400252 -0.891213,-0.891213 z m -18.045734,0 c 0,-0.490961 0.400252,-0.891213 0.891212,-0.891213 0.491339,0 0.891591,0.400252 0.891591,0.891213 v 1.66526 c 0,0.490961 -0.400252,0.891213 -0.891591,0.891213 -0.49096,0 -0.891212,-0.400252 -0.891212,-0.891213 z m -4.055434,0 c 0,-0.490961 0.40063,-0.891213 0.891591,-0.891213 0.49096,0 0.891212,0.400252 0.891212,0.891213 v 1.66526 c 0,0.490961 -0.400252,0.891213 -0.891212,0.891213 -0.490961,0 -0.891591,-0.400252 -0.891591,-0.891213 z m -4.056945,0 c 0,-0.490961 0.40063,-0.891213 0.89159,-0.891213 0.490961,0 0.891591,0.400252 0.891591,0.891213 v 1.66526 c 0,0.490961 -0.40063,0.891213 -0.891591,0.891213 -0.49096,0 -0.89159,-0.400252 -0.89159,-0.891213 z"
       id="path85"
       style="clip-rule:evenodd;fill:#ffffff;fill-opacity:1;fill-rule:nonzero;stroke:none;stroke-width:0.0377953;image-rendering:optimizeQuality;shape-rendering:geometricPrecision;text-rendering:geometricPrecision" />
  </g>
</svg>
