<?xml version="1.0" encoding="UTF-8" standalone="no"?>
<!-- Created with Inkscape (http://www.inkscape.org/) -->

<svg
   width="64.0px"
   height="64.0px"
   viewBox="0 0 64.0 64.0"
   version="1.1"
   id="SVGRoot"
   sodipodi:docname="money-file.svg"
   inkscape:version="1.1.2 (b8e25be833, 2022-02-05)"
   xmlns:inkscape="http://www.inkscape.org/namespaces/inkscape"
   xmlns:sodipodi="http://sodipodi.sourceforge.net/DTD/sodipodi-0.dtd"
   xmlns="http://www.w3.org/2000/svg"
   xmlns:svg="http://www.w3.org/2000/svg">
  <sodipodi:namedview
     id="namedview4138"
     pagecolor="#787878"
     bordercolor="#666666"
     borderopacity="1.0"
     inkscape:pageshadow="2"
     inkscape:pageopacity="0"
     inkscape:pagecheckerboard="0"
     inkscape:document-units="px"
     showgrid="false"
     inkscape:zoom="6.0364197"
     inkscape:cx="38.102056"
     inkscape:cy="28.907864"
     inkscape:window-width="1920"
     inkscape:window-height="1002"
     inkscape:window-x="-8"
     inkscape:window-y="-8"
     inkscape:window-maximized="1"
     inkscape:current-layer="layer1"
     inkscape:snap-global="false">
    <inkscape:grid
       type="xygrid"
       id="grid4201" />
  </sodipodi:namedview>
  <defs
     id="defs4133" />
  <g
     inkscape:label="Warstwa 1"
     inkscape:groupmode="layer"
     id="layer1">
    <path
       class="fil5"
       d="M 4.2838565,3.2917183 H 60.020178 c 0.490961,0 0.891213,0.400252 0.891213,0.8912127 0,18.579404 0,37.156899 0,55.736302 0,0.490961 -0.400252,0.891213 -0.891213,0.891213 H 4.2838565 c -0.4909607,0 -0.8912127,-0.400252 -0.8912127,-0.891213 V 4.182931 c 0,-0.4909607 0.400252,-0.8912127 0.8912127,-0.8912127 z M 32.150694,20.990114 c 9.303686,0 16.857829,7.55265 16.857829,16.856676 0,9.305576 -7.554143,16.858207 -16.857829,16.858207 -9.304064,0 -16.856694,-7.554143 -16.856694,-16.858207 0,-9.301003 7.555276,-16.856676 16.856694,-16.856676 z m 0,1.783181 c -8.330457,0 -15.073891,6.743415 -15.073891,15.073495 0,8.327434 6.746457,15.075025 15.073891,15.075025 8.328946,0 15.075026,-6.744567 15.075026,-15.075025 0,-8.327434 -6.74608,-15.073495 -15.075026,-15.073495 z m 0.07105,3.054237 c 0,-0.547276 0.455434,-0.920315 0.9823,-0.887433 6.722646,0.540472 11.913828,6.184044 11.913828,12.924455 0,6.594142 -4.981418,12.167812 -11.539655,12.885166 -0.486803,0.05178 -0.925606,-0.301984 -0.977764,-0.788787 -0.05216,-0.486803 0.301607,-0.925606 0.78841,-0.977764 5.665512,-0.619842 9.945828,-5.425512 9.945828,-11.118615 0,-5.462552 -3.946961,-10.133633 -9.329765,-11.03318 v 4.573588 c 0,0.490961 -0.40063,0.891591 -0.891591,0.891591 h -2.649449 c -1.42526,0 -2.412473,0.922961 -2.412473,2.331591 0,1.374236 0.966804,2.345197 2.412473,2.345197 h 3.373607 c 2.427591,0 4.195276,1.738961 4.195276,4.128 0,2.397355 -1.763528,4.112883 -4.195276,4.112883 h -3.868725 v 4.323024 c 0,0.687118 -0.588473,0.968315 -1.18904,0.848882 -5.654552,-1.516725 -9.594709,-6.670867 -9.594709,-12.521576 0,-6.063119 4.222488,-11.343101 10.147276,-12.655731 0.478489,-0.105449 0.953197,0.196158 1.058646,0.674646 0.105827,0.478866 -0.196157,0.953197 -0.674646,1.059024 -5.115591,1.134255 -8.748473,5.688548 -8.748473,10.922061 0,4.652221 2.871685,8.815749 7.217765,10.461733 v -4.003276 c 0,-0.490961 0.400629,-0.891591 0.89159,-0.891591 h 4.760316 c 1.424882,0 2.412472,-0.921448 2.412472,-2.330079 0,-1.401827 -0.991748,-2.345197 -2.412472,-2.345197 h -3.373607 c -2.445355,0 -4.195654,-1.788472 -4.195654,-4.128 0,-2.395843 1.763906,-4.114394 4.195654,-4.114394 h 1.757858 z M 50.469311,12.203467 c 0.49096,0 0.891212,0.400252 0.891212,0.891213 0,0.490961 -0.400252,0.891591 -0.891212,0.891591 H 32.958379 l 1.562079,1.562078 H 54.023957 V 10.074837 H 29.045434 l 2.149418,2.14904 c 0.06161,-0.01361 0.124724,-0.02041 0.188976,-0.02041 z M 21.527197,5.0745217 H 5.1754471 V 59.027643 H 59.128587 v -41.69649 c -8.324788,0 -16.651088,0 -24.975499,0 -0.227905,-0.0011 -0.455433,-0.0892 -0.629669,-0.261921 C 29.5243,13.070113 25.526316,9.0736402 21.527197,5.0745217 Z m 5.735434,3.2175122 h 27.652916 c 0.490961,0 0.891213,0.400252 0.891213,0.8912127 v 6.3651024 h 3.321827 V 5.0745217 H 24.045119 Z"
       id="path74"
       style="clip-rule:evenodd;fill:#ffffff;fill-opacity:1;fill-rule:nonzero;stroke:none;stroke-width:0.0377953;image-rendering:optimizeQuality;shape-rendering:geometricPrecision;text-rendering:geometricPrecision" />
  </g>
</svg>
