<?xml version="1.0" encoding="UTF-8" standalone="no"?>
<!-- Created with Inkscape (http://www.inkscape.org/) -->

<svg
   width="64.0px"
   height="64.0px"
   viewBox="0 0 64.0 64.0"
   version="1.1"
   id="SVGRoot"
   sodipodi:docname="money-calc.svg"
   inkscape:version="1.1.2 (b8e25be833, 2022-02-05)"
   xmlns:inkscape="http://www.inkscape.org/namespaces/inkscape"
   xmlns:sodipodi="http://sodipodi.sourceforge.net/DTD/sodipodi-0.dtd"
   xmlns="http://www.w3.org/2000/svg"
   xmlns:svg="http://www.w3.org/2000/svg">
  <sodipodi:namedview
     id="namedview4138"
     pagecolor="#787878"
     bordercolor="#666666"
     borderopacity="1.0"
     inkscape:pageshadow="2"
     inkscape:pageopacity="0"
     inkscape:pagecheckerboard="0"
     inkscape:document-units="px"
     showgrid="false"
     inkscape:zoom="6.0364197"
     inkscape:cx="38.102056"
     inkscape:cy="28.907864"
     inkscape:window-width="1920"
     inkscape:window-height="1002"
     inkscape:window-x="-8"
     inkscape:window-y="-8"
     inkscape:window-maximized="1"
     inkscape:current-layer="layer1"
     inkscape:snap-global="false">
    <inkscape:grid
       type="xygrid"
       id="grid4201" />
  </sodipodi:namedview>
  <defs
     id="defs4133" />
  <g
     inkscape:label="Warstwa 1"
     inkscape:groupmode="layer"
     id="layer1">
    <path
       class="fil5"
       d="m 46.249629,34.500961 c 0,-0.490961 0.400252,-0.891591 0.891213,-0.891591 0.49096,0 0.89159,0.40063 0.89159,0.891591 v 24.812223 c 0,0.490961 -0.40063,0.891591 -0.89159,0.891591 H 5.3075145 c -0.4909607,0 -0.8915907,-0.40063 -0.8915907,-0.891591 V 9.7352099 c 0,-0.4909607 0.40063,-0.8915907 0.8915907,-0.8915907 H 31.899895 c 0.490961,0 0.891591,0.40063 0.891591,0.8915907 0,0.4909611 -0.40063,0.8912131 -0.891591,0.8912131 H 6.1987272 V 58.421971 H 46.249629 Z m -7.282394,12.596788 c 2.718236,0 4.92737,2.209513 4.92737,4.927749 0,2.716725 -2.210646,4.927371 -4.92737,4.927371 -2.715591,0 -4.927749,-2.213292 -4.927749,-4.927371 0,-2.715591 2.212158,-4.927749 4.927749,-4.927749 z m 0,1.782804 c -1.739339,0 -3.144946,1.407118 -3.144946,3.144945 0,1.740095 1.404473,3.144567 3.144946,3.144567 1.73896,0 3.144567,-1.404472 3.144567,-3.144567 0,-1.738961 -1.405607,-3.144945 -3.144567,-3.144945 z M 26.224934,47.097749 c 2.718236,0 4.927748,2.209513 4.927748,4.927749 0,2.716725 -2.211023,4.927371 -4.927748,4.927371 -2.715591,0 -4.927749,-2.213292 -4.927749,-4.927371 0,-2.715591 2.212158,-4.927749 4.927749,-4.927749 z m 0,1.782804 c -1.738961,0 -3.144945,1.407118 -3.144945,3.144945 0,1.740095 1.404472,3.144567 3.144945,3.144567 1.738961,0 3.144567,-1.404472 3.144567,-3.144567 0,-1.738961 -1.405606,-3.144945 -3.144567,-3.144945 z M 13.481122,47.097749 c 2.718236,0 4.927748,2.209513 4.927748,4.927749 0,2.716725 -2.210646,4.927371 -4.927748,4.927371 -2.715213,0 -4.9273709,-2.213292 -4.9273709,-4.927371 0,-2.715591 2.2121579,-4.927749 4.9273709,-4.927749 z m 0,1.782804 c -1.738961,0 -3.144568,1.407118 -3.144568,3.144945 0,1.740095 1.404473,3.144567 3.144568,3.144567 1.741984,0 3.144945,-1.404472 3.144945,-3.144567 0,-1.738961 -1.405607,-3.144945 -3.144945,-3.144945 z M 38.967235,35.530882 c 2.718236,0 4.92737,2.209512 4.92737,4.927749 0,2.716724 -2.210646,4.92737 -4.92737,4.92737 -2.715591,0 -4.927749,-2.213291 -4.927749,-4.92737 0,-2.715591 2.212158,-4.927749 4.927749,-4.927749 z m 0,1.782803 c -1.739339,0 -3.144946,1.407119 -3.144946,3.144946 0,1.740094 1.404473,3.144567 3.144946,3.144567 1.73896,0 3.144567,-1.404473 3.144567,-3.144567 0,-1.739339 -1.405607,-3.144946 -3.144567,-3.144946 z M 26.224934,35.530882 c 2.718236,0 4.927748,2.209512 4.927748,4.927749 0,2.716724 -2.211023,4.92737 -4.927748,4.92737 -2.715591,0 -4.927749,-2.213291 -4.927749,-4.92737 0,-2.715591 2.212158,-4.927749 4.927749,-4.927749 z m 0,1.782803 c -1.738961,0 -3.144945,1.407119 -3.144945,3.144946 0,1.740094 1.404472,3.144567 3.144945,3.144567 1.738961,0 3.144567,-1.404473 3.144567,-3.144567 0,-1.739339 -1.405606,-3.144946 -3.144567,-3.144946 z M 13.481122,35.530882 c 2.718236,0 4.927748,2.209512 4.927748,4.927749 0,2.716724 -2.210646,4.92737 -4.927748,4.92737 -2.715213,0 -4.9273709,-2.213291 -4.9273709,-4.92737 0,-2.715591 2.2121579,-4.927749 4.9273709,-4.927749 z m 0,1.782803 c -1.738961,0 -3.144568,1.407119 -3.144568,3.144946 0,1.740094 1.404473,3.144567 3.144568,3.144567 1.739338,0 3.144945,-1.404473 3.144945,-3.144567 0,-1.739339 -1.405607,-3.144946 -3.144945,-3.144946 z M 38.967235,32.03633 c 0.49096,0 0.891212,0.40063 0.891212,0.891591 0,0.490961 -0.400252,0.891213 -0.891212,0.891213 -2.715591,0 -4.927749,-2.213292 -4.927749,-4.927371 0,-0.490961 0.400252,-0.891591 0.891213,-0.891591 0.491338,0 0.89159,0.40063 0.89159,0.891591 0,1.740095 1.404473,3.144567 3.144946,3.144567 z M 26.224934,23.964014 c 2.718236,0 4.927748,2.209513 4.927748,4.927749 0,2.716725 -2.211023,4.927371 -4.927748,4.927371 -2.715591,0 -4.927749,-2.213292 -4.927749,-4.927371 0,-2.715591 2.212158,-4.927749 4.927749,-4.927749 z m 0,1.782804 c -1.738961,0 -3.144945,1.407118 -3.144945,3.144945 0,1.740095 1.404472,3.144567 3.144945,3.144567 1.738961,0 3.144567,-1.404472 3.144567,-3.144567 0,-1.739339 -1.405606,-3.144945 -3.144567,-3.144945 z M 13.481122,23.964014 c 2.718236,0 4.927748,2.209513 4.927748,4.927749 0,2.716725 -2.210646,4.927371 -4.927748,4.927371 -2.715213,0 -4.9273709,-2.213292 -4.9273709,-4.927371 0,-2.715591 2.2121579,-4.927749 4.9273709,-4.927749 z m 0,1.782804 c -1.738961,0 -3.144568,1.407118 -3.144568,3.144945 0,1.740095 1.404473,3.144567 3.144568,3.144567 1.739338,0 3.144945,-1.404472 3.144945,-3.144567 0,-1.739339 -1.405607,-3.144945 -3.144945,-3.144945 z M 31.295171,21.19362 c 0.49096,0 0.89159,0.40063 0.89159,0.891591 0,0.490961 -0.40063,0.891213 -0.89159,0.891213 H 9.4547905 c -0.4909606,0 -0.8915906,-0.400252 -0.8915906,-0.891213 v -9.265906 c 0,-0.490961 0.40063,-0.891213 0.8915906,-0.891213 H 30.204777 c 0.490961,0 0.89159,0.400252 0.89159,0.891213 0,0.491339 -0.400629,0.891591 -0.89159,0.891591 H 10.346003 V 21.19362 Z M 47.42355,2.6856342 c 8.050395,0 14.588223,6.5378276 14.588223,14.5882228 0,8.053433 -6.536316,14.588237 -14.588223,14.588237 -8.054552,0 -14.588222,-6.53367 -14.588222,-14.588237 0,-8.0515291 6.536316,-14.5882228 14.588222,-14.5882228 z m 0,1.7831814 c -7.074142,0 -12.805418,5.7312764 -12.805418,12.8050414 0,7.074157 5.731276,12.805434 12.805418,12.805434 7.073765,0 12.805041,-5.729765 12.805041,-12.805434 0,-7.075277 -5.729764,-12.8050414 -12.805041,-12.8050414 z M 47.35628,6.963304 c 0,-0.4909606 0.40063,-0.8912127 0.891591,-0.8912127 l 0.04233,0.00113 h 0.0026 l 0.01928,0.00151 h 0.0042 l 0.01928,0.00113 h 0.0026 l 0.02343,0.00302 c 5.821607,0.4826457 10.312065,5.3703317 10.312065,11.2100807 0,5.717685 -4.32567,10.557749 -10.013104,11.178725 -0.486803,0.05216 -0.925606,-0.301606 -0.977764,-0.78841 -0.05216,-0.486803 0.301606,-0.925606 0.78841,-0.977763 4.797355,-0.525355 8.419276,-4.591749 8.419276,-9.412552 0,-4.566804 -3.264,-8.4918442 -7.751434,-9.3135136 v 3.7731036 c 0,0.490961 -0.400252,0.891213 -0.891212,0.891213 h -2.272631 c -1.146708,0 -1.946079,0.735118 -1.946079,1.873512 0.01625,1.136882 0.784252,1.884472 1.946079,1.884472 h 2.895119 c 2.147528,0 3.724725,1.552252 3.724725,3.667291 0,2.125607 -1.567371,3.654804 -3.724725,3.654804 h -3.194079 v 3.582237 c 0,0.681448 -0.589607,0.969449 -1.178079,0.851527 -4.904316,-1.316409 -8.324789,-5.790237 -8.324789,-10.864646 0,-5.260725 3.664631,-9.8430254 8.804789,-10.9799075 0.478488,-0.1054488 0.953197,0.1961575 1.058646,0.6750237 0.105826,0.4784883 -0.196158,0.9528191 -0.674646,1.0586458 -4.330961,0.9584883 -7.405985,4.816631 -7.405985,9.246238 0,3.870252 2.347843,7.349685 5.93726,8.789685 v -3.250381 c 0,-0.49096 0.400252,-0.891212 0.891213,-0.891212 h 4.08567 c 1.150488,0 1.941921,-0.733985 1.941921,-1.872001 0,-1.134251 -0.794079,-1.884487 -1.941921,-1.884487 h -2.895119 c -2.150551,0 -3.724724,-1.551119 -3.724724,-3.667276 0.01096,-2.128631 1.557921,-3.656316 3.724724,-3.656316 h 1.38104 z"
       id="path70"
       style="clip-rule:evenodd;fill:#ffffff;fill-opacity:1;fill-rule:nonzero;stroke:none;stroke-width:0.0377953;image-rendering:optimizeQuality;shape-rendering:geometricPrecision;text-rendering:geometricPrecision" />
  </g>
</svg>
