<?xml version="1.0" encoding="UTF-8" standalone="no"?>
<!-- Created with Inkscape (http://www.inkscape.org/) -->

<svg
   width="64.0px"
   height="64.0px"
   viewBox="0 0 64.0 64.0"
   version="1.1"
   id="SVGRoot"
   sodipodi:docname="money-bulb.svg"
   inkscape:version="1.1.2 (b8e25be833, 2022-02-05)"
   xmlns:inkscape="http://www.inkscape.org/namespaces/inkscape"
   xmlns:sodipodi="http://sodipodi.sourceforge.net/DTD/sodipodi-0.dtd"
   xmlns="http://www.w3.org/2000/svg"
   xmlns:svg="http://www.w3.org/2000/svg">
  <sodipodi:namedview
     id="namedview4138"
     pagecolor="#787878"
     bordercolor="#666666"
     borderopacity="1.0"
     inkscape:pageshadow="2"
     inkscape:pageopacity="0"
     inkscape:pagecheckerboard="0"
     inkscape:document-units="px"
     showgrid="true"
     inkscape:zoom="6.0364197"
     inkscape:cx="38.102056"
     inkscape:cy="28.907864"
     inkscape:window-width="1920"
     inkscape:window-height="1002"
     inkscape:window-x="-8"
     inkscape:window-y="-8"
     inkscape:window-maximized="1"
     inkscape:current-layer="layer1"
     inkscape:snap-global="false">
    <inkscape:grid
       type="xygrid"
       id="grid4201" />
  </sodipodi:namedview>
  <defs
     id="defs4133" />
  <g
     inkscape:label="Warstwa 1"
     inkscape:groupmode="layer"
     id="layer1">
    <path
       class="fil5"
       d="M 30.113653,61.34385 C 22.801023,60.649929 16.286628,57.218495 11.615509,52.089298 6.9595088,46.977864 4.1203272,40.179627 4.1203272,32.72035 c 0,-15.883087 12.8768518,-28.7595606 28.7595628,-28.7595606 15.880065,0 28.759562,12.8791196 28.759562,28.7595606 0,14.733356 -11.163592,27.120382 -25.828538,28.60687 -1.165985,0.111118 -1.330394,-1.655055 -0.173103,-1.766174 13.754459,-1.395023 24.218838,-13.026143 24.218838,-26.840696 0,-14.902299 -12.074458,-26.9767573 -26.976759,-26.9767573 -14.902301,0 -26.9763814,12.0744583 -26.9763814,26.9767573 0,7.001198 2.6619212,13.381041 7.0287884,18.173105 4.19641,4.608 9.970395,7.755591 16.469671,8.58671 V 55.30681 c 0,-0.490961 0.40063,-0.891591 0.891591,-0.891591 h 6.027213 v -0.981921 h -7.771843 c -0.490961,0 -0.891591,-0.40063 -0.891591,-0.891591 v -2.88 c 0,-0.523843 0.390803,-0.914646 0.915024,-0.914646 h 7.74841 v -1.082079 h -7.74841 c -0.524221,0 -0.915024,-0.390803 -0.915024,-0.914646 v -1.980472 h -0.673134 c -0.490961,0 -0.891591,-0.40063 -0.891591,-0.891591 v -4.771276 c 0,-0.490961 0.40063,-0.891213 0.891591,-0.891213 0.490961,0 0.891213,0.400252 0.891213,0.891213 v 3.880063 c 3.336945,0 6.673512,0 10.010458,0 v -6.692788 c 0.0053,-0.322394 0.181039,-0.633827 0.488315,-0.789921 1.986898,-1.016315 3.658961,-2.570079 4.819276,-4.465513 1.120252,-1.829669 1.767685,-3.989668 1.767685,-6.301983 0,-3.184631 -1.221921,-6.079749 -3.220158,-8.231434 -1.804724,-1.946079 -4.250079,-3.294237 -7.004221,-3.709607 v 5.315528 c 0,0.490961 -0.400252,0.891591 -0.891213,0.891591 h -2.65663 c -1.427528,0 -2.421922,0.925606 -2.421922,2.338394 0,1.408252 0.994394,2.354646 2.421922,2.354646 h 3.383433 c 2.427591,0 4.204725,1.747275 4.204725,4.137827 0,2.398487 -1.771842,4.12233 -4.204725,4.12233 h -3.882709 v 4.314709 c 0,0.523843 -0.390803,0.914646 -0.914645,0.914646 h -2.790804 c -0.175748,0 -0.340157,-0.05065 -0.477354,-0.139843 -4.598552,-2.38337 -7.491025,-7.127434 -7.491025,-12.308787 0,-6.614552 4.701355,-12.339026 11.197986,-13.604789 1.149354,-0.219591 1.482709,1.527685 0.334866,1.747275 -5.667024,1.104001 -9.750048,6.09071 -9.750048,11.857514 0,4.47118 2.452157,8.559496 6.395339,10.665826 h 1.712882 v -4.337764 c 0,-0.490961 0.40063,-0.89159 0.891591,-0.89159 h 4.773921 c 1.42904,0 2.421922,-0.925607 2.421922,-2.339527 0,-1.410142 -0.99137,-2.355024 -2.421922,-2.355024 h -3.383433 c -2.43137,0 -4.204725,-1.743118 -4.204725,-4.137449 0,-2.400379 1.770331,-4.121198 4.204725,-4.121198 h 1.76504 v -5.417575 c 0,-0.534803 0.423685,-0.924094 0.954708,-0.887055 3.604158,0.255118 6.822804,1.889764 9.132474,4.380473 2.298331,2.475212 3.702803,5.795528 3.702803,9.440883 0,2.644157 -0.744567,5.119747 -2.033764,7.226456 -1.234393,2.016 -2.973354,3.696 -5.041512,4.858961 v 7.056001 c 0,0.490961 -0.40063,0.891591 -0.891591,0.891591 -3.111685,0 -6.224882,0 -9.336568,0 v 1.112315 h 7.748411 c 0.52422,0 0.915023,0.390803 0.915023,0.914646 v 2.818394 c 0,0.523842 -0.390803,0.914645 -0.915023,0.914645 h -7.748411 v 1.12063 h 7.748411 c 0.52422,0 0.915023,0.390804 0.915023,0.914646 v 2.74167 c 0,0.49096 -0.40063,0.891212 -0.89159,0.891212 h -6.027591 v 4.272379 c 0,0.572976 -0.51704,0.976252 -1.071119,0.873449 z"
       id="path19"
       style="clip-rule:evenodd;fill:#ffffff;fill-opacity:1;fill-rule:nonzero;stroke-width:0.0377953;image-rendering:optimizeQuality;shape-rendering:geometricPrecision;text-rendering:geometricPrecision" />
  </g>
</svg>
