<?xml version="1.0" encoding="UTF-8" standalone="no"?>
<svg
   version="1.0"
   id="Layer_1"
   x="0px"
   y="0px"
   viewBox="0 0 5333 4000"
   enable-background="new 0 0 5333 4000"
   xml:space="preserve"
   sodipodi:docname="about-us.svg"
   inkscape:version="1.1.2 (b8e25be833, 2022-02-05)"
   xmlns:inkscape="http://www.inkscape.org/namespaces/inkscape"
   xmlns:sodipodi="http://sodipodi.sourceforge.net/DTD/sodipodi-0.dtd"
   xmlns="http://www.w3.org/2000/svg"
   xmlns:svg="http://www.w3.org/2000/svg"><defs
   id="defs290" /><sodipodi:namedview
   id="namedview288"
   pagecolor="#ffffff"
   bordercolor="#666666"
   borderopacity="1.0"
   inkscape:pageshadow="2"
   inkscape:pageopacity="0.0"
   inkscape:pagecheckerboard="0"
   showgrid="false"
   inkscape:zoom="0.105875"
   inkscape:cx="2861.8654"
   inkscape:cy="1223.1405"
   inkscape:window-width="1920"
   inkscape:window-height="1002"
   inkscape:window-x="-8"
   inkscape:window-y="-8"
   inkscape:window-maximized="1"
   inkscape:current-layer="Layer_1" />



<rect
   fill="none"
   x="21.7885"
   y="120.23748"
   width="5267.7178"
   height="3950.7878"
   id="rect3"
   style="stroke-width:1" /><g
   id="_2382025376320"
   transform="matrix(2.7878601,0,0,2.7878601,-666.19952,-806.55863)"
   style="stroke-width:0.358698"><g
     id="_2031870482304"
     style="stroke-width:0.358698"><g
       id="g95"
       style="stroke-width:0.358698"><path
         fill="#DBF1FF"
         d="m 1191.54,373.58 c 502.68,0 910.19,407.51 910.19,910.23 0,111.56 -20.07,218.38 -56.82,317.15 H 338.17 c -36.68,-98.77 -56.83,-205.63 -56.83,-317.15 0,-502.72 407.52,-910.23 910.2,-910.23 z"
         id="path5"
         style="fill:#d5fef7;fill-opacity:1;stroke-width:0.358698" /><g
         id="g11"
         style="stroke-width:0.358698"><path
           fill="#ffffff"
           d="m 999.83,421.71 c 103.47,30.07 190.33,109.93 224.4,220.61 34.1,110.68 7.28,225.56 -61.35,308.67 C 1059.41,920.92 972.59,841.06 938.49,730.38 904.45,619.7 931.24,504.82 999.83,421.71 Z"
           id="path7"
           style="stroke-width:0.119058" /><path
           fill="#dbf1ff"
           d="m 1017.22,485.24 c -0.32,-1.09 0.28,-2.26 1.41,-2.61 1.1,-0.32 2.3,0.28 2.62,1.38 l 22.19,71.98 34.17,-64.63 c 0.56,-1.03 1.8,-1.42 2.86,-0.89 1.06,0.57 1.45,1.81 0.88,2.87 l -36.15,68.34 47.92,155.38 47.74,-90.25 c 0.53,-1.03 1.81,-1.45 2.87,-0.89 1.02,0.53 1.41,1.8 0.88,2.87 l -49.72,93.99 41.81,135.63 34.17,-64.6 c 0.53,-1.06 1.8,-1.45 2.86,-0.88 1.02,0.53 1.41,1.8 0.88,2.86 l -36.15,68.35 11.1,35.97 c 0.32,1.09 -0.28,2.3 -1.38,2.61 -1.1,0.32 -2.26,-0.28 -2.62,-1.37 l -11.09,-36.01 -68.35,-36.15 c -1.02,-0.53 -1.41,-1.81 -0.88,-2.87 0.53,-1.02 1.8,-1.41 2.86,-0.88 l 64.64,34.17 -41.84,-135.59 -94,-49.72 c -1.03,-0.57 -1.42,-1.8 -0.89,-2.86 0.57,-0.99 1.81,-1.45 2.87,-0.89 l 90.25,47.75 -47.88,-155.38 -68.35,-36.16 c -1.06,-0.53 -1.44,-1.8 -0.88,-2.86 0.53,-1.02 1.8,-1.41 2.86,-0.88 l 64.6,34.17 z"
           id="path9"
           style="stroke-width:0.119058" /></g><g
         id="g17"
         style="stroke-width:0.358698"><path
           fill="#ffffff"
           d="m 1567.89,501.04 c -105.7,-20.89 -219.52,10.1 -300.73,92.72 -81.21,82.59 -110.18,196.98 -87.46,302.32 105.7,20.88 219.52,-10.14 300.72,-92.73 81.18,-82.62 110.19,-196.97 87.47,-302.31 z"
           id="path13"
           style="stroke-width:0.119058" /><path
           fill="#dbf1ff"
           d="m 1523.25,549.45 c 0.78,-0.81 0.78,-2.16 0,-2.97 -0.81,-0.77 -2.15,-0.77 -2.96,0.04 l -52.8,53.71 -0.63,-73.11 c 0,-1.13 -0.96,-2.09 -2.16,-2.09 -1.13,0.04 -2.09,0.96 -2.09,2.16 l 0.68,77.28 -113.93,115.98 -0.89,-102.09 c 0,-1.13 -0.95,-2.12 -2.12,-2.08 -1.13,0 -2.08,0.95 -2.08,2.12 l 0.95,106.33 -99.47,101.24 -0.64,-73.08 c -0.04,-1.16 -0.95,-2.12 -2.12,-2.08 -1.17,0 -2.12,0.95 -2.09,2.12 l 0.68,77.28 -26.4,26.86 c -0.78,0.81 -0.78,2.15 0.03,2.97 0.85,0.81 2.16,0.77 3.01,0 l 26.39,-26.86 77.29,-0.67 c 1.16,0.03 2.12,-0.96 2.08,-2.12 0,-1.13 -0.95,-2.09 -2.12,-2.09 l -73.08,0.64 99.48,-101.24 106.33,-0.96 c 1.17,-0.03 2.09,-0.95 2.09,-2.12 0,-1.13 -0.96,-2.12 -2.12,-2.08 l -102.09,0.88 113.92,-115.98 77.29,-0.67 c 1.13,0 2.08,-0.95 2.08,-2.12 0,-1.13 -0.95,-2.08 -2.15,-2.08 l -73.12,0.63 z"
           id="path15"
           style="stroke-width:0.119058" /></g><g
         id="g23"
         style="stroke-width:0.358698"><path
           fill="#BAE3FF"
           d="m 349.12,875.02 c 73.15,6.18 141.85,47.92 179.48,117.25 37.6,69.37 35.13,149.69 0.43,214.39 -73.15,-6.18 -141.85,-47.92 -179.45,-117.25 -37.67,-69.4 -35.16,-149.72 -0.46,-214.39 z"
           id="path19"
           style="fill:#91d1c5;fill-opacity:1;stroke-width:0.358698" /><path
           fill="#ffffff"
           d="m 369.23,915.09 c -0.39,-0.71 -0.11,-1.59 0.56,-1.94 0.71,-0.39 1.59,-0.11 1.95,0.56 l 24.49,45.13 14.17,-47.74 c 0.21,-0.78 1.02,-1.2 1.76,-0.96 0.78,0.21 1.21,1.03 0.96,1.77 l -14.95,50.5 52.79,97.35 19.79,-66.68 c 0.25,-0.74 1.03,-1.2 1.77,-0.95 0.74,0.25 1.2,1.02 0.95,1.8 l -20.6,69.44 46.12,84.99 14.17,-47.75 c 0.25,-0.74 1.02,-1.2 1.77,-0.95 0.74,0.25 1.2,1.03 0.95,1.8 l -14.98,50.5 12.22,22.58 c 0.39,0.71 0.11,1.59 -0.56,1.94 -0.71,0.39 -1.59,0.11 -1.95,-0.56 l -12.22,-22.58 -50.5,-14.98 c -0.74,-0.25 -1.2,-1.03 -0.95,-1.81 0.21,-0.77 1.02,-1.2 1.76,-0.95 l 47.74,14.17 -46.08,-84.99 -69.43,-20.6 c -0.78,-0.21 -1.21,-1.02 -0.96,-1.77 0.25,-0.74 1.03,-1.2 1.77,-0.95 l 66.68,19.79 -52.76,-97.36 -50.5,-14.98 c -0.77,-0.21 -1.2,-1.03 -0.95,-1.77 0.21,-0.78 1.02,-1.2 1.77,-0.95 l 47.74,14.17 z"
           id="path21"
           style="stroke-width:0.119058" /></g><g
         id="g29"
         style="stroke-width:0.358698"><path
           fill="#BAE3FF"
           d="m 2099.58,1011.07 c -77.99,-35.06 -171.53,-31.49 -249.03,17.84 -77.53,49.34 -120.39,132.52 -121.7,218 77.99,35.06 171.53,31.49 249.02,-17.84 77.57,-49.33 120.44,-132.55 121.71,-218 z"
           id="path25"
           style="fill:#91d1c5;fill-opacity:1;stroke-width:0.358698" /><path
           fill="#ffffff"
           d="m 2056.43,1040.51 c 0.78,-0.5 1.03,-1.56 0.53,-2.3 -0.49,-0.78 -1.55,-1.03 -2.3,-0.53 l -50.42,32.08 12.61,-56.61 c 0.18,-0.88 -0.35,-1.8 -1.27,-1.98 -0.88,-0.21 -1.8,0.36 -1.98,1.28 l -13.32,59.89 -108.84,69.23 17.56,-79.05 c 0.18,-0.88 -0.39,-1.8 -1.27,-1.98 -0.88,-0.17 -1.8,0.36 -1.98,1.27 l -18.31,82.34 -95.02,60.43 12.58,-56.61 c 0.18,-0.89 -0.39,-1.8 -1.27,-1.98 -0.88,-0.18 -1.8,0.39 -1.98,1.27 l -13.32,59.86 -25.23,16.05 c -0.78,0.49 -1.03,1.55 -0.53,2.33 0.49,0.77 1.55,0.99 2.33,0.53 l 25.23,-16.05 59.86,13.33 c 0.88,0.17 1.8,-0.39 1.98,-1.28 0.18,-0.88 -0.39,-1.8 -1.27,-1.97 l -56.61,-12.58 95.02,-60.47 82.34,18.31 c 0.88,0.21 1.8,-0.36 1.97,-1.24 0.18,-0.88 -0.38,-1.8 -1.27,-1.98 l -79.08,-17.56 108.84,-69.23 59.86,13.32 c 0.88,0.22 1.8,-0.35 1.98,-1.23 0.17,-0.88 -0.36,-1.8 -1.28,-1.98 l -56.61,-12.58 z"
           id="path27"
           style="stroke-width:0.119058" /></g><path
         fill="#8AD0FF"
         d="m 424.18,1503.01 c 255.7,-35.94 511.51,-57.6 767.22,-57.64 255.7,-0.04 511.69,21.59 767.53,57.64 0,-147.5 0,-295.11 0,-442.61 0,-147.5 0,-295.18 0,-442.78 -255.84,36.04 -511.79,57.77 -767.53,57.81 -255.74,0.04 -511.55,-21.7 -767.22,-57.81 0,147.6 0,295.28 0,442.78 0,147.5 0,295.11 0,442.61 z"
         id="path31"
         style="fill:#9ce1d4;fill-opacity:1;stroke-width:0.358698" /><path
         fill="#4B9ED6"
         d="m 999.16,671.47 c -147.75,-6 -295.53,-18.65 -443.24,-36.57 v 220.12 c 0,9.89 8.09,17.98 17.99,17.98 191.31,0 215.94,0 407.26,0 9.9,0 17.99,-8.09 17.99,-17.98 z"
         id="path33"
         style="fill:#82bcb1;fill-opacity:1;stroke-width:0.358698" /><path
         fill="#4B9ED6"
         d="m 1660.08,652.74 c -73.25,6.82 -146.54,12.23 -219.8,16.05 -0.07,0.63 -0.11,1.3 -0.11,1.94 v 246.38 c 0,9.89 8.1,17.98 17.99,17.98 191.32,0 215.95,0 407.31,0 9.89,0 17.98,-8.09 17.98,-17.98 V 670.73 c 0,-9.89 -8.09,-17.99 -17.98,-17.99 z"
         id="path35"
         style="fill:#82bcb1;fill-opacity:1;stroke-width:0.358698" /><path
         fill="#4B9ED6"
         d="m 1744.79,1323.14 c 9.89,0 17.98,8.09 17.98,17.98 v 137.22 c -147.78,-16.29 -295.53,-27.14 -443.24,-31.2 v -106.02 c 0,-9.89 8.09,-17.98 17.99,-17.98 191.32,0 215.95,0 407.27,0 z"
         id="path37"
         style="fill:#82bcb1;fill-opacity:1;stroke-width:0.358698" /><path
         fill="#DBF1FF"
         d="m 1462.12,1380.21 c -9.22,-0.36 -16.57,-6.36 -16.57,-13.64 0,-7.18 7.35,-12.83 16.57,-12.48 75.06,3.01 150.11,7 225.14,12.12 9.04,0.64 16.57,7.35 16.57,14.88 0,7.63 -7.53,13 -16.57,12.3 -75.06,-5.48 -150.08,-9.9 -225.14,-13.18 z M 635.64,808.86 c -9.05,-0.63 -16.57,-7.35 -16.57,-15.05 0,-7.7 7.52,-13.29 16.57,-12.58 35.16,2.65 70.29,5.06 105.59,7.28 9.22,0.53 16.75,7 16.75,14.42 0,7.35 -7.53,13 -16.75,12.47 -35.27,-1.94 -70.43,-4.17 -105.59,-6.54 z m 482.54,16.19 c -9.23,0 -16.58,-5.76 -16.58,-12.93 0,-7.18 7.35,-12.94 16.58,-12.94 108.03,0 216.09,-0.35 324.11,-2.29 9.23,-0.25 16.58,5.3 16.58,12.58 0,7.27 -7.35,13.28 -16.58,13.53 -108.02,1.7 -216.05,2.05 -324.11,2.05 z m 432.64,-5.58 c -9.19,0.46 -16.58,-5.23 -16.58,-12.48 0,-7.35 7.39,-13.46 16.58,-13.99 48.8,-2.3 97.78,-5.05 146.72,-8.23 9.22,-0.6 16.57,4.94 16.57,12.58 0,7.52 -7.35,14.17 -16.57,14.7 -48.94,2.93 -97.92,5.4 -146.72,7.42 z M 635.64,749.89 c -9.05,-0.82 -16.57,-7.71 -16.57,-15.41 0,-7.6 7.52,-13.11 16.57,-12.23 45.9,4.07 91.91,7.81 137.96,10.99 9.22,0.53 16.57,7 16.57,14.35 0,7.35 -7.35,12.93 -16.57,12.4 -46.01,-2.93 -92.06,-6.39 -137.96,-10.1 z m 255.24,15.76 c -9.22,-0.36 -16.57,-6.54 -16.57,-13.82 0,-7.24 7.35,-12.76 16.57,-12.4 98.24,3.18 196.45,4.52 294.83,4.52 9.22,0 16.57,5.83 16.57,13.01 0,7.06 -7.35,12.93 -16.57,12.93 -98.38,-0.07 -196.59,-1.31 -294.83,-4.24 z m 846.27,-15.06 c -9.22,0.82 -16.71,-4.7 -16.71,-12.22 0,-7.6 7.52,-14.53 16.71,-15.3 31.17,-3.01 62.48,-6.19 93.79,-9.76 9.19,-0.99 16.57,4.42 16.57,12.3 0,7.88 -7.38,15.12 -16.57,16.11 -31.34,3.22 -62.65,6.12 -93.79,8.87 z M 719.28,929.62 c -9.04,-0.29 -16.57,-6.54 -16.57,-14.11 0,-7.52 7.53,-13.28 16.57,-13 82.41,2.65 164.82,4.7 247.26,6.01 9.05,0.17 16.58,6 16.58,13.28 0,7.18 -7.53,12.94 -16.58,12.76 -82.4,-1.02 -164.81,-2.72 -247.26,-4.94 z m 388.01,5.76 c -9.22,0 -16.71,-5.76 -16.71,-12.94 0,-7.17 7.52,-12.93 16.71,-12.93 69.37,0 138.74,0 208.11,-0.18 9.22,0 16.75,5.76 16.75,12.93 0,7.18 -7.53,12.94 -16.75,13.01 -69.37,0.11 -138.74,0.11 -208.11,0.11 z m 636.44,-8.59 c -9.23,0.35 -16.58,-5.48 -16.58,-13.11 0,-7.6 7.35,-14.07 16.58,-14.53 29.01,-1.34 58.02,-2.75 87.17,-4.24 9.19,-0.53 16.72,5.41 16.72,13.29 0,7.88 -7.53,14.6 -16.72,15.05 -29.15,1.24 -58.16,2.48 -87.17,3.54 z M 719.28,987.36 c -9.04,-0.07 -16.57,-6.29 -16.57,-13.82 0,-7.46 7.53,-13.46 16.57,-13.18 41,0.88 82.13,1.69 123.26,2.3 9.19,0.17 16.58,6.29 16.58,13.46 0,7.24 -7.39,13.11 -16.58,13 -41.13,-0.53 -82.26,-1.06 -123.26,-1.76 z m 214.12,2.65 c -9.05,-0.07 -16.58,-6.01 -16.58,-13.29 0,-7.17 7.53,-12.93 16.58,-12.83 84.7,0.6 169.58,0.89 254.32,0.89 84.71,0 169.73,-0.36 254.61,-0.96 9.22,-0.07 16.72,5.76 16.72,12.94 0,7.24 -7.53,13.1 -16.72,13.18 -84.88,0.42 -169.9,0.7 -254.61,0.7 -84.74,0 -169.62,-0.17 -254.32,-0.63 z m 618.97,-1.17 c -9.22,0.18 -16.71,-5.65 -16.71,-13 0,-7.18 7.52,-13.29 16.71,-13.47 48.34,-0.81 96.69,-1.87 145.21,-3 9.22,-0.18 16.57,5.76 16.57,13.29 0,7.63 -7.35,13.88 -16.57,13.99 -48.52,0.88 -96.87,1.59 -145.21,2.19 z m -833.09,56.33 c -9.04,-0.07 -16.57,-6.18 -16.57,-13.64 0,-7.53 7.53,-13.54 16.57,-13.47 89.94,0.82 179.87,1.35 269.95,1.7 9.05,0 16.57,5.83 16.57,13.01 0,7.17 -7.52,13 -16.57,13 -90.04,-0.18 -180.01,-0.35 -269.95,-0.6 z m 657.04,0.53 c -9.22,0 -16.57,-5.76 -16.57,-12.93 0,-7.18 7.35,-13.01 16.57,-13.01 89.47,-0.35 178.95,-0.88 268.43,-1.59 9.22,-0.07 16.57,5.83 16.57,13.36 0,7.53 -7.35,13.53 -16.57,13.53 -89.48,0.29 -178.96,0.46 -268.43,0.64 z m -657.04,57.21 c -9.04,0.07 -16.57,-5.94 -16.57,-13.46 0,-7.53 7.53,-13.54 16.57,-13.64 105.73,-0.25 211.64,-0.53 317.55,-0.6 9.22,0 16.72,5.83 16.72,13 0,7.1 -7.53,12.83 -16.72,12.93 -105.91,0.25 -211.78,0.85 -317.55,1.77 z m 521.38,-1.87 c -9.23,0 -16.58,-5.76 -16.58,-12.94 0,-7.17 7.35,-12.93 16.58,-12.93 51.24,-0.07 102.51,-0.07 153.93,-0.07 9.22,0 16.75,5.83 16.75,13 0,7.28 -7.53,13.01 -16.75,13.01 -51.42,-0.07 -102.69,-0.14 -153.93,-0.07 z m 268.42,0.53 c -9.22,0 -16.57,-5.94 -16.57,-13.18 0,-7.25 7.35,-13.11 16.57,-13.11 83.05,0.25 166.06,0.53 249.24,0.88 9.22,0 16.75,6.29 16.75,13.99 0,7.71 -7.53,13.82 -16.75,13.71 -83.18,-0.95 -166.23,-1.65 -249.24,-2.29 z m -873.44,120.15 c -9.05,0.42 -16.57,-5.41 -16.57,-13.11 0,-7.71 7.52,-14.17 16.57,-14.53 16.11,-0.53 32.23,-1.16 48.48,-1.69 9.23,-0.36 16.58,5.58 16.58,13.11 0,7.52 -7.35,13.81 -16.58,14.17 -16.22,0.63 -32.37,1.41 -48.48,2.05 z m 105.77,-4.17 c -9.23,0.35 -16.76,-5.48 -16.76,-12.94 0,-7.52 7.53,-13.71 16.76,-13.99 72.26,-1.87 144.56,-3.29 217,-4.35 9.23,-0.07 16.58,5.66 16.58,12.83 0,7.18 -7.35,13.11 -16.58,13.29 -72.44,1.2 -144.74,2.97 -217,5.16 z m 307.86,-6.01 c -9.23,0.07 -16.57,-5.65 -16.57,-12.83 0,-7.17 7.35,-13 16.57,-13.11 84.1,-0.07 168.21,-0.07 252.31,-0.17 9.22,0 16.57,5.83 16.57,13 0,7.17 -7.35,12.93 -16.57,12.83 -84.1,0.1 -168.21,0.1 -252.31,0.28 z m 327.05,0.18 c -9.22,0 -16.57,-5.83 -16.57,-13.01 0,-7.17 7.35,-12.93 16.57,-12.93 67.85,0.71 135.84,1.76 203.83,3.18 9.22,0.18 16.71,6.36 16.71,13.71 0,7.35 -7.52,13.11 -16.71,12.83 -67.99,-1.66 -135.98,-2.9 -203.83,-3.78 z m -740.68,69.05 c -9.05,0.53 -16.57,-5.23 -16.57,-12.94 0,-7.59 7.52,-14.24 16.57,-14.77 47.74,-2.4 95.45,-4.52 143.19,-6.36 9.22,-0.35 16.57,5.3 16.57,12.65 0,7.35 -7.35,13.64 -16.57,14.07 -47.71,2.12 -95.45,4.52 -143.19,7.35 z m 195.7,-9.47 c -9.22,0.35 -16.57,-5.23 -16.57,-12.58 0,-7.35 7.35,-13.54 16.57,-13.82 52.65,-1.52 105.27,-2.65 157.92,-3.46 9.05,-0.08 16.58,5.58 16.58,12.75 0,7.18 -7.53,13.18 -16.58,13.29 -52.65,0.88 -105.27,2.23 -157.92,3.82 z m 355.75,-4.77 c -9.05,0 -16.58,-5.77 -16.58,-12.94 0,-7.17 7.53,-12.93 16.58,-12.93 67.84,0 135.83,0.07 203.82,0.71 9.23,0.07 16.72,6 16.72,13.18 0,7.17 -7.53,12.93 -16.72,12.75 -67.99,-0.7 -135.98,-0.77 -203.82,-0.77 z m 346.09,4.13 c -9.04,-0.35 -16.57,-6.36 -16.57,-13.71 0,-7.28 7.53,-12.93 16.57,-12.76 67.99,2.23 135.98,4.95 203.97,8.34 9.23,0.46 16.58,7 16.58,14.6 0,7.7 -7.35,13.46 -16.58,12.93 -67.99,-3.82 -135.98,-6.89 -203.97,-9.4 z m -897.54,69.09 c -9.05,0.7 -16.57,-4.88 -16.57,-12.59 0,-7.7 7.52,-14.41 16.57,-15.05 21.03,-1.41 42.05,-2.83 63.22,-4.17 9.05,-0.53 16.57,5.05 16.57,12.58 0,7.53 -7.52,14.06 -16.57,14.6 -21.17,1.51 -42.19,3.03 -63.22,4.63 z m 211.35,-12.59 c -9.22,0.36 -16.75,-5.23 -16.75,-12.47 0,-7.35 7.53,-13.64 16.75,-13.92 32.23,-1.13 64.46,-2.12 96.69,-2.94 9.19,-0.24 16.71,5.41 16.71,12.66 0,7.17 -7.52,13.18 -16.71,13.35 -32.23,1.03 -64.46,2.09 -96.69,3.32 z m 233.91,-5.3 c -9.23,0 -16.75,-5.65 -16.75,-12.82 0,-7.18 7.52,-13.01 16.75,-13.11 59.54,0 119.26,0 178.94,0 9.05,0 16.58,5.76 16.58,12.93 0,7.17 -7.53,12.93 -16.58,12.93 -59.71,-0.03 -119.4,-0.03 -178.94,0.07 z m 273.48,0.36 c -9.23,-0.07 -16.76,-5.94 -16.76,-13.11 0,-7.18 7.53,-12.94 16.76,-12.83 85.48,1.52 170.96,3.99 256.62,7.63 9.22,0.43 16.57,6.82 16.57,14.24 0,7.46 -7.35,13.01 -16.57,12.58 -85.66,-4.1 -171.14,-6.92 -256.62,-8.51 z m -718.74,76.5 c -9.05,0.89 -16.57,-4.59 -16.57,-12.29 0,-7.64 7.52,-14.53 16.57,-15.3 70.29,-5.59 140.75,-10.29 211.18,-14 9.22,-0.35 16.75,5.13 16.75,12.48 0,7.24 -7.53,13.46 -16.75,13.88 -70.43,4.07 -140.86,9.12 -211.18,15.23 z"
         id="path41"
         style="fill:#def8f4;fill-opacity:1;stroke-width:0.358698" /><path
         fill="#ffffff"
         d="m 848.37,1158.14 c -9.22,0.18 -16.57,-5.65 -16.57,-12.93 0,-7.35 7.35,-13.36 16.57,-13.46 112.34,-0.99 224.86,-1.42 337.34,-1.42 9.22,0 16.57,5.76 16.57,12.94 0,7.1 -7.35,12.93 -16.57,12.93 -112.48,0.07 -225,0.6 -337.34,1.94 z m -296.34,221.01 c 9.05,-0.89 16.57,4.7 16.57,12.47 0,7.78 -7.52,14.88 -16.57,15.94 -9.22,0.99 -16.75,-4.42 -16.75,-12.3 0,-7.88 7.53,-15.16 16.75,-16.11 z m 0,-665.73 c 9.05,1.06 16.57,8.16 16.57,15.94 0,7.77 -7.52,13.35 -16.57,12.47 -9.22,-0.99 -16.75,-8.23 -16.75,-16.11 0,-7.88 7.53,-13.29 16.75,-12.3 z m 0,60.57 c 9.05,0.81 16.57,7.81 16.57,15.58 0,7.77 -7.52,13.54 -16.57,12.76 -9.22,-0.71 -16.75,-7.81 -16.75,-15.69 0,-7.88 7.53,-13.54 16.75,-12.65 z m 0,60.46 c 9.05,0.64 16.57,7.53 16.57,15.23 0,7.88 -7.52,13.82 -16.57,13.18 -9.22,-0.53 -16.75,-7.52 -16.75,-15.47 0,-7.82 7.53,-13.65 16.75,-12.94 z m 0,60.57 c 9.05,0.53 16.57,7.17 16.57,15.05 0,7.81 -7.52,13.71 -16.57,13.36 -9.22,-0.42 -16.75,-7.17 -16.75,-15.05 0,-7.99 7.53,-13.82 16.75,-13.36 z m 0,60.46 c 9.05,0.36 16.57,6.89 16.57,14.7 0,7.81 -7.52,13.89 -16.57,13.71 -9.22,-0.25 -16.75,-6.82 -16.75,-14.7 0,-7.88 7.53,-13.99 16.75,-13.71 z m 0,60.57 c 9.05,0.07 16.57,6.54 16.57,14.35 0,7.81 -7.52,14.06 -16.57,13.99 -9.22,0 -16.75,-6.47 -16.75,-14.35 0,-7.88 7.53,-14.16 16.75,-13.99 z m 0,60.53 c 9.05,-0.07 16.57,6.19 16.57,14 0,7.81 -7.52,14.24 -16.57,14.35 -9.22,0.17 -16.75,-6.12 -16.75,-14 0,-7.88 7.53,-14.35 16.75,-14.35 z m 0,60.5 c 9.05,-0.17 16.57,5.94 16.57,13.71 0,7.71 -7.52,14.35 -16.57,14.7 -9.22,0.25 -16.75,-5.83 -16.75,-13.71 0,-7.88 7.53,-14.45 16.75,-14.7 z m 0,60.47 c 9.05,-0.36 16.57,5.58 16.57,13.35 0,7.88 -7.52,14.53 -16.57,15.06 -9.22,0.42 -16.75,-5.48 -16.75,-13.36 0,-7.88 7.53,-14.63 16.75,-15.05 z m 0,60.56 c 9.05,-0.6 16.57,5.24 16.57,13.12 0,7.77 -7.52,14.59 -16.57,15.23 -9.22,0.7 -16.75,-5.06 -16.75,-12.94 0,-7.98 7.53,-14.88 16.75,-15.41 z m 0,60.54 c 9.05,-0.78 16.57,4.88 16.57,12.76 0,7.77 -7.52,14.77 -16.57,15.58 -9.22,0.88 -16.75,-4.77 -16.75,-12.65 0,-7.88 7.53,-14.95 16.75,-15.69 z m 83.61,-450.74 c -9.05,-0.53 -16.57,-7.27 -16.57,-14.87 0,-7.64 7.52,-13.47 16.57,-12.94 79.97,4.6 159.94,8.17 239.87,10.82 9.23,0.25 16.58,6.36 16.58,13.64 0,7.24 -7.36,13 -16.58,12.76 -79.93,-2.41 -159.9,-5.52 -239.87,-9.41 z m 322.77,11.17 c -9.22,-0.18 -16.71,-6.18 -16.71,-13.46 0,-7.18 7.53,-12.94 16.71,-12.65 102.24,1.23 204.43,1.41 306.81,1.41 9.22,-0.07 16.75,5.76 16.75,12.83 0,7.17 -7.53,13 -16.75,13.11 -102.38,0 -204.61,-0.18 -306.81,-1.24 z m -322.77,283.76 c -9.05,0.25 -16.57,-5.83 -16.57,-13.46 0,-7.7 7.52,-13.99 16.57,-14.24 40.53,-0.81 81.21,-1.52 121.88,-2.12 9.05,-0.18 16.57,5.65 16.57,13.11 0,7.35 -7.52,13.53 -16.57,13.71 -40.67,0.88 -81.35,1.84 -121.88,3 z"
         id="path43"
         style="stroke-width:0.119058" /><path
         fill="#ADDEFF"
         d="m 1333.81,769.46 c -9.23,0.08 -16.58,-5.58 -16.58,-12.75 0,-7.18 7.36,-13.11 16.58,-13.18 98.24,-2.05 196.44,-5.83 294.82,-11.59 9.05,-0.71 16.57,4.77 16.57,12.22 0,7.46 -7.52,14 -16.57,14.6 -98.38,5.3 -196.58,8.83 -294.82,10.7 z m -501.55,50.18 c -9.22,-0.42 -16.57,-6.64 -16.57,-13.99 0,-7.35 7.35,-12.93 16.57,-12.47 70.29,2.65 140.75,4.59 211.18,5.65 9.22,0.07 16.57,5.94 16.57,13.11 0,7.17 -7.35,12.83 -16.57,12.76 -70.47,-0.96 -140.89,-2.65 -211.18,-5.06 z m 562.33,115.1 c -9.05,0.07 -16.57,-5.66 -16.57,-12.83 0,-7.17 7.52,-13.11 16.57,-13.18 69.37,-0.88 138.73,-2.3 208.28,-4.17 9.22,-0.35 16.72,5.41 16.72,12.83 0,7.42 -7.53,13.53 -16.72,13.81 -69.55,1.6 -138.91,2.76 -208.28,3.54 z m -296.98,111.03 c -9.05,0 -16.57,-5.76 -16.57,-12.93 0,-7.18 7.52,-12.94 16.57,-12.94 67.99,0 135.98,0 203.97,-0.1 9.22,0 16.57,5.83 16.57,13 0,7.07 -7.35,12.83 -16.57,12.83 -67.99,0.14 -135.98,0.14 -203.97,0.14 z m 570.63,172.66 c -9.22,-0.35 -16.75,-6.64 -16.75,-14.06 0,-7.43 7.53,-13.36 16.75,-13.01 54.18,1.77 108.35,3.82 162.7,6.19 9.19,0.35 16.57,7.06 16.57,14.94 0,7.88 -7.38,13.82 -16.57,13.36 -54.35,-2.79 -108.52,-5.19 -162.7,-7.42 z m -697.39,160.36 c -9.22,0.29 -16.57,-5.3 -16.57,-12.47 0,-7.24 7.35,-13.29 16.57,-13.54 101.92,-1.52 203.83,-1.69 305.71,-1.69 9.22,0 16.75,5.76 16.75,12.93 0,7.18 -7.53,12.94 -16.75,12.94 -101.91,-0.04 -203.79,0.14 -305.71,1.83 z m 731.74,-42.4 c -9.18,-0.53 -16.57,-7.25 -16.57,-14.77 0,-7.53 7.35,-13.01 16.57,-12.58 42.66,2.93 85.49,6 128.31,9.57 9.19,0.71 16.72,7.81 16.72,15.69 0,7.88 -7.53,13.54 -16.72,12.76 -42.82,-3.96 -85.62,-7.49 -128.31,-10.67 z"
         id="path45"
         style="fill:#a5ede0;fill-opacity:1;stroke-width:0.358698" /><g
         id="g55"
         style="stroke-width:0.358698"><path
           fill="#ffffff"
           d="m 935.83,529.77 c 9.9,0 17.99,8.09 17.99,17.98 v 246.38 c 0,9.89 -8.09,17.99 -17.99,17.99 -191.32,0 -215.95,0 -407.3,0 -9.89,0 -17.99,-8.1 -17.99,-17.99 V 547.75 c 0,-9.89 8.1,-17.98 17.99,-17.98 191.32,0 215.95,0 407.3,0 z"
           id="path47"
           style="stroke-width:0.119058" /><path
           fill="#4B9ED6"
           d="m 528.53,529.77 c -9.89,0 -17.99,8.09 -17.99,17.98 v 39.51 c 203.34,0 239.95,0 443.25,0 v -39.51 c 0,-9.89 -8.1,-17.98 -17.99,-17.98 -191.32,0 -215.95,0 -407.27,0 z"
           id="path49"
           style="fill:#01cc9d;fill-opacity:1;stroke-width:0.358698" /><path
           fill="#ffffff"
           d="m 847.1,546.94 c 7.63,0 15.23,0 22.83,0 15.3,0 15.3,23.15 0,23.15 -7.6,0 -15.23,0 -22.83,0 -15.34,0 -15.34,-23.15 0,-23.15 z m 52.26,0 h 22.83 c 15.3,0 15.3,23.15 0,23.15 h -22.83 c -15.3,0 -15.3,-23.15 0,-23.15 z m -103.46,0 h 22.82 c 15.31,0 15.31,23.15 0,23.15 H 795.9 c -15.3,0 -15.3,-23.15 0,-23.15 z"
           id="path51"
           style="stroke-width:0.119058" /><path
           fill="#8AD0FF"
           d="m 682.57,741.44 h 99.23 c 12.22,0 22.15,9.93 22.15,22.16 v 0 c 0,12.23 -9.93,22.15 -22.15,22.15 h -99.23 c -12.23,0 -22.16,-9.92 -22.16,-22.15 v 0 c 0,-12.23 9.9,-22.16 22.16,-22.16 z"
           id="path53"
           style="fill:#7ec4b4;fill-opacity:1;stroke-width:0.358698" /></g><g
         id="g75"
         style="stroke-width:0.358698"><path
           fill="#ffffff"
           d="m 1711.53,1270.48 c 9.9,0 17.99,8.09 17.99,17.99 v 246.37 c 0,9.9 -8.09,17.99 -17.99,17.99 -191.31,0 -215.95,0 -407.3,0 -9.89,0 -17.99,-8.09 -17.99,-17.99 v -246.37 c 0,-9.9 8.1,-17.99 17.99,-17.99 191.35,0 215.99,0 407.3,0 z"
           id="path67"
           style="stroke-width:0.119058" /><path
           fill="#4B9ED6"
           d="m 1304.23,1270.48 c -9.89,0 -17.99,8.09 -17.99,17.99 v 39.51 c 203.34,0 239.95,0 443.24,0 v -39.51 c 0,-9.9 -8.09,-17.99 -17.98,-17.99 -191.28,0 -215.92,0 -407.27,0 z"
           id="path69"
           style="fill:#01cc9d;fill-opacity:1;stroke-width:0.358698" /><path
           fill="#ffffff"
           d="m 1622.8,1287.66 c 7.63,0 15.23,0 22.83,0 15.3,0 15.3,23.14 0,23.14 -7.6,0 -15.23,0 -22.83,0 -15.3,0 -15.3,-23.14 0,-23.14 z m 52.3,0 h 22.83 c 15.3,0 15.3,23.14 0,23.14 h -22.83 c -15.3,0 -15.3,-23.14 0,-23.14 z m -103.47,0 h 22.83 c 15.3,0 15.3,23.14 0,23.14 h -22.83 c -15.3,0 -15.3,-23.14 0,-23.14 z"
           id="path71"
           style="stroke-width:0.119058" /><path
           fill="#8AD0FF"
           d="m 1458.27,1482.16 h 99.23 c 12.22,0 22.15,9.93 22.15,22.15 v 0 c 0,12.23 -9.93,22.16 -22.15,22.16 h -99.23 c -12.23,0 -22.16,-9.93 -22.16,-22.16 v 0 c 0,-12.22 9.93,-22.15 22.16,-22.15 z"
           id="path73"
           style="fill:#7ec4b4;fill-opacity:1;stroke-width:0.358698" /></g><g
         id="g85"
         style="stroke-width:0.358698"><path
           fill="#ffffff"
           d="m 1825.04,600.41 c 9.89,0 17.98,8.09 17.98,17.99 v 246.37 c 0,9.9 -8.09,17.99 -17.98,17.99 -191.32,0 -215.95,0 -407.27,0 -9.89,0 -17.99,-8.09 -17.99,-17.99 V 618.36 c 0,-9.9 8.1,-17.99 17.99,-17.99 191.28,0.04 215.91,0.04 407.27,0.04 z"
           id="path77"
           style="stroke-width:0.119058" /><path
           fill="#4B9ED6"
           d="m 1417.73,600.41 c -9.89,0 -17.98,8.09 -17.98,17.99 v 39.5 c 203.33,0 239.94,0 443.24,0 v -39.54 c 0,-9.9 -8.09,-17.99 -17.99,-17.99 -191.32,0.04 -215.95,0.04 -407.27,0.04 z"
           id="path79"
           style="fill:#01cc9d;fill-opacity:1;stroke-width:0.358698" /><path
           fill="#ffffff"
           d="m 1736.3,617.55 c 7.6,0 15.24,0 22.83,0 15.3,0 15.3,23.14 0,23.14 -7.63,0 -15.23,0 -22.83,0 -15.33,0.04 -15.33,-23.14 0,-23.14 z m 52.27,0 h 22.83 c 15.3,0 15.3,23.14 0,23.14 h -22.83 c -15.3,0.04 -15.3,-23.14 0,-23.14 z m -103.43,0 h 22.83 c 15.3,0 15.3,23.14 0,23.14 h -22.83 c -15.34,0.04 -15.34,-23.14 0,-23.14 z"
           id="path81"
           style="stroke-width:0.119058" /><path
           fill="#8AD0FF"
           d="M 1571.77,812.05 H 1671 c 12.23,0 22.16,9.93 22.16,22.15 v 0 c 0,12.23 -9.93,22.16 -22.16,22.16 h -99.23 c -12.22,0 -22.15,-9.93 -22.15,-22.16 v 0 c 0,-12.22 9.93,-22.15 22.15,-22.15 z"
           id="path83"
           style="fill:#7ec4b4;fill-opacity:1;stroke-width:0.358698" /></g><text
         xml:space="preserve"
         style="font-size:91.5198px;line-height:1.25;font-family:sans-serif;fill:#ffd1c1;fill-opacity:1;stroke-width:0.358698"
         x="619.07159"
         y="708.68738"
         id="text2121"><tspan
           sodipodi:role="line"
           id="tspan2119"
           x="619.07159"
           y="708.68738"
           style="font-style:normal;font-variant:normal;font-weight:normal;font-stretch:normal;font-family:Verdana;-inkscape-font-specification:Verdana;fill:#ffd1c1;fill-opacity:1;stroke-width:0.358698">.NET</tspan></text><text
         xml:space="preserve"
         style="font-size:67.427px;line-height:1.25;font-family:sans-serif;fill:#ffd1c1;fill-opacity:1;stroke-width:0.358698"
         x="1384.8414"
         y="1436.3414"
         id="text2121-8"><tspan
           sodipodi:role="line"
           id="tspan2119-7"
           x="1384.8414"
           y="1436.3414"
           style="fill:#ffd1c1;fill-opacity:1;stroke-width:0.358698">Angular</tspan></text><text
         xml:space="preserve"
         style="font-size:91.7226px;line-height:1.25;font-family:sans-serif;fill:#ffd1c1;fill-opacity:1;stroke-width:0.358697"
         x="1523.4358"
         y="773.29541"
         id="text2121-8-2"><tspan
           sodipodi:role="line"
           id="tspan2119-7-3"
           x="1523.4358"
           y="773.29541"
           style="fill:#ffd1c1;fill-opacity:1;stroke-width:0.358697">Rust</tspan></text></g><path
       fill="#ffffff"
       d="m 797.28,998.49 c 9.54,0 17.24,7.74 17.24,17.24 0,9.51 -7.74,17.25 -17.24,17.25 -9.51,0 -17.25,-7.74 -17.25,-17.25 0.04,-9.5 7.74,-17.24 17.25,-17.24 z M 992.66,745.36 c 6.32,0 11.48,5.16 11.48,11.49 0,6.36 -5.16,11.48 -11.48,11.48 -6.36,0 -11.49,-5.15 -11.49,-11.48 0,-6.33 5.16,-11.49 11.49,-11.49 z m 198.21,-36.22 c 6.36,0 11.48,5.16 11.48,11.49 0,6.36 -5.16,11.48 -11.48,11.48 -6.33,0 -11.49,-5.16 -11.49,-11.48 0,-6.33 5.13,-11.49 11.49,-11.49 z m 426.03,228.53 c 6.47,0 11.7,5.23 11.7,11.7 0,6.47 -5.23,11.69 -11.7,11.69 -6.47,0 -11.7,-5.22 -11.7,-11.69 0,-6.47 5.23,-11.7 11.7,-11.7 z m 16.25,132.45 c 15.45,0 27.96,12.54 27.96,27.95 0,15.44 -12.55,27.95 -27.96,27.95 -15.44,0 -27.95,-12.54 -27.95,-27.95 0,-15.44 12.51,-27.95 27.95,-27.95 z m 29.02,282.7 c 8.16,0 14.77,6.64 14.77,14.77 0,8.16 -6.65,14.77 -14.77,14.77 -8.17,0 -14.77,-6.64 -14.77,-14.77 0,-8.13 6.6,-14.77 14.77,-14.77 z m -315.92,-42.55 c 8.16,0 14.77,6.65 14.77,14.78 0,8.16 -6.64,14.77 -14.77,14.77 -8.17,0 -14.77,-6.65 -14.77,-14.77 -0.04,-8.17 6.6,-14.78 14.77,-14.78 z m -273.13,0 c 6.33,0 11.49,5.16 11.49,11.49 0,6.32 -5.16,11.48 -11.49,11.48 -6.36,0 -11.48,-5.16 -11.48,-11.48 0,-6.36 5.16,-11.49 11.48,-11.49 z m -336.1,13.01 c 8.17,0 14.77,6.64 14.77,14.77 0,8.16 -6.64,14.77 -14.77,14.77 -8.16,0 -14.77,-6.64 -14.77,-14.77 -0.03,-8.16 6.61,-14.77 14.77,-14.77 z m -3.07,-290.3 c 6.47,0 11.7,5.23 11.7,11.69 0,6.47 -5.23,11.74 -11.7,11.74 -6.43,0 -11.73,-5.27 -11.73,-11.74 0,-6.43 5.26,-11.69 11.73,-11.69 z"
       id="path97"
       style="stroke-width:0.119058" /></g></g><g
   id="_2031897017520"
   transform="matrix(1.1581553,0,0,1.1581553,-2179.184,-562.81006)"
   style="stroke-width:0.863444"><path
     fill="#273a47"
     d="m 4319.9,1139.8 c -38,-77.4 -122.9,-41.4 -167.9,15.2 -30.4,38.3 -55.3,81 -74.1,127.2 -24.4,60 -6.9,134.3 44,186.5 12.4,12.8 19.6,29.5 19.7,46.1 0.2,16.6 -6.7,31.5 -18.9,41 15.7,59.7 85,88.1 152.3,83.4 z"
     id="path216"
     style="stroke-width:2.07844" /><path
     fill="#273a47"
     d="m 4259.4,1141.2 31.1,-14.3 c 30.3,-13.9 66.2,-5.7 87.3,20.1 39.9,48.6 66,107.1 75.5,169.3 6.2,40.7 2.7,82.3 -10.3,121.3 -30.5,91.6 -111.4,157.1 -207.4,167.8 z"
     id="path218"
     style="stroke-width:2.07844" /><path
     fill="#1c2c36"
     d="m 4172.2,1331.5 -5.8,46.5 c -8.3,70.5 20.9,140.2 77.1,183.7 l 60.7,-41.1 c 59.6,-40.4 84.8,-115.7 61.5,-183.8 -14,-40.9 -51.9,-68.7 -95.1,-69.9 -43.2,-1.2 -93.3,23.3 -98.4,64.6 z"
     id="path220"
     style="stroke-width:2.07844" /><path
     fill="#f55151"
     d="m 4100,1992.8 c -89.9,7.9 -174.1,-7.3 -250.4,-66.7 l 36.4,-30.4 h 207.4 z"
     id="path222"
     style="stroke-width:2.07844" /><path
     fill="#1b2d38"
     d="m 4220.8,2122.9 5.4,62.6 c 102,107.4 144.5,225.6 84.1,331.7 l -60.4,359.3 34.1,117.3 c 37.2,128.1 19.1,206.7 -30.8,265.4 -18.8,56.5 -59.4,225 -70.5,283.1 h -95.3 L 4121,2929 4104.2,2835.3 C 4014.4,2562.4 3978.1,2495 4003,2201.3 l -3.8,-73.2 z"
     id="path224"
     style="stroke-width:2.07844" /><path
     fill="#273a47"
     d="m 4314.4,2120.6 17.9,63.3 c 186.4,278.7 113.5,302 163.5,598.3 68.3,121.8 136.2,231.9 125.6,378.7 -8.3,115.5 9.2,284.2 0.2,381.3 l -69.8,-2.5 -88.8,-260.9 c -69.1,-142.2 -83.8,-256.3 -87.3,-424.1 l -36.1,-63.7 c -134.9,-197.2 -153,-248.8 -207.5,-484.8 l -51.5,-34.1 c -29.9,-19.8 -56.1,-43.7 -77.6,-70.9 l -4.5,-73.1 z"
     id="path226"
     style="stroke-width:2.07844" /><path
     fill="#ffffff"
     d="m 4154.7,1599.7 -10.6,7.7 c -47.3,34.2 -80.8,84.5 -91.4,137.3 -26.8,132.9 -56.5,265.7 -89,398.5 l 17,11.6 c 110.8,75.8 274.3,62 405.4,-34.2 l -22,-167 82,-249.5 c 22.4,-68.2 8.2,-135.7 -37.4,-178 -8.7,-8.1 -18,-15.4 -27.8,-22.2 l -19.4,-66.3 -148.6,87.5 c -28.8,17.4 -49.3,44.6 -58.2,74.6 z"
     id="path228"
     style="stroke-width:2.07844" /><polygon
     fill="#e6f2fa"
     points="4276,1939.8 4386,2120.6 4364,1953.6 4410,1813.8 4356.7,1739.6 "
     id="polygon230"
     style="stroke-width:2.07844" /><path
     fill="#ffffff"
     d="m 4425.5,1544.7 18.6,31.2 c 42.7,71.7 71.7,150.5 85.7,233.2 l -27.6,10.8 c -74.4,29.3 -156.7,21.7 -218,-19.9 z"
     id="path232"
     style="stroke-width:2.07844" /><path
     fill="#ff6666"
     d="m 4453.7,1893.8 c 0.2,47.4 -7.4,94.4 -22.4,138.3 l -36,-4.9 c -94.7,-12.8 -184,-58.5 -257.6,-131.5 l 3.8,-33.6 164.3,35.2 39.1,-7.7 -6.1,-76.2 c 33.6,-27.4 73.2,-31.1 114,-9.9 z"
     id="path234"
     style="fill:#fa555c;fill-opacity:1;stroke-width:2.07844" /><path
     fill="#273a47"
     d="m 3648.8,1629 h 276.8 c 7.1,0 13.8,7.1 14.9,16 l 32.7,248.6 c 1.2,8.8 -3.7,16 -10.7,16 h -276.8 c -7.1,0 -13.8,-7.1 -14.9,-16 L 3638.1,1645 c -1.2,-8.8 3.6,-16 10.7,-16 z"
     id="path236"
     style="stroke-width:2.07844" /><path
     fill="#273a47"
     d="m 3729.6,1895.7 h 408.1 c 6.7,0 11.6,5.4 10.9,12.1 v 0 c -0.7,6.7 -6.6,12.1 -13.3,12.1 h -408.1 c -6.7,0 -11.6,-5.4 -10.9,-12.1 v 0 c 0.7,-6.7 6.6,-12.1 13.3,-12.1 z"
     id="path238"
     style="stroke-width:2.07844" /><path
     fill="#3a4e5c"
     d="m 3802.4,1738.7 c 23.4,0 41,13.7 39.3,30.6 -1.7,16.9 -22,30.6 -45.4,30.6 -23.4,0 -41,-13.7 -39.3,-30.6 1.7,-16.9 22,-30.6 45.4,-30.6 z"
     id="path240"
     style="stroke-width:2.07844" /><path
     fill="#ff6666"
     d="m 4141.5,1862.1 -71.7,-13.7 c -8.3,-1.6 -17.2,0 -25.1,4.3 -13.3,7.5 -25.7,16.7 -36.6,27.6 -4.4,4.4 -5.1,11 -1.5,15.4 h 131.1 l 14,-19.7 z"
     id="path242"
     style="fill:#fa555c;fill-opacity:1;stroke-width:2.07844" /><path
     fill="#f55151"
     d="m 3896.3,1953.5 -71.2,13.6 c -8.3,1.6 -16.5,0 -23.2,-4.3 -11.3,-7.5 -21.3,-16.7 -29.7,-27.6 -3.4,-4.4 -2.7,-11 1.5,-15.4 H 3899 l 9.6,19.7 z"
     id="path244"
     style="stroke-width:2.07844" /><path
     fill="#eb4c4c"
     d="m 4347.1,1316.3 -2.5,79.2 c -0.7,20.8 2.4,41.6 9,61.3 l -99,63.8 11,-18.9 c 17,-29.2 20.7,-64.3 10.3,-96.4 z"
     id="path246"
     style="stroke-width:2.07844" /><path
     fill="#ff6666"
     d="m 4246.1,1465 c -23,0 -83,-60.3 -76.1,-112.9 5.3,-40.6 -26.9,-34.8 0,-101.3 26.7,-66.1 170.8,-88.5 198,-22.6 19.9,48.2 15.7,133.8 -21.2,187 -23.5,33.8 -70.2,49.8 -100.7,49.8 z"
     id="path248"
     style="fill:#fa555c;fill-opacity:1;stroke-width:2.07844" /><path
     fill="#ffffff"
     d="m 4243.5,1433.2 c -10.8,0 -19.4,-8.8 -23.2,-18.6 h 46.4 c -3.8,9.8 -12.4,18.6 -23.2,18.6 z"
     id="path250"
     style="stroke-width:2.07844" /><path
     fill="#ff6666"
     d="m 4389.7,1281.7 c -13.1,-6.9 -29.2,5.2 -35.9,27 -6.7,21.8 -1.5,45.2 11.6,52.1 13.1,6.9 29.2,-5.2 35.9,-27 6.7,-21.8 1.5,-45.2 -11.6,-52.1 z"
     id="path252"
     style="fill:#fa555c;fill-opacity:1;stroke-width:2.07844" /><path
     fill="#273a47"
     d="m 4203.1,1305.6 -26.2,-3.9 c -3.4,-0.5 -6.6,1.6 -8.5,5.9 l -3.3,-7.3 c 2,-8 6.5,-12.9 11.8,-13.1 l 24.2,-0.6 z"
     id="path254"
     style="stroke-width:2.07844" /><path
     fill="#273a47"
     d="m 4177,1321.5 c -0.2,1.6 -0.3,3.4 -0.3,5.1 0,14 5.9,25.4 13.1,25.4 7.3,0 13.2,-11.4 13.2,-25.4 0,-1.7 -0.1,-3.4 -0.3,-5.1 z"
     id="path256"
     style="stroke-width:2.07844" /><path
     fill="#273a47"
     d="m 4253.3,1305.6 31.1,-3.9 c 4.1,-0.5 7.8,1.6 10.1,5.9 l 3.9,-7.3 c -2.4,-8 -7.7,-12.9 -14,-13.1 l -28.7,-0.6 z"
     id="path258"
     style="stroke-width:2.07844" /><path
     fill="#273a47"
     d="m 4284.1,1321.5 c 0.2,1.6 0.3,3.4 0.3,5.1 0,14 -7,25.4 -15.6,25.4 -8.6,0 -15.6,-11.4 -15.6,-25.4 0,-1.7 0.1,-3.4 0.3,-5.1 z"
     id="path260"
     style="stroke-width:2.07844" /><path
     fill="#eb4c4c"
     d="m 4232.7,1381.7 c -9,0 -13.2,-6.4 -13.2,-2.5 0,3.9 7.3,17.3 16.3,17.3 9,0 16.3,-13.4 16.3,-17.3 -0.1,-3.8 -10.5,2.5 -19.4,2.5 z"
     id="path262"
     style="stroke-width:2.07844" /><path
     fill="#ffffff"
     d="m 4279.1,1275.9 c -13.2,0 -25.2,5.4 -33.9,14.1 -2.8,2.8 -5.2,5.9 -7.3,9.3 H 4217 c -1.8,-3.4 -4,-6.5 -6.5,-9.2 -7.9,-8.7 -18.9,-14.2 -31,-14.2 -12.1,0 -23,5.4 -31,14.2 -7.8,8.7 -12.7,20.6 -12.7,33.8 0,13.2 4.9,25.1 12.7,33.8 7.9,8.7 18.8,14.2 31,14.2 12.1,0 23,-5.4 31,-14.2 7.8,-8.7 12.7,-20.6 12.7,-33.8 0,-6.6 -1.2,-12.9 -3.4,-18.6 h 15.1 c -2.4,5.7 -3.7,12 -3.7,18.6 0,13.2 5.4,25.3 14.1,33.9 8.7,8.7 20.7,14.1 33.9,14.1 13.2,0 25.2,-5.4 33.9,-14.1 8.7,-8.7 14.1,-20.7 14.1,-33.9 0,-13.2 -5.4,-25.2 -14.1,-33.9 -8.7,-8.8 -20.7,-14.1 -34,-14.1 z M 4153,1294 c 6.8,-7.5 16.2,-12.2 26.5,-12.2 10.3,0 19.7,4.7 26.5,12.2 6.9,7.6 11.1,18.2 11.1,29.8 0,11.7 -4.3,22.2 -11.1,29.8 -6.8,7.5 -16.2,12.2 -26.5,12.2 -10.3,0 -19.7,-4.7 -26.5,-12.2 -6.9,-7.6 -11.1,-18.2 -11.1,-29.8 0,-11.6 4.2,-22.2 11.1,-29.8 z m 96.4,0.1 c 7.6,-7.6 18.1,-12.3 29.7,-12.3 11.6,0 22.1,4.7 29.7,12.3 7.6,7.6 12.3,18.1 12.3,29.7 0,11.6 -4.7,22.1 -12.3,29.7 -7.6,7.6 -18.1,12.3 -29.7,12.3 -11.6,0 -22.1,-4.7 -29.7,-12.3 -7.6,-7.6 -12.3,-18.1 -12.3,-29.7 0,-11.6 4.7,-22.1 12.3,-29.7 z"
     id="path264"
     style="stroke-width:2.07844" /><path
     fill="#273a47"
     d="m 4297.4,1222.2 c 17.9,11.5 31.6,28.6 38.7,48.6 6.4,17.7 22.2,30.2 40.9,32.4 l 17.8,-38.2 -20.6,-79.3 -99.4,-36.3 -123,38.4 -51.9,109.2 12.1,54.9 10.4,-25.3 c 26.9,-65.4 88.7,-109.7 159.2,-114.4 z"
     id="path266"
     style="stroke-width:2.07844" /><path
     fill="#cf0c0c"
     d="m 4100.3,3448.9 c -0.7,-10.4 -5.8,-20 -13.9,-26.5 -8.1,-6.5 -18.7,-9.2 -29,-7.4 l 1,46.1 -52.2,36.5 c -26.5,18.5 -56,31.9 -87.2,39.8 6.6,3 12.6,7.3 17.7,12.8 11.4,12.4 16.5,29.5 13.7,46.1 l 11.1,4.4 c 34,13.5 71.3,16.7 107.1,9.3 25.2,-5.2 51.4,-4 76,3.4 23.4,7 48.6,5.3 70.8,-4.8 l 2.8,-58.2 c 0.7,-14.1 -5.6,-27.7 -16.8,-36.3 -53.3,18.1 -97.2,-7.3 -101.1,-65.2 z"
     id="path268"
     style="fill:#fa555c;fill-opacity:1;stroke-width:2.07844" /><path
     fill="#ffffff"
     d="m 3919,3537.3 c -8,2 -16.1,3.7 -24.3,4.9 -7.4,1.2 -13,7.5 -13.2,15 -0.4,13.9 6.4,27.1 17.9,34.9 l -1.6,21.5 14,6.2 c 52.5,23.3 110.8,30.5 167.4,20.7 29.1,-5.1 59,-3.9 87.7,3.4 21.1,5.4 43.4,-2.9 55.9,-20.7 l -7.3,-14.7 c -22.2,10.1 -47.4,11.8 -70.8,4.8 -24.7,-7.4 -50.8,-8.6 -76,-3.4 -35.8,7.4 -73,4.1 -107.1,-9.3 l -11.1,-4.4 c 2.8,-16.7 -2.2,-33.7 -13.7,-46.1 -5.1,-5.5 -11.2,-9.8 -17.8,-12.8 z"
     id="path270"
     style="stroke-width:2.07844" /><path
     fill="#cf0c0c"
     d="m 4643.8,3485.2 29.2,83 c -52.5,-35.3 -121.1,-35.5 -173.8,-0.5 l 18.1,-83 c -3.8,-25 7.4,-49.8 28.7,-63.5 21.2,-13.7 48.5,-13.6 69.7,0.3 21,13.8 32.1,38.7 28.1,63.7 z"
     id="path272"
     style="fill:#fa555c;fill-opacity:1;stroke-width:2.07844" /><path
     fill="#ffffff"
     d="m 4673,3568.1 4.7,5.1 c 18.2,19.8 21.1,49.4 6.9,72.3 h -175.2 c -22.2,-15.1 -29.1,-44.8 -15.8,-68.1 l 5.6,-9.7 c 52.7,-35.1 121.3,-34.9 173.8,0.4 z"
     id="path274"
     style="stroke-width:2.07844" /><path
     fill="#ffffff"
     d="m 4029.1,3471.3 v 0 c 3.4,-2.4 7.7,-2 9.6,0.8 l 19.1,27.6 c 1.9,2.8 0.7,6.9 -2.7,9.3 v 0 c -3.4,2.4 -7.7,2 -9.6,-0.8 l -19.1,-27.6 c -1.9,-2.7 -0.7,-6.9 2.7,-9.3 z"
     id="path276"
     style="stroke-width:2.07844" /><path
     fill="#ffffff"
     d="m 4000.4,3492.8 v 0 c 3.5,-2.2 7.8,-1.7 9.6,1.1 l 18.1,28.3 c 1.8,2.8 0.5,7 -3,9.2 v 0 c -3.5,2.2 -7.8,1.7 -9.6,-1.1 l -18.1,-28.3 c -1.9,-2.8 -0.5,-7 3,-9.2 z"
     id="path278"
     style="stroke-width:2.07844" /><path
     fill="#ffffff"
     d="m 3972.6,3509.8 v 0 c 3.7,-2 7.9,-1.1 9.5,1.9 l 15.8,29.6 c 1.6,3 -0.1,7 -3.7,8.9 v 0 c -3.7,2 -7.9,1.1 -9.5,-1.9 l -15.8,-29.6 c -1.6,-3 0.1,-7 3.7,-8.9 z"
     id="path280"
     style="stroke-width:2.07844" /><path
     fill="#ab0303"
     d="m 3976.5,3573.9 15.8,-9.3 c 21.1,-12.5 43.2,-23.2 66.1,-32.1 19.3,-7.5 41,-5.8 58.8,4.7 14,8.2 30.7,10.4 46.3,6 14.2,-4 29.2,3.1 35.2,16.5 6,13.5 1.3,29.3 -11.2,37.2 -12.5,7.9 -28.8,5.5 -38.5,-5.7 -23,-26.5 -62.6,-30.8 -90.6,-9.7 -22.3,16.8 -52.1,20 -77.5,8.3 -2.9,-1.3 -5.1,-3.9 -5.9,-7 -0.9,-2.9 -1,-7.4 1.5,-8.9 z"
     id="path282"
     style="fill:#cb444b;fill-opacity:1;stroke-width:2.07844" /><path
     fill="#ffffff"
     d="m 4551.4,3495.5 c -3.3,1.5 -7.2,0 -8.7,-3.3 -1.5,-3.3 0,-7.2 3.3,-8.7 l 6.5,-3 c 10.5,-4.8 21.9,-6.9 33.2,-6.3 11.3,0.6 22.4,3.8 32.5,9.6 3.1,1.8 4.2,5.8 2.4,9 -1.8,3.1 -5.8,4.2 -9,2.4 -8.2,-4.7 -17.3,-7.4 -26.5,-7.8 -9.2,-0.5 -18.5,1.3 -27.2,5.2 z m -0.9,17.5 c -3.5,1 -7.1,-1 -8.1,-4.5 -1,-3.5 1,-7.1 4.5,-8.1 l 6.6,-1.8 c 10.2,-2.8 21.2,-4.1 32.1,-3.8 11,0.3 21.8,2.3 31.5,5.7 3.4,1.2 5.2,5 4,8.4 -1.2,3.4 -5,5.2 -8.4,4 -8.5,-3 -17.9,-4.7 -27.4,-5 -9.6,-0.3 -19.3,0.8 -28.2,3.3 z m -0.3,21.4 c -3.5,0.8 -7,-1.4 -7.8,-5 -0.8,-3.5 1.4,-7 5,-7.8 l 6.5,-1.5 c 10.1,-2.3 21,-3.3 31.8,-3 10.8,0.3 21.5,1.8 31.1,4.6 3.5,1 5.5,4.6 4.5,8.1 -1,3.5 -4.6,5.5 -8.1,4.5 -8.6,-2.5 -18.1,-3.8 -27.8,-4.1 -9.7,-0.2 -19.5,0.7 -28.6,2.7 z"
     id="path284"
     style="stroke-width:2.07844" /></g><path
   fill="#ffffff"
   d="M 2303.0005,3663.0309 H 245.40502 c 13.63292,-1990.9124 2062.23868,-1093.7026 2057.59548,0 z"
   id="path129"
   style="stroke-width:2.82201" /><ellipse
   transform="rotate(-57.350838)"
   fill="#eb4c4c"
   cx="-1248.6422"
   cy="2248.8589"
   rx="42.974117"
   ry="21.240082"
   id="ellipse131"
   style="stroke-width:2.82204" /><path
   fill="#bd385e"
   d="M 2351.5062,3663.0309 H 293.81207 c -68.06623,-1990.9124 2017.38813,-1093.7026 2057.69413,0 z"
   id="path133"
   style="fill:#ff9791;fill-opacity:1;stroke-width:2.82201" /><path
   fill="#9e1e42"
   d="m 904.13596,3256.3131 336.08294,-61.0522 10.373,139.8865 c 5.4336,72.7094 38.528,140.5781 92.5663,189.5778 l 23.413,-31.909 c 43.764,-59.6691 63.3245,-133.7615 54.6308,-207.2612 l 286.6882,-75.3768 c -2.8648,193.5293 30.5263,408.2985 307.039,452.8527 H 1168.0035 722.65877 c 116.86848,-81.6004 185.33002,-216.0532 182.46489,-358.5084 z"
   id="path135"
   style="fill:#d67e79;fill-opacity:1;stroke-width:2.82201" /><path
   fill="#9e1e42"
   d="m 676.62291,3151.1018 56.70529,13.0404 c 56.11271,12.9413 104.51966,48.1107 134.15658,97.6044 29.53819,49.3948 37.73789,108.7676 22.52422,164.2875 l 84.26753,29.5382 41.59077,-304.4705 -197.48116,-62.2376 z"
   id="path137"
   style="fill:#d67e79;fill-opacity:1;stroke-width:2.82201" /><path
   fill="#9e1e42"
   d="m 1145.1832,2645.1988 81.5015,35.2681 c 131.193,56.7054 258.138,58.2861 299.037,0 l -16.399,37.7376 c -30.1309,69.4495 -4.6432,155.3967 73.0056,245.5918 71.03,82.4895 229.7853,158.8542 389.4298,187.3055 h -885.2562 z"
   id="path139"
   style="fill:#d67e79;fill-opacity:1;stroke-width:2.82201" /><path
   fill="#f5dfdf"
   d="m 1319.0535,2502.8426 c 81.6004,57.6933 217.8317,177.5257 270.3878,253.0998 31.02,44.6531 55.1247,70.4372 51.8645,99.1851 -3.2601,28.7479 -145.8137,192.0473 -236.4041,19.2638 -62.2376,-120.227 -92.3685,-250.432 -85.8482,-371.5487 z"
   id="path141"
   style="stroke-width:2.82201" /><path
   fill="#9e1e42"
   d="m 855.72891,2645.1988 -32.50195,35.2681 c -24.99377,27.0685 -63.12668,42.8748 -103.53196,42.8748 -40.40499,0 -78.53791,-15.8063 -103.53158,-42.8748 l 36.94747,37.7376 c 68.06614,69.5482 108.56986,155.3967 115.97914,245.5918 6.8166,82.4895 -51.37072,158.8542 -142.55384,187.3055 h 612.99131 z"
   id="path143"
   style="fill:#d67e79;fill-opacity:1;stroke-width:2.82201" /><path
   fill="#ffffff"
   d="m 1078.2035,2395.8532 c 60.2618,14.3245 185.9227,71.3263 240.85,106.9894 l 30.2296,56.903 c 27.2661,51.2721 46.2336,105.409 56.1126,159.8419 8.2983,45.9376 29.7356,90.8868 61.7436,129.2173 81.9957,98.3948 82.786,230.2793 1.7784,302.1983 h -186.8118 -203.013 -186.81173 c -100.56819,-71.919 -135.53996,-203.8035 -80.11867,-302.1983 21.53623,-38.3305 30.82228,-83.181 26.67316,-129.2173 -4.93927,-54.5319 -0.59278,-108.5698 12.74413,-159.8419 l 14.81827,-56.903 c 49.29611,-38.923 149.56784,-82.3908 211.80544,-106.9894 z"
   id="path145"
   style="stroke-width:2.82201" /><path
   fill="#ff6666"
   d="m 1180.6487,2432.603 c 6.9153,48.3083 -14.4232,83.1811 -55.6186,83.1811 -42.4797,0 -92.8625,-37.1449 -123.4874,-87.7254 l 3.0625,-1.383 c 33.6874,-30.8225 46.4312,-78.4392 32.7983,-122.0054 l -11.9538,-38.2319 108.2737,60.9535 c -9.6813,15.3123 -12.6451,33.8848 -8.1996,51.4695 4.5445,17.5847 16.103,32.403 31.9093,41.0967 z"
   id="path147"
   style="fill:#fa555c;fill-opacity:1;stroke-width:2.82201" /><path
   fill="#eb4c4c"
   d="m 1042.7381,2343.0006 c 0.2963,-12.7438 -1.3831,-25.6854 -5.3346,-38.2316 l -8.496,-27.0684 c -0.1979,-3.1612 -0.2964,-6.2239 -0.2964,-9.3851 l 105.1123,59.0764 c -9.6813,15.3123 -12.6451,33.8848 -8.1996,51.4695 4.5445,17.5847 16.103,32.403 31.9093,41.0967 l 15.3123,8.397 c -9.9777,5.0382 -20.6469,7.8043 -31.909,7.8043 -43.4675,0 -79.3283,-42.3807 -98.0983,-93.1588 z"
   id="path149"
   style="stroke-width:2.82201" /><path
   fill="#debdbd"
   d="M 988.00846,3151.1018 H 892.28117 C 824.60997,3102.596 786.57578,3026.923 785.9831,2952.6329 h 202.02536 z"
   id="path151"
   style="stroke-width:2.82201" /><path
   fill="#f5dfdf"
   d="m 927.84535,2591.6549 13.2378,53.5439 c 22.12893,89.6027 89.10875,161.324 176.93265,189.4792 l -95.1346,95.0358 -164.97913,-67.9674 c 2.46973,-3.7541 4.44551,-4.4455 7.50829,-7.508 z"
   id="path153"
   style="stroke-width:2.82201" /><path
   fill="#ffffff"
   d="m 866.29942,2502.8426 c -73.69737,85.7499 -194.91245,430.0325 -157.56986,473.7963 37.24385,43.8628 158.26118,53.3465 204.5938,24.0059 l 178.71074,-77.9452 8.3973,-70.3382 c -63.2256,-14.5223 -139.4914,-33.9838 -164.38644,-70.2396 l 20.44953,-69.1529 c 42.57843,-143.6406 -67.57221,-202.1244 -90.19507,-210.1263 z"
   id="path155"
   style="stroke-width:2.82201" /><path
   fill="#debdbd"
   d="m 1153.9753,2611.6104 h 464.5102 c 13.2379,0 21.3386,10.7681 17.9798,24.006 l -74.0924,293.0107 c -3.3588,13.2379 -16.8931,24.0058 -30.131,24.0058 h -464.5102 c -13.2376,0 -21.3385,-10.8668 -17.9797,-24.0058 l 74.0924,-293.0107 c 3.3591,-13.1392 16.992,-24.006 30.1309,-24.006 z"
   id="path157"
   style="stroke-width:2.82201" /><path
   fill="#ffffff"
   d="m 1202.9753,3044.7053 c 34.3788,137.9104 19.6592,357.9155 -8.2983,516.9674 35.0704,20.4495 33.0944,73.3021 -3.0625,101.3582 h -162.0157 c -25.7841,-13.5341 -17.0903,-43.9615 3.1615,-67.9675 -74.38876,-81.205 -121.61037,-211.8054 -144.13431,-338.7503 l -36.25615,-45.3446 c -53.74162,-67.0784 -46.03596,-181.8721 18.47374,-277.0068 84.07016,-123.8824 304.76702,0.7904 332.13172,110.7436 z"
   id="path159"
   style="stroke-width:2.82201" /><path
   fill="#9e1e42"
   d="m 1269.9547,3151.1018 35.4656,11.2621 c 76.0682,24.2036 124.7718,98.5924 116.3744,178.0193 l 143.1466,63.7196 4.4455,-303.7788 -247.5672,-13.2379 z"
   id="path161"
   style="fill:#d67e79;fill-opacity:1;stroke-width:2.82201" /><path
   fill="#c79b9b"
   d="m 1046.8872,2952.7318 h 464.5099 c 13.2379,0 24.006,10.7682 24.006,24.0061 v 0 c 0,13.2378 -10.7681,24.0059 -24.006,24.0059 h -464.5099 c -13.2379,0 -24.006,-10.7681 -24.006,-24.0059 v 0 c 0,-13.2379 10.8671,-24.0061 24.006,-24.0061 z"
   id="path163"
   style="stroke-width:2.82201" /><path
   fill="#2e1111"
   d="m 1558.9151,2895.2361 c -62.929,60.5582 -303.0872,116.6708 -401.3833,104.421 l 16.498,151.4447 h 226.6241 z"
   id="path165"
   style="stroke-width:2.82201" /><g
   id="g171"
   style="stroke-width:1.01225"
   transform="matrix(0.98789879,0,0,0.98789879,90.107324,95.728491)"><path
     fill="#ad8282"
     d="m 1109.8,2909.1 h 37.6 c 4,0 7.2,3.2 7.2,7.2 v 0 c 0,3.9 -3.2,7.2 -7.2,7.2 h -37.6 c -3.9,0 -7.2,-3.2 -7.2,-7.2 v 0 c 0,-4 3.3,-7.2 7.2,-7.2 z"
     id="path167"
     style="stroke-width:2.85658" /><path
     fill="#ad8282"
     d="m 1173.1,2909.1 h 37.6 c 3.9,0 7.2,3.2 7.2,7.2 v 0 c 0,3.9 -3.2,7.2 -7.2,7.2 h -37.6 c -3.9,0 -7.2,-3.2 -7.2,-7.2 v 0 c 0,-4 3.3,-7.2 7.2,-7.2 z"
     id="path169"
     style="stroke-width:2.85658" /></g><path
   fill="#4f2424"
   d="m 1227.8703,3044.7053 c 28.2539,137.9104 3.7539,357.9155 -31.3166,516.9674 34.1815,20.4495 29.8346,73.3021 -7.508,101.3582 h -162.0153 c -25.1914,-13.5341 -15.1147,-43.9615 6.2239,-67.9675 -70.83255,-81.205 -112.22527,-211.8054 -129.0197,-338.7503 l -34.28009,-45.3446 c -50.67903,-67.0784 -37.93517,-181.8721 30.82238,-277.0068 89.40501,-123.8824 304.56921,0.7904 327.09341,110.7436 z"
   id="path173"
   style="stroke-width:2.82201" /><path
   fill="#3d1a1a"
   d="m 1239.7251,3223.9101 c -3.1614,112.9167 -21.0424,237.3922 -43.1714,337.6637 34.1815,20.4494 29.8346,73.302 -7.508,101.3584 h -162.0153 c -25.1914,-13.5342 -15.1147,-43.9614 6.2239,-67.9674 -70.83255,-81.2054 -112.22527,-211.8054 -129.0197,-338.7504 l -34.28009,-45.3445 c -28.45147,-37.6392 -36.94747,-90.1954 -26.77208,-145.9128 80.01994,139.2938 244.80147,203.8035 396.54267,158.953 z"
   id="path175"
   style="stroke-width:2.82201" /><path
   fill="#4f2424"
   d="m 1777.5371,3044.7053 c 7.014,137.9104 -51.2718,357.9155 -110.941,516.9674 31.0201,20.4495 18.5725,73.3021 -23.1169,101.3582 h -162.0153 c -23.1169,-13.5341 -8.2984,-43.9615 16.6954,-67.9675 -58.2859,-81.205 -79.6246,-211.8054 -76.8585,-338.7503 -34.4776,-88.318 -45.7397,-219.3135 129.3159,-355.0507 62.7317,-47.7157 123.7838,-31.0202 167.3503,12.3485 48.9007,48.7036 57.4957,89.9977 59.5701,131.0944 z"
   id="path177"
   style="stroke-width:2.82201" /><path
   fill="#2e1111"
   d="m 1738.4165,3331.5909 c -20.1532,80.3163 -45.8386,160.9287 -71.7216,230.0818 31.0199,20.4495 18.5724,73.3021 -23.1169,101.3582 h -162.0154 c -23.1167,-13.5341 -8.2984,-43.9615 16.6956,-67.9675 -58.286,-81.205 -79.6246,-211.8054 -76.8585,-338.7503 -30.6249,-78.538 -42.9737,-190.9609 77.9452,-310.3979 -19.8568,56.409 -33.6874,114.6952 -41.2943,174.0679 -8.3971,65.5964 9.9777,131.7858 50.9758,183.6503 38.0339,48.2097 92.6647,80.2173 152.8279,90.195 30.921,-12.9412 57.5944,-34.6751 76.5622,-62.2375 z"
   id="path179"
   style="stroke-width:2.82201" /><ellipse
   fill="#f5dfdf"
   cx="1343.1584"
   cy="2782.1221"
   rx="92.566109"
   ry="65.201324"
   id="ellipse181"
   style="stroke-width:2.82201" /><path
   fill="#ffffff"
   d="m 1070.1028,3583.999 2.5685,-40.899 c 2.1734,-34.9714 29.4395,-63.1266 64.2136,-66.3868 34.8728,-3.2601 66.8807,19.2642 75.5741,53.1492 l 40.899,42.7758 11.3609,6.3226 c 17.0907,9.4837 27.1671,27.8588 26.1794,47.3203 -1.0867,19.4617 -13.1392,36.6511 -31.2176,44.2579 h -205.8782 l -4.4455,-10.9656 c -10.7682,-26.9697 -2.2722,-57.891 20.7458,-75.5744 z"
   id="path183"
   style="stroke-width:2.82201" /><path
   fill="#ffffff"
   d="m 1642.5902,3583.999 -18.2761,-40.899 c -2.1734,-34.9714 -29.4396,-63.1266 -64.2133,-66.3868 -34.8731,-3.2601 -66.8808,19.2642 -75.5744,53.1492 l -25.1914,42.7758 -11.3609,6.3226 c -17.0906,9.4837 -27.1671,27.8588 -26.1794,47.3203 1.0867,19.4617 13.1393,36.6511 31.2177,44.2579 h 205.8782 l 4.4455,-10.9656 c 10.8668,-26.9697 2.3711,-57.891 -20.7459,-75.5744 z"
   id="path185"
   style="stroke-width:2.82201" /><path
   fill="#ff6666"
   d="m 1113.8667,2404.5468 c 86.7375,0 144.8259,-157.6686 108.5701,-236.5031 -30.2296,-65.794 -187.0091,-65.794 -217.239,0 -36.15711,78.8345 21.9316,236.5031 108.6689,236.5031 z"
   id="path187"
   style="fill:#fa555c;fill-opacity:1;stroke-width:2.82201" /><path
   fill="#ffffff"
   d="m 1125.1288,2370.1677 c 17.7821,0 32.1067,-14.522 38.3306,-30.7236 h -76.5622 c 6.1249,16.2016 20.4495,30.7236 38.2316,30.7236 z"
   id="path189"
   style="stroke-width:2.82201" /><path
   fill="#3d1a1a"
   d="m 1232.6122,2242.8277 12.5462,-41.2943 c 5.1372,-16.9917 11.8548,-33.3907 20.1532,-49.0984 11.0644,-21.0422 6.1249,-46.9253 -11.9536,-62.3365 -8.7922,-7.6067 -19.4614,-12.7439 -30.8225,-15.1147 l -22.7216,-36.5525 c -12.0523,-19.4614 -30.9213,-33.786 -52.8526,-40.306 -25.0926,-7.4093 -52.0621,-5.8286 -76.1668,4.4455 -58.0887,24.6974 -100.27179,76.5622 -112.71925,138.5034 l -6.32266,11.9535 c -5.92753,11.1632 -8.1007,24.006 -6.32256,36.5522 9.68136,67.2761 43.4675,128.822 95.13457,173.0798 l -22.3265,-36.1568 c -7.409,-19.9558 -16.1028,-38.7259 -16.6954,-59.9655 l 28.9455,1.7781 -24.8951,-81.8968 c 28.0562,17.1895 98.8885,15.9051 117.8563,14.7197 18.9677,-1.2844 56.1126,-18.3748 85.8485,-39.2197 12.8426,22.5243 20.0542,51.0745 23.3143,80.909 z"
   id="path191"
   style="stroke-width:2.82201" /><path
   fill="#4f2424"
   d="m 1208.8039,2052.8549 -8.99,-14.4236 c -12.0523,-19.4614 -30.9213,-33.786 -52.8526,-40.306 -25.0926,-7.4093 -52.0621,-5.8286 -76.1668,4.4455 -39.8126,16.9917 -72.21562,46.6287 -92.56612,83.5761 17.58439,31.0201 60.65682,52.9516 111.13862,52.9516 65.9914,0 119.5356,-37.5402 119.5356,-83.9715 0,-0.6917 -0.098,-1.4817 -0.098,-2.2721 z"
   id="path193"
   style="stroke-width:2.82201" /><ellipse
   transform="rotate(-32.649162)"
   fill="#ff6666"
   cx="-391.95432"
   cy="2440.5378"
   rx="21.240082"
   ry="42.974117"
   id="ellipse195"
   style="fill:#fa555c;fill-opacity:1;stroke-width:2.82204" /><g
   id="g209"
   style="stroke-width:1.01225"
   transform="matrix(0.98789879,0,0,0.98789879,90.107324,95.728491)"><g
     id="g201"
     style="stroke-width:1.01225"><path
       fill="#4f2424"
       d="m 1085.8,2176 31.4,-4 c 4.1,-0.5 7.8,1.7 10.2,6 l 3.9,-7.4 c -2.4,-8.1 -7.7,-13.1 -14.1,-13.2 l -29,-0.6 z"
       id="path197"
       style="stroke-width:2.85658" /><path
       fill="#4f2424"
       d="m 1116.9,2192.1 c 0.2,1.7 0.3,3.4 0.3,5.1 0,14.2 -7,25.7 -15.7,25.7 -8.7,0 -15.7,-11.5 -15.7,-25.7 0,-1.8 0.1,-3.5 0.3,-5.1 z"
       id="path199"
       style="stroke-width:2.85658" /></g><g
     id="g207"
     style="stroke-width:1.01225"><path
       fill="#4f2424"
       d="m 1035,2176 -31.4,-4 c -4.1,-0.5 -7.8,1.7 -10.2,6 l -3.9,-7.4 c 2.4,-8.1 7.7,-13.1 14.1,-13.2 l 29,-0.6 z"
       id="path203"
       style="stroke-width:2.85658" /><path
       fill="#4f2424"
       d="m 1003.9,2192.1 c -0.2,1.7 -0.3,3.4 -0.3,5.1 0,14.2 7.1,25.7 15.7,25.7 8.6,0 15.7,-11.5 15.7,-25.7 0,-1.8 -0.1,-3.5 -0.3,-5.1 z"
       id="path205"
       style="stroke-width:2.85658" /></g></g><path
   fill="#eb4c4c"
   d="m 1139.3547,2321.4644 c 8.9897,0 13.1389,-6.3226 13.1389,-2.4697 0,3.9517 -7.3104,17.2882 -16.2017,17.2882 -8.9897,0 -16.2014,-13.4355 -16.2014,-17.2882 -0.098,-3.9516 10.2742,2.4697 19.2642,2.4697 z"
   id="path211"
   style="stroke-width:2.82201" /><path
   fill="#ffffff"
   d="m 1086.7982,2215.7593 c 13.2379,0 25.1916,5.3346 33.8851,14.0283 2.7661,2.7661 5.2358,5.9272 7.3103,9.286 h 20.8448 c 1.7781,-3.3588 4.0502,-6.4213 6.52,-9.1874 7.9033,-8.6933 18.8691,-14.1269 30.9212,-14.1269 12.0525,0 23.0183,5.4336 30.9213,14.1269 7.8044,8.6934 12.6452,20.5483 12.6452,33.7861 0,13.1392 -4.8408,25.0928 -12.6452,33.7861 -7.903,8.6937 -18.8688,14.1272 -30.9213,14.1272 -12.0521,0 -23.0179,-5.4335 -30.9212,-14.1272 -7.8044,-8.6933 -12.6449,-20.5482 -12.6449,-33.7861 0,-6.619 1.1854,-12.8425 3.3588,-18.5724 h -15.115 c 2.3711,5.7299 3.7542,11.9534 3.7542,18.5724 0,13.2379 -5.3348,25.1914 -14.0282,33.885 -8.6935,8.6934 -20.6472,14.0283 -33.8851,14.0283 -13.2376,0 -25.1914,-5.3349 -33.8847,-14.0283 -8.6937,-8.6936 -14.0283,-20.6471 -14.0283,-33.885 0,-13.2378 5.3346,-25.1913 14.0283,-33.8847 8.6933,-8.6937 20.6471,-14.0283 33.8847,-14.0283 z m 125.8586,18.0785 c -6.8166,-7.508 -16.2017,-12.1512 -26.4758,-12.1512 -10.3731,0 -19.7581,4.6432 -26.4758,12.1512 -6.8166,7.6069 -11.0645,18.0787 -11.0645,29.7358 0,11.6572 4.2479,22.2276 11.0645,29.7356 6.8166,7.5083 16.2017,12.1512 26.4758,12.1512 10.3727,0 19.7578,-4.6429 26.4758,-12.1512 6.9152,-7.6066 11.1631,-18.0784 11.1631,-29.7356 0,-11.5585 -4.2479,-22.1289 -11.1631,-29.7358 z m -96.2214,0.1003 c -7.607,-7.6069 -18.0788,-12.2501 -29.6372,-12.2501 -11.5582,0 -22.03,4.7421 -29.6369,12.2501 -7.6066,7.6067 -12.2499,18.0784 -12.2499,29.6369 0,11.5585 4.6433,22.0302 12.2499,29.637 7.6069,7.6069 18.0787,12.2498 29.6369,12.2498 11.5584,0 22.0302,-4.6429 29.6372,-12.2498 7.6067,-7.6068 12.2499,-18.0785 12.2499,-29.637 0.097,-11.5585 -4.6432,-22.0302 -12.2499,-29.6369 z"
   id="path213"
   style="stroke-width:2.82201" /></svg>
