<svg xmlns="http://www.w3.org/2000/svg" viewBox="0 0 5333 4000"><style><![CDATA[.B{fill:#fff}.C{fill:#fa555c}.D{fill:#273a47}.E{fill:#eb4c4c}.F{fill:#4f2424}.G{fill:#01cc9d}.H{fill:#7ec4b4}.I{font-family:sans-serif}.J{fill:#ffd1c1}.K{fill:#d67e79}.L{fill:#f5dfdf}]]></style><g transform="matrix(2.78786 0 0 2.78786 -666.19952 -806.55863)"><path fill="#d5fef7" d="M1191.54 373.58c502.68 0 910.19 407.51 910.19 910.23 0 111.56-20.07 218.38-56.82 317.15H338.17c-36.68-98.77-56.83-205.63-56.83-317.15 0-502.72 407.52-910.23 910.2-910.23z"/><path d="M999.83 421.71c103.47 30.07 190.33 109.93 224.4 220.61 34.1 110.68 7.28 225.56-61.35 308.67-103.47-30.07-190.29-109.93-224.39-220.61-34.04-110.68-7.25-225.56 61.34-308.67z" class="B"/><path fill="#dbf1ff" d="M1017.22 485.24c-.32-1.09.28-2.26 1.41-2.61 1.1-.32 2.3.28 2.62 1.38l22.19 71.98 34.17-64.63a2.13 2.13 0 0 1 2.86-.89c1.06.57 1.45 1.81.88 2.87l-36.15 68.34 47.92 155.38 47.74-90.25a2.11 2.11 0 0 1 2.87-.89c1.02.53 1.41 1.8.88 2.87l-49.72 93.99 41.81 135.63 34.17-64.6c.53-1.06 1.8-1.45 2.86-.88 1.02.53 1.41 1.8.88 2.86l-36.15 68.35 11.1 35.97c.32 1.09-.28 2.3-1.38 2.61a2.13 2.13 0 0 1-2.62-1.37l-11.09-36.01-68.35-36.15c-1.02-.53-1.41-1.81-.88-2.87.53-1.02 1.8-1.41 2.86-.88l64.64 34.17-41.84-135.59-94-49.72c-1.03-.57-1.42-1.8-.89-2.86.57-.99 1.81-1.45 2.87-.89l90.25 47.75-47.88-155.38-68.35-36.16c-1.06-.53-1.44-1.8-.88-2.86.53-1.02 1.8-1.41 2.86-.88l64.6 34.17z"/><path d="M1567.89 501.04c-105.7-20.89-219.52 10.1-300.73 92.72-81.21 82.59-110.18 196.98-87.46 302.32 105.7 20.88 219.52-10.14 300.72-92.73 81.18-82.62 110.19-196.97 87.47-302.31z" class="B"/><path fill="#dbf1ff" d="M1523.25 549.45a2.18 2.18 0 0 0 0-2.97c-.81-.77-2.15-.77-2.96.04l-52.8 53.71-.63-73.11c0-1.13-.96-2.09-2.16-2.09-1.13.04-2.09.96-2.09 2.16l.68 77.28-113.93 115.98-.89-102.09c0-1.13-.95-2.12-2.12-2.08-1.13 0-2.08.95-2.08 2.12l.95 106.33-99.47 101.24-.64-73.08c-.04-1.16-.95-2.12-2.12-2.08-1.17 0-2.12.95-2.09 2.12l.68 77.28-26.4 26.86a2.15 2.15 0 0 0 .03 2.97c.85.81 2.16.77 3.01 0l26.39-26.86 77.29-.67c1.16.03 2.12-.96 2.08-2.12 0-1.13-.95-2.09-2.12-2.09l-73.08.64 99.48-101.24 106.33-.96c1.17-.03 2.09-.95 2.09-2.12 0-1.13-.96-2.12-2.12-2.08l-102.09.88 113.92-115.98 77.29-.67c1.13 0 2.08-.95 2.08-2.12 0-1.13-.95-2.08-2.15-2.08l-73.12.63z"/><path fill="#91d1c5" d="M349.12 875.02c73.15 6.18 141.85 47.92 179.48 117.25 37.6 69.37 35.13 149.69.43 214.39-73.15-6.18-141.85-47.92-179.45-117.25-37.67-69.4-35.16-149.72-.46-214.39z"/><path d="M369.23 915.09c-.39-.71-.11-1.59.56-1.94a1.44 1.44 0 0 1 1.95.56l24.49 45.13 14.17-47.74a1.38 1.38 0 0 1 1.76-.96c.78.21 1.21 1.03.96 1.77l-14.95 50.5 52.79 97.35 19.79-66.68c.25-.74 1.03-1.2 1.77-.95s1.2 1.02.95 1.8l-20.6 69.44 46.12 84.99 14.17-47.75c.25-.74 1.02-1.2 1.77-.95.74.25 1.2 1.03.95 1.8l-14.98 50.5 12.22 22.58c.39.71.11 1.59-.56 1.94a1.44 1.44 0 0 1-1.95-.56l-12.22-22.58-50.5-14.98c-.74-.25-1.2-1.03-.95-1.81.21-.77 1.02-1.2 1.76-.95l47.74 14.17-46.08-84.99-69.43-20.6a1.38 1.38 0 0 1-.96-1.77c.25-.74 1.03-1.2 1.77-.95l66.68 19.79-52.76-97.36-50.5-14.98c-.77-.21-1.2-1.03-.95-1.77.21-.78 1.02-1.2 1.77-.95l47.74 14.17z" class="B"/><path fill="#91d1c5" d="M2099.58 1011.07c-77.99-35.06-171.53-31.49-249.03 17.84-77.53 49.34-120.39 132.52-121.7 218 77.99 35.06 171.53 31.49 249.02-17.84 77.57-49.33 120.44-132.55 121.71-218z"/><path d="M2056.43 1040.51c.78-.5 1.03-1.56.53-2.3-.49-.78-1.55-1.03-2.3-.53l-50.42 32.08 12.61-56.61c.18-.88-.35-1.8-1.27-1.98-.88-.21-1.8.36-1.98 1.28l-13.32 59.89-108.84 69.23 17.56-79.05c.18-.88-.39-1.8-1.27-1.98-.88-.17-1.8.36-1.98 1.27l-18.31 82.34-95.02 60.43 12.58-56.61c.18-.89-.39-1.8-1.27-1.98s-1.8.39-1.98 1.27l-13.32 59.86-25.23 16.05c-.78.49-1.03 1.55-.53 2.33.49.77 1.55.99 2.33.53l25.23-16.05 59.86 13.33c.88.17 1.8-.39 1.98-1.28.18-.88-.39-1.8-1.27-1.97l-56.61-12.58 95.02-60.47 82.34 18.31c.88.21 1.8-.36 1.97-1.24.18-.88-.38-1.8-1.27-1.98l-79.08-17.56 108.84-69.23 59.86 13.32c.88.22 1.8-.35 1.98-1.23.17-.88-.36-1.8-1.28-1.98l-56.61-12.58z" class="B"/><path fill="#9ce1d4" d="M424.18 1503.01c255.7-35.94 511.51-57.6 767.22-57.64 255.7-.04 511.69 21.59 767.53 57.64V1060.4 617.62c-255.84 36.04-511.79 57.77-767.53 57.81s-511.55-21.7-767.22-57.81v442.78 442.61z"/><path d="M999.16 671.47c-147.75-6-295.53-18.65-443.24-36.57v220.12c0 9.89 8.09 17.98 17.99 17.98h407.26c9.9 0 17.99-8.09 17.99-17.98zm660.92-18.73c-73.25 6.82-146.54 12.23-219.8 16.05-.07.63-.11 1.3-.11 1.94v246.38c0 9.89 8.1 17.98 17.99 17.98h407.31c9.89 0 17.98-8.09 17.98-17.98V670.73c0-9.89-8.09-17.99-17.98-17.99zm84.71 670.4c9.89 0 17.98 8.09 17.98 17.98v137.22c-147.78-16.29-295.53-27.14-443.24-31.2v-106.02c0-9.89 8.09-17.98 17.99-17.98h407.27z" fill="#82bcb1"/><path fill="#def8f4" d="M1462.12 1380.21c-9.22-.36-16.57-6.36-16.57-13.64 0-7.18 7.35-12.83 16.57-12.48l225.14 12.12c9.04.64 16.57 7.35 16.57 14.88 0 7.63-7.53 13-16.57 12.3l-225.14-13.18zM635.64 808.86c-9.05-.63-16.57-7.35-16.57-15.05s7.52-13.29 16.57-12.58l105.59 7.28c9.22.53 16.75 7 16.75 14.42 0 7.35-7.53 13-16.75 12.47l-105.59-6.54zm482.54 16.19c-9.23 0-16.58-5.76-16.58-12.93 0-7.18 7.35-12.94 16.58-12.94l324.11-2.29c9.23-.25 16.58 5.3 16.58 12.58 0 7.27-7.35 13.28-16.58 13.53l-324.11 2.05zm432.64-5.58c-9.19.46-16.58-5.23-16.58-12.48 0-7.35 7.39-13.46 16.58-13.99l146.72-8.23c9.22-.6 16.57 4.94 16.57 12.58 0 7.52-7.35 14.17-16.57 14.7l-146.72 7.42zm-915.18-69.58c-9.05-.82-16.57-7.71-16.57-15.41 0-7.6 7.52-13.11 16.57-12.23l137.96 10.99c9.22.53 16.57 7 16.57 14.35s-7.35 12.93-16.57 12.4l-137.96-10.1zm255.24 15.76c-9.22-.36-16.57-6.54-16.57-13.82 0-7.24 7.35-12.76 16.57-12.4 98.24 3.18 196.45 4.52 294.83 4.52 9.22 0 16.57 5.83 16.57 13.01 0 7.06-7.35 12.93-16.57 12.93l-294.83-4.24zm846.27-15.06c-9.22.82-16.71-4.7-16.71-12.22 0-7.6 7.52-14.53 16.71-15.3l93.79-9.76c9.19-.99 16.57 4.42 16.57 12.3s-7.38 15.12-16.57 16.11l-93.79 8.87zM719.28 929.62c-9.04-.29-16.57-6.54-16.57-14.11 0-7.52 7.53-13.28 16.57-13l247.26 6.01c9.05.17 16.58 6 16.58 13.28 0 7.18-7.53 12.94-16.58 12.76l-247.26-4.94zm388.01 5.76c-9.22 0-16.71-5.76-16.71-12.94 0-7.17 7.52-12.93 16.71-12.93l208.11-.18c9.22 0 16.75 5.76 16.75 12.93 0 7.18-7.53 12.94-16.75 13.01l-208.11.11zm636.44-8.59c-9.23.35-16.58-5.48-16.58-13.11 0-7.6 7.35-14.07 16.58-14.53l87.17-4.24c9.19-.53 16.72 5.41 16.72 13.29s-7.53 14.6-16.72 15.05l-87.17 3.54zM719.28 987.36c-9.04-.07-16.57-6.29-16.57-13.82 0-7.46 7.53-13.46 16.57-13.18l123.26 2.3c9.19.17 16.58 6.29 16.58 13.46 0 7.24-7.39 13.11-16.58 13l-123.26-1.76zm214.12 2.65c-9.05-.07-16.58-6.01-16.58-13.29 0-7.17 7.53-12.93 16.58-12.83l254.32.89 254.61-.96c9.22-.07 16.72 5.76 16.72 12.94 0 7.24-7.53 13.1-16.72 13.18l-254.61.7c-84.74 0-169.62-.17-254.32-.63zm618.97-1.17c-9.22.18-16.71-5.65-16.71-13 0-7.18 7.52-13.29 16.71-13.47l145.21-3c9.22-.18 16.57 5.76 16.57 13.29 0 7.63-7.35 13.88-16.57 13.99l-145.21 2.19zm-833.09 56.33c-9.04-.07-16.57-6.18-16.57-13.64 0-7.53 7.53-13.54 16.57-13.47l269.95 1.7c9.05 0 16.57 5.83 16.57 13.01 0 7.17-7.52 13-16.57 13l-269.95-.6zm657.04.53c-9.22 0-16.57-5.76-16.57-12.93 0-7.18 7.35-13.01 16.57-13.01l268.43-1.59c9.22-.07 16.57 5.83 16.57 13.36s-7.35 13.53-16.57 13.53l-268.43.64zm-657.04 57.21c-9.04.07-16.57-5.94-16.57-13.46 0-7.53 7.53-13.54 16.57-13.64l317.55-.6c9.22 0 16.72 5.83 16.72 13 0 7.1-7.53 12.83-16.72 12.93l-317.55 1.77zm521.38-1.87c-9.23 0-16.58-5.76-16.58-12.94 0-7.17 7.35-12.93 16.58-12.93l153.93-.07c9.22 0 16.75 5.83 16.75 13 0 7.28-7.53 13.01-16.75 13.01l-153.93-.07zm268.42.53c-9.22 0-16.57-5.94-16.57-13.18 0-7.25 7.35-13.11 16.57-13.11l249.24.88c9.22 0 16.75 6.29 16.75 13.99 0 7.71-7.53 13.82-16.75 13.71l-249.24-2.29zm-873.44 120.15c-9.05.42-16.57-5.41-16.57-13.11 0-7.71 7.52-14.17 16.57-14.53l48.48-1.69c9.23-.36 16.58 5.58 16.58 13.11 0 7.52-7.35 13.81-16.58 14.17l-48.48 2.05zm105.77-4.17c-9.23.35-16.76-5.48-16.76-12.94 0-7.52 7.53-13.71 16.76-13.99l217-4.35c9.23-.07 16.58 5.66 16.58 12.83 0 7.18-7.35 13.11-16.58 13.29l-217 5.16zm307.86-6.01c-9.23.07-16.57-5.65-16.57-12.83 0-7.17 7.35-13 16.57-13.11l252.31-.17c9.22 0 16.57 5.83 16.57 13s-7.35 12.93-16.57 12.83l-252.31.28zm327.05.18c-9.22 0-16.57-5.83-16.57-13.01 0-7.17 7.35-12.93 16.57-12.93l203.83 3.18c9.22.18 16.71 6.36 16.71 13.71s-7.52 13.11-16.71 12.83l-203.83-3.78zm-740.68 69.05c-9.05.53-16.57-5.23-16.57-12.94 0-7.59 7.52-14.24 16.57-14.77l143.19-6.36c9.22-.35 16.57 5.3 16.57 12.65s-7.35 13.64-16.57 14.07l-143.19 7.35zm195.7-9.47c-9.22.35-16.57-5.23-16.57-12.58s7.35-13.54 16.57-13.82l157.92-3.46c9.05-.08 16.58 5.58 16.58 12.75 0 7.18-7.53 13.18-16.58 13.29l-157.92 3.82zm355.75-4.77c-9.05 0-16.58-5.77-16.58-12.94s7.53-12.93 16.58-12.93l203.82.71c9.23.07 16.72 6 16.72 13.18 0 7.17-7.53 12.93-16.72 12.75l-203.82-.77zm346.09 4.13c-9.04-.35-16.57-6.36-16.57-13.71 0-7.28 7.53-12.93 16.57-12.76l203.97 8.34c9.23.46 16.58 7 16.58 14.6 0 7.7-7.35 13.46-16.58 12.93l-203.97-9.4zm-897.54 69.09c-9.05.7-16.57-4.88-16.57-12.59 0-7.7 7.52-14.41 16.57-15.05l63.22-4.17c9.05-.53 16.57 5.05 16.57 12.58s-7.52 14.06-16.57 14.6l-63.22 4.63zm211.35-12.59c-9.22.36-16.75-5.23-16.75-12.47 0-7.35 7.53-13.64 16.75-13.92l96.69-2.94c9.19-.24 16.71 5.41 16.71 12.66 0 7.17-7.52 13.18-16.71 13.35l-96.69 3.32zm233.91-5.3c-9.23 0-16.75-5.65-16.75-12.82 0-7.18 7.52-13.01 16.75-13.11h178.94c9.05 0 16.58 5.76 16.58 12.93s-7.53 12.93-16.58 12.93c-59.71-.03-119.4-.03-178.94.07zm273.48.36c-9.23-.07-16.76-5.94-16.76-13.11 0-7.18 7.53-12.94 16.76-12.83l256.62 7.63c9.22.43 16.57 6.82 16.57 14.24 0 7.46-7.35 13.01-16.57 12.58l-256.62-8.51zm-718.74 76.5c-9.05.89-16.57-4.59-16.57-12.29 0-7.64 7.52-14.53 16.57-15.3l211.18-14c9.22-.35 16.75 5.13 16.75 12.48 0 7.24-7.53 13.46-16.75 13.88l-211.18 15.23z"/><path d="M848.37 1158.14c-9.22.18-16.57-5.65-16.57-12.93 0-7.35 7.35-13.36 16.57-13.46l337.34-1.42c9.22 0 16.57 5.76 16.57 12.94 0 7.1-7.35 12.93-16.57 12.93l-337.34 1.94zm-296.34 221.01c9.05-.89 16.57 4.7 16.57 12.47 0 7.78-7.52 14.88-16.57 15.94-9.22.99-16.75-4.42-16.75-12.3s7.53-15.16 16.75-16.11zm0-665.73c9.05 1.06 16.57 8.16 16.57 15.94 0 7.77-7.52 13.35-16.57 12.47-9.22-.99-16.75-8.23-16.75-16.11s7.53-13.29 16.75-12.3zm0 60.57c9.05.81 16.57 7.81 16.57 15.58s-7.52 13.54-16.57 12.76c-9.22-.71-16.75-7.81-16.75-15.69s7.53-13.54 16.75-12.65zm0 60.46c9.05.64 16.57 7.53 16.57 15.23 0 7.88-7.52 13.82-16.57 13.18-9.22-.53-16.75-7.52-16.75-15.47 0-7.82 7.53-13.65 16.75-12.94zm0 60.57c9.05.53 16.57 7.17 16.57 15.05 0 7.81-7.52 13.71-16.57 13.36-9.22-.42-16.75-7.17-16.75-15.05 0-7.99 7.53-13.82 16.75-13.36zm0 60.46c9.05.36 16.57 6.89 16.57 14.7s-7.52 13.89-16.57 13.71c-9.22-.25-16.75-6.82-16.75-14.7s7.53-13.99 16.75-13.71zm0 60.57c9.05.07 16.57 6.54 16.57 14.35s-7.52 14.06-16.57 13.99c-9.22 0-16.75-6.47-16.75-14.35s7.53-14.16 16.75-13.99zm0 60.53c9.05-.07 16.57 6.19 16.57 14s-7.52 14.24-16.57 14.35c-9.22.17-16.75-6.12-16.75-14s7.53-14.35 16.75-14.35zm0 60.5c9.05-.17 16.57 5.94 16.57 13.71 0 7.71-7.52 14.35-16.57 14.7-9.22.25-16.75-5.83-16.75-13.71s7.53-14.45 16.75-14.7zm0 60.47c9.05-.36 16.57 5.58 16.57 13.35 0 7.88-7.52 14.53-16.57 15.06-9.22.42-16.75-5.48-16.75-13.36s7.53-14.63 16.75-15.05zm0 60.56c9.05-.6 16.57 5.24 16.57 13.12 0 7.77-7.52 14.59-16.57 15.23-9.22.7-16.75-5.06-16.75-12.94 0-7.98 7.53-14.88 16.75-15.41zm0 60.54c9.05-.78 16.57 4.88 16.57 12.76 0 7.77-7.52 14.77-16.57 15.58-9.22.88-16.75-4.77-16.75-12.65s7.53-14.95 16.75-15.69zm83.61-450.74c-9.05-.53-16.57-7.27-16.57-14.87 0-7.64 7.52-13.47 16.57-12.94l239.87 10.82c9.23.25 16.58 6.36 16.58 13.64 0 7.24-7.36 13-16.58 12.76l-239.87-9.41zm322.77 11.17c-9.22-.18-16.71-6.18-16.71-13.46 0-7.18 7.53-12.94 16.71-12.65l306.81 1.41c9.22-.07 16.75 5.76 16.75 12.83 0 7.17-7.53 13-16.75 13.11-102.38 0-204.61-.18-306.81-1.24zm-322.77 283.76c-9.05.25-16.57-5.83-16.57-13.46 0-7.7 7.52-13.99 16.57-14.24l121.88-2.12c9.05-.18 16.57 5.65 16.57 13.11 0 7.35-7.52 13.53-16.57 13.71l-121.88 3z" class="B"/><path fill="#a5ede0" d="M1333.81 769.46c-9.23.08-16.58-5.58-16.58-12.75 0-7.18 7.36-13.11 16.58-13.18 98.24-2.05 196.44-5.83 294.82-11.59 9.05-.71 16.57 4.77 16.57 12.22 0 7.46-7.52 14-16.57 14.6-98.38 5.3-196.58 8.83-294.82 10.7zm-501.55 50.18c-9.22-.42-16.57-6.64-16.57-13.99s7.35-12.93 16.57-12.47l211.18 5.65c9.22.07 16.57 5.94 16.57 13.11s-7.35 12.83-16.57 12.76l-211.18-5.06zm562.33 115.1c-9.05.07-16.57-5.66-16.57-12.83s7.52-13.11 16.57-13.18l208.28-4.17c9.22-.35 16.72 5.41 16.72 12.83s-7.53 13.53-16.72 13.81l-208.28 3.54zm-296.98 111.03c-9.05 0-16.57-5.76-16.57-12.93 0-7.18 7.52-12.94 16.57-12.94l203.97-.1c9.22 0 16.57 5.83 16.57 13 0 7.07-7.35 12.83-16.57 12.83l-203.97.14zm570.63 172.66c-9.22-.35-16.75-6.64-16.75-14.06 0-7.43 7.53-13.36 16.75-13.01l162.7 6.19c9.19.35 16.57 7.06 16.57 14.94s-7.38 13.82-16.57 13.36l-162.7-7.42zm-697.39 160.36c-9.22.29-16.57-5.3-16.57-12.47 0-7.24 7.35-13.29 16.57-13.54l305.71-1.69c9.22 0 16.75 5.76 16.75 12.93 0 7.18-7.53 12.94-16.75 12.94-101.91-.04-203.79.14-305.71 1.83zm731.74-42.4c-9.18-.53-16.57-7.25-16.57-14.77 0-7.53 7.35-13.01 16.57-12.58l128.31 9.57c9.19.71 16.72 7.81 16.72 15.69s-7.53 13.54-16.72 12.76l-128.31-10.67z"/><path d="M935.83 529.77c9.9 0 17.99 8.09 17.99 17.98v246.38c0 9.89-8.09 17.99-17.99 17.99h-407.3c-9.89 0-17.99-8.1-17.99-17.99V547.75c0-9.89 8.1-17.98 17.99-17.98h407.3z" class="B"/><path d="M528.53 529.77c-9.89 0-17.99 8.09-17.99 17.98v39.51h443.25v-39.51c0-9.89-8.1-17.98-17.99-17.98H528.53z" class="G"/><path d="M847.1 546.94h22.83c15.3 0 15.3 23.15 0 23.15H847.1c-15.34 0-15.34-23.15 0-23.15zm52.26 0h22.83c15.3 0 15.3 23.15 0 23.15h-22.83c-15.3 0-15.3-23.15 0-23.15zm-103.46 0h22.82c15.31 0 15.31 23.15 0 23.15H795.9c-15.3 0-15.3-23.15 0-23.15z" class="B"/><path d="M682.57 741.44h99.23c12.22 0 22.15 9.93 22.15 22.16h0c0 12.23-9.93 22.15-22.15 22.15h-99.23c-12.23 0-22.16-9.92-22.16-22.15h0c0-12.23 9.9-22.16 22.16-22.16z" class="H"/><path d="M1711.53 1270.48c9.9 0 17.99 8.09 17.99 17.99v246.37c0 9.9-8.09 17.99-17.99 17.99h-407.3c-9.89 0-17.99-8.09-17.99-17.99v-246.37c0-9.9 8.1-17.99 17.99-17.99h407.3z" class="B"/><path d="M1304.23 1270.48c-9.89 0-17.99 8.09-17.99 17.99v39.51h443.24v-39.51c0-9.9-8.09-17.99-17.98-17.99h-407.27z" class="G"/><path d="M1622.8 1287.66h22.83c15.3 0 15.3 23.14 0 23.14h-22.83c-15.3 0-15.3-23.14 0-23.14zm52.3 0h22.83c15.3 0 15.3 23.14 0 23.14h-22.83c-15.3 0-15.3-23.14 0-23.14zm-103.47 0h22.83c15.3 0 15.3 23.14 0 23.14h-22.83c-15.3 0-15.3-23.14 0-23.14z" class="B"/><path d="M1458.27 1482.16h99.23c12.22 0 22.15 9.93 22.15 22.15h0c0 12.23-9.93 22.16-22.15 22.16h-99.23c-12.23 0-22.16-9.93-22.16-22.16h0c0-12.22 9.93-22.15 22.16-22.15z" class="H"/><path d="M1825.04 600.41c9.89 0 17.98 8.09 17.98 17.99v246.37c0 9.9-8.09 17.99-17.98 17.99h-407.27c-9.89 0-17.99-8.09-17.99-17.99V618.36c0-9.9 8.1-17.99 17.99-17.99l407.27.04z" class="B"/><path d="M1417.73 600.41c-9.89 0-17.98 8.09-17.98 17.99v39.5h443.24v-39.54c0-9.9-8.09-17.99-17.99-17.99l-407.27.04z" class="G"/><path d="M1736.3 617.55h22.83c15.3 0 15.3 23.14 0 23.14h-22.83c-15.33.04-15.33-23.14 0-23.14zm52.27 0h22.83c15.3 0 15.3 23.14 0 23.14h-22.83c-15.3.04-15.3-23.14 0-23.14zm-103.43 0h22.83c15.3 0 15.3 23.14 0 23.14h-22.83c-15.34.04-15.34-23.14 0-23.14z" class="B"/><path d="M1571.77 812.05H1671c12.23 0 22.16 9.93 22.16 22.15h0c0 12.23-9.93 22.16-22.16 22.16h-99.23c-12.22 0-22.15-9.93-22.15-22.16h0c0-12.22 9.93-22.15 22.15-22.15z" class="H"/><text xml:space="preserve" x="619.072" y="708.687" font-size="91.52" class="I J"><tspan x="619.072" y="708.687" font-weight="normal" font-family="Verdana">.NET</tspan></text><text xml:space="preserve" x="1384.841" y="1436.341" font-size="67.427" class="I J"><tspan x="1384.841" y="1436.341">Angular</tspan></text><text xml:space="preserve" x="1523.436" y="773.295" font-size="91.723" class="I J"><tspan x="1523.436" y="773.295">Rust</tspan></text><path d="M797.28 998.49c9.54 0 17.24 7.74 17.24 17.24 0 9.51-7.74 17.25-17.24 17.25-9.51 0-17.25-7.74-17.25-17.25.04-9.5 7.74-17.24 17.25-17.24zm195.38-253.13c6.32 0 11.48 5.16 11.48 11.49 0 6.36-5.16 11.48-11.48 11.48-6.36 0-11.49-5.15-11.49-11.48s5.16-11.49 11.49-11.49zm198.21-36.22c6.36 0 11.48 5.16 11.48 11.49 0 6.36-5.16 11.48-11.48 11.48-6.33 0-11.49-5.16-11.49-11.48 0-6.33 5.13-11.49 11.49-11.49zm426.03 228.53a11.69 11.69 0 0 1 11.7 11.7c0 6.47-5.23 11.69-11.7 11.69s-11.7-5.22-11.7-11.69a11.69 11.69 0 0 1 11.7-11.7zm16.25 132.45c15.45 0 27.96 12.54 27.96 27.95 0 15.44-12.55 27.95-27.96 27.95-15.44 0-27.95-12.54-27.95-27.95a27.95 27.95 0 0 1 27.95-27.95zm29.02 282.7a14.79 14.79 0 0 1 14.77 14.77c0 8.16-6.65 14.77-14.77 14.77-8.17 0-14.77-6.64-14.77-14.77s6.6-14.77 14.77-14.77zm-315.92-42.55c8.16 0 14.77 6.65 14.77 14.78a14.79 14.79 0 0 1-14.77 14.77 14.79 14.79 0 0 1-14.77-14.77c-.04-8.17 6.6-14.78 14.77-14.78zm-273.13 0c6.33 0 11.49 5.16 11.49 11.49 0 6.32-5.16 11.48-11.49 11.48-6.36 0-11.48-5.16-11.48-11.48a11.49 11.49 0 0 1 11.48-11.49zm-336.1 13.01c8.17 0 14.77 6.64 14.77 14.77a14.79 14.79 0 0 1-14.77 14.77 14.79 14.79 0 0 1-14.77-14.77c-.03-8.16 6.61-14.77 14.77-14.77zm-3.07-290.3a11.69 11.69 0 0 1 11.7 11.69c0 6.47-5.23 11.74-11.7 11.74-6.43 0-11.73-5.27-11.73-11.74 0-6.43 5.26-11.69 11.73-11.69z" class="B"/></g><g class="D"><path d="M2823.93 757.255c-44.01-89.641-142.337-47.948-194.454 17.604-35.208 44.357-64.046 93.811-85.819 147.317-28.259 69.489-7.991 155.54 50.959 215.996 14.361 14.824 22.7 34.166 22.816 53.391.232 19.225-7.76 36.482-21.889 47.484 18.183 69.142 98.443 102.033 176.387 96.59z"/><path d="M2753.861 758.876l36.019-16.562c35.092-16.098 76.67-6.601 101.107 23.279 46.21 56.286 76.438 124.038 87.441 196.076 7.181 47.137 3.127 95.316-11.929 140.484-35.324 106.087-129.018 181.946-240.201 194.338z"/></g><path fill="#1c2c36" d="M2652.87 979.273l-6.717 53.854c-9.613 81.65 24.205 162.373 89.294 212.753l70.3-47.6c69.026-46.789 98.212-133.999 71.227-212.869-16.214-47.369-60.108-79.565-110.141-80.955s-108.056 26.985-113.962 74.817z"/><path fill="#f55151" d="M2569.252 1745.161c-104.118 9.149-201.635-8.455-290.002-77.249l42.157-35.208h240.201z"/><path fill="#1b2d38" d="M2709.157 1895.837l6.254 72.501c118.132 124.386 167.353 261.28 97.401 384.16l-69.953 416.125 39.493 135.852c43.083 148.36 22.121 239.391-35.671 307.374-21.773 65.436-68.794 260.585-81.65 327.874h-110.372l38.914-710.296-19.457-108.519c-104.002-316.06-146.043-394.12-117.205-734.27l-4.401-84.777z"/><path d="M2817.56 1893.173l20.731 73.311c215.88 322.778 131.451 349.763 189.358 692.924 79.102 141.063 157.741 268.576 145.464 438.593-9.613 133.767 10.655 329.148.232 441.605l-80.839-2.895-102.844-302.163c-80.029-164.69-97.053-296.835-101.107-491.174l-41.809-73.774c-156.235-228.388-177.198-288.149-240.317-561.474l-59.645-39.493c-34.629-22.931-64.972-50.611-89.873-82.113l-5.212-84.661z" class="D"/><path d="M2632.603 1289.89l-12.276 8.918c-54.781 39.609-93.579 97.864-105.855 159.015-31.039 153.919-65.436 307.722-103.076 461.525l19.689 13.435c128.324 87.788 317.682 71.806 469.516-39.609l-25.479-193.412 94.969-288.96c25.943-78.986 9.497-157.162-43.315-206.152-10.076-9.381-20.847-17.836-32.197-25.711l-22.468-76.786-172.102 101.339c-33.355 20.152-57.097 51.654-67.405 86.398z" class="B"/><path fill="#e6f2fa" d="M2773.087 1683.779l127.397 209.394-25.479-193.412 53.275-161.91-61.73-85.935z"/><path d="M2946.231 1226.192l21.542 36.134c49.453 83.04 83.04 174.302 99.254 270.082l-31.965 12.508c-86.167 33.934-181.483 25.132-252.478-23.047z" class="B"/><path d="M2978.891 1630.504c.232 54.897-8.57 109.33-25.943 160.173l-41.694-5.675c-109.677-14.824-213.101-67.752-298.341-152.297l4.401-38.914 190.285 40.767 45.284-8.918-7.065-88.251c38.914-31.733 84.777-36.019 132.03-11.466z" class="C"/><g class="D"><path d="M2046.692 1323.824h320.577c8.223 0 15.983 8.223 17.257 18.53l37.872 287.917c1.39 10.192-4.285 18.53-12.392 18.53h-320.577c-8.223 0-15.983-8.223-17.257-18.53l-37.872-287.917c-1.39-10.192 4.169-18.53 12.392-18.53z"/><path d="M2140.271 1632.704h472.643c7.76 0 13.435 6.254 12.624 14.014h0c-.811 7.76-7.644 14.014-15.403 14.014h-472.643c-7.76 0-13.435-6.254-12.624-14.014h0c.811-7.76 7.644-14.014 15.403-14.014z"/></g><path fill="#3a4e5c" d="M2224.585 1450.874c27.101 0 47.484 15.867 45.515 35.44s-25.479 35.44-52.58 35.44-47.484-15.867-45.515-35.44 25.479-35.44 52.58-35.44z"/><path d="M2617.315 1593.79l-83.04-15.867c-9.613-1.853-19.92 0-29.07 4.98-15.403 8.686-29.765 19.341-42.388 31.965-5.096 5.096-5.907 12.74-1.737 17.836h151.834l16.214-22.816z" class="C"/><path fill="#f55151" d="M2333.335 1699.646l-82.461 15.751c-9.613 1.853-19.11 0-26.869-4.98-13.087-8.686-24.669-19.341-34.397-31.965-3.938-5.096-3.127-12.74 1.737-17.836h145.117l11.118 22.816z"/><path d="M2855.432 961.669l-2.895 91.726c-.811 24.09 2.78 48.179 10.423 70.995l-114.657 73.89 12.74-21.889c19.689-33.818 23.974-74.469 11.929-111.646z" class="E"/><path d="M2738.458 1133.887c-26.638 0-96.127-69.837-88.136-130.756 6.138-47.021-31.154-40.304 0-117.321 30.923-76.554 197.813-102.497 229.315-26.174 23.047 55.823 18.183 154.961-24.553 216.575-27.217 39.146-81.302 57.676-116.626 57.676z" class="C"/><path d="M2735.447 1097.058c-12.508 0-22.468-10.192-26.869-21.542h53.738c-4.401 11.35-14.361 21.542-26.869 21.542z" class="B"/><path d="M2904.769 921.597c-15.172-7.991-33.818 6.022-41.578 31.27s-1.737 52.349 13.435 60.34 33.818-6.022 41.578-31.27 1.737-52.349-13.435-60.34z" class="C"/><path d="M2688.657 949.277l-30.344-4.517c-3.938-.579-7.644 1.853-9.844 6.833l-3.822-8.455c2.316-9.265 7.528-14.94 13.666-15.172l28.027-.695zm-30.228 18.415c-.232 1.853-.347 3.938-.347 5.907 0 16.214 6.833 29.417 15.172 29.417 8.455 0 15.288-13.203 15.288-29.417a50.51 50.51 0 0 0-.347-5.907zm88.368-18.415l36.019-4.517c4.748-.579 9.034 1.853 11.697 6.833l4.517-8.455c-2.78-9.265-8.918-14.94-16.214-15.172l-33.239-.695zm35.671 18.415c.232 1.853.347 3.938.347 5.907 0 16.214-8.107 29.417-18.067 29.417s-18.067-13.203-18.067-29.417a50.51 50.51 0 0 1 .347-5.907z" class="D"/><path d="M2722.939 1037.413c-10.423 0-15.288-7.412-15.288-2.895s8.455 20.036 18.878 20.036 18.878-15.519 18.878-20.036c-.116-4.401-12.161 2.895-22.468 2.895z" class="E"/><path d="M2776.677 914.88c-15.288 0-29.186 6.254-39.261 16.33-3.243 3.243-6.022 6.833-8.455 10.771h-24.205c-2.085-3.938-4.633-7.528-7.528-10.655-9.149-10.076-21.889-16.446-35.903-16.446s-26.638 6.254-35.903 16.446c-9.034 10.076-14.709 23.858-14.709 39.146s5.675 29.07 14.709 39.146c9.149 10.076 21.773 16.446 35.903 16.446 14.014 0 26.638-6.254 35.903-16.446 9.034-10.076 14.709-23.858 14.709-39.146 0-7.644-1.39-14.94-3.938-21.542h17.488c-2.78 6.601-4.285 13.898-4.285 21.542 0 15.288 6.254 29.301 16.33 39.261 10.076 10.076 23.974 16.33 39.261 16.33s29.186-6.254 39.261-16.33 16.33-23.974 16.33-39.261-6.254-29.186-16.33-39.261c-10.076-10.192-23.974-16.33-39.377-16.33zm-146.043 20.963c7.875-8.686 18.762-14.129 30.691-14.129s22.816 5.443 30.691 14.129c7.991 8.802 12.856 21.078 12.856 34.513 0 13.55-4.98 25.711-12.856 34.513-7.875 8.686-18.762 14.129-30.691 14.129s-22.816-5.443-30.691-14.129c-7.991-8.802-12.856-21.078-12.856-34.513s4.864-25.711 12.856-34.513zm111.646.116c8.802-8.802 20.963-14.245 34.397-14.245s25.595 5.443 34.397 14.245 14.245 20.963 14.245 34.397-5.443 25.595-14.245 34.397-20.963 14.245-34.397 14.245-25.595-5.443-34.397-14.245-14.245-20.963-14.245-34.397 5.443-25.595 14.245-34.397z" class="B"/><path d="M2797.871 852.687c20.731 13.319 36.598 33.123 44.821 56.286 7.412 20.499 25.711 34.976 47.369 37.524l20.615-44.242-23.858-91.842-115.121-42.041-142.453 44.473-60.108 126.471 14.014 63.583 12.045-29.301c31.154-75.743 102.728-127.05 184.378-132.493z" class="D"/><path d="M2569.599 3431.551c-.811-12.045-6.717-23.163-16.098-30.691s-21.657-10.655-33.586-8.57l1.158 53.391-60.456 42.273c-30.691 21.426-64.857 36.945-100.991 46.095 7.644 3.474 14.593 8.455 20.499 14.824 13.203 14.361 19.11 34.166 15.867 53.391l12.856 5.096c39.377 15.635 82.576 19.341 124.038 10.771 29.186-6.022 59.529-4.633 88.02 3.938 27.101 8.107 56.286 6.138 81.997-5.559l3.243-67.405c.811-16.33-6.486-32.081-19.457-42.041-61.73 20.963-112.573-8.455-117.089-75.512z" class="C"/><path d="M2359.625 3533.932c-9.265 2.316-18.646 4.285-28.143 5.675-8.57 1.39-15.056 8.686-15.288 17.372-.463 16.098 7.412 31.386 20.731 40.42l-1.853 24.9 16.214 7.181a336.56 336.56 0 0 0 193.875 23.974c33.702-5.907 68.331-4.517 101.57 3.938 24.437 6.254 50.264-3.359 64.741-23.974l-8.455-17.025c-25.711 11.697-54.897 13.666-81.997 5.559-28.606-8.57-58.834-9.96-88.02-3.938-41.462 8.57-84.545 4.748-124.038-10.771l-12.856-5.096c3.243-19.341-2.548-39.03-15.867-53.391-5.907-6.37-12.971-11.35-20.615-14.824z" class="B"/><path d="M3199.056 3473.592l33.818 96.127c-60.803-40.883-140.253-41.115-201.287-.579l20.963-96.127c-4.401-28.954 8.57-57.676 33.239-73.543 24.553-15.867 56.171-15.751 80.723.347 24.321 15.983 37.177 44.821 32.544 73.774z" class="C"/><path d="M3232.874 3569.603l5.443 5.907c21.078 22.931 24.437 57.213 7.991 83.735H3043.4c-25.711-17.488-33.702-51.885-18.299-78.87l6.486-11.234c61.035-40.651 140.484-40.42 201.287.463zm-745.736-112.11h0c3.938-2.78 8.918-2.316 11.118.927l22.121 31.965c2.2 3.243.811 7.991-3.127 10.771h0c-3.938 2.78-8.918 2.316-11.118-.927l-22.121-31.965c-2.2-3.127-.811-7.991 3.127-10.771zm-33.239 24.901h0c4.054-2.548 9.034-1.969 11.118 1.274l20.963 32.776c2.085 3.243.579 8.107-3.474 10.655h0c-4.054 2.548-9.034 1.969-11.118-1.274l-20.963-32.776c-2.2-3.243-.579-8.107 3.474-10.655zm-32.196 19.688h0c4.285-2.316 9.149-1.274 11.002 2.2l18.299 34.281c1.853 3.474-.116 8.107-4.285 10.308h0c-4.285 2.316-9.149 1.274-11.002-2.2l-18.299-34.281c-1.853-3.474.116-8.107 4.285-10.308z" class="B"/><path fill="#cb444b" d="M2426.219 3576.32l18.299-10.771c24.437-14.477 50.032-26.869 76.554-37.177 22.352-8.686 47.484-6.717 68.1 5.443 16.214 9.497 35.555 12.045 53.623 6.949 16.446-4.633 33.818 3.59 40.767 19.11 6.949 15.635 1.506 33.934-12.971 43.083s-33.355 6.37-44.589-6.601c-26.638-30.691-72.501-35.671-104.929-11.234-25.827 19.457-60.34 23.163-89.757 9.613a12.3 12.3 0 0 1-6.833-8.107c-1.042-3.359-1.158-8.57 1.737-10.308z"/><path d="M3092.043 3485.521c-3.822 1.737-8.339 0-10.076-3.822s0-8.339 3.822-10.076l7.528-3.474c12.161-5.559 25.364-7.991 38.451-7.296a84.38 84.38 0 0 1 37.64 11.118c3.59 2.085 4.864 6.717 2.78 10.423-2.085 3.59-6.717 4.864-10.423 2.78-9.497-5.443-20.036-8.57-30.691-9.034-10.655-.579-21.426 1.506-31.502 6.022zm-1.042 20.268c-4.054 1.158-8.223-1.158-9.381-5.212s1.158-8.223 5.212-9.381l7.644-2.085c11.813-3.243 24.553-4.748 37.177-4.401 12.74.347 25.248 2.664 36.482 6.601 3.938 1.39 6.022 5.791 4.633 9.729s-5.791 6.022-9.729 4.633c-9.844-3.474-20.731-5.443-31.733-5.791-11.118-.347-22.352.927-32.66 3.822zm-.347 24.785c-4.054.927-8.107-1.621-9.034-5.791-.927-4.054 1.621-8.107 5.791-9.034l7.528-1.737c11.697-2.664 24.321-3.822 36.829-3.474s24.9 2.085 36.019 5.328c4.054 1.158 6.37 5.328 5.212 9.381s-5.328 6.37-9.381 5.212c-9.96-2.895-20.963-4.401-32.197-4.748-11.234-.232-22.584.811-33.123 3.127zm-787.653 132.457H245.405c13.633-1990.912 2062.239-1093.703 2057.595 0z" class="B"/><ellipse transform="rotate(302.649)" cx="-1248.642" cy="2248.859" rx="42.974" ry="21.24" class="E"/><path fill="#ff9791" d="M2351.506 3663.031H293.812c-68.066-1990.912 2017.388-1093.703 2057.694 0z"/><g class="K"><path d="M904.136 3256.313l336.083-61.052 10.373 139.887c5.434 72.709 38.528 140.578 92.566 189.578l23.413-31.909c43.764-59.669 63.324-133.762 54.631-207.261l286.688-75.377c-2.865 193.529 30.526 408.298 307.039 452.853h-846.926-445.345c116.868-81.6 185.33-216.053 182.465-358.508z"/><path d="M676.623 3151.102l56.705 13.04c56.113 12.941 104.52 48.111 134.157 97.604 29.538 49.395 37.738 108.768 22.524 164.287l84.268 29.538 41.591-304.47-197.481-62.238zm468.56-505.903l81.502 35.268c131.193 56.705 258.138 58.286 299.037 0l-16.399 37.738c-30.131 69.45-4.643 155.397 73.006 245.592 71.03 82.49 229.785 158.854 389.43 187.305h-885.256z"/></g><path d="M1319.054 2502.843c81.6 57.693 217.832 177.526 270.388 253.1 31.02 44.653 55.125 70.437 51.864 99.185s-145.814 192.047-236.404 19.264c-62.238-120.227-92.369-250.432-85.848-371.549z" class="L"/><path d="M855.729 2645.199l-32.502 35.268c-24.994 27.068-63.127 42.875-103.532 42.875s-78.538-15.806-103.532-42.875l36.947 37.738c68.066 69.548 108.57 155.397 115.979 245.592 6.817 82.49-51.371 158.854-142.554 187.305h612.991z" class="K"/><path d="M1078.204 2395.853c60.262 14.325 185.923 71.326 240.85 106.989l30.23 56.903c27.266 51.272 46.234 105.409 56.113 159.842 8.298 45.938 29.736 90.887 61.744 129.217 81.996 98.395 82.786 230.279 1.778 302.198h-186.812-203.013-186.812c-100.568-71.919-135.54-203.803-80.119-302.198 21.536-38.331 30.822-83.181 26.673-129.217-4.939-54.532-.593-108.57 12.744-159.842l14.818-56.903c49.296-38.923 149.568-82.391 211.805-106.989z" class="B"/><path d="M1180.649 2432.603c6.915 48.308-14.423 83.181-55.619 83.181-42.48 0-92.862-37.145-123.487-87.725l3.063-1.383c33.687-30.823 46.431-78.439 32.798-122.005l-11.954-38.232 108.274 60.954c-9.681 15.312-12.645 33.885-8.2 51.47 4.544 17.585 16.103 32.403 31.909 41.097z" class="C"/><path d="M1042.738 2343.001c.296-12.744-1.383-25.685-5.335-38.232l-8.496-27.068c-.198-3.161-.296-6.224-.296-9.385l105.112 59.076c-9.681 15.312-12.645 33.885-8.2 51.47 4.544 17.585 16.103 32.403 31.909 41.097l15.312 8.397c-9.978 5.038-20.647 7.804-31.909 7.804-43.467 0-79.328-42.381-98.098-93.159z" class="E"/><path fill="#debdbd" d="M988.008 3151.102h-95.727c-67.671-48.506-105.705-124.179-106.298-198.469h202.025z"/><path d="M927.845 2591.655l13.238 53.544c22.129 89.603 89.109 161.324 176.933 189.479l-95.135 95.036-164.979-67.967c2.47-3.754 4.446-4.445 7.508-7.508z" class="L"/><path d="M866.299 2502.843c-73.697 85.75-194.912 430.033-157.57 473.796 37.244 43.863 158.261 53.347 204.594 24.006l178.711-77.945 8.397-70.338c-63.226-14.522-139.491-33.984-164.386-70.24l20.45-69.153c42.578-143.641-67.572-202.124-90.195-210.126z" class="B"/><path fill="#debdbd" d="M1153.975 2611.61h464.51c13.238 0 21.339 10.768 17.98 24.006l-74.092 293.011c-3.359 13.238-16.893 24.006-30.131 24.006h-464.51c-13.238 0-21.339-10.867-17.98-24.006l74.092-293.011c3.359-13.139 16.992-24.006 30.131-24.006z"/><path d="M1202.975 3044.705c34.379 137.91 19.659 357.916-8.298 516.967 35.07 20.45 33.094 73.302-3.062 101.358h-162.016c-25.784-13.534-17.09-43.961 3.161-67.968-74.389-81.205-121.61-211.805-144.134-338.75l-36.256-45.345c-53.742-67.078-46.036-181.872 18.474-277.007 84.07-123.882 304.767.79 332.132 110.744z" class="B"/><path d="M1269.955 3151.102l35.466 11.262c76.068 24.204 124.772 98.592 116.374 178.019l143.147 63.72 4.446-303.779-247.567-13.238z" class="K"/><path fill="#c79b9b" d="M1046.887 2952.732h464.51c13.238 0 24.006 10.768 24.006 24.006h0c0 13.238-10.768 24.006-24.006 24.006h-464.51c-13.238 0-24.006-10.768-24.006-24.006h0c0-13.238 10.867-24.006 24.006-24.006z"/><path fill="#2e1111" d="M1558.915 2895.236c-62.929 60.558-303.087 116.671-401.383 104.421l16.498 151.445h226.624z"/><path d="M1186.478 2969.625h37.145a7.08 7.08 0 0 1 7.113 7.113h0c0 3.853-3.161 7.113-7.113 7.113h-37.145c-3.853 0-7.113-3.161-7.113-7.113h0c0-3.952 3.26-7.113 7.113-7.113zm62.534 0h37.145c3.853 0 7.113 3.161 7.113 7.113h0c0 3.853-3.161 7.113-7.113 7.113h-37.145c-3.853 0-7.113-3.161-7.113-7.113h0c0-3.952 3.26-7.113 7.113-7.113z" fill="#ad8282"/><path d="M1227.87 3044.705c28.254 137.91 3.754 357.916-31.317 516.967 34.181 20.45 29.835 73.302-7.508 101.358H1027.03c-25.191-13.534-15.115-43.961 6.224-67.968-70.833-81.205-112.225-211.805-129.02-338.75l-34.28-45.345c-50.679-67.078-37.935-181.872 30.822-277.007 89.405-123.882 304.569.79 327.093 110.744z" class="F"/><path fill="#3d1a1a" d="M1239.725 3223.91c-3.161 112.917-21.042 237.392-43.171 337.664 34.181 20.449 29.835 73.302-7.508 101.358H1027.03c-25.191-13.534-15.115-43.961 6.224-67.967-70.833-81.205-112.225-211.805-129.02-338.75l-34.28-45.345c-28.451-37.639-36.947-90.195-26.772-145.913 80.02 139.294 244.801 203.804 396.543 158.953z"/><path d="M1777.537 3044.705c7.014 137.91-51.272 357.916-110.941 516.967 31.02 20.45 18.572 73.302-23.117 101.358h-162.015c-23.117-13.534-8.298-43.961 16.695-67.968-58.286-81.205-79.625-211.805-76.859-338.75-34.478-88.318-45.74-219.314 129.316-355.051 62.732-47.716 123.784-31.02 167.35 12.349 48.901 48.704 57.496 89.998 59.57 131.094z" class="F"/><path fill="#2e1111" d="M1738.417 3331.591c-20.153 80.316-45.839 160.929-71.722 230.082 31.02 20.45 18.572 73.302-23.117 101.358h-162.015c-23.117-13.534-8.298-43.961 16.696-67.968-58.286-81.205-79.625-211.805-76.859-338.75-30.625-78.538-42.974-190.961 77.945-310.398-19.857 56.409-33.687 114.695-41.294 174.068-8.397 65.596 9.978 131.786 50.976 183.65 38.034 48.21 92.665 80.217 152.828 90.195 30.921-12.941 57.594-34.675 76.562-62.238z"/><ellipse cx="1343.158" cy="2782.122" rx="92.566" ry="65.201" class="L"/><path d="M1070.103 3583.999l2.569-40.899c2.173-34.971 29.439-63.127 64.214-66.387 34.873-3.26 66.881 19.264 75.574 53.149l40.899 42.776 11.361 6.323c17.091 9.484 27.167 27.859 26.179 47.32a51.08 51.08 0 0 1-31.218 44.258h-205.878l-4.446-10.966c-10.768-26.97-2.272-57.891 20.746-75.574zm572.487 0l-18.276-40.899c-2.173-34.971-29.44-63.127-64.213-66.387-34.873-3.26-66.881 19.264-75.574 53.149l-25.191 42.776-11.361 6.323c-17.091 9.484-27.167 27.859-26.179 47.32a51.08 51.08 0 0 0 31.218 44.258h205.878l4.446-10.966c10.867-26.97 2.371-57.891-20.746-75.574z" class="B"/><path d="M1113.867 2404.547c86.737 0 144.826-157.669 108.57-236.503-30.23-65.794-187.009-65.794-217.239 0-36.157 78.834 21.932 236.503 108.669 236.503z" class="C"/><path d="M1125.129 2370.168c17.782 0 32.107-14.522 38.331-30.724h-76.562c6.125 16.202 20.449 30.724 38.232 30.724z" class="B"/><path fill="#3d1a1a" d="M1232.612 2242.828l12.546-41.294c5.137-16.992 11.855-33.391 20.153-49.098 11.064-21.042 6.125-46.925-11.954-62.336-8.792-7.607-19.461-12.744-30.822-15.115l-22.722-36.553c-12.052-19.461-30.921-33.786-52.853-40.306-25.093-7.409-52.062-5.829-76.167 4.446-58.089 24.697-100.272 76.562-112.719 138.503l-6.323 11.954c-5.928 11.163-8.101 24.006-6.323 36.552 9.681 67.276 43.467 128.822 95.135 173.08l-22.327-36.157c-7.409-19.956-16.103-38.726-16.695-59.965l28.946 1.778-24.895-81.897c28.056 17.189 98.889 15.905 117.856 14.72 18.968-1.284 56.113-18.375 85.849-39.22 12.843 22.524 20.054 51.075 23.314 80.909z"/><path d="M1208.804 2052.855l-8.99-14.424c-12.052-19.461-30.921-33.786-52.853-40.306-25.093-7.409-52.062-5.829-76.167 4.446-39.813 16.992-72.216 46.629-92.566 83.576 17.584 31.02 60.657 52.952 111.139 52.952 65.991 0 119.536-37.54 119.536-83.972 0-.692-.098-1.482-.098-2.272z" class="F"/><ellipse transform="rotate(327.351)" cx="-391.954" cy="2440.538" rx="21.24" ry="42.974" class="C"/><path d="M1085.8 2176l31.4-4c4.1-.5 7.8 1.7 10.2 6l3.9-7.4c-2.4-8.1-7.7-13.1-14.1-13.2l-29-.6zm31.1 16.1c.2 1.7.3 3.4.3 5.1 0 14.2-7 25.7-15.7 25.7s-15.7-11.5-15.7-25.7c0-1.8.1-3.5.3-5.1zM1035 2176l-31.4-4c-4.1-.5-7.8 1.7-10.2 6l-3.9-7.4c2.4-8.1 7.7-13.1 14.1-13.2l29-.6zm-31.1 16.1c-.2 1.7-.3 3.4-.3 5.1 0 14.2 7.1 25.7 15.7 25.7s15.7-11.5 15.7-25.7c0-1.8-.1-3.5-.3-5.1z" transform="matrix(.987899 0 0 .987899 90.107324 95.728491)" class="F"/><path d="M1139.355 2321.464c8.99 0 13.139-6.323 13.139-2.47 0 3.952-7.31 17.288-16.202 17.288-8.99 0-16.201-13.436-16.201-17.288-.098-3.952 10.274 2.47 19.264 2.47z" class="E"/><path d="M1086.798 2215.759a47.7 47.7 0 0 1 33.885 14.028c2.766 2.766 5.236 5.927 7.31 9.286h20.845c1.778-3.359 4.05-6.421 6.52-9.187 7.903-8.693 18.869-14.127 30.921-14.127s23.018 5.434 30.921 14.127c7.804 8.693 12.645 20.548 12.645 33.786 0 13.139-4.841 25.093-12.645 33.786-7.903 8.694-18.869 14.127-30.921 14.127s-23.018-5.434-30.921-14.127c-7.804-8.693-12.645-20.548-12.645-33.786 0-6.619 1.185-12.843 3.359-18.572h-15.115c2.371 5.73 3.754 11.953 3.754 18.572a47.7 47.7 0 0 1-14.028 33.885c-8.694 8.693-20.647 14.028-33.885 14.028a47.7 47.7 0 0 1-47.913-47.913 47.7 47.7 0 0 1 47.913-47.913zm125.859 18.079c-6.817-7.508-16.202-12.151-26.476-12.151-10.373 0-19.758 4.643-26.476 12.151-6.817 7.607-11.064 18.079-11.064 29.736s4.248 22.228 11.064 29.736 16.202 12.151 26.476 12.151c10.373 0 19.758-4.643 26.476-12.151 6.915-7.607 11.163-18.078 11.163-29.736 0-11.559-4.248-22.129-11.163-29.736zm-96.221.1a41.73 41.73 0 0 0-29.637-12.25c-11.558 0-22.03 4.742-29.637 12.25a41.73 41.73 0 0 0 0 59.274 41.73 41.73 0 0 0 59.274 0 41.73 41.73 0 0 0 12.25-29.637c.097-11.559-4.643-22.03-12.25-29.637z" class="B"/></svg>