<svg xmlns="http://www.w3.org/2000/svg" viewBox="0 0 5333 4000"><path fill="#dff9f4" d="M2674.9 126.3c1435.9 0 2600 1164.1 2600 2600 0 318.7-57.4 623.9-162.4 906H237.3C132.4 3350.2 75 3045 75 2726.3c-.1-1435.9 1164-2600 2599.9-2600h0z"/><path fill="#9ce1d4" d="M4855 1146.2c-373.5-16-747.5 150.3-982.4 476.2s-274.2 733.4-140.8 1082.6c373.5 16 747.5-150.2 982.4-476.2s274.2-733.4 140.8-1082.6z"/><path fill="#ffe5ee" d="M4727.5 1335.7c2.4-3.3 1.6-7.8-1.7-10.2s-7.9-1.6-10.2 1.7l-152.8 212.1-40.6-250.3c-.6-4-4.4-6.7-8.4-6-4 .6-6.7 4.4-6.1 8.4l43 264.7-329.7 457.5-56.8-349.6c-.6-4-4.4-6.7-8.4-6-4 .6-6.7 4.4-6 8.4l59.1 364.1-287.9 399.4-40.6-250.3c-.6-4-4.4-6.7-8.4-6.1s-6.7 4.4-6.1 8.4l43 264.7-76.4 106c-2.4 3.3-1.6 7.9 1.7 10.2 3.3 2.4 7.8 1.6 10.2-1.7l76.4-106 264.7-43c4-.6 6.7-4.4 6-8.4-.6-4-4.4-6.7-8.4-6.1l-250.3 40.7 287.8-399.5 364.1-59.1c4-.6 6.7-4.4 6.1-8.4s-4.4-6.7-8.4-6.1l-349.6 56.8 329.7-457.7 264.7-43c4-.6 6.7-4.4 6-8.4-.6-4-4.4-6.7-8.4-6l-250.3 40.6 153-211.8h0z"/><path fill="#9ce1d4" d="M1816.6 144.8c-32.3 197.4 32.3 406.7 190.5 552.3 158.3 145.5 372.2 192.3 566.3 143.7 32.3-197.4-32.3-406.7-190.5-552.3-158.2-145.5-372.2-192.3-566.3-143.7h0z"/><path fill="#ffe5ee" d="M1909.2 224.7c-1.6-1.5-4.1-1.4-5.5.2-1.5 1.6-1.4 4.1.2 5.5l103 94.7-135.6 5.7c-2.2.1-3.8 1.9-3.7 4.1s1.9 3.8 4.1 3.7l143.4-6 222.2 204.3-189.4 7.9c-2.2.1-3.8 1.9-3.7 4.1s1.9 3.8 4.1 3.7l197.2-8.3 194 178.4-135.6 5.7c-2.2.1-3.8 1.9-3.7 4.1s1.9 3.8 4.1 3.7l143.4-6 51.5 47.4c1.6 1.5 4.1 1.4 5.5-.2 1.5-1.6 1.4-4.1-.2-5.5l-51.5-47.3-6-143.4c-.1-2.1-1.9-3.8-4.1-3.7s-3.8 1.9-3.7 4.1l5.7 135.6L2251 538.8l-8.3-197.2c-.1-2.2-1.9-3.8-4.1-3.7s-3.8 1.9-3.7 4.1l7.9 189.4-222.2-204.3-6-143.4c-.1-2.2-1.9-3.8-4.1-3.7s-3.8 1.9-3.7 4.1l5.7 135.6-103.3-95h0z"/><path fill="#9ce1d4" d="M3533.2 144.8c32.3 197.4-32.3 406.7-190.6 552.3-158.2 145.5-372.2 192.3-566.3 143.7-32.3-197.4 32.3-406.7 190.5-552.3 158.4-145.5 372.4-192.3 566.4-143.7h0z"/><path fill="#ffe5ee" d="M3440.7 224.7c1.6-1.5 4.1-1.4 5.5.2 1.5 1.6 1.4 4.1-.2 5.5l-103 94.7 135.6 5.7c2.1.1 3.8 1.9 3.7 4.1s-1.9 3.8-4.1 3.7l-143.4-6-222.2 204.3 189.4 7.9c2.2.1 3.8 1.9 3.7 4.1s-1.9 3.8-4.1 3.7l-197.2-8.3-194 178.4 135.6 5.7c2.1.1 3.8 1.9 3.7 4.1s-1.9 3.8-4.1 3.7l-143.4-6-51.5 47.4c-1.6 1.5-4.1 1.4-5.5-.2-1.5-1.6-1.4-4.1.2-5.5l51.5-47.3 6-143.4c.1-2.1 1.9-3.8 4.1-3.7s3.8 1.9 3.7 4.1l-5.7 135.6 194-178.4 8.3-197.2c.1-2.2 1.9-3.8 4.1-3.7s3.8 1.9 3.7 4.1l-7.9 189.4 222.2-204.3 6-143.4c.1-2.2 1.9-3.8 4.1-3.7 2.1.1 3.8 1.9 3.7 4.1l-5.7 135.6 103.2-95h0z"/><path fill="#9ce1d4" d="M396.2 697.4c373.5-16 747.5 150.3 982.4 476.2s274.2 733.4 140.8 1082.6c-373.5 16-747.5-150.2-982.4-476.2S262.8 1046.6 396.2 697.4h0z"/><path fill="#ffe5ee" d="M523.7 886.9c-2.4-3.3-1.6-7.8 1.7-10.2s7.9-1.6 10.2 1.7l152.8 212.1L729 840.1c.6-4 4.4-6.7 8.4-6 4 .6 6.7 4.4 6.1 8.4l-43 264.7 329.7 457.7 56.8-349.6c.6-4 4.4-6.7 8.4-6 4 .6 6.7 4.4 6.1 8.4l-59.1 364.1 287.8 399.5 40.7-250.3c.6-4 4.4-6.7 8.4-6 4 .6 6.7 4.4 6 8.4l-43 264.7 76.4 106c2.3 3.3 1.6 7.9-1.7 10.2-3.3 2.4-7.8 1.6-10.2-1.7l-76.4-106-264.7-43c-4-.6-6.7-4.4-6.1-8.4s4.4-6.7 8.4-6l250.3 40.6-287.8-399.5-364.1-59.3c-4-.6-6.7-4.4-6.1-8.4s4.4-6.7 8.4-6.1l349.6 56.8-329.7-457.7-264.7-43c-4-.6-6.7-4.4-6.1-8.4s4.4-6.7 8.4-6l250.3 40.6-152.8-211.9h0z"/><path fill="#79aea4" d="M903 438h3544c74.3 0 135 60.8 135 135v2326.5c0 74.3-60.8 135-135 135H903c-74.3 0-135.1-60.8-135.1-135V573c0-74.3 60.8-135 135.1-135h0z"/><path fill="#639087" d="M1862.1 3034.5H903c-74.3 0-135.1-60.8-135.1-135V1427.1h1008.7c47 0 85.5 38.5 85.5 85.5v1521.9h0z"/><path fill="#88c4b8" d="M903 544.9c-15.3 0-28.1 12.9-28.1 28.1v2326.5c0 15.3 12.9 28.1 28.1 28.1h3544c15.3 0 28.1-12.9 28.1-28.1V573c0-15.3-12.9-28.1-28.1-28.1H903h0z"/><path fill="#76aaa0" d="M874.8 1427.1v1472.4c0 15.3 12.9 28.1 28.1 28.1h959.2v-1415c0-47-38.5-85.5-85.5-85.5H874.8h0z"/><path fill="#79aea4" d="M2206.8 3034.5h936.3v449.9h-936.3z"/><path fill="#88c4b8" d="M2674.9 3382.7c359.9 0 683.6 96.3 907.4 249.6H1767.6c223.8-153.3 547.4-249.6 907.3-249.6h0z"/><path fill="#639087" d="M2206.8 3034.5h936.3V3185h-936.3z"/><path fill="#9ce1d4" d="M874.8 662.7h3600.3v2147.1H874.8z"/><path fill="#90d0c4" d="M1862.1,2809.8H874.8V1427.1h901.8c47,0,85.5,38.5,85.5,85.5V2809.8z"/><path fill="#ddfbf6" d="M3291 2623.1c-20 0-36.2-16.2-36.2-36.2s16.2-36.3 36.2-36.3h490.8c20 0 36.3 16.2 36.3 36.3 0 20-16.2 36.2-36.3 36.2H3291zM1489.1 1076.5c-20 0-36.2-16.2-36.2-36.2s16.2-36.3 36.2-36.3h230.2c20 0 36.3 16.2 36.3 36.3 0 20-16.2 36.3-36.3 36.3l-230.2-.1h0zm1052.1 0c-20 0-36.2-16.2-36.2-36.2s16.2-36.3 36.2-36.3h706.7c20 0 36.2 16.2 36.2 36.3 0 20-16.2 36.3-36.2 36.3l-706.7-.1zm943.2 0c-20 0-36.3-16.2-36.3-36.2s16.2-36.3 36.3-36.3h319.8c20 0 36.3 16.2 36.3 36.3 0 20-16.2 36.3-36.3 36.3l-319.8-.1zM1489.1 921.9c-20 0-36.2-16.2-36.2-36.2s16.2-36.3 36.2-36.3h300.6c20 0 36.2 16.2 36.2 36.3a36.13 36.13 0 0 1-36.2 36.2h-300.6zm556.4 0c-20 0-36.3-16.2-36.3-36.2s16.2-36.3 36.3-36.3h642.7c20 0 36.3 16.2 36.3 36.3s-16.2 36.2-36.3 36.2h-642.7 0zm1845.1 0c-20 0-36.2-16.2-36.2-36.2s16.2-36.3 36.2-36.3h204.6c20 0 36.3 16.2 36.3 36.3s-16.2 36.2-36.3 36.2h-204.6 0zm-2219.1 463.9c-20 0-36.3-16.2-36.3-36.3 0-20 16.2-36.3 36.3-36.3h538.8c20 0 36.3 16.2 36.3 36.3 0 20-16.2 36.3-36.3 36.3h-538.8 0zm845.7 0c-20 0-36.3-16.2-36.3-36.3 0-20 16.2-36.3 36.3-36.3h454c20 0 36.2 16.2 36.2 36.3 0 20-16.2 36.3-36.2 36.3h-454zm1387.8 0c-20 0-36.3-16.2-36.3-36.3 0-20 16.2-36.3 36.3-36.3h190.3c20 0 36.2 16.2 36.2 36.3 0 20-16.2 36.3-36.2 36.3H3905h0zm-2233.5 154.7c-20 0-36.3-16.2-36.3-36.3 0-20 16.2-36.3 36.3-36.3H1940c20 0 36.2 16.2 36.2 36.3 0 20-16.2 36.3-36.2 36.3h-268.5zm466.8 0c-20 0-36.2-16.2-36.2-36.3 0-20 16.2-36.3 36.2-36.3h1109.6c20 0 36.3 16.2 36.3 36.3 0 20-16.2 36.3-36.3 36.3H2138.3h0zm1349.4 0c-20 0-36.2-16.2-36.2-36.3 0-20 16.2-36.3 36.2-36.3h316.5c20 0 36.3 16.2 36.3 36.3 0 20-16.2 36.3-36.3 36.3h-316.5zm-1816.2 154.7c-20 0-36.3-16.2-36.3-36.3 0-20 16.2-36.2 36.3-36.2h588.4c20 0 36.3 16.2 36.3 36.2s-16.2 36.3-36.3 36.3h-588.4zm1432.4 0c-20 0-36.2-16.2-36.2-36.3 0-20 16.2-36.2 36.2-36.2h585.2c20 0 36.3 16.2 36.3 36.2s-16.2 36.3-36.3 36.3h-585.2zm-1432.4 154.6c-20 0-36.3-16.2-36.3-36.3 0-20 16.2-36.2 36.3-36.2h692.3c20 0 36.3 16.2 36.3 36.2s-16.2 36.3-36.3 36.3h-692.3zm1136.6 0c-20 0-36.2-16.2-36.2-36.3 0-20 16.2-36.2 36.2-36.2h335.7c20 0 36.2 16.2 36.2 36.2s-16.2 36.3-36.2 36.3h-335.7 0zm585.3 0c-20 0-36.2-16.2-36.2-36.3 0-20 16.2-36.2 36.2-36.2H3937c20 0 36.2 16.2 36.2 36.2s-16.2 36.3-36.2 36.3h-543.6zm-1904.3 309.3c-20 0-36.2-16.2-36.2-36.2s16.2-36.3 36.2-36.3h105.5c20 0 36.3 16.2 36.3 36.3 0 20-16.2 36.2-36.3 36.2h-105.5zm230.3 0c-20 0-36.2-16.2-36.2-36.2s16.2-36.3 36.2-36.3h473.3c20 0 36.2 16.2 36.2 36.3 0 20-16.2 36.2-36.2 36.2h-473.3zm671.4 0c-20 0-36.2-16.2-36.2-36.2s16.2-36.3 36.2-36.3h550c20 0 36.3 16.2 36.3 36.3 0 20-16.2 36.2-36.3 36.2h-550 0zm713.1 0c-20 0-36.2-16.2-36.2-36.2s16.2-36.3 36.2-36.3h444.5c20 0 36.2 16.2 36.2 36.3 0 20-16.2 36.2-36.2 36.2h-444.5zm-1614.8 154.6c-20 0-36.2-16.2-36.2-36.2s16.2-36.3 36.2-36.3h312.1c20 0 36.2 16.2 36.2 36.3 0 20-16.2 36.2-36.2 36.2h-312.1zm426.6 0c-20 0-36.3-16.2-36.3-36.2s16.2-36.3 36.3-36.3h344.1c20 0 36.3 16.2 36.3 36.3 0 20-16.2 36.2-36.3 36.2h-344.1 0zm775.8 0c-20 0-36.3-16.2-36.3-36.2s16.2-36.3 36.3-36.3h444.4c20 0 36.3 16.2 36.3 36.3 0 20-16.2 36.2-36.3 36.2h-444.4zm754.6 0c-20 0-36.3-16.2-36.3-36.2s16.2-36.3 36.3-36.3h444.5c20 0 36.3 16.2 36.3 36.3 0 20-16.2 36.2-36.3 36.2h-444.5zm-1957 154.6c-20 0-36.2-16.2-36.2-36.2s16.2-36.3 36.2-36.3h137.6c20 0 36.3 16.2 36.3 36.3 0 20-16.2 36.3-36.3 36.3l-137.6-.1zm460.5 0c-20 0-36.2-16.2-36.2-36.2s16.2-36.3 36.2-36.3h211c20 0 36.3 16.2 36.3 36.3 0 20-16.2 36.3-36.3 36.3l-211-.1h0zm510.1 0c-20 0-36.3-16.2-36.3-36.2s16.2-36.3 36.3-36.3h390.1c20 0 36.3 16.2 36.3 36.3 0 20-16.2 36.3-36.3 36.3l-390.1-.1zm596.3 0c-20 0-36.2-16.2-36.2-36.2s16.2-36.3 36.2-36.3h559.6c20 0 36.3 16.2 36.3 36.3 0 20-16.2 36.3-36.3 36.3l-559.6-.1zm-1566.9 154.8c-20 0-36.2-16.2-36.2-36.2s16.2-36.3 36.2-36.3h460.4c20 0 36.2 16.2 36.2 36.3 0 20-16.2 36.2-36.2 36.2h-460.4z"/><path fill="#c6f0ea" d="M1849.5 1468c8 13 12.6 28.3 12.6 44.6v27.9h-190.7c-20 0-36.3-16.2-36.3-36.3 0-20 16.2-36.2 36.3-36.2h178.1zm12.6 154.7v72.5h-190.7c-20 0-36.3-16.2-36.3-36.3 0-20 16.2-36.2 36.3-36.2h190.7zm0 154.6v72.5h-190.7c-20 0-36.3-16.2-36.3-36.3 0-20 16.2-36.2 36.3-36.2h190.7zm0 309.2v72.5h-142.7c-20 0-36.2-16.2-36.2-36.2s16.2-36.3 36.2-36.3h142.7zm0 464v72.5h-373c-20 0-36.2-16.2-36.2-36.2s16.2-36.3 36.2-36.3h373 0zm-373-391.4c-20 0-36.2-16.2-36.2-36.2s16.2-36.3 36.2-36.3h105.5c20 0 36.3 16.2 36.3 36.3 0 20-16.2 36.2-36.3 36.2h-105.5zm0 154.6c-20 0-36.2-16.2-36.2-36.2s16.2-36.3 36.2-36.3h312.1c20 0 36.2 16.2 36.2 36.3 0 20-16.2 36.2-36.2 36.2h-312.1zm0 154.6c-20 0-36.2-16.2-36.2-36.2s16.2-36.3 36.2-36.3h137.6c20 0 36.3 16.2 36.3 36.3 0 20-16.2 36.2-36.3 36.2h-137.6z"/><path fill="#fff" d="M1952.8 2004.4c-20 0-36.3-16.2-36.3-36.3 0-20 16.2-36.2 36.3-36.2h735.4c20 0 36.3 16.2 36.3 36.2s-16.2 36.3-36.3 36.3h-735.4 0zm-646.4 546.1c20 0 36.3 16.2 36.3 36.3s-16.2 36.2-36.3 36.2c-20 0-36.2-16.2-36.2-36.2s16.3-36.3 36.2-36.3zm0-1701.1c20 0 36.3 16.2 36.3 36.3 0 20-16.2 36.2-36.3 36.2-20 0-36.2-16.2-36.2-36.2 0-20.1 16.3-36.3 36.2-36.3zm0 154.6c20 0 36.3 16.2 36.3 36.3 0 20-16.2 36.3-36.3 36.3-20 0-36.2-16.2-36.2-36.3 0-20 16.3-36.3 36.2-36.3zm0 154.6c20 0 36.3 16.2 36.3 36.3 0 20-16.2 36.3-36.3 36.3-20 0-36.2-16.2-36.2-36.3 0-20 16.3-36.3 36.2-36.3zm0 154.8c20 0 36.3 16.2 36.3 36.3 0 20-16.2 36.3-36.3 36.3-20 0-36.2-16.2-36.2-36.3 0-20.2 16.3-36.3 36.2-36.3zm0 154.6c20 0 36.3 16.2 36.3 36.3s-16.2 36.3-36.3 36.3c-20 0-36.2-16.2-36.2-36.3s16.3-36.3 36.2-36.3zm0 154.7c20 0 36.3 16.2 36.3 36.2s-16.2 36.3-36.3 36.3c-20 0-36.2-16.2-36.2-36.3 0-20 16.3-36.2 36.2-36.2zm0 154.6c20 0 36.3 16.2 36.3 36.2s-16.2 36.3-36.3 36.3c-20 0-36.2-16.2-36.2-36.3 0-20 16.3-36.2 36.2-36.2zm0 154.6c20 0 36.3 16.2 36.3 36.2s-16.2 36.3-36.3 36.3c-20 0-36.2-16.2-36.2-36.3 0-20 16.3-36.2 36.2-36.2zm0 154.6c20 0 36.3 16.2 36.3 36.3 0 20-16.2 36.2-36.3 36.2-20 0-36.2-16.2-36.2-36.2s16.3-36.3 36.2-36.3zm0 154.7c20 0 36.3 16.2 36.3 36.3 0 20-16.2 36.2-36.3 36.2-20 0-36.2-16.2-36.2-36.2 0-20.1 16.3-36.3 36.2-36.3zm0 154.7c20 0 36.3 16.2 36.3 36.3 0 20-16.2 36.2-36.3 36.2-20 0-36.2-16.2-36.2-36.2 0-20.2 16.3-36.3 36.2-36.3zm182.7-1164.7c-20 0-36.2-16.2-36.2-36.3 0-20 16.2-36.3 36.2-36.3h522.8c20 0 36.3 16.2 36.3 36.3 0 20-16.2 36.3-36.3 36.3h-522.8zm703.5 0c-20 0-36.3-16.2-36.3-36.3 0-20 16.2-36.3 36.3-36.3h669.2c20 0 36.2 16.2 36.2 36.3 0 20-16.2 36.3-36.2 36.3h-669.2zm-703.5 773.2c-20 0-36.2-16.2-36.2-36.3 0-20 16.2-36.2 36.2-36.2h265.4c20 0 36.2 16.2 36.2 36.2s-16.2 36.3-36.2 36.3h-265.4z"/><path fill="#8ccbbf" d="M3011.3 921.9c-20 0-36.2-16.2-36.2-36.2s16.2-36.3 36.2-36.3H3654c20 0 36.3 16.2 36.3 36.3s-16.2 36.2-36.3 36.2h-642.7zm-1093.6 154.6c-20 0-36.3-16.2-36.3-36.2s16.2-36.3 36.3-36.3h460.4c20 0 36.3 16.2 36.3 36.3 0 20-16.2 36.3-36.3 36.3l-460.4-.1h0zm1226.2 309.3c-20 0-36.3-16.2-36.3-36.3s16.2-36.3 36.3-36.3H3598c20 0 36.3 16.2 36.3 36.3s-16.2 36.3-36.3 36.3h-454.1zm-647.5 309.4c-20 0-36.3-16.2-36.3-36.3 0-20 16.2-36.2 36.3-36.2h444.5c20 0 36.3 16.2 36.3 36.2s-16.2 36.3-36.3 36.3h-444.5zm1243.9 463.9c-20 0-36.2-16.2-36.2-36.2s16.2-36.3 36.2-36.3h354.9c20 0 36.3 16.2 36.3 36.3 0 20-16.2 36.2-36.3 36.2h-354.9 0zm-1520.5 464c-20 0-36.3-16.2-36.3-36.2s16.2-36.3 36.3-36.3h666.7c20 0 36.2 16.2 36.2 36.3a36.13 36.13 0 0 1-36.2 36.2h-666.7zm1595.6-154.8c-20 0-36.3-16.2-36.3-36.2s16.2-36.3 36.3-36.3h279.9c20 0 36.2 16.2 36.2 36.3 0 20-16.2 36.3-36.2 36.3l-279.9-.1h0z"/><path fill="#81bbb0" d="M1306.4 2550.5c20 0 36.3 16.2 36.3 36.3 0 20-16.2 36.2-36.3 36.2-20 0-36.2-16.2-36.2-36.2s16.3-36.3 36.2-36.3zm0-1082.5c20 0 36.3 16.2 36.3 36.2s-16.2 36.3-36.3 36.3c-20 0-36.2-16.2-36.2-36.3 0-19.9 16.3-36.2 36.2-36.2zm0 154.7c20 0 36.3 16.2 36.3 36.2s-16.2 36.3-36.3 36.3c-20 0-36.2-16.2-36.2-36.3 0-20 16.3-36.2 36.2-36.2zm0 154.6c20 0 36.3 16.2 36.3 36.2s-16.2 36.3-36.3 36.3c-20 0-36.2-16.2-36.2-36.3 0-20 16.3-36.2 36.2-36.2zm0 154.6c20 0 36.3 16.2 36.3 36.2s-16.2 36.3-36.3 36.3c-20 0-36.2-16.2-36.2-36.3 0-20 16.3-36.2 36.2-36.2zm0 154.6c20 0 36.3 16.2 36.3 36.3 0 20-16.2 36.2-36.3 36.2-20 0-36.2-16.2-36.2-36.2s16.3-36.3 36.2-36.3zm0 154.7c20 0 36.3 16.2 36.3 36.3 0 20-16.2 36.2-36.3 36.2-20 0-36.2-16.2-36.2-36.2 0-20.1 16.3-36.3 36.2-36.3zm0 154.7c20 0 36.3 16.2 36.3 36.3 0 20-16.2 36.2-36.3 36.2-20 0-36.2-16.2-36.2-36.2 0-20.2 16.3-36.3 36.2-36.3zm182.7-391.5c-20 0-36.2-16.2-36.2-36.3 0-20 16.2-36.2 36.2-36.2h265.4c20 0 36.2 16.2 36.2 36.2s-16.2 36.3-36.2 36.3h-265.4z"/><path fill="#88c4b8" d="M360.7 1307.4h1262.8c47 0 85.5 38.5 85.5 85.5v2153.8c0 47-38.5 85.5-85.5 85.5H360.7c-47 0-85.5-38.5-85.5-85.5V1393c0-47.1 38.5-85.6 85.5-85.6h0z"/><path fill="#9ce1d4" d="M360.7 1476.7h1262.8a3.37 3.37 0 0 1 3.4 3.4v1979.4a3.37 3.37 0 0 1-3.4 3.4H360.7a3.37 3.37 0 0 1-3.4-3.4V1480.2c0-1.9 1.6-3.5 3.4-3.5h0z"/><path d="M861.9 1371h260.5c12.5 0 22.8 10.2 22.8 22.8h0c0 12.6-10.2 22.8-22.8 22.8H861.9c-12.5 0-22.8-10.2-22.8-22.8h0c0-12.5 10.3-22.8 22.8-22.8h0zM876 3517.4h232.2c20.3 0 36.9 16.6 36.9 36.9h0c0 20.3-16.6 36.9-36.9 36.9H876c-20.3 0-36.9-16.6-36.9-36.9h0c0-20.3 16.6-36.9 36.9-36.9z" fill="#058a75"/><path fill="#ddfbf6" d="M599.8 1874.3c-16.5 0-29.9-13.4-29.9-29.9s13.4-29.9 29.9-29.9h190c16.5 0 29.9 13.4 29.9 29.9s-13.4 29.9-29.9 29.9h-190 0zm868.5 0c-16.5 0-29.9-13.4-29.9-29.9s13.4-29.9 29.9-29.9h40.9c16.5 0 29.9 13.4 29.9 29.9s-13.4 29.9-29.9 29.9h-40.9zm-868.5-127.6c-16.5 0-29.9-13.4-29.9-29.9s13.4-29.9 29.9-29.9H848c16.5 0 29.9 13.4 29.9 29.9s-13.4 29.9-29.9 29.9H599.8zm459.3 0c-16.5 0-29.9-13.4-29.9-29.9s13.4-29.9 29.9-29.9h386.5c16.5 0 29.9 13.4 29.9 29.9s-13.4 29.9-29.9 29.9h-386.5 0 0zm-308.8 382.9c-16.5 0-29.9-13.4-29.9-29.9s13.4-29.9 29.9-29.9h444.8c16.5 0 29.9 13.4 29.9 29.9s-13.4 29.9-29.9 29.9H750.3h0zm540.7 0c-16.5 0-29.9-13.4-29.9-29.9s13.4-29.9 29.9-29.9h187.4c16.5 0 29.9 13.4 29.9 29.9s-13.4 29.9-29.9 29.9H1291zm-540.7 127.7c-16.5 0-29.9-13.4-29.9-29.9s13.4-29.9 29.9-29.9H972c16.5 0 29.9 13.4 29.9 29.9s-13.4 29.9-29.9 29.9H750.3zm385.4 0c-16.5 0-29.9-13.4-29.9-29.9s13.4-29.9 29.9-29.9h360.1c16.5 0 29.9 13.4 29.9 29.9s-13.4 29.9-29.9 29.9h-360.1 0zM750.3 2385c-16.5 0-29.9-13.4-29.9-29.9s13.4-29.9 29.9-29.9H1236c16.5 0 29.9 13.4 29.9 29.9s-13.4 29.9-29.9 29.9H750.3h0zm0 127.6c-16.5 0-29.9-13.4-29.9-29.9s13.4-29.9 29.9-29.9h571.5c16.5 0 29.9 13.4 29.9 29.9s-13.4 29.9-29.9 29.9H750.3h0zm-150.5 255.3c-16.5 0-29.9-13.4-29.9-29.9s13.4-29.9 29.9-29.9h87.1c16.5 0 29.9 13.4 29.9 29.9s-13.4 29.9-29.9 29.9h-87.1zm190.1 0c-16.5 0-29.9-13.4-29.9-29.9s13.4-29.9 29.9-29.9h260.9c16.5 0 29.9 13.4 29.9 29.9s-13.4 29.9-29.9 29.9H789.9h0zm424.5 0c-16.5 0-29.9-13.4-29.9-29.9s13.4-29.9 29.9-29.9h266.5c16.5 0 29.9 13.4 29.9 29.9s-13.4 29.9-29.9 29.9h-266.5zm-614.6 127.7c-16.5 0-29.9-13.4-29.9-29.9s13.4-29.9 29.9-29.9h257.6c16.5 0 29.9 13.4 29.9 29.9s-13.4 29.9-29.9 29.9H599.8h0zm352.1 0c-16.5 0-29.9-13.4-29.9-29.9s13.4-29.9 29.9-29.9H1236c16.5 0 29.9 13.4 29.9 29.9s-13.4 29.9-29.9 29.9H951.9h0zm395.2 0c-16.5 0-29.9-13.4-29.9-29.9s13.4-29.9 29.9-29.9h96.8c16.5 0 29.9 13.4 29.9 29.9s-13.4 29.9-29.9 29.9h-96.8zm-747.3 127.6c-16.5 0-29.9-13.4-29.9-29.9s13.4-29.9 29.9-29.9h113.6c16.5 0 29.9 13.4 29.9 29.9s-13.4 29.9-29.9 29.9H599.8zm380.2 0c-16.5 0-29.9-13.4-29.9-29.9s13.4-29.9 29.9-29.9h174.2c16.5 0 29.9 13.4 29.9 29.9s-13.4 29.9-29.9 29.9H980zm421 0c-16.5 0-29.9-13.4-29.9-29.9s13.4-29.9 29.9-29.9h99.2c16.5 0 29.9 13.4 29.9 29.9s-13.4 29.9-29.9 29.9H1401zM599.8 3151c-16.5 0-29.9-13.4-29.9-29.9s13.4-29.9 29.9-29.9h380.1c16.5 0 29.9 13.4 29.9 29.9s-13.4 29.9-29.9 29.9H599.8h0z"/><path fill="#fff" d="M982.6 2640.3c-16.5 0-29.9-13.4-29.9-29.9s13.4-29.9 29.9-29.9h449.6c16.5 0 29.9 13.4 29.9 29.9s-13.4 29.9-29.9 29.9H982.6h0 0zM449 3091.1c16.5 0 29.9 13.4 29.9 29.9s-13.4 29.9-29.9 29.9-29.9-13.4-29.9-29.9 13.5-29.9 29.9-29.9zm0-1404.3c16.5 0 29.9 13.4 29.9 29.9s-13.4 29.9-29.9 29.9-29.9-13.4-29.9-29.9 13.5-29.9 29.9-29.9zm0 127.6c16.5 0 29.9 13.4 29.9 29.9s-13.4 29.9-29.9 29.9-29.9-13.4-29.9-29.9 13.5-29.9 29.9-29.9zm0 127.7c16.5 0 29.9 13.4 29.9 29.9s-13.4 29.9-29.9 29.9-29.9-13.4-29.9-29.9 13.5-29.9 29.9-29.9zm0 127.7c16.5 0 29.9 13.4 29.9 29.9s-13.4 29.9-29.9 29.9-29.9-13.4-29.9-29.9c0-16.6 13.5-29.9 29.9-29.9zm0 127.7c16.5 0 29.9 13.4 29.9 29.9s-13.4 29.9-29.9 29.9-29.9-13.4-29.9-29.9 13.5-29.9 29.9-29.9zm0 127.6c16.5 0 29.9 13.4 29.9 29.9s-13.4 30-29.9 30-29.9-13.4-29.9-29.9 13.5-30 29.9-30zm0 127.7c16.5 0 29.9 13.4 29.9 29.9s-13.4 29.9-29.9 29.9-29.9-13.4-29.9-29.9 13.5-29.9 29.9-29.9zm0 127.6c16.5 0 29.9 13.4 29.9 29.9s-13.4 29.9-29.9 29.9-29.9-13.4-29.9-29.9 13.5-29.9 29.9-29.9zm0 127.7c16.5 0 29.9 13.4 29.9 29.9s-13.4 29.9-29.9 29.9-29.9-13.4-29.9-29.9 13.5-29.9 29.9-29.9zm0 127.6c16.5 0 29.9 13.4 29.9 29.9s-13.4 29.9-29.9 29.9-29.9-13.4-29.9-29.9 13.5-29.9 29.9-29.9zm0 127.8c16.5 0 29.9 13.4 29.9 29.9s-13.4 29.9-29.9 29.9-29.9-13.4-29.9-29.9c0-16.6 13.5-29.9 29.9-29.9zm150.8-961.6c-16.5 0-29.9-13.4-29.9-29.9s13.4-29.9 29.9-29.9h431.6c16.5 0 29.9 13.4 29.9 29.9s-13.4 29.9-29.9 29.9H599.8zm580.7 0c-16.5 0-29.9-13.4-29.9-29.9s13.4-29.9 29.9-29.9h304.9c16.5 0 29.9 13.4 29.9 29.9s-13.4 29.9-29.9 29.9h-304.9zm-580.7 638.4c-16.5 0-29.9-13.4-29.9-29.9s13.4-29.9 29.9-29.9h219.1c16.5 0 29.9 13.4 29.9 29.9s-13.4 29.9-29.9 29.9H599.8z"/><path fill="#8ccbbf" d="M953.6 1874.3c-16.5 0-29.9-13.4-29.9-29.9s13.4-29.9 29.9-29.9h380.1c16.5 0 29.9 13.4 29.9 29.9s-13.4 29.9-29.9 29.9H953.6h0 0zm424.1 510.7c-16.5 0-29.9-13.4-29.9-29.9s13.4-29.9 29.9-29.9h92.4c16.5 0 29.9 13.4 29.9 29.9s-13.4 29.9-29.9 29.9h-92.4zM1203 3151c-16.5 0-29.9-13.4-29.9-29.9s13.4-29.9 29.9-29.9h239.8c16.5 0 29.9 13.4 29.9 29.9s-13.4 29.9-29.9 29.9H1203h0z"/><path fill="#88c4b8" d="M3839.1 1676.2h873.5c39.6 0 72 32.4 72 72v1812.2c0 39.6-32.4 72-72 72h-873.5c-39.6 0-72-32.4-72-72V1748.2c.1-39.6 32.4-72 72-72z"/><path fill="#9ce1d4" d="M3839.7 1818.7H4712a3.37 3.37 0 0 1 3.4 3.4v1664.3a3.37 3.37 0 0 1-3.4 3.4h-872.4a3.37 3.37 0 0 1-3.4-3.4V1822.1c0-1.9 1.6-3.4 3.5-3.4h0z"/><path d="M4166.3 1729.7h219.2c10.6 0 19.2 8.6 19.2 19.2h0c0 10.6-8.6 19.2-19.2 19.2h-219.2c-10.6 0-19.2-8.6-19.2-19.2h0c0-10.6 8.6-19.2 19.2-19.2zm11.8 1806h195.4c17.1 0 31.1 14 31.1 31h0c0 17.1-14 31.1-31.1 31.1h-195.4c-17.1 0-31.1-14-31.1-31.1h0c.1-17.1 14.1-31 31.1-31z" fill="#058a75"/><path fill="#ddfbf6" d="M4035.5 2153.2c-13.9 0-25.2-11.3-25.2-25.2s11.3-25.2 25.2-25.2h159.9c13.9 0 25.2 11.3 25.2 25.2s-11.3 25.2-25.2 25.2h-159.9zm501.2 0c-13.9 0-25.2-11.3-25.2-25.2s11.3-25.2 25.2-25.2h34.4c13.9 0 25.2 11.3 25.2 25.2s-11.3 25.2-25.2 25.2h-34.4zm-501.2-107.5c-13.9 0-25.2-11.3-25.2-25.2s11.3-25.2 25.2-25.2h104.4c13.9 0 25.2 11.3 25.2 25.2s-11.3 25.2-25.2 25.2h-104.4zm282.1 0c-13.9 0-25.2-11.3-25.2-25.2s11.3-25.2 25.2-25.2h325.2c13.9 0 25.2 11.3 25.2 25.2s-11.3 25.2-25.2 25.2h-325.2 0zM4162.2 2368c-13.9 0-25.2-11.3-25.2-25.2s11.3-25.2 25.2-25.2h232.5c13.9 0 25.2 11.3 25.2 25.2s-11.3 25.2-25.2 25.2h-232.5 0zm313.1 0c-13.9 0-25.2-11.3-25.2-25.2s11.3-25.2 25.2-25.2H4633c13.9 0 25.2 11.3 25.2 25.2s-11.3 25.2-25.2 25.2h-157.7zm-313.1 107.4c-13.9 0-25.2-11.3-25.2-25.2s11.3-25.2 25.2-25.2h186.5c13.9 0 25.2 11.3 25.2 25.2s-11.3 25.2-25.2 25.2h-186.5zm324.2 0c-13.9 0-25.2-11.3-25.2-25.2s11.3-25.2 25.2-25.2h64.4c13.9 0 25.2 11.3 25.2 25.2s-11.3 25.2-25.2 25.2h-64.4zm-324.2 107.4c-13.9 0-25.2-11.3-25.2-25.2s11.3-25.2 25.2-25.2h253.4c13.9 0 25.2 11.3 25.2 25.2s-11.3 25.2-25.2 25.2h-253.4zm0 107.4c-13.9 0-25.2-11.3-25.2-25.2s11.3-25.2 25.2-25.2h480.9c13.9 0 25.2 11.3 25.2 25.2s-11.3 25.2-25.2 25.2h-480.9zM4035.5 2905c-13.9 0-25.2-11.3-25.2-25.2s11.3-25.2 25.2-25.2h73.3c13.9 0 25.2 11.3 25.2 25.2s-11.3 25.2-25.2 25.2h-73.3zm160 0c-13.9 0-25.2-11.3-25.2-25.2s11.3-25.2 25.2-25.2h75.4c13.9 0 25.2 11.3 25.2 25.2s-11.3 25.2-25.2 25.2h-75.4zm213.1 0c-13.9 0-25.2-11.3-25.2-25.2s11.3-25.2 25.2-25.2h224.3c13.9 0 25.2 11.3 25.2 25.2s-11.3 25.2-25.2 25.2h-224.3zm-373.1 107.4c-13.9 0-25.2-11.3-25.2-25.2s11.3-25.2 25.2-25.2h216.8c13.9 0 25.2 11.3 25.2 25.2s-11.3 25.2-25.2 25.2h-216.8zm296.3 0c-13.9 0-25.2-11.3-25.2-25.2s11.3-25.2 25.2-25.2h119.5c13.9 0 25.2 11.3 25.2 25.2s-11.3 25.2-25.2 25.2h-119.5 0zm212.9 0c-13.9 0-25.2-11.3-25.2-25.2s11.3-25.2 25.2-25.2h81.4c13.9 0 25.2 11.3 25.2 25.2s-11.3 25.2-25.2 25.2h-81.4zm-509.2 107.4c-13.9 0-25.2-11.3-25.2-25.2s11.3-25.2 25.2-25.2h95.5c13.9 0 25.2 11.3 25.2 25.2s-11.3 25.2-25.2 25.2h-95.5zm218 0c-13.9 0-25.2-11.3-25.2-25.2s11.3-25.2 25.2-25.2H4400c13.9 0 25.2 11.3 25.2 25.2s-11.3 25.2-25.2 25.2h-146.5zm269 0c-13.9 0-25.2-11.3-25.2-25.2s11.3-25.2 25.2-25.2h83.5c13.9 0 25.2 11.3 25.2 25.2s-11.3 25.2-25.2 25.2h-83.5zm-487 107.5c-13.9 0-25.2-11.3-25.2-25.2s11.3-25.2 25.2-25.2h225.3c13.9 0 25.2 11.3 25.2 25.2s-11.3 25.2-25.2 25.2h-225.3z"/><path fill="#fff" d="M4357.6 2797.6c-13.9 0-25.2-11.3-25.2-25.2s11.3-25.2 25.2-25.2h214c13.9 0 25.2 11.3 25.2 25.2s-11.3 25.2-25.2 25.2h-214 0zM3908.7 3177c13.9 0 25.2 11.3 25.2 25.2s-11.3 25.2-25.2 25.2-25.2-11.3-25.2-25.2c0-14 11.3-25.2 25.2-25.2zm0-1181.6c13.9 0 25.2 11.3 25.2 25.2s-11.3 25.2-25.2 25.2-25.2-11.3-25.2-25.2c0-14 11.3-25.2 25.2-25.2zm0 107.4c13.9 0 25.2 11.3 25.2 25.2s-11.3 25.2-25.2 25.2-25.2-11.3-25.2-25.2 11.3-25.2 25.2-25.2zm0 107.4c13.9 0 25.2 11.3 25.2 25.2s-11.3 25.2-25.2 25.2-25.2-11.3-25.2-25.2 11.3-25.2 25.2-25.2zm0 107.5c13.9 0 25.2 11.3 25.2 25.2s-11.3 25.2-25.2 25.2-25.2-11.3-25.2-25.2c0-14 11.3-25.2 25.2-25.2zm0 107.4c13.9 0 25.2 11.3 25.2 25.2s-11.3 25.2-25.2 25.2-25.2-11.3-25.2-25.2c0-14 11.3-25.2 25.2-25.2zm0 107.4c13.9 0 25.2 11.3 25.2 25.2s-11.3 25.2-25.2 25.2-25.2-11.3-25.2-25.2c0-14 11.3-25.2 25.2-25.2zm0 107.4c13.9 0 25.2 11.3 25.2 25.2s-11.3 25.2-25.2 25.2-25.2-11.3-25.2-25.2c0-14 11.3-25.2 25.2-25.2zm0 107.4c13.9 0 25.2 11.3 25.2 25.2s-11.3 25.2-25.2 25.2-25.2-11.3-25.2-25.2c0-14 11.3-25.2 25.2-25.2zm0 107.4c13.9 0 25.2 11.3 25.2 25.2s-11.3 25.2-25.2 25.2-25.2-11.3-25.2-25.2c0-14 11.3-25.2 25.2-25.2zm0 107.4c13.9 0 25.2 11.3 25.2 25.2s-11.3 25.2-25.2 25.2-25.2-11.3-25.2-25.2 11.3-25.2 25.2-25.2h0zm0 107.4c13.9 0 25.2 11.3 25.2 25.2s-11.3 25.2-25.2 25.2-25.2-11.3-25.2-25.2c0-14 11.3-25.2 25.2-25.2zm126.8-808.9c-13.9 0-25.2-11.3-25.2-25.2s11.3-25.2 25.2-25.2h284.4c13.9 0 25.2 11.3 25.2 25.2s-11.3 25.2-25.2 25.2h-284.4zm409.9 0c-13.9 0-25.2-11.3-25.2-25.2s11.3-25.2 25.2-25.2h83.6c13.9 0 25.2 11.3 25.2 25.2s-11.3 25.2-25.2 25.2h-83.6zm-409.9 537c-13.9 0-25.2-11.3-25.2-25.2s11.3-25.2 25.2-25.2h184.4c13.9 0 25.2 11.3 25.2 25.2s-11.3 25.2-25.2 25.2h-184.4z"/><path fill="#8ccbbf" d="M4333.2 2153.2c-13.9 0-25.2-11.3-25.2-25.2s11.3-25.2 25.2-25.2h112.7c13.9 0 25.2 11.3 25.2 25.2s-11.3 25.2-25.2 25.2h-112.7 0zm196.8 429.6c-13.9 0-25.2-11.3-25.2-25.2s11.3-25.2 25.2-25.2h77.7c13.9 0 25.2 11.3 25.2 25.2s-11.3 25.2-25.2 25.2H4530zm-155.8 644.5c-13.9 0-25.2-11.3-25.2-25.2s11.3-25.2 25.2-25.2H4576c13.9 0 25.2 11.3 25.2 25.2s-11.3 25.2-25.2 25.2h-201.8z"/><path fill="#fff" d="M673.5 806.8c14.5 0 26.3 11.8 26.3 26.3s-11.8 26.3-26.3 26.3-26.3-11.8-26.3-26.3c.1-14.6 11.8-26.3 26.3-26.3zm3706 386.8c41.7 0 75.5 33.8 75.5 75.5s-33.8 75.4-75.5 75.4-75.4-33.8-75.4-75.4c0-41.8 33.8-75.5 75.4-75.5zM2849 244.4c24 0 43.4 19.4 43.4 43.5 0 24-19.4 43.4-43.4 43.4s-43.4-19.4-43.4-43.4 19.4-43.5 43.4-43.5zM4933.8 2760c61.9 0 112 50.2 112 112 0 61.9-50.2 112-112 112-61.9 0-112-50.2-112-112-.1-61.8 50.1-112 112-112zm-1488 634.7c29 0 52.5 23.5 52.5 52.5s-23.5 52.5-52.5 52.5-52.5-23.5-52.5-52.5c0-28.9 23.5-52.5 52.5-52.5zm-2189.6-888.9a31.97 31.97 0 1 1 0 64 31.97 31.97 0 1 1 0-64zm680.8 822.7c63.1 0 114.3 51.2 114.3 114.3s-51.2 114.3-114.3 114.3-114.3-51.2-114.3-114.3 51.2-114.3 114.3-114.3zM315.6 1952.2c53.2 0 96.3 43.1 96.3 96.3s-43.1 96.3-96.3 96.3-96.3-43.1-96.3-96.3 43.1-96.3 96.3-96.3z"/><path fill="#d8f1e4" d="M4289.8 325.8c15.3 0 27.9 12.6 27.9 27.9v382.4c0 15.3-12.6 27.9-27.9 27.9h-632.2c-15.4 0-27.9-12.6-27.9-27.9V353.7c0-15.4 12.6-27.9 27.9-27.9h632.2 0z"/><path fill="#a1c9b4" d="M3657.7 325.8c-15.4 0-27.9 12.6-27.9 27.9V415h688v-61.3c0-15.4-12.6-27.9-27.9-27.9h-632.2 0z"/><path fill="#fff" d="M4152.1 352.4h35.4c23.8 0 23.8 35.9 0 35.9h-35.4c-23.7 0-23.7-35.9 0-35.9zm81.2 0h35.4c23.8 0 23.8 35.9 0 35.9h-35.4c-23.8 0-23.8-35.9 0-35.9zm-160.6 0h35.5c23.8 0 23.8 35.9 0 35.9h-35.5c-23.8 0-23.8-35.9 0-35.9z"/><path fill="#a1c9b4" d="M3896.7 654.3h154c19 0 34.4 15.4 34.4 34.4h0c0 19-15.4 34.4-34.4 34.4h-154c-19 0-34.4-15.4-34.4-34.4h0c0-19 15.4-34.4 34.4-34.4z"/><path fill="#fff" d="M2759.4 2350.2h1233.4c11.1 0 20.1 19.3 20.1 43.2V3272c0 23.8-9 43.2-20.1 43.2H2759.4c-11.1 0-20.1-19.3-20.1-43.2v-878.6c0-23.9 9-43.2 20.1-43.2z"/><path fill="#d8f1e4" d="M3501.6 2776.8h88.1c13.6 0 24.7 11.1 24.7 24.7v44.7c0 13.6-11.1 24.7-24.7 24.7h-88.1c-13.6 0-24.7-11.1-24.7-24.7v-44.7c.1-13.6 11.2-24.7 24.7-24.7zm-508.6 0h88.1c13.6 0 24.7 11.1 24.7 24.7v44.7c0 13.6-11.1 24.7-24.7 24.7H2993c-13.6 0-24.7-11.1-24.7-24.7v-44.7c0-13.6 11.1-24.7 24.7-24.7zm169.5-131.2h88.1c13.6 0 24.7 11.1 24.7 24.7v44.7c0 13.6-11.1 24.7-24.7 24.7h-88.1c-13.6 0-24.7-11.1-24.7-24.7v-44.7c.1-13.7 11.1-24.7 24.7-24.7zm169.6 0h88.1c13.6 0 24.7 11.1 24.7 24.7v44.7c0 13.6-11.1 24.7-24.7 24.7h-88.1c-13.6 0-24.7-11.1-24.7-24.7v-44.7c0-13.7 11.1-24.7 24.7-24.7zm169.5 0h88.1c13.6 0 24.7 11.1 24.7 24.7v44.7c0 13.6-11.1 24.7-24.7 24.7h-88.1c-13.6 0-24.7-11.1-24.7-24.7v-44.7c.1-13.7 11.2-24.7 24.7-24.7zM2993 2908.1h88.1c13.6 0 24.7 11.1 24.7 24.7v44.7c0 13.6-11.1 24.7-24.7 24.7H2993c-13.6 0-24.7-11.1-24.7-24.7v-44.7c0-13.6 11.1-24.7 24.7-24.7h0zm0 131.2h88.1c13.6 0 24.7 11.1 24.7 24.7v44.7c0 13.6-11.1 24.7-24.7 24.7H2993c-13.6 0-24.7-11.1-24.7-24.7V3064c0-13.6 11.1-24.7 24.7-24.7zm0 131.3h88.1c13.6 0 24.7 11.1 24.7 24.7v44.7c0 13.6-11.1 24.7-24.7 24.7H2993c-13.6 0-24.7-11.1-24.7-24.7v-44.7c0-13.6 11.1-24.7 24.7-24.7zm-169.6 0h88.2c13.6 0 24.7 11.1 24.7 24.7v44.7c0 13.6-11.1 24.7-24.7 24.7h-88.2c-13.6 0-24.7-11.1-24.7-24.7v-44.7c0-13.6 11.1-24.7 24.7-24.7zm339.1 0h88.1c13.6 0 24.7 11.1 24.7 24.7v44.7c0 13.6-11.1 24.7-24.7 24.7h-88.1c-13.6 0-24.7-11.1-24.7-24.7v-44.7c.1-13.6 11.1-24.7 24.7-24.7zm169.6 0h88.1c13.6 0 24.7 11.1 24.7 24.7v44.7c0 13.6-11.1 24.7-24.7 24.7h-88.1c-13.6 0-24.7-11.1-24.7-24.7v-44.7c0-13.6 11.1-24.7 24.7-24.7zm-508.7-131.3h88.2c13.6 0 24.7 11.1 24.7 24.7v44.7c0 13.6-11.1 24.7-24.7 24.7h-88.2c-13.6 0-24.7-11.1-24.7-24.7V3064c0-13.6 11.1-24.7 24.7-24.7zm339.1 0h88.1c13.6 0 24.7 11.1 24.7 24.7v44.7c0 13.6-11.1 24.7-24.7 24.7h-88.1c-13.6 0-24.7-11.1-24.7-24.7V3064c.1-13.6 11.1-24.7 24.7-24.7zm169.6 0h88.1c13.6 0 24.7 11.1 24.7 24.7v44.7c0 13.6-11.1 24.7-24.7 24.7h-88.1c-13.6 0-24.7-11.1-24.7-24.7V3064c0-13.6 11.1-24.7 24.7-24.7zm169.5 0h88.1c13.6 0 24.7 11.1 24.7 24.7v44.7c0 13.6-11.1 24.7-24.7 24.7h-88.1c-13.6 0-24.7-11.1-24.7-24.7V3064c.1-13.6 11.2-24.7 24.7-24.7zm-678.2-131.2h88.2c13.6 0 24.7 11.1 24.7 24.7v44.7c0 13.6-11.1 24.7-24.7 24.7h-88.2c-13.6 0-24.7-11.1-24.7-24.7v-44.7c0-13.6 11.1-24.7 24.7-24.7zm339.1 0h88.1c13.6 0 24.7 11.1 24.7 24.7v44.7c0 13.6-11.1 24.7-24.7 24.7h-88.1c-13.6 0-24.7-11.1-24.7-24.7v-44.7c.1-13.6 11.1-24.7 24.7-24.7zm169.6 0h88.1c13.6 0 24.7 11.1 24.7 24.7v44.7c0 13.6-11.1 24.7-24.7 24.7h-88.1c-13.6 0-24.7-11.1-24.7-24.7v-44.7c0-13.6 11.1-24.7 24.7-24.7zm169.5 0h88.1c13.6 0 24.7 11.1 24.7 24.7v44.7c0 13.6-11.1 24.7-24.7 24.7h-88.1c-13.6 0-24.7-11.1-24.7-24.7v-44.7c.1-13.6 11.2-24.7 24.7-24.7zm-678.2-131.3h88.2c13.6 0 24.7 11.1 24.7 24.7v44.7c0 13.6-11.1 24.7-24.7 24.7h-88.2c-13.6 0-24.7-11.1-24.7-24.7v-44.7c0-13.6 11.1-24.7 24.7-24.7zm339.1 0h88.1c13.6 0 24.7 11.1 24.7 24.7v44.7c0 13.6-11.1 24.7-24.7 24.7h-88.1c-13.6 0-24.7-11.1-24.7-24.7v-44.7c.1-13.6 11.1-24.7 24.7-24.7zm169.6 0h88.1c13.6 0 24.7 11.1 24.7 24.7v44.7c0 13.6-11.1 24.7-24.7 24.7h-88.1c-13.6 0-24.7-11.1-24.7-24.7v-44.7c0-13.6 11.1-24.7 24.7-24.7z"/><path d="M3840.8 2908.1h88.2c13.6 0 24.7 11.1 24.7 24.7v44.7c0 13.6-11.1 24.7-24.7 24.7h-88.2c-13.6 0-24.7-11.1-24.7-24.7v-44.7c0-13.6 11.1-24.7 24.7-24.7h0zm0 131.2h88.2c13.6 0 24.7 11.1 24.7 24.7v44.7c0 13.6-11.1 24.7-24.7 24.7h-88.2c-13.6 0-24.7-11.1-24.7-24.7V3064c0-13.6 11.1-24.7 24.7-24.7zm-169.6 0h88.1c13.6 0 24.7 11.1 24.7 24.7v44.7c0 13.6-11.1 24.7-24.7 24.7h-88.1c-13.6 0-24.7-11.1-24.7-24.7V3064c0-13.6 11.1-24.7 24.7-24.7zm0-131.2h88.1c13.6 0 24.7 11.1 24.7 24.7v44.7c0 13.6-11.1 24.7-24.7 24.7h-88.1c-13.6 0-24.7-11.1-24.7-24.7v-44.7c0-13.6 11.1-24.7 24.7-24.7zm0-131.3h88.1c13.6 0 24.7 11.1 24.7 24.7v44.7c0 13.6-11.1 24.7-24.7 24.7h-88.1c-13.6 0-24.7-11.1-24.7-24.7v-44.7c0-13.6 11.1-24.7 24.7-24.7zm0-131.2h88.1c13.6 0 24.7 11.1 24.7 24.7v44.7c0 13.6-11.1 24.7-24.7 24.7h-88.1c-13.6 0-24.7-11.1-24.7-24.7v-44.7c0-13.7 11.1-24.7 24.7-24.7zm169.6 0h88.2c13.6 0 24.7 11.1 24.7 24.7v44.7c0 13.6-11.1 24.7-24.7 24.7h-88.2c-13.6 0-24.7-11.1-24.7-24.7v-44.7c0-13.7 11.1-24.7 24.7-24.7zm0 131.2h88.2c13.6 0 24.7 11.1 24.7 24.7v44.7c0 13.6-11.1 24.7-24.7 24.7h-88.2c-13.6 0-24.7-11.1-24.7-24.7v-44.7c0-13.6 11.1-24.7 24.7-24.7zm-1005.6-372.4h1082c20 0 36.4 16.4 36.4 36.4v84.2c0 20-16.4 36.4-36.4 36.4h-1082c-20 0-36.4-16.4-36.4-36.4v-84.2c-.1-20 16.3-36.4 36.4-36.4z" fill="#a1c9b4"/><path fill="#7ba28d" d="M3155 2428.2h442.3c14.4 0 26.3 11.8 26.3 26.3v20c0 14.4-11.8 26.3-26.3 26.3H3155c-14.4 0-26.3-11.8-26.3-26.3v-20c0-14.4 11.8-26.3 26.3-26.3z"/><path fill="#d8f1e4" d="M2871 2585.2h1010.2a7.92 7.92 0 0 1 7.9 7.9h0a7.92 7.92 0 0 1-7.9 7.9H2871a7.92 7.92 0 0 1-7.9-7.9h0c.1-4.4 3.6-7.9 7.9-7.9z"/><path fill="#445452" d="M2426.6 1250.5l-30.3 13.6c-61.2 27.5-112.3 73.2-146.5 131.1-37.6 63.6-77.9 125.5-120.7 185.7l-189.1-25.1a79.71 79.71 0 0 0-65.3 21c-17.5 16.5-26.7 40-25 63.9 4.8 66.4 47.2 124.1 109.2 148.4 58.7 23.1 118.6 43.3 179.2 60.4 56.8 16 117.4-5.5 151.5-53.5 112.1-158.3 161-352.9 137-545.5h0z"/><path fill="#153a27" d="M2266.9 1950.5l56.1 678.6c4.9 59.5 12.8 118.7 23.6 177.3 37.4 202.4 51.2 408.7 41.3 614.5-.7 13.1-4.7 25.8-11.8 36.7-20.9 32.1-26.3 72.5-14.8 109.4l333.4 65 5.9-65c3.3-35.7.2-71.7-8.9-106.3-15.2-57.8-22.1-117.5-20.7-177.3 5.2-208.5-25.3-337.1-102.5-529.7l-53.8-736-247.8-67.2h0z"/><path fill="#2d4137" d="M2731 1987.1l51.7 254.8c39.9 153.5 128.7 416.8 199.8 558.6 108.6 216.7 152.5 333.2 195.7 571.7 5.2 28.6 17.4 55.4 35.4 78.2 41.1 51.8 48 122.9 17.7 181.7h-352.6c-1.8-41.6-3.2-79.4 1.5-121.2 1.9-16.9-.1-34.2-5.9-50.2-87.6-243.5-134.8-388.2-161.5-645.5-5-48.4-16.1-96-33-141.6l-173.4-473.4-21.8-8.5c-96.2-31.6-174.1-103-213.8-196.1l460.2-8.5z"/><ellipse transform="matrix(.842 -.5395 .5395 .842 -161.1187 1495.1763)" fill="#ee212a" cx="2471.9" cy="1022.6" rx="23.4" ry="47.4"/><path fill="#fa555c" d="M2509.3 1220.6c-7.6 53.1 20.8 78.9 66.9 78.9s75.3-48.8 109-104.6c-14.2-25.4-24.9-88.6-12.5-127.8l13.2-42.1-119.2 67.1c10.7 16.8 14 37.4 9 56.7s-8.2 36.7-25.7 46.2l-40.7 25.6h0z"/><path fill="#ee212a" d="M2577.3 1121.1c1.2 9.1.8 18.5-1.6 27.7-5 19.3-8.2 36.7-25.7 46.2l-3.4 2.2c8.5 6.6 20.8 9.4 34.3 6.8 25.9-5 46.9-27.7 46.9-50.8 0-23.2-21-37.8-46.9-32.9-1.2.3-2.5.5-3.6.8h0z"/><path fill="#fa555c" d="M2588.6 1177.1c-95.5 0-159.4-173.5-119.6-260.4 33.3-72.5 205.9-72.5 239.2 0 39.8 86.8-24.1 260.4-119.6 260.4z"/><path fill="#fff" d="M2576.2 1139.2c-19.5 0-35.3-16-42.1-33.8h84.3c-6.9 17.8-22.7 33.8-42.2 33.8h0z"/><path fill="#1b2d38" d="M2457.8 999l-13.9-45.5c-5.7-18.6-13.1-36.8-22.1-54.1-12.2-23.2-6.7-51.7 13.2-68.6 9.8-8.3 21.5-14.1 34-16.6l25-40.2c13.3-21.5 34.1-37.2 58.3-44.4 27.7-8.2 57.3-6.5 83.8 4.9 63.9 27.3 110.4 84.3 124.1 152.5l6.9 13.2c6.5 12.4 8.9 26.5 6.9 40.2-10.7 74-47.8 141.8-104.7 190.6l24.5-39.7c8.2-21.9 17.8-42.6 18.4-66l-31.8 1.9 27.4-90.2c-30.9 19-108.9 17.6-129.8 16.2s-61.8-20.2-94.5-43.3c-14.1 24.9-22 56.2-25.7 89.1h0z"/><path fill="#273a47" d="M2484 789.9l9.9-15.9c13.3-21.5 34.1-37.2 58.3-44.4 27.7-8.2 57.3-6.5 83.8 4.9 43.8 18.6 79.5 51.3 102 92.1-19.3 34.2-66.8 58.3-122.3 58.3-72.7 0-131.6-41.3-131.6-92.4-.1-.9-.1-1.7-.1-2.6h0z"/><ellipse transform="matrix(.5395 -.842 .842 .5395 393.5141 2769.7561)" fill="#f66" cx="2728.9" cy="1025.1" rx="47.4" ry="23.4"/><path d="M2534.7 1001.9l-34.2-4.3c-4.4-.6-8.5 1.8-11.1 6.5l-4.2-8.1c2.6-8.7 8.4-14.2 15.3-14.4l31.5-.7 2.7 21h0zm55.2 0l34.2-4.3c4.4-.6 8.5 1.8 11.1 6.5l4.2-8.1c-2.6-8.7-8.4-14.2-15.3-14.4l-31.6-.7-2.6 21h0z" fill="#333"/><path fill="#ee212a" d="M2560.5 1085.6c-9.9 0-14.4-7-14.4-2.7s7.9 19.1 17.8 19.1 17.8-14.8 17.8-19.1c0-4.4-11.3 2.7-21.2 2.7z"/><path fill="#fff" d="M2618.3 969.2c-14.5 0-27.7 5.9-37.2 15.4-3.1 3.1-5.8 6.5-7.9 10.2h-22.9c-2-3.6-4.4-7.2-7.2-10.1-8.7-9.7-20.8-15.6-34.1-15.6s-25.3 5.9-34.1 15.6c-8.6 9.5-14 22.7-14 37.1s5.3 27.6 14 37.1c8.7 9.7 20.8 15.6 34.1 15.6s25.3-5.9 34.1-15.6c8.6-9.5 14-22.7 14-37.1 0-7.3-1.4-14.2-3.7-20.4h16.6a53.06 53.06 0 0 0-4.1 20.4c0 14.5 5.9 27.7 15.4 37.2s22.7 15.4 37.2 15.4 27.7-5.9 37.2-15.4 15.4-22.7 15.4-37.2-5.9-27.7-15.4-37.2c-9.6-9.5-22.7-15.4-37.4-15.4h0zm-138.5 20c7.5-8.3 17.8-13.4 29.2-13.4s21.7 5.1 29.2 13.4c7.6 8.4 12.3 20 12.3 32.8s-4.7 24.4-12.3 32.8c-7.5 8.3-17.8 13.4-29.2 13.4s-21.7-5.1-29.2-13.4c-7.6-8.4-12.3-20-12.3-32.8s4.7-24.4 12.3-32.8zm105.9.1c8.4-8.4 19.9-13.5 32.7-13.5 12.7 0 24.3 5.2 32.6 13.5s13.5 19.9 13.5 32.6-5.2 24.3-13.5 32.7a45.87 45.87 0 0 1-32.6 13.5c-12.7 0-24.3-5.1-32.7-13.5s-13.5-19.9-13.5-32.7 5.1-24.2 13.5-32.6z"/><path fill="#516462" d="M2550.1 1195.1l-153.8 69.2-44.4 91.4c-30.7 63-50.6 130.6-59.3 200.1-16.2 130.8-35.7 277-58.4 413.3-10.9 65.8 28.6 128.4 92.7 146.8 109.6 31.5 239.6 8.4 355.4-30.8 50-16.9 77.8-70 63.3-120.6l-21-73.4 69.3-108c52.9-82.4 95.3-171.3 125.9-264.3 31.3-95.1-6.4-199.2-91.4-251.9l-143.2-71.7c-138.6 93.2-187.2 49.1-135.1-.1h0z"/><path fill="#445452" d="M2380.6 2126.7c96.9 12.7 204.3-8.9 301.7-41.8 50-16.9 77.8-70 63.3-120.6l-21-73.4 69.3-108 8.9-14-26-308.5-35.9 71.8c-41.6 82.9-119.7 141.5-210.9 158.1l-176.9 58.4 79.5 56.9c58.3 41.7 86.5 113.7 72.3 183.9-13.3 65.2-61.3 117.7-124.3 137.2h0z"/><g fill="#333"><ellipse cx="2518.1" cy="1024.3" rx="11.8" ry="17.4"/><ellipse cx="2613.2" cy="1024.3" rx="16.2" ry="17.4"/></g><path fill="#153a27" d="M2414 3465.9c-63.7 46.7-114.4 76.8-194.8 90.5-9.2 1.6-17.3 7-22 15-4.8 7.9-5.9 17.7-3 26.6 5 15.3 16.5 27.7 31.3 34h469.2L2414 3465.9h0z"/><path fill="#2d4137" d="M3054.2 3465.9c63.7 46.7 114.4 76.8 194.8 90.5 9.2 1.6 17.3 7 22 15 4.8 7.9 5.9 17.7 3 26.6-5 15.3-16.5 27.7-31.3 34H3040l14.2-166.1h0z"/><path fill="#f04141" d="M1889.8 1582l-10.9 3.6c-11.7 3.9-24.5 3-35.5-2.7-13.6-6.9-29.5-7.8-43.8-2.4-4.4 1.7-7.6 5.6-8.5 10.2s.7 9.4 4.1 12.7c7.8 7.3 17.4 12.4 27.8 14.8a62.62 62.62 0 0 0 12.2 1.5c15.7.2 30.4 7.8 39.7 20.4l26.2-20.6-11.3-37.5h0z"/><path fill="#c9625e" d="M3538 3107.2L1851.3 1606.7c-56.3-50.1-126.3-69.3-200.3-54.9-71.2 13.9-145.9-3.3-204.4-48.6-106.1-82.2-189.6-190-243.1-313.1-15.9-36.6 23.4-69 59.1-51.1l248.1 124.5c78.7 39.5 238.6-266.1 124.2-325.2l-228.1-118c-25.7-13.3-22.1-51.3 5.5-59.7 136.5-41.2 283.6-27.9 410.5 37.1 70.2 36 122.8 98.7 145.9 174 12.5 40.7 19.2 81.8 20.4 122.4 2 66.7 28.5 123.3 78.4 167.7l1686.7 1500.5c56.3 50.2 126.3 69.3 200.3 54.9 71.2-13.9 145.9 3.3 204.4 48.6 106.1 82.3 189.6 190 243.1 313.2 15.9 36.6-23.4 69-59.1 51.1l-248.1-124.5c-78.7-39.5-238.6 266.1-124.2 325.2l228.1 118c25.7 13.3 22.1 51.3-5.5 59.6-136.5 41.2-283.7 27.9-410.5-37.1-70.2-36-122.8-98.7-145.9-174-12.5-40.7-19.2-81.8-20.4-122.4-2-66.7-28.5-123.4-78.4-167.7h0z"/><path d="M3970.6 3430.9l228.1 118c25.7 13.3 22.1 51.3-5.5 59.6-136.5 41.2-283.7 27.9-410.5-37.1-70.2-36-122.8-98.7-145.9-174-71.3-231.6 47.9-478.9 273.5-567.2 83.4-32.7 177.7-19.1 248.5 35.8 106.1 82.3 189.6 190 243.1 313.2 15.9 36.6-23.4 69-59.1 51.1l-248-124.6c-78.5-39.6-238.6 266-124.2 325.2h0zM1634.9 938.3l-228.1-118c-25.7-13.3-22.1-51.3 5.5-59.7 136.5-41.2 283.6-27.9 410.5 37.1 70.2 36 122.8 98.7 145.9 174 71.3 231.6-47.9 478.9-273.5 567.2-83.4 32.7-177.7 19.1-248.5-35.9-106.1-82.2-189.6-190-243.1-313.1-15.9-36.6 23.4-69 59.1-51.1l248.1 124.5c78.5 39.7 238.4-265.8 124.1-325z" fill="#d1716d"/><path fill="#ab443e" d="M3308.1 2774.4l-1150-1023c-40.9-36.3-44.5-98.9-8.2-139.8h0c36.3-40.9 98.9-44.5 139.8-8.2l1150 1023c40.9 36.3 44.5 98.9 8.2 139.8h0c-36.4 40.9-98.9 44.5-139.8 8.2z"/><path fill="#fa555c" d="M1805.8 1651.2l7.6-15.4c9.1-18.4 20.8-35.3 34.9-50.3 3.1-3.2 7.4-4.8 11.8-4.1 4.3.7 8.2 3.4 10.1 7.3 2.3 4.5 3.3 9.5 2.8 14.5l8.7-10.1c4.3-5 9.4-9.1 15.2-12 4-2 8.5-2.3 12.7-.6 4.1 1.7 7.3 5.1 8.6 9.3 3.6 11.1 1.8 23.3-4.8 32.8l4.9-.7c4.2-.7 8.5.5 11.8 3.2 3.4 2.6 5.5 6.6 5.8 10.8 1.6 19.1-2.8 38.3-12.7 54.7l8.7-10.6 12.8-15.3c2.3-2.7 6-3.9 9.5-2.7 3.4 1.1 5.9 4.2 6.1 7.7 1.7 21-5.6 41.8-19.9 57.2-5.2 5.6-12.9 8.1-20.3 6.6-7.5-1.5-13.6-6.8-16.2-14-11.8 4.9-27.7 1.8-33.3-20.8-11.6-1.5-28.3-12.5-32.3-25.9-24.8 14.9-40.4-5.7-32.5-21.6h0z"/><path fill="#516462" d="M2928.6 1419.3l12.4 92.9c12.7 96.2 38.4 146.5 68.6 238.6 40 121.9-1.4 206.3-65.4 280.4-68.5 79.3-169.4 153.8-271.3 178-52.5 12.5-118.8-72.9-100.8-123.8 37.6-106.5 67.9-193.5 147.9-275.2 21-21.3 36.2-47.7 44.4-76.5l-17.4-54.9c-12.8-94.8 6.9-191.1 55.9-273.3 14-23.4 40.2-36.5 67.3-33.6 26.9 3.1 54.8 21 58.4 47.4h0z"/><path fill="#fa555c" d="M2630.3 2217.1l-5.5.7-66.9 31.8c-28 13.3-61.4 6.7-82.3-16.2-15-16.5-31.8-31.1-50-43.8-24.9-17.3-13.3-39.2 3.9-55.8l18.7-18.2-11.2-11.6c-5.2-5.3-6.7-13.2-3.9-20.1 2.8-6.8 9.4-11.5 16.9-11.6 12.6-.3 25.2 1.5 37.4 5.5 16.6 5.3 34 8.5 51.3 9.5 43 2.4 81.2 28.5 99 67.7l12.5 22.9c4.3 7.9 4.5 16.7.5 24.8-4.2 8-11.4 13.2-20.4 14.4h0z"/></svg>