<?xml version="1.0" encoding="UTF-8" standalone="no"?>
<!-- Generator: Adobe Illustrator 19.2.1, SVG Export Plug-In . SVG Version: 6.00 Build 0)  -->

<svg
   version="1.1"
   id="Layer_1"
   x="0px"
   y="0px"
   viewBox="0 0 6108 4000"
   style="enable-background:new 0 0 6108 4000;"
   xml:space="preserve"
   sodipodi:docname="online-shopping-concept.svg"
   inkscape:version="1.2.2 (732a01da63, 2022-12-09)"
   xmlns:inkscape="http://www.inkscape.org/namespaces/inkscape"
   xmlns:sodipodi="http://sodipodi.sourceforge.net/DTD/sodipodi-0.dtd"
   xmlns="http://www.w3.org/2000/svg"
   xmlns:svg="http://www.w3.org/2000/svg"><defs
   id="defs262" /><sodipodi:namedview
   id="namedview260"
   pagecolor="#505050"
   bordercolor="#ffffff"
   borderopacity="1"
   inkscape:showpageshadow="0"
   inkscape:pageopacity="0"
   inkscape:pagecheckerboard="1"
   inkscape:deskcolor="#505050"
   showgrid="false"
   inkscape:zoom="0.236"
   inkscape:cx="735.16949"
   inkscape:cy="972.45763"
   inkscape:window-width="1500"
   inkscape:window-height="938"
   inkscape:window-x="-6"
   inkscape:window-y="-6"
   inkscape:window-maximized="1"
   inkscape:current-layer="Layer_1" />
<style
   type="text/css"
   id="style2">
	.st0{fill:url(#SVGID_1_);}
	.st1{fill:#FFF5F6;}
	.st2{fill:url(#SVGID_2_);}
	.st3{fill:#F77678;}
	.st4{fill:#FFADAE;}
	.st5{fill:#FF8587;}
	.st6{fill:#D62F4E;}
	.st7{fill:#FFFFFF;}
	.st8{fill:#8C0F26;}
	.st9{fill:#FFDBDE;}
	.st10{fill:#B82540;}
	.st11{fill:#F7B9BE;}
	.st12{fill:#A1122C;}
	.st13{fill:#E3585A;}
	.st14{fill:#ED6668;}
	.st15{fill:#FFB0C1;}
	.st16{fill:#85182C;}
	.st17{fill:#D44867;}
	.st18{fill:#E05C79;}
	.st19{fill:#F27791;}
	.st20{fill:#FC8FA7;}
	.st21{fill:#D14547;}
</style>
<g
   id="Layer_x0020_2">
	
		<radialGradient
   id="SVGID_1_"
   cx="23184.3887"
   cy="-15945.5166"
   r="84196.6484"
   gradientTransform="matrix(2.834494e-002 0 0 -2.242477e-002 2396.8398 1642.4255)"
   gradientUnits="userSpaceOnUse">
		<stop
   offset="0"
   style="stop-color:#FFFFFF"
   id="stop4" />
		<stop
   offset="1"
   style="stop-color:#FFDBDE"
   id="stop6" />
	</radialGradient>
	
	<path
   class="st1"
   d="M1095.5,2621.3l-47.2-145.7c-42.4-130.9-78-263.9-106.8-398.5c-28.3-132.5,12.5-270.3,108.3-366.1   c95.8-95.8,233.6-136.6,366.1-108.3c110.3,23.6,225.3-7.2,309-82.8c25.7-23.2,35.4-59.4,24.7-92.4c-28.9-89.2-6.2-187.1,58.9-254.5   c65.2-67.4,162.2-93.4,252.3-67.6c90.1,25.8,158.7,99.3,178.3,191c53.4,250.2,274.5,429.1,530.3,429.1   c255.9,0,476.9-178.8,530.3-429.1c11.9-55.7,26.6-110.8,44.2-165c21.6-66.8,39.8-134.7,54.5-203.4   c18.2-85.1,81.8-153.3,165.5-177.3c83.7-24,173.8,0.2,234.2,62.8c60.5,62.6,81.5,153.5,54.7,236.3   c-47.1,145.5-8.7,305.1,99.4,413.2c108.1,108.1,267.7,146.5,413.2,99.4c107-34.7,215.6-63.8,325.6-87.2   c138.8-29.6,276.5,54.7,313.2,191.8c36.7,137.1-40.4,278.9-175.4,322.7c-87.5,28.3-136.7,120.9-111.4,209.3   s116.1,140.8,205.3,118.5c89.2-22.3,144.7-111.2,125.5-201.1c-11.8-55.1,13.3-111.4,62.1-139.6c48.8-28.2,110.1-21.7,151.9,16   c24.7,22.3,53.8,39.1,85.4,49.3c138.6,44.9,232.5,174,232.5,319.8c0,145.7-93.9,274.9-232.5,319.8L1095.5,2621.3L1095.5,2621.3z"
   id="path11" />
	
		<radialGradient
   id="SVGID_2_"
   cx="-6260.1382"
   cy="-17304.832"
   r="74388.2734"
   gradientTransform="matrix(-2.834494e-002 0 0 -1.325914e-002 3149.751 1713.58)"
   gradientUnits="userSpaceOnUse">
		<stop
   offset="0"
   style="stop-color:#FFD6D8"
   id="stop13" />
		<stop
   offset="1"
   style="stop-color:#FF8587"
   id="stop15" />
	</radialGradient>
	<path
   class="st2"
   d="M5287.5,2665.5l-39-119.3c-44.5-136.4-16.5-266,90.2-361.8c102.8-92.3,126.9-243.9,57.8-363.4   c-69-119.6-212.4-174.5-343.7-131.6c-145.2,47.4-301.7,47.4-446.8,0c-110.8-36.2-232.5-3.6-310.4,83.2   c-34.5,38.4-87.3,54.7-137.4,42.3c-50.1-12.4-89.3-51.3-102-101.3c-12.7-50,3.2-103,41.4-137.7c97-88.2,137.6-222.7,105.7-349.9   c-31.9-127.2-131.3-226.5-258.4-258.5c-127.2-31.9-261.6,8.7-349.9,105.7c-363.3,399.4-926.1,550.2-1440.4,386   c-125.1-39.9-252-73.9-380.3-101.9c-194.8-42.4-394.7,46-494.4,218.6c-99.7,172.7-76.3,390,57.9,537.5l3773.3,816L5287.5,2665.5   L5287.5,2665.5z"
   id="path18" />
	<ellipse
   class="st3"
   cx="3120.3"
   cy="3239.3"
   rx="2650.4"
   ry="51.4"
   id="ellipse20" />
	<path
   class="st4"
   d="M554.5,3239.3l89.8-53.7c212.8-127.4,286-400.7,165.4-617.4c-79.3-142.6-78-316.3,3.6-457.6   c81.6-141.3,231.4-229.4,394.5-231.9c299.6-4.7,575.5-164,729.3-421.1c120.4-201.1,337.5-324.2,571.9-324.2   c234.4,0,451.5,123.1,571.9,324.2c94,157,263.6,253.2,446.6,253.2c183,0,352.6-96.1,446.6-253.2   c102.1-170.7,305.1-252.9,497.2-201.4c192.1,51.5,326.7,224.1,329.9,423c4.2,264.1,144.5,507.2,371.1,642.9   c323.3,193.5,523.6,540.5,529.6,917.3H554.5L554.5,3239.3z M3298,635.9c-128.3,0-232.3,104-232.3,232.3s104,232.3,232.3,232.3   s232.3-104,232.3-232.3S3426.3,635.9,3298,635.9z M1010,2142.5c-58,0-105,47-105,105.1s47,105.1,105,105.1c58,0,105-47,105-105.1   S1068.1,2142.5,1010,2142.5z M4431.1,1375.8c-33.5,0-60.6,27.1-60.6,60.6s27.1,60.6,60.6,60.6s60.6-27.1,60.6-60.6   S4464.6,1375.8,4431.1,1375.8z M5166.4,2537.4c-54.7,0-99,44.3-99,99c0,54.7,44.3,99,99,99s99-44.3,99-99   C5265.4,2581.7,5221.1,2537.4,5166.4,2537.4z M2229.2,1565.7c-41.3,0-74.7,33.5-74.7,74.7s33.5,74.7,74.7,74.7s74.7-33.5,74.7-74.7   S2270.5,1565.7,2229.2,1565.7z"
   id="path22" />
	<path
   class="st5"
   d="M1831.3,848.5c87,0,157.6,70.5,157.6,157.6c0,87-70.5,157.6-157.6,157.6c-87,0-157.6-70.5-157.6-157.6   S1744.2,848.5,1831.3,848.5L1831.3,848.5z M4752.3,1284.8c95.9,0,173.7,77.8,173.7,173.7c0,96-77.8,173.7-173.7,173.7   s-173.7-77.8-173.7-173.7C4578.6,1362.6,4656.4,1284.8,4752.3,1284.8z M4283.6,1002c42.4,0,76.8,34.4,76.8,76.8   c0,42.4-34.4,76.8-76.8,76.8c-42.4,0-76.8-34.4-76.8-76.8C4206.9,1036.4,4241.3,1002,4283.6,1002z"
   id="path24" />
	<path
   class="st6"
   d="M3905.5,1288h496.9v7.6h-496.9V1288z M4261,1918.3h311.1v7.6H4261V1918.3z M4697.4,2233.4h246.5v7.6h-246.5   V2233.4z M5242.8,2439.5h165.6v7.6h-165.6V2439.5z M875.4,2621.3h440.4v7.6H875.4V2621.3z M1465.2,2269.8h185.9v7.6h-185.9V2269.8z    M1885.4,1413.2h319.2v7.6h-319.2V1413.2z M2266.7,1256.1h274.7v7.6h-274.7V1256.1z"
   id="path26" />
	<path
   class="st7"
   d="M4175.2,2185.9c11.1,0,21.1,4.5,28.4,11.8c7.3,7.3,11.8,17.3,11.8,28.4c0,11.1-4.5,21.1-11.8,28.4   c-7.3,7.3-17.3,11.8-28.4,11.8c-11.1,0-21.1-4.5-28.4-11.8c-7.3-7.3-11.8-17.3-11.8-28.4c0-11.1,4.5-21.1,11.8-28.4   C4154.1,2190.4,4164.1,2185.9,4175.2,2185.9z M4198.2,2203.1c-5.9-5.9-14-9.5-23-9.5c-9,0-17.1,3.6-23,9.5c-5.9,5.9-9.5,14-9.5,23   c0,9,3.6,17.1,9.5,23c5.9,5.9,14,9.5,23,9.5c9,0,17.1-3.6,23-9.5c5.9-5.9,9.5-14,9.5-23C4207.7,2217.1,4204.1,2209,4198.2,2203.1z    M2405.6,2120.3c8.9,0,16.9,3.6,22.7,9.4c5.8,5.8,9.4,13.8,9.4,22.7c0,8.9-3.6,16.9-9.4,22.7c-5.8,5.8-13.8,9.4-22.7,9.4   c-8.8,0-16.9-3.6-22.7-9.4c-5.8-5.8-9.4-13.8-9.4-22.7c0-8.8,3.6-16.9,9.4-22.7C2388.7,2123.9,2396.7,2120.3,2405.6,2120.3z    M2422.9,2135.1c-4.4-4.4-10.6-7.2-17.3-7.2c-6.8,0-12.9,2.7-17.3,7.2c-4.4,4.4-7.2,10.5-7.2,17.3c0,6.8,2.7,12.9,7.2,17.3   c4.4,4.4,10.5,7.2,17.3,7.2c6.8,0,12.9-2.7,17.3-7.2c4.4-4.4,7.2-10.5,7.2-17.3C2430.1,2145.6,2427.3,2139.5,2422.9,2135.1   L2422.9,2135.1z M1278.4,2442.5c15.6,0,29.6,6.3,39.8,16.5c10.2,10.2,16.5,24.3,16.5,39.8c0,15.6-6.3,29.6-16.5,39.8   c-10.2,10.2-24.3,16.5-39.8,16.5c-15.5,0-29.6-6.3-39.8-16.5c-10.2-10.2-16.5-24.3-16.5-39.8c0-15.5,6.3-29.6,16.5-39.8   C1248.8,2448.8,1262.8,2442.5,1278.4,2442.5L1278.4,2442.5z M1312.8,2464.4c-8.8-8.8-21-14.3-34.4-14.3c-13.5,0-25.6,5.4-34.4,14.3   c-8.8,8.8-14.3,21-14.3,34.5c0,13.4,5.5,25.6,14.3,34.4c8.8,8.8,21,14.3,34.4,14.3c13.4,0,25.6-5.5,34.4-14.3s14.3-21,14.3-34.4   C1327.1,2485.4,1321.6,2473.2,1312.8,2464.4z M1442,1751.6c22.2,0,42.4,9,57,23.6c14.6,14.6,23.6,34.7,23.6,57   c0,22.2-9,42.4-23.6,57c-14.6,14.6-34.7,23.6-57,23.6c-22.2,0-42.4-9-57-23.6c-14.6-14.6-23.6-34.7-23.6-57c0-22.2,9-42.4,23.6-57   C1399.6,1760.6,1419.8,1751.6,1442,1751.6z M1493.6,1780.6c-13.2-13.2-31.4-21.4-51.6-21.4c-20.2,0-38.4,8.2-51.6,21.4   c-13.2,13.2-21.4,31.4-21.4,51.6c0,20.1,8.2,38.4,21.4,51.6c13.2,13.2,31.4,21.4,51.6,21.4c20.1,0,38.4-8.2,51.6-21.4   c13.2-13.2,21.4-31.4,21.4-51.6C1515,1812,1506.8,1793.8,1493.6,1780.6z M4795.4,1939.5c18.9,0,36,7.7,48.4,20.1   c12.4,12.4,20.1,29.5,20.1,48.4c0,18.9-7.7,36-20,48.4c-12.4,12.4-29.5,20.1-48.4,20.1c-18.9,0-36-7.7-48.4-20.1   c-12.4-12.4-20.1-29.5-20.1-48.4c0-18.9,7.7-36,20.1-48.4C4759.3,1947.1,4776.5,1939.5,4795.4,1939.5z M4838.4,1964.9   c-11-11-26.2-17.8-43-17.8c-16.8,0-32,6.8-43,17.8c-11,11-17.8,26.2-17.8,43c0,16.8,6.8,32,17.8,43c11,11,26.2,17.8,43,17.8   c16.8,0,32-6.8,43-17.8c11-11,17.8-26.2,17.8-43C4856.2,1991.1,4849.4,1975.9,4838.4,1964.9z M4292.4,1648.6   c13.3,0,25.4,5.4,34.1,14.1c8.8,8.8,14.2,20.8,14.2,34.1c0,13.3-5.4,25.4-14.1,34.1c-8.7,8.7-20.8,14.1-34.1,14.1   c-13.3,0-25.4-5.4-34.1-14.1c-8.7-8.7-14.1-20.8-14.1-34.1c0-13.3,5.4-25.4,14.1-34.1C4267,1654,4279,1648.6,4292.4,1648.6z    M4321.1,1668.1c-7.3-7.3-17.5-11.9-28.7-11.9c-11.2,0-21.4,4.6-28.7,11.9c-7.4,7.3-11.9,17.5-11.9,28.7c0,11.2,4.6,21.4,11.9,28.7   c7.3,7.3,17.5,11.9,28.7,11.9c11.2,0,21.4-4.5,28.7-11.9c7.3-7.4,11.9-17.5,11.9-28.7C4333,1685.6,4328.5,1675.4,4321.1,1668.1z"
   id="path28" />
</g>
<g
   id="Layer_x0020_3">
	<path
   class="st8"
   d="M4015.5,1449.6c22.9,0,35,31.7,27,70.7c-8,39-33,70.7-55.8,70.7s-35-31.7-27-70.7   C3967.7,1481.3,3992.7,1449.6,4015.5,1449.6z"
   id="path31" />
	<rect
   x="4296.5"
   y="2456.2"
   class="st9"
   width="363.6"
   height="783.1"
   id="rect33" />
	<rect
   x="4660.1"
   y="2456.2"
   class="st7"
   width="262.6"
   height="783.1"
   id="rect35" />
	<rect
   x="4296.5"
   y="2363.8"
   class="st10"
   width="363.6"
   height="112.7"
   id="rect37" />
	<rect
   x="4660.1"
   y="2363.8"
   class="st6"
   width="262.6"
   height="112.7"
   id="rect39" />
	<rect
   x="4759.1"
   y="2363.8"
   class="st9"
   width="86.9"
   height="875.5"
   id="rect41" />
	<rect
   x="4759.1"
   y="2363.8"
   class="st10"
   width="86.9"
   height="112.7"
   id="rect43" />
	<rect
   x="4403.6"
   y="2363.8"
   class="st11"
   width="123.2"
   height="875.5"
   id="rect45" />
	<rect
   x="4403.6"
   y="2363.8"
   class="st12"
   width="123.2"
   height="112.7"
   id="rect47" />
	<path
   class="st6"
   d="M4081.9,2825.5c-0.5,4,2.4,7.7,6.4,8.1c4,0.5,7.7-2.4,8.1-6.4l36.8-308.3c0.4-3.1,0.6-6.1,0.6-9.1   c0-17.6-6.2-33.5-16.8-45.5c-10.6-12-25.6-20.1-43-22.2c-2.9-0.4-5.9-0.5-8.9-0.5c-20.9,0-40.8,8.5-56.1,22.2   c-15.3,13.7-26.1,32.7-28.6,53.4l-36.8,308.3c-0.5,4,2.4,7.7,6.4,8.1c4,0.5,7.7-2.4,8.1-6.4l36.8-308.3c2-17.1,11-32.8,23.7-44.3   c12.7-11.3,29.1-18.4,46.3-18.4c2.5,0,4.9,0.1,7.2,0.4c13.7,1.6,25.4,8,33.7,17.3c8.3,9.4,13.1,21.9,13.1,35.8   c0,2.4-0.1,4.9-0.4,7.3L4081.9,2825.5z"
   id="path49" />
	<polygon
   class="st3"
   points="3992.9,2633 4340.1,2633 4414.6,3239.3 3918.4,3239.3  "
   id="polygon51" />
	<polygon
   class="st3"
   points="3888.9,2633 4031,2633 4105.5,3239.3 3814.3,3239.3  "
   id="polygon53" />
	<polygon
   class="st13"
   points="3959.9,2633 4031,2633 4105.5,3239.3 3959.9,3239.3  "
   id="polygon55" />
	<path
   class="st7"
   d="M4151.9,2825.5c0.5,4-2.4,7.7-6.4,8.1c-4,0.5-7.7-2.4-8.1-6.4l-36.8-308.3c-0.4-3.1-0.5-6.1-0.5-9.1   c0-17.6,6.2-33.5,16.8-45.5c10.6-12,25.6-20.1,43-22.2c2.9-0.4,5.9-0.5,8.9-0.5c20.9,0,40.8,8.5,56.1,22.2   c15.3,13.7,26.1,32.7,28.6,53.4l36.8,308.3c0.5,4-2.4,7.7-6.4,8.1c-4,0.5-7.7-2.4-8.1-6.4l-36.8-308.3c-2-17.1-11-32.8-23.8-44.3   c-12.7-11.3-29.1-18.4-46.3-18.4c-2.5,0-4.9,0.1-7.2,0.4c-13.7,1.6-25.4,8-33.7,17.3c-8.3,9.4-13.1,21.9-13.1,35.8   c0,2.4,0.1,4.9,0.4,7.3L4151.9,2825.5L4151.9,2825.5z"
   id="path57" />
	<g
   id="_2885743216224">
		<ellipse
   class="st8"
   cx="1887.7"
   cy="1759.4"
   rx="73.7"
   ry="69.7"
   id="ellipse59" />
		<ellipse
   class="st8"
   cx="1755.7"
   cy="1681.9"
   rx="67.9"
   ry="65.4"
   id="ellipse61" />
		<path
   class="st8"
   d="M2059.2,2092.5c286,47,169.1,359.6,203.5,553c19.9,112-340.8,192-361.6,66.7    c-22.2-133.8-49.3-319.4-20.2-446.6C1951.7,2197,1988.5,2161.2,2059.2,2092.5z"
   id="path63" />
		<path
   class="st7"
   d="M2059.2,2092.5c-71.1-29.4-68.9-119-79.6-191.8c-17.2-116.7-187.6-101.8-223.5-22.7    c-20,44-36.4,71.2-36.4,134.8c0,40,23.7,69.1,57.7,77.2c1.8,6.6,3.7,13.1,5.7,19.5c28.3,91.4,54.2,13.6,97.8,156.1    C1945.6,2342.4,2136,2187.4,2059.2,2092.5L2059.2,2092.5z"
   id="path65" />
		<polygon
   class="st7"
   points="1925,1828.2 2083.5,1890.1 2055.3,1966.9 1895.7,1911.8   "
   id="polygon67" />
		<path
   class="st14"
   d="M2083.5,1890.1l37.5,14.8l217.2-87.9l11.1,18.9l-183.1,130.6c-18.5,13.2-40.1,15.7-62.4,10.9l-48.5-10.5    L2083.5,1890.1L2083.5,1890.1z"
   id="path69" />
		<path
   class="st14"
   d="M2338.2,1817l58.9-8.7c4.8-0.7,9.3,0.7,12.8,4l9,8.5c2.5,2.4,3.7,5.3,3.6,8.7l-0.4,11.4    c0,0.9-0.3,1.7-0.9,2.3l-6,7.1l-1.1-1.1c-2.3-2.3-2.9-5.6-1.6-8.5l0.8-1.8l-1.8-8.1l-11.6-9.3l-16.2,5.9l-5.2,11.4l6.4,2.6    c5,2,9.7,3,15,3.1c2.8,0,5.2,0.7,7.6,2.1l3.5,2.1c1.5,0.9,2.2,2.6,1.8,4.3c-0.5,1.7-1.9,2.8-3.7,2.8l-6.2,0    c-1.9,0-3.4-0.3-5.2-0.9c-5-1.8-9.9-2.5-15.4-2.5l-2.1,0c-13.5,0.1-25.5-1.3-36.6-9l-4.5-3.1l-25.2-0.5L2338.2,1817L2338.2,1817z"
   id="path71" />
		<polygon
   class="st7"
   points="1777.9,1849.1 1648.5,1959.6 1700.4,2022.9 1833.1,1918.5   "
   id="polygon73" />
		<path
   class="st14"
   d="M1648.5,1959.6l-30.5,26.3l-234-11.8l-4.3,21.5l215.8,63.3c21.8,6.4,43.1,1.6,62.5-10.2l42.3-25.9    L1648.5,1959.6L1648.5,1959.6z"
   id="path75" />
		<path
   class="st14"
   d="M1384,1974.1l-58.5,11.1c-4.8,0.9-8.5,3.7-10.8,8l-5.7,11c-1.6,3-1.7,6.3-0.5,9.4l4.1,10.7    c0.3,0.8,0.9,1.5,1.6,1.9l8,4.7l0.7-1.4c1.4-2.9,0.9-6.2-1.3-8.6l-1.3-1.4l-0.9-8.2l7.9-12.6l17.2,0.3l8.6,9l-5.2,4.6    c-4.1,3.6-8.2,6.1-13.1,7.8c-2.6,1-4.7,2.4-6.5,4.5l-2.6,3.1c-1.1,1.3-1.2,3.2-0.2,4.7c1,1.5,2.8,2,4.4,1.5l5.9-2    c1.8-0.6,3.2-1.4,4.6-2.5c4.2-3.3,8.5-5.7,13.7-7.4l2-0.7c12.8-4.3,23.6-9.6,31.6-20.5l3.3-4.4l23.6-8.7L1384,1974.1L1384,1974.1z    "
   id="path77" />
		<path
   class="st14"
   d="M1895.8,1817.9c-0.2,0-0.5-0.1-0.7-0.1c-22.4-3.7-39.9-17.3-48.9-38.1l-16.2-37.1l-52.5,16.7l15.1,34.6    c8.2,18.9,3.3,40.1-12.5,53.4c-4.4,3.7-8.4,7.6-11.9,11.9c-11.5,41.6,2.2,74.1,32.7,74.1c32.6,0,72.1-37.1,88.2-82.8    C1893.1,1838.8,1895.3,1827.9,1895.8,1817.9L1895.8,1817.9z"
   id="path79" />
		<path
   class="st8"
   d="M1837.5,1759.7l-7.5-17.2l-52.5,16.7l15.1,34.6c4.5,10.3,5.1,21.4,2.1,31.4    C1815.2,1811.2,1831.4,1787.4,1837.5,1759.7L1837.5,1759.7z"
   id="path81" />
		<path
   class="st14"
   d="M1793.1,1630.1c40.1,0,67.2,39.2,60.5,87.5c-6.6,48.3-44.5,87.5-84.5,87.5s-67.2-39.2-60.5-87.5    C1715.2,1669.3,1753.1,1630.1,1793.1,1630.1z"
   id="path83" />
		<ellipse
   class="st8"
   cx="1776.1"
   cy="1657.4"
   rx="73.7"
   ry="69.7"
   id="ellipse85" />
		<ellipse
   class="st8"
   cx="1856.5"
   cy="1687.9"
   rx="77.8"
   ry="73.5"
   id="ellipse87" />
		<path
   class="st6"
   d="M1317.5,2167.3c-0.2,1.7,1,3.3,2.7,3.5c1.7,0.2,3.3-1,3.5-2.7l15.7-131.2c0.2-1.3,0.2-2.6,0.2-3.8    c0-0.9,0-1.8-0.1-2.7c-1.1,0.8-2.3,1.3-3.6,1.8l-2.5,0.8v0c0,1-0.1,2.1-0.2,3.1L1317.5,2167.3L1317.5,2167.3z M1336.5,2019.8    c-1.1-2.2-2.5-4.3-4.1-6.1c-4.5-5.1-10.9-8.6-18.3-9.5c-1.2-0.1-2.5-0.2-3.8-0.2c-8.9,0-17.4,3.6-23.9,9.4    c-6.5,5.8-11.1,13.9-12.2,22.7l-15.7,131.2c-0.2,1.7,1,3.3,2.7,3.5c1.7,0.2,3.3-1,3.5-2.7l15.7-131.2c0.9-7.3,4.7-14,10.1-18.8    c5.4-4.8,12.4-7.8,19.7-7.8c1.1,0,2.1,0.1,3,0.2c5.8,0.7,10.8,3.4,14.3,7.4c1.2,1.4,2.3,3,3.2,4.7c1.2-0.9,2.4-1.5,3.9-2.1    C1335.4,2020.2,1335.9,2020,1336.5,2019.8L1336.5,2019.8z"
   id="path89" />
		<polygon
   class="st7"
   points="1279.6,2085.4 1427.3,2085.4 1459,2343.4 1247.9,2343.4   "
   id="polygon91" />
		<polygon
   class="st7"
   points="1235.3,2085.4 1295.8,2085.4 1327.5,2343.4 1203.6,2343.4   "
   id="polygon93" />
		<polygon
   class="st9"
   points="1265.5,2085.4 1295.8,2085.4 1327.5,2343.4 1265.5,2343.4   "
   id="polygon95" />
		<path
   class="st7"
   d="M1347.2,2167.3c0.2,1.7-1,3.3-2.7,3.5c-1.7,0.2-3.3-1-3.5-2.7l-15.7-131.2c-0.2-1.3-0.2-2.6-0.2-3.8    c0-7.5,2.7-14.3,7.2-19.4c4.3-4.9,10.3-8.3,17.3-9.3l3.5,3.7l-2.9,2.5c-5.4,0.9-10,3.5-13.3,7.2c-3.5,4-5.6,9.3-5.6,15.2    c0,1,0.1,2.1,0.2,3.1L1347.2,2167.3L1347.2,2167.3z M1376.5,2012c0.6,0.5,1.1,0.9,1.7,1.4c6.5,5.8,11.1,13.9,12.2,22.7l15.7,131.2    c0.2,1.7-1,3.3-2.7,3.5c-1.7,0.2-3.3-1-3.5-2.7l-15.7-131.2c-0.9-7.3-4.7-14-10.1-18.8c-1-0.9-2.1-1.8-3.3-2.6    C1372.8,2014.4,1374.7,2013.3,1376.5,2012z"
   id="path97" />
		<path
   class="st6"
   d="M2391.6,1952.9c-0.1,1.2,0.7,2.3,1.9,2.5c1.2,0.1,2.3-0.7,2.5-1.9l11.1-93.2c0.1-0.9,0.2-1.9,0.2-2.7    c0-0.5,0-1,0-1.5l-4.4,0c0,0.5,0.1,0.9,0.1,1.4c0,0.7,0,1.5-0.1,2.2L2391.6,1952.9z M2403.3,1845.1c-0.3-0.5-0.7-0.9-1.1-1.4    c-3.2-3.6-7.7-6.1-13-6.7c-0.9-0.1-1.8-0.2-2.7-0.2c-6.3,0-12.3,2.6-17,6.7c-4.6,4.1-7.9,9.9-8.6,16.1l-11.1,93.2    c-0.1,1.2,0.7,2.3,1.9,2.5c1.2,0.1,2.3-0.7,2.5-1.9l11.1-93.2c0.6-5.2,3.3-9.9,7.2-13.4c3.8-3.4,8.8-5.6,14-5.6    c0.7,0,1.5,0,2.2,0.1c3,0.4,5.6,1.4,7.8,3.1c1.1,0.1,2.2,0.2,3.3,0.2C2401.1,1844.6,2402.2,1844.8,2403.3,1845.1L2403.3,1845.1z"
   id="path99" />
		<polygon
   class="st7"
   points="2364.7,1894.7 2469.6,1894.7 2492.2,2078 2342.2,2078   "
   id="polygon101" />
		<polygon
   class="st7"
   points="2333.3,1894.7 2376.2,1894.7 2398.7,2078 2310.7,2078   "
   id="polygon103" />
		<polygon
   class="st9"
   points="2354.7,1894.7 2376.2,1894.7 2398.7,2078 2354.7,2078   "
   id="polygon105" />
		<path
   class="st7"
   d="M2412.8,1952.9c0.1,1.2-0.7,2.3-1.9,2.5c-1.2,0.1-2.3-0.7-2.5-1.9l-11.1-93.2c-0.1-0.9-0.2-1.9-0.2-2.7    c0-5.3,1.9-10.1,5.1-13.8c2.7-3.1,6.4-5.3,10.7-6.3l0.4,1.6l-0.8,1.8c-0.2,0.5-0.4,1-0.5,1.5c-2.5,0.9-4.7,2.4-6.5,4.4    c-2.5,2.8-4,6.6-4,10.8c0,0.7,0,1.5,0.1,2.2L2412.8,1952.9L2412.8,1952.9z M2422.1,1837.2c4.7,0.9,9.1,3.1,12.7,6.3    c4.6,4.1,7.9,9.9,8.6,16.1l11.1,93.2c0.1,1.2-0.7,2.3-1.9,2.5c-1.2,0.1-2.3-0.7-2.5-1.9l-11.1-93.2c-0.6-5.2-3.3-9.9-7.2-13.4    c-2.8-2.5-6.3-4.3-10-5.1c0-0.2,0.1-0.5,0.1-0.7L2422.1,1837.2z"
   id="path107" />
	</g>
	<path
   class="st7"
   d="M3651.7,1677l6-1.8c44.7-13.1,85.9-3.4,127.9,16.6l104.9,50l49.2,43.1c97.7,85.5,117.2,127.3,70.2,229   l-68.8,148.9l-302.6-205.2L3651.7,1677L3651.7,1677z"
   id="path110" />
	<polygon
   class="st4"
   points="3870.6,2158.1 3876,1986.6 3793.8,2067.3 3802.4,2155.3  "
   id="polygon112" />
	<polygon
   class="st7"
   points="3738.7,1707.4 3785.7,1645.5 3914.5,1719.4 3902.7,1818.2  "
   id="polygon114" />
	<polygon
   class="st14"
   points="3880.7,1743 3924.1,1641 3819.1,1591.5 3782.7,1679.4 3815,1732.9  "
   id="polygon116" />
	<path
   class="st8"
   d="M3888.8,1723.9l35.3-82.8l-103-48.5C3826,1653.1,3852.8,1703.3,3888.8,1723.9z"
   id="path118" />
	<path
   class="st14"
   d="M4014.5,1468.3c4.6,18.1,7.1,37.9,7.1,58.5c0,89.3-47.1,161.7-105.2,161.7c-58.1,0-105.2-72.4-105.2-161.7   c0-20.6,2.5-40.3,7.1-58.5H4014.5L4014.5,1468.3z"
   id="path120" />
	<path
   class="st8"
   d="M3999.4,1508c-42.8,21.9-93.3,30.9-142.4,26.7c-55-4.7-78.5-75.1-9.4-98.5c32.4-11,65.5-29.8,92-56.8   C4034.9,1282.3,4102.9,1455,3999.4,1508L3999.4,1508z"
   id="path122" />
	<path
   class="st8"
   d="M3809.5,1479.8c-25.9,0-42.2,31.7-36.4,70.7c5.8,39,31.6,70.7,57.5,70.7s42.2-31.7,36.4-70.7   C3861.2,1511.5,3835.4,1479.8,3809.5,1479.8z"
   id="path124" />
	<path
   class="st14"
   d="M3838.3,1555.1c-13.7,0-21,19-16.2,42.5c4.8,23.5,19.8,42.5,33.6,42.5s21-19,16.2-42.5   C3867.1,1574.1,3852,1555.1,3838.3,1555.1z"
   id="path126" />
	<polygon
   class="st8"
   points="3835.5,2434.2 3964.2,3179.9 3733.9,3230.4  "
   id="polygon128" />
	<polygon
   class="st3"
   points="3964.2,3179.9 4106.6,3250.7 3776.3,3250.7 3859.9,3191.9  "
   id="polygon130" />
	<path
   class="st10"
   d="M1603.2,2810.8c-0.5,4.2,2.5,7.9,6.6,8.4c4.2,0.5,7.9-2.5,8.4-6.6l38.1-319.2c0.4-3.2,0.6-6.3,0.6-9.4   c0-18.2-6.5-34.7-17.4-47.1c-11-12.5-26.5-20.9-44.5-23c-3-0.4-6.1-0.5-9.2-0.5c-21.6,0-42.2,8.8-58.1,23   c-15.9,14.2-27,33.8-29.6,55.3l-38.1,319.2c-0.5,4.2,2.5,7.9,6.6,8.4c4.2,0.5,7.9-2.5,8.4-6.6l38.1-319.2   c2.1-17.8,11.4-34,24.6-45.8c13.1-11.7,30.2-19,48-19c2.6,0,5.1,0.1,7.4,0.4c14.2,1.7,26.3,8.3,34.9,18   c8.6,9.7,13.6,22.7,13.6,37.1c0,2.5-0.1,5.1-0.5,7.6L1603.2,2810.8z"
   id="path132" />
	<polygon
   class="st7"
   points="1511.1,2611.5 1870.5,2611.5 1947.7,3239.3 1433.9,3239.3  "
   id="polygon134" />
	<polygon
   class="st7"
   points="1403.3,2611.5 1550.5,2611.5 1627.7,3239.3 1326.1,3239.3  "
   id="polygon136" />
	<polygon
   class="st9"
   points="1476.9,2611.5 1550.5,2611.5 1627.7,3239.3 1476.9,3239.3  "
   id="polygon138" />
	<path
   class="st7"
   d="M1675.6,2810.8c0.5,4.2-2.5,7.9-6.6,8.4c-4.2,0.5-7.9-2.5-8.4-6.6l-38.1-319.2c-0.4-3.2-0.6-6.3-0.6-9.4   c0-18.2,6.5-34.7,17.4-47.1c11-12.5,26.5-20.9,44.5-23c3-0.4,6.1-0.5,9.2-0.5c21.6,0,42.2,8.8,58.1,23c15.9,14.2,27,33.8,29.6,55.3   l38.1,319.2c0.5,4.2-2.5,7.9-6.6,8.4s-7.9-2.5-8.4-6.6l-38.1-319.2c-2.1-17.8-11.4-34-24.6-45.8c-13.1-11.7-30.2-19-48-19   c-2.6,0-5.1,0.1-7.4,0.4c-14.2,1.7-26.3,8.3-34.9,18c-8.6,9.7-13.6,22.7-13.6,37.1c0,2.5,0.1,5.1,0.4,7.6L1675.6,2810.8z"
   id="path140" />
	<g
   id="_2885938156912">
		<path
   class="st6"
   d="M5136.9,2928c0.4,3-1.8,5.8-4.8,6.1c-3,0.4-5.8-1.8-6.1-4.8l-27.7-232c-0.3-2.3-0.4-4.6-0.4-6.8    c0-13.3,4.7-25.2,12.7-34.2c8-9,19.3-15.2,32.3-16.7c2.2-0.3,4.4-0.4,6.7-0.4c15.7,0,30.7,6.4,42.2,16.7    c11.5,10.3,19.6,24.6,21.5,40.2l27.7,232c0.4,3-1.8,5.8-4.8,6.1s-5.8-1.8-6.1-4.8l-27.7-232c-1.5-12.9-8.3-24.7-17.9-33.3    c-9.5-8.5-21.9-13.8-34.9-13.8c-1.9,0-3.7,0.1-5.4,0.3c-10.3,1.2-19.1,6-25.4,13c-6.2,7.1-9.9,16.5-9.9,27c0,1.8,0.1,3.7,0.3,5.5    L5136.9,2928L5136.9,2928z"
   id="path142" />
		<polygon
   class="st3"
   points="5322.1,2783.1 4841.8,2783.1 4785.7,3239.3 5378.2,3239.3   "
   id="polygon144" />
		<polygon
   class="st3"
   points="5400.4,2783.1 5293.5,2783.1 5237.4,3239.3 5456.5,3239.3   "
   id="polygon146" />
		<polygon
   class="st13"
   points="5346.9,2783.1 5293.5,2783.1 5237.4,3239.3 5346.9,3239.3   "
   id="polygon148" />
		<path
   class="st15"
   d="M5084.3,2928c-0.4,3,1.8,5.8,4.8,6.1s5.8-1.8,6.1-4.8l27.7-232c0.3-2.3,0.4-4.6,0.4-6.8    c0-13.3-4.7-25.2-12.7-34.2c-8-9-19.3-15.2-32.3-16.7c-2.2-0.3-4.4-0.4-6.7-0.4c-15.7,0-30.7,6.4-42.2,16.7    c-11.5,10.3-19.6,24.6-21.5,40.2l-27.7,232c-0.4,3,1.8,5.8,4.8,6.1c3,0.4,5.8-1.8,6.1-4.8l27.7-232c1.5-12.9,8.3-24.7,17.9-33.3    c9.5-8.5,21.9-13.8,34.9-13.8c1.9,0,3.7,0.1,5.4,0.3c10.3,1.2,19.1,6,25.4,13c6.2,7.1,9.9,16.5,9.9,27c0,1.8-0.1,3.7-0.3,5.5    L5084.3,2928L5084.3,2928z"
   id="path150" />
	</g>
</g>
<g
   id="Layer_x0020_1">
	<rect
   x="1146.2"
   y="2960.8"
   class="st3"
   width="353.5"
   height="278.5"
   id="rect154" />
	<rect
   x="833.1"
   y="2960.8"
   class="st13"
   width="313.1"
   height="278.5"
   id="rect156" />
	<path
   class="st4"
   d="M930.9,3053.6h117.5c14,0,25.3,11.3,25.3,25.3v0c0,14-11.3,25.3-25.3,25.3H930.9c-14,0-25.3-11.3-25.3-25.3v0   C905.6,3065,916.9,3053.6,930.9,3053.6z"
   id="path158" />
	<path
   class="st8"
   d="M930.9,3062.3h117.5c9.2,0,16.7,7.5,16.7,16.7v0c0,9.2-7.5,16.7-16.7,16.7H930.9c-9.2,0-16.7-7.5-16.7-16.7v0   C914.3,3069.8,921.7,3062.3,930.9,3062.3z"
   id="path160" />
	<rect
   x="814.4"
   y="2888.8"
   class="st13"
   width="330.7"
   height="81.1"
   id="rect162" />
	<rect
   x="1127.5"
   y="2888.8"
   class="st3"
   width="390.9"
   height="81.1"
   id="rect164" />
	<rect
   x="1208.9"
   y="2996.9"
   class="st13"
   width="147.8"
   height="92.4"
   id="rect166" />
	<path
   class="st6"
   d="M2179.2,2701.1c-0.6,5.2,3.1,10,8.3,10.6c5.2,0.6,10-3.1,10.6-8.3l47.9-401c0.5-4,0.7-8,0.7-11.8   c0-22.9-8.1-43.6-21.9-59.2c-13.8-15.6-33.3-26.2-55.9-28.9c-3.8-0.5-7.7-0.7-11.6-0.7c-27.2,0-53.1,11.1-72.9,28.8   c-20,17.8-33.9,42.5-37.2,69.5l-47.9,401c-0.6,5.2,3.1,10,8.3,10.6c5.2,0.6,10-3.1,10.6-8.3l47.9-401c2.7-22.3,14.3-42.7,30.9-57.6   c16.5-14.7,37.9-23.9,60.3-23.9c3.2,0,6.3,0.2,9.3,0.5c17.8,2.1,33.1,10.4,43.8,22.6c10.8,12.2,17.1,28.5,17.1,46.6   c0,3.2-0.2,6.4-0.6,9.5L2179.2,2701.1L2179.2,2701.1z"
   id="path168" />
	<polygon
   class="st3"
   points="2063.5,2450.6 2514.9,2450.6 2611.9,3239.3 1966.5,3239.3  "
   id="polygon170" />
	<polygon
   class="st3"
   points="1928.1,2450.6 2112.9,2450.6 2209.9,3239.3 1831.1,3239.3  "
   id="polygon172" />
	<polygon
   class="st13"
   points="2020.5,2450.6 2112.9,2450.6 2209.9,3239.3 2020.5,3239.3  "
   id="polygon174" />
	<path
   class="st7"
   d="M2512.2,976.7h1098.9c49.1,0,90.7,39.8,93,88.9l95.6,2084.9c2.3,49.1-35.7,88.9-84.8,88.9H2615.9   c-49.1,0-90.7-39.8-93-88.9l-95.6-2084.9C2425.1,1016.5,2463.1,976.7,2512.2,976.7z"
   id="path176" />
	<path
   class="st7"
   d="M2580.8,976.7h1098.9c49.1,0,90.7,39.8,93,88.9l95.6,2084.9c2.3,49.1-35.7,88.9-84.8,88.9H2684.5   c-49.1,0-90.7-39.8-93-88.9L2496,1065.6C2493.8,1016.5,2531.8,976.7,2580.8,976.7z"
   id="path178" />
	<path
   class="st10"
   d="M2582.5,1013.1h1098.9c29,0,53.6,23.5,54.9,52.5l95.6,2084.9c1.3,29-21.1,52.5-50.1,52.5H2682.9   c-29,0-53.6-23.5-54.9-52.5l-95.6-2084.9C2531.1,1036.6,2553.5,1013.1,2582.5,1013.1z"
   id="path180" />
	<path
   class="st16"
   d="M3467.7,1054.5h185.8c24.5,0,45.1,14,45.9,31.3l0,0c0.8,17.3-18.5,31.3-43,31.3h-185.8   c-24.5,0-45.1-14-45.9-31.3l0,0C3423.9,1068.5,3443.2,1054.5,3467.7,1054.5z"
   id="path182" />
	<path
   class="st7"
   d="M2990.9,2128.2h384.5c51.9,0,95.9,42.1,98.3,94l0,0c2.4,51.9-37.8,94-89.6,94h-384.5   c-51.9,0-95.9-42.1-98.3-94l0,0C2898.8,2170.3,2939,2128.2,2990.9,2128.2z"
   id="path184" />
	<path
   class="st15"
   d="M3100.2,2259.2h32.6c19,0,33.8-6.8,33.1-22.2c-0.5-10.1-7.6-15.7-16.6-17.7l0-0.5c7-2.3,11-9.6,10.7-16.3   c-0.7-14.5-15-18.7-33.2-18.7h-30.1L3100.2,2259.2L3100.2,2259.2z M3117.9,2213.9l-0.8-17h9.4c9.3,0,13.9,2.2,14.1,8.1   c0.2,5.4-3.8,8.9-13.5,8.9H3117.9z M3119.4,2246l-0.9-19.4h11.2c10.9,0,16.4,2.7,16.7,9.3c0.3,6.9-5.1,10.2-15.9,10.2H3119.4z    M3216.5,2260.6c22.7,0,34.2-11,33-36.3l-1.9-40.5h-19.1l1.9,42.2c0.7,14.8-4.8,19.9-14.6,19.9c-9.8,0-15.5-5.1-16.2-19.9   l-1.9-42.2h-20l1.9,40.5C3180.8,2249.6,3193.7,2260.6,3216.5,2260.6L3216.5,2260.6z M3284.1,2259.2h19.8l-1.2-26.8l24.3-48.6h-20.8   l-7.2,17.4c-2.2,5.7-4.4,10.9-6.7,16.7h-0.5c-2.7-5.8-5.2-11-7.9-16.7l-8.6-17.4h-21.3l28.8,48.6L3284.1,2259.2L3284.1,2259.2z"
   id="path186" />
	<g
   id="_2886052400320">
		<g
   id="g196">
			<path
   class="st17"
   d="M3107.7,1391.6c47.3-28.4,110.5-12,141.2,36.6c30.6,48.6,17.1,111.1-30.2,139.5     c-47.3,28.4-110.5,12-141.2-36.6S3060.4,1420,3107.7,1391.6z"
   id="path188" />
			<path
   class="st18"
   d="M3107.7,1391.6c37.9-22.7,93.4-1.7,124,46.9c30.6,48.6,24.8,106.5-13.1,129.2c-37.9,22.7-93.4,1.7-124-46.9     S3069.9,1414.3,3107.7,1391.6z"
   id="path190" />
			<path
   class="st17"
   d="M3107.7,1391.6c17.7-10.6,57,20.2,87.6,68.8s41.1,96.7,23.3,107.3c-17.7,10.6-57-20.2-87.6-68.8     S3090,1402.2,3107.7,1391.6z"
   id="path192" />
			<path
   class="st15"
   d="M3116.3,1387c0.4,1.7-2.5,4.9-6.8,7.4c-4.3,2.6-8.5,3.6-9.9,2.6c2.6-1.9,5.3-3.7,8.1-5.4     S3113.4,1388.4,3116.3,1387z"
   id="path194" />
		</g>
		<g
   id="g206">
			<polygon
   class="st19"
   points="3312.2,1299.5 3389.4,1333.6 3417.7,1346.2 3494.9,1380.3 3332.2,1931.4 3226.7,1884.7      3344.9,1484.3 3151.5,1851.4 3046.1,1804.7    "
   id="polygon198" />
			<polygon
   class="st18"
   points="3312.2,1299.5 3389.4,1333.6 3417.7,1346.2 3494.9,1380.3 3485.5,1412 3296.9,1328.5    "
   id="polygon200" />
			<path
   class="st15"
   d="M3463.1,1366.3l-10.5-4.7l-14.1,34.7l10.5,4.7L3463.1,1366.3z M3344,1313.5l10.5,4.7l-14.1,34.7l-10.5-4.7     L3344,1313.5L3344,1313.5z"
   id="path202" />
			<path
   class="st18"
   d="M3395.3,1336.3l16.5,7.3l-24.5,60.3c-3.1,7.5-11.8,10.9-19.5,7.5l-2.6-1.2L3395.3,1336.3L3395.3,1336.3z"
   id="path204" />
		</g>
		<g
   id="g214">
			<path
   class="st15"
   d="M2878.8,1542l2.3-1.5c65.2-42.4,136.7-56.1,215.4-41.2l2.8,0.5l91.5,317.6l-252.5,48.3L2878.8,1542     L2878.8,1542z"
   id="path208" />
			<path
   class="st20"
   d="M2928.7,1515c35.8-15.1,73.3-22.2,112.8-21.6c1.4,22.4-18.5,43.8-47.3,49.3     C2965.3,1548.3,2937.5,1536.1,2928.7,1515L2928.7,1515z"
   id="path210" />
			<path
   class="st20"
   d="M2878.8,1542l-61.2,166.6l98.1,33.9L2878.8,1542L2878.8,1542z M3099.3,1499.7l131.1,129.8l-74.4,67     L3099.3,1499.7z"
   id="path212" />
		</g>
		<path
   class="st7"
   d="M3635,1452c3.4,0,6.3,2.8,6.5,6.2c0.2,3.4-2.5,6.2-5.9,6.2h-2.8c-19.7,0-37.7,5.7-52.3,16.1    c-14.6,10.3-25.8,25.3-32.1,43.6l-10.8,31.8c-8.4,24.7-23.5,44.8-43.2,58.7c-19.7,13.9-43.9,21.7-70.3,21.7h-598.2l0,0.2    c0.9,20.2,10,38.6,23.9,51.9c13.9,13.3,32.7,21.5,52.9,21.5h544.1c3.4,0,6.3,2.8,6.5,6.2l0.3,6.4c1.1,23.6-7.6,45.1-22.4,60.6    c-14.9,15.6-35.9,25.2-59.5,25.2h-487.8c3.4,39.2,37.3,70.5,76.6,70.5h417.8c3.4,0,6.3,2.8,6.5,6.2c0.2,3.4-2.5,6.2-5.9,6.2    h-417.8c-47.3,0-87.6-38.6-89.8-85.8l-0.1-3.3c-0.2-3.4,2.5-6.2,5.9-6.2h494.1c20.2,0,38.2-8.2,50.9-21.5    c12.7-13.3,20.1-31.7,19.2-51.9l0-0.2h-537.9c-23.6,0-45.6-9.6-61.8-25.2c-16.3-15.6-26.9-37-28-60.7l-0.3-6.4    c-0.2-3.4,2.5-6.2,5.9-6.2h604.5c23.9,0,45.7-7,63.4-19.5c17.7-12.5,31.3-30.6,38.9-52.9l10.8-31.8c7.1-20.8,19.8-37.7,36.4-49.4    c16.6-11.7,36.9-18.3,59.2-18.3L3635,1452L3635,1452z"
   id="path216" />
		<path
   class="st7"
   d="M3055.1,1932.6l0,0.2c0.4,10.7-3.5,20.4-10.2,27.5c-6.7,7.1-16.3,11.5-27.1,11.5c-10.8,0-20.8-4.4-28.2-11.5    l-0.3-0.4c-7.2-7.1-11.9-16.7-12.4-27.3c-0.2-3.4,2.5-6.2,5.9-6.2h65.8C3052,1926.4,3054.9,1929.2,3055.1,1932.6L3055.1,1932.6z     M3329.4,1932.6l0,0.2c0.4,10.7-3.5,20.4-10.2,27.5c-6.7,7.1-16.3,11.5-27.1,11.5c-10.8,0-20.8-4.4-28.2-11.5l-0.3-0.4    c-7.2-7.1-11.9-16.7-12.4-27.3c-0.2-3.4,2.5-6.2,5.9-6.2h65.8C3326.4,1926.4,3329.3,1929.2,3329.4,1932.6L3329.4,1932.6z     M3310,1951.5c3.3-3.4,5.6-7.8,6.5-12.7h-51.9c1.3,4.8,3.9,9,7.4,12.4l0.3,0.3c5,4.8,11.9,7.8,19.2,7.8    C3298.9,1959.3,3305.4,1956.3,3310,1951.5L3310,1951.5z M3035.7,1951.5c3.3-3.4,5.6-7.8,6.5-12.7h-51.9c1.3,4.8,3.9,9,7.4,12.4    l0.3,0.3c5,4.8,11.9,7.8,19.2,7.8C3024.5,1959.3,3031.1,1956.3,3035.7,1951.5L3035.7,1951.5z"
   id="path218" />
	</g>
	<g
   id="_2849942191200">
		<path
   class="st17"
   d="M2854.8,2453.6L2854.8,2453.6c40.2,0,74.2,32.6,76.1,72.7l0,0c1.8,40.2-29.2,72.7-69.4,72.7l0,0    c-40.2,0-74.2-32.6-76.1-72.7l0,0C2783.6,2486.2,2814.7,2453.6,2854.8,2453.6z"
   id="path221" />
		<path
   class="st18"
   d="M3005.3,2453.6H3575c16.2,0,29.9,13.1,30.6,29.3l0,0c0.7,16.2-11.8,29.3-27.9,29.3H3008    c-16.2,0-29.9-13.1-30.6-29.3l0,0C2976.6,2466.8,2989.1,2453.6,3005.3,2453.6z"
   id="path223" />
		<path
   class="st19"
   d="M3003.2,2537.5h453.4c12.9,0,23.6,6.6,24,14.6l0,0c0.4,8.1-9.8,14.6-22.6,14.6h-453.4    c-12.9,0-23.6-6.6-24-14.6l0,0C2980.2,2544,2990.3,2537.5,3003.2,2537.5z"
   id="path225" />
	</g>
	<g
   id="_2849942187808">
		<g
   id="g234">
			<path
   class="st17"
   d="M2865.4,2683.4L2865.4,2683.4c40,0,74.2,32.7,76.1,72.7l0,0c1.8,40-29.4,72.7-69.4,72.7l0,0     c-40,0-74.2-32.7-76.1-72.7l0,0C2794.1,2716.1,2825.4,2683.4,2865.4,2683.4z"
   id="path228" />
			<path
   class="st18"
   d="M3015.9,2683.4c189.9,0,379.8,0,569.7,0c16.1,0,29.9,13.2,30.6,29.3l0,0c0.7,16.1-11.8,29.3-27.9,29.3     c-189.9,0-379.8,0-569.7,0c-16.1,0-29.9-13.2-30.6-29.3l0,0C2987.2,2696.6,2999.7,2683.4,3015.9,2683.4z"
   id="path230" />
			<path
   class="st19"
   d="M3005,2767.3c156.9,0,313.8,0,470.7,0c8.1,0,14.9,6.6,15.3,14.6c0,0,0,0,0,0c0.4,8.1-5.9,14.6-14,14.6     c-156.9,0-313.8,0-470.7,0c-8.1,0-14.9-6.6-15.3-14.6c0,0,0,0,0,0C2990.7,2773.9,2997,2767.3,3005,2767.3L3005,2767.3z"
   id="path232" />
		</g>
	</g>
	<g
   id="_2849942182560">
		<path
   class="st17"
   d="M2875.9,2913.2L2875.9,2913.2c40.2,0,74.2,32.6,76.1,72.7l0,0c1.8,40.2-29.2,72.7-69.4,72.7l0,0    c-40.2,0-74.2-32.6-76.1-72.7l0,0C2804.7,2945.8,2835.7,2913.2,2875.9,2913.2z"
   id="path237" />
		<path
   class="st18"
   d="M3026.4,2913.2h569.7c16.2,0,29.9,13.1,30.6,29.3l0,0c0.7,16.2-11.8,29.3-27.9,29.3h-569.7    c-16.2,0-29.9-13.1-30.6-29.3l0,0C2997.7,2926.3,3010.2,2913.2,3026.4,2913.2z"
   id="path239" />
		<path
   class="st19"
   d="M3024.2,2997.1h453.4c12.9,0,23.6,6.6,24,14.6l0,0c0.4,8.1-9.8,14.6-22.6,14.6h-453.4    c-12.9,0-23.6-6.6-24-14.6l0,0C3001.2,3003.6,3011.4,2997.1,3024.2,2997.1z"
   id="path241" />
	</g>
	<path
   class="st14"
   d="M3585.6,2187.1l-36.4-4.5l-6-13.8c-4.4-10.3-11-18-20.5-24l-7.3-4.6c-8-5.1-13.9-11.1-18.6-19.2   c-0.8-1.3-2.1-2-3.6-1.9c-1.5,0.1-2.7,1-3.3,2.4c-1.9,4.8-1.7,10.1,0.6,15l2.4,5.1l14.6,15.8l-8.6,14.1l-90.9-3.3   c-13.2-0.5-15.1,11.1-1.5,13.3l41.9,4.7l5.3,48.8l-0.8,0.1c-2.4,0.4-4.2,1.7-5.4,3.7c-1.2,2.1-1.4,4.3-0.5,6.6l0.5,1.2   c1.2,3.2,4.2,5.1,7.6,4.9l95.3-5.5l50.5,7.7L3585.6,2187.1L3585.6,2187.1z"
   id="path244" />
	<path
   class="st4"
   d="M2476.4,1337.7L2476.4,1337.7c12.1,0,22.3,9.9,22.8,21.9l9.7,231.7c0.5,12.1-8.9,21.9-21,21.9h0   c-12.1,0-22.3-9.9-22.8-21.9l-9.7-231.7C2454.9,1347.5,2464.3,1337.7,2476.4,1337.7z M2489,1639.9L2489,1639.9   c12.1,0,22.3,9.9,22.8,21.9l9.7,231.7c0.5,12.1-8.9,21.9-21,21.9h0c-12.1,0-22.3-9.9-22.8-21.9l-9.7-231.7   C2467.5,1649.7,2476.9,1639.9,2489,1639.9z"
   id="path246" />
	<path
   class="st7"
   d="M4001.1,1899.4c37.2,96,22.9,230.2,6.3,290.7c-28.8,105-57.2,105.3-149.6,109.2   c-92.1,3.8-171.1-13.8-283.9-36.4c-26.5-5-26.4-84.3,2.2-86.2l294.4-18.7C3867.2,1938.4,3913.7,1912.7,4001.1,1899.4z"
   id="path248" />
	<polygon
   class="st21"
   points="3448.3,2186.4 3458,2186.7 3463.4,2233.6 3453.6,2235.1  "
   id="polygon250" />
	<path
   class="st7"
   d="M2159.1,3033.9l-74.9-609.5h250.9v7.6h-242.3l73.9,601L2159.1,3033.9L2159.1,3033.9z M1996,2432h-89   l-31.9,259.6l-7.6-0.9l32.7-266.3h95.8L1996,2432L1996,2432z M793.7,2884.9v58.7h18.7v220.1h-7.6v-212.4h-18.7v-66.3L793.7,2884.9   L793.7,2884.9z M1106.8,2884.9v58.7h18.7v220.1h-7.6v-212.4h-18.7v-66.3L1106.8,2884.9L1106.8,2884.9z M1595.4,2403.4   c-3.8-2.2-7.9-3.9-12.1-5.3c-4.2-1.4-8.6-2.3-13.2-2.9c-1.5-0.2-3-0.3-4.4-0.4c-1.4-0.1-2.8-0.1-4.4-0.1c-10.1,0-20,2-29.2,5.7   c-9.7,3.8-18.6,9.4-26.3,16.3c-7.8,6.9-14.3,15.2-19.2,24.4c-4.7,8.8-7.9,18.5-9.1,28.5l-11.7,98l-7.6-0.9l11.7-98   c1.3-11,4.8-21.6,9.9-31.2c5.3-10,12.5-19,20.9-26.5c8.4-7.5,18.1-13.6,28.6-17.7c10.1-4,20.9-6.2,32-6.2c1.5,0,3.1,0.1,4.8,0.2   c1.7,0.1,3.3,0.2,4.8,0.4c5,0.6,9.9,1.7,14.6,3.2c4.8,1.5,9.3,3.5,13.5,5.9L1595.4,2403.4L1595.4,2403.4z"
   id="path252" />
	<path
   class="st7"
   d="M2270.2,2701.1c0.6,5.2-3.1,10-8.3,10.6s-10-3.1-10.6-8.3l-47.9-401c-0.5-4-0.7-8-0.7-11.8   c0-22.9,8.1-43.6,21.9-59.2c13.8-15.6,33.3-26.2,55.9-28.9c3.8-0.5,7.7-0.7,11.6-0.7c27.2,0,53.1,11.1,72.9,28.8   c20,17.8,33.9,42.5,37.2,69.5l47.9,401c0.6,5.2-3.1,10-8.3,10.6s-10-3.1-10.6-8.3l-47.9-401c-2.7-22.3-14.3-42.7-30.9-57.6   c-16.5-14.7-37.9-23.9-60.3-23.9c-3.2,0-6.3,0.2-9.3,0.5c-17.8,2.1-33.1,10.4-43.8,22.6c-10.8,12.2-17.1,28.5-17.1,46.6   c0,3.2,0.2,6.4,0.6,9.5L2270.2,2701.1L2270.2,2701.1z"
   id="path254" />
	<path
   class="st7"
   d="M4020.1,2662l60.8,494.7l-7.6,0.9l-60.8-494.7L4020.1,2662z M5132.6,2758.4h144.3l-54.5,443.5l-7.6-0.9   l53.5-435h-135.7V2758.4z M4815.5,2837.9l-38.7,314.5l-7.6-0.9l38.7-314.5L4815.5,2837.9z M4381.7,2145.1h295.9v7.6h-295.9V2145.1z   "
   id="path256" />
</g>
</svg>
