<?xml version="1.0" encoding="UTF-8" standalone="no"?>
<svg
   version="1.0"
   id="Layer_1"
   x="0px"
   y="0px"
   viewBox="0 0 5333 4000"
   enable-background="new 0 0 5333 4000"
   xml:space="preserve"
   sodipodi:docname="debugging-software-conceptv-green.svg"
   inkscape:version="1.1.2 (b8e25be833, 2022-02-05)"
   xmlns:inkscape="http://www.inkscape.org/namespaces/inkscape"
   xmlns:sodipodi="http://sodipodi.sourceforge.net/DTD/sodipodi-0.dtd"
   xmlns="http://www.w3.org/2000/svg"
   xmlns:svg="http://www.w3.org/2000/svg"><defs
   id="defs189" /><sodipodi:namedview
   id="namedview187"
   pagecolor="#ffffff"
   bordercolor="#666666"
   borderopacity="1.0"
   inkscape:pageshadow="2"
   inkscape:pageopacity="0.0"
   inkscape:pagecheckerboard="0"
   showgrid="false"
   inkscape:zoom="0.105875"
   inkscape:cx="2323.4947"
   inkscape:cy="2063.7544"
   inkscape:window-width="1920"
   inkscape:window-height="1002"
   inkscape:window-x="-8"
   inkscape:window-y="-8"
   inkscape:window-maximized="1"
   inkscape:current-layer="_1921193460640_1_" />
<g
   id="_2032260309440">
	<path
   fill="#FFE5EE"
   d="M2674.9,126.3c1435.9,0,2600,1164.1,2600,2600c0,318.7-57.4,623.9-162.4,906H237.3   C132.4,3350.2,75,3045,75,2726.3C74.9,1290.4,1239,126.3,2674.9,126.3L2674.9,126.3z"
   id="path2"
   style="fill:#dff9f4;fill-opacity:1" />
	<g
   id="g8">
		<path
   fill="#E0ACBF"
   d="M4855,1146.2c-373.5-16-747.5,150.3-982.4,476.2s-274.2,733.4-140.8,1082.6    c373.5,16,747.5-150.2,982.4-476.2C4949.1,1902.8,4988.4,1495.4,4855,1146.2z"
   id="path4"
   style="fill:#9ce1d4;fill-opacity:1" />
		<path
   fill="#FFE5EE"
   d="M4727.5,1335.7c2.4-3.3,1.6-7.8-1.7-10.2c-3.3-2.4-7.9-1.6-10.2,1.7l-152.8,212.1l-40.6-250.3    c-0.6-4-4.4-6.7-8.4-6c-4,0.6-6.7,4.4-6.1,8.4l43,264.7L4221,2013.6l-56.8-349.6c-0.6-4-4.4-6.7-8.4-6c-4,0.6-6.7,4.4-6,8.4    l59.1,364.1L3921,2429.9l-40.6-250.3c-0.6-4-4.4-6.7-8.4-6.1c-4,0.6-6.7,4.4-6.1,8.4l43,264.7l-76.4,106    c-2.4,3.3-1.6,7.9,1.7,10.2c3.3,2.4,7.8,1.6,10.2-1.7l76.4-106l264.7-43c4-0.6,6.7-4.4,6-8.4c-0.6-4-4.4-6.7-8.4-6.1l-250.3,40.7    l287.8-399.5l364.1-59.1c4-0.6,6.7-4.4,6.1-8.4s-4.4-6.7-8.4-6.1l-349.6,56.8l329.7-457.7l264.7-43c4-0.6,6.7-4.4,6-8.4    c-0.6-4-4.4-6.7-8.4-6l-250.3,40.6L4727.5,1335.7L4727.5,1335.7z"
   id="path6" />
	</g>
	<g
   id="g22">
		<g
   id="g14">
			<path
   fill="#E0ACBF"
   d="M1816.6,144.8c-32.3,197.4,32.3,406.7,190.5,552.3c158.3,145.5,372.2,192.3,566.3,143.7     c32.3-197.4-32.3-406.7-190.5-552.3C2224.7,143,2010.7,96.2,1816.6,144.8L1816.6,144.8z"
   id="path10"
   style="fill:#9ce1d4;fill-opacity:1" />
			<path
   fill="#FFE5EE"
   d="M1909.2,224.7c-1.6-1.5-4.1-1.4-5.5,0.2c-1.5,1.6-1.4,4.1,0.2,5.5l103,94.7l-135.6,5.7     c-2.2,0.1-3.8,1.9-3.7,4.1c0.1,2.2,1.9,3.8,4.1,3.7l143.4-6l222.2,204.3l-189.4,7.9c-2.2,0.1-3.8,1.9-3.7,4.1     c0.1,2.2,1.9,3.8,4.1,3.7l197.2-8.3l194,178.4l-135.6,5.7c-2.2,0.1-3.8,1.9-3.7,4.1s1.9,3.8,4.1,3.7l143.4-6l51.5,47.4     c1.6,1.5,4.1,1.4,5.5-0.2c1.5-1.6,1.4-4.1-0.2-5.5l-51.5-47.3l-6-143.4c-0.1-2.1-1.9-3.8-4.1-3.7c-2.2,0.1-3.8,1.9-3.7,4.1     l5.7,135.6L2251,538.8l-8.3-197.2c-0.1-2.2-1.9-3.8-4.1-3.7c-2.2,0.1-3.8,1.9-3.7,4.1l7.9,189.4l-222.2-204.3l-6-143.4     c-0.1-2.2-1.9-3.8-4.1-3.7s-3.8,1.9-3.7,4.1l5.7,135.6L1909.2,224.7L1909.2,224.7z"
   id="path12" />
		</g>
		<g
   id="g20">
			<path
   fill="#E0ACBF"
   d="M3533.2,144.8c32.3,197.4-32.3,406.7-190.6,552.3c-158.2,145.5-372.2,192.3-566.3,143.7     c-32.3-197.4,32.3-406.7,190.5-552.3C3125.2,143,3339.2,96.2,3533.2,144.8L3533.2,144.8z"
   id="path16"
   style="fill:#9ce1d4;fill-opacity:1" />
			<path
   fill="#FFE5EE"
   d="M3440.7,224.7c1.6-1.5,4.1-1.4,5.5,0.2c1.5,1.6,1.4,4.1-0.2,5.5l-103,94.7l135.6,5.7     c2.1,0.1,3.8,1.9,3.7,4.1s-1.9,3.8-4.1,3.7l-143.4-6l-222.2,204.3l189.4,7.9c2.2,0.1,3.8,1.9,3.7,4.1s-1.9,3.8-4.1,3.7     l-197.2-8.3l-194,178.4l135.6,5.7c2.1,0.1,3.8,1.9,3.7,4.1c-0.1,2.2-1.9,3.8-4.1,3.7l-143.4-6l-51.5,47.4     c-1.6,1.5-4.1,1.4-5.5-0.2c-1.5-1.6-1.4-4.1,0.2-5.5l51.5-47.3l6-143.4c0.1-2.1,1.9-3.8,4.1-3.7c2.2,0.1,3.8,1.9,3.7,4.1     l-5.7,135.6l194-178.4l8.3-197.2c0.1-2.2,1.9-3.8,4.1-3.7c2.2,0.1,3.8,1.9,3.7,4.1l-7.9,189.4l222.2-204.3l6-143.4     c0.1-2.2,1.9-3.8,4.1-3.7c2.1,0.1,3.8,1.9,3.7,4.1l-5.7,135.6L3440.7,224.7L3440.7,224.7z"
   id="path18" />
		</g>
	</g>
	<g
   id="g28">
		<path
   fill="#E0ACBF"
   d="M396.2,697.4c373.5-16,747.5,150.3,982.4,476.2s274.2,733.4,140.8,1082.6    c-373.5,16-747.5-150.2-982.4-476.2S262.8,1046.6,396.2,697.4L396.2,697.4z"
   id="path24"
   style="fill:#9ce1d4;fill-opacity:1" />
		<path
   fill="#FFE5EE"
   d="M523.7,886.9c-2.4-3.3-1.6-7.8,1.7-10.2s7.9-1.6,10.2,1.7l152.8,212.1L729,840.1c0.6-4,4.4-6.7,8.4-6    c4,0.6,6.7,4.4,6.1,8.4l-43,264.7l329.7,457.7l56.8-349.6c0.6-4,4.4-6.7,8.4-6c4,0.6,6.7,4.4,6.1,8.4l-59.1,364.1l287.8,399.5    l40.7-250.3c0.6-4,4.4-6.7,8.4-6c4,0.6,6.7,4.4,6,8.4l-43,264.7l76.4,106c2.3,3.3,1.6,7.9-1.7,10.2c-3.3,2.4-7.8,1.6-10.2-1.7    l-76.4-106l-264.7-43c-4-0.6-6.7-4.4-6.1-8.4s4.4-6.7,8.4-6l250.3,40.6l-287.8-399.5L666.4,1531c-4-0.6-6.7-4.4-6.1-8.4    c0.6-4,4.4-6.7,8.4-6.1l349.6,56.8l-329.7-457.7l-264.7-43c-4-0.6-6.7-4.4-6.1-8.4s4.4-6.7,8.4-6l250.3,40.6L523.7,886.9    L523.7,886.9z"
   id="path26" />
	</g>
	<path
   fill="#B0798D"
   d="M903,438h3544c74.3,0,135,60.8,135,135v2326.5c0,74.3-60.8,135-135,135H903c-74.3,0-135.1-60.8-135.1-135   V573C767.9,498.7,828.7,438,903,438L903,438z"
   id="path30"
   style="fill:#79aea4;fill-opacity:1" />
	<path
   fill="#996175"
   d="M1862.1,3034.5H903c-74.3,0-135.1-60.8-135.1-135V1427.1h1008.7c47,0,85.5,38.5,85.5,85.5L1862.1,3034.5   L1862.1,3034.5z"
   id="path32"
   style="fill:#639087;fill-opacity:1" />
	<path
   fill="#CF97AC"
   d="M903,544.9c-15.3,0-28.1,12.9-28.1,28.1v2326.5c0,15.3,12.9,28.1,28.1,28.1h3544   c15.3,0,28.1-12.9,28.1-28.1V573c0-15.3-12.9-28.1-28.1-28.1H903L903,544.9z"
   id="path34"
   style="fill:#88c4b8;fill-opacity:1" />
	<path
   fill="#B0798D"
   d="M874.8,1427.1v1472.4c0,15.3,12.9,28.1,28.1,28.1h959.2v-1415c0-47-38.5-85.5-85.5-85.5L874.8,1427.1   L874.8,1427.1z"
   id="path36"
   style="fill:#76aaa0;fill-opacity:1" />
	<polygon
   fill="#996175"
   points="2206.8,3034.5 3143.1,3034.5 3143.1,3484.4 2206.8,3484.4  "
   id="polygon38"
   style="fill:#79aea4;fill-opacity:1" />
	<path
   fill="#B0798D"
   d="M2674.9,3382.7c359.9,0,683.6,96.3,907.4,249.6H1767.6C1991.4,3479,2315,3382.7,2674.9,3382.7   L2674.9,3382.7z"
   id="path40"
   style="fill:#88c4b8;fill-opacity:1" />
	<polygon
   fill="#8F566A"
   points="2206.8,3034.5 3143.1,3034.5 3143.1,3185 2206.8,3185  "
   id="polygon42"
   style="fill:#639087;fill-opacity:1" />
	<polygon
   fill="#DBA4B8"
   points="874.8,662.7 4475.1,662.7 4475.1,2809.8 874.8,2809.8  "
   id="polygon44"
   style="fill:#9ce1d4;fill-opacity:1" />
	<path
   fill="#CC91A7"
   d="M1862.1,2809.8H874.8V1427.1h901.8c47,0,85.5,38.5,85.5,85.5V2809.8z"
   id="path46"
   style="fill:#90d0c4;fill-opacity:1" />
	<path
   fill="#FCDDE9"
   d="M3291,2623.1c-20,0-36.2-16.2-36.2-36.2s16.2-36.3,36.2-36.3h490.8c20,0,36.3,16.2,36.3,36.3   c0,20-16.2,36.2-36.3,36.2H3291z M1489.1,1076.5c-20,0-36.2-16.2-36.2-36.2s16.2-36.3,36.2-36.3h230.2c20,0,36.3,16.2,36.3,36.3   c0,20-16.2,36.3-36.3,36.3L1489.1,1076.5L1489.1,1076.5z M2541.2,1076.5c-20,0-36.2-16.2-36.2-36.2s16.2-36.3,36.2-36.3h706.7   c20,0,36.2,16.2,36.2,36.3c0,20-16.2,36.3-36.2,36.3L2541.2,1076.5z M3484.4,1076.5c-20,0-36.3-16.2-36.3-36.2s16.2-36.3,36.3-36.3   h319.8c20,0,36.3,16.2,36.3,36.3c0,20-16.2,36.3-36.3,36.3L3484.4,1076.5z M1489.1,921.9c-20,0-36.2-16.2-36.2-36.2   s16.2-36.3,36.2-36.3h300.6c20,0,36.2,16.2,36.2,36.3s-16.2,36.2-36.2,36.2H1489.1z M2045.5,921.9c-20,0-36.3-16.2-36.3-36.2   s16.2-36.3,36.3-36.3h642.7c20,0,36.3,16.2,36.3,36.3s-16.2,36.2-36.3,36.2H2045.5L2045.5,921.9z M3890.6,921.9   c-20,0-36.2-16.2-36.2-36.2s16.2-36.3,36.2-36.3h204.6c20,0,36.3,16.2,36.3,36.3s-16.2,36.2-36.3,36.2H3890.6L3890.6,921.9z    M1671.5,1385.8c-20,0-36.3-16.2-36.3-36.3c0-20,16.2-36.3,36.3-36.3h538.8c20,0,36.3,16.2,36.3,36.3c0,20-16.2,36.3-36.3,36.3   H1671.5L1671.5,1385.8z M2517.2,1385.8c-20,0-36.3-16.2-36.3-36.3c0-20,16.2-36.3,36.3-36.3h454c20,0,36.2,16.2,36.2,36.3   c0,20-16.2,36.3-36.2,36.3H2517.2z M3905,1385.8c-20,0-36.3-16.2-36.3-36.3c0-20,16.2-36.3,36.3-36.3h190.3   c20,0,36.2,16.2,36.2,36.3c0,20-16.2,36.3-36.2,36.3H3905L3905,1385.8z M1671.5,1540.5c-20,0-36.3-16.2-36.3-36.3   c0-20,16.2-36.3,36.3-36.3H1940c20,0,36.2,16.2,36.2,36.3c0,20-16.2,36.3-36.2,36.3H1671.5z M2138.3,1540.5   c-20,0-36.2-16.2-36.2-36.3c0-20,16.2-36.3,36.2-36.3h1109.6c20,0,36.3,16.2,36.3,36.3c0,20-16.2,36.3-36.3,36.3H2138.3   L2138.3,1540.5z M3487.7,1540.5c-20,0-36.2-16.2-36.2-36.3c0-20,16.2-36.3,36.2-36.3h316.5c20,0,36.3,16.2,36.3,36.3   c0,20-16.2,36.3-36.3,36.3H3487.7z M1671.5,1695.2c-20,0-36.3-16.2-36.3-36.3c0-20,16.2-36.2,36.3-36.2h588.4   c20,0,36.3,16.2,36.3,36.2s-16.2,36.3-36.3,36.3H1671.5z M3103.9,1695.2c-20,0-36.2-16.2-36.2-36.3c0-20,16.2-36.2,36.2-36.2h585.2   c20,0,36.3,16.2,36.3,36.2s-16.2,36.3-36.3,36.3H3103.9z M1671.5,1849.8c-20,0-36.3-16.2-36.3-36.3c0-20,16.2-36.2,36.3-36.2h692.3   c20,0,36.3,16.2,36.3,36.2s-16.2,36.3-36.3,36.3H1671.5z M2808.1,1849.8c-20,0-36.2-16.2-36.2-36.3c0-20,16.2-36.2,36.2-36.2h335.7   c20,0,36.2,16.2,36.2,36.2s-16.2,36.3-36.2,36.3H2808.1L2808.1,1849.8z M3393.4,1849.8c-20,0-36.2-16.2-36.2-36.3   c0-20,16.2-36.2,36.2-36.2H3937c20,0,36.2,16.2,36.2,36.2s-16.2,36.3-36.2,36.3H3393.4z M1489.1,2159.1c-20,0-36.2-16.2-36.2-36.2   s16.2-36.3,36.2-36.3h105.5c20,0,36.3,16.2,36.3,36.3c0,20-16.2,36.2-36.3,36.2H1489.1z M1719.4,2159.1c-20,0-36.2-16.2-36.2-36.2   s16.2-36.3,36.2-36.3h473.3c20,0,36.2,16.2,36.2,36.3c0,20-16.2,36.2-36.2,36.2H1719.4z M2390.8,2159.1c-20,0-36.2-16.2-36.2-36.2   s16.2-36.3,36.2-36.3h550c20,0,36.3,16.2,36.3,36.3c0,20-16.2,36.2-36.3,36.2H2390.8L2390.8,2159.1z M3103.9,2159.1   c-20,0-36.2-16.2-36.2-36.2s16.2-36.3,36.2-36.3h444.5c20,0,36.2,16.2,36.2,36.3c0,20-16.2,36.2-36.2,36.2H3103.9z M1489.1,2313.7   c-20,0-36.2-16.2-36.2-36.2s16.2-36.3,36.2-36.3h312.1c20,0,36.2,16.2,36.2,36.3c0,20-16.2,36.2-36.2,36.2H1489.1z M1915.7,2313.7   c-20,0-36.3-16.2-36.3-36.2s16.2-36.3,36.3-36.3h344.1c20,0,36.3,16.2,36.3,36.3c0,20-16.2,36.2-36.3,36.2H1915.7L1915.7,2313.7z    M2691.5,2313.7c-20,0-36.3-16.2-36.3-36.2s16.2-36.3,36.3-36.3h444.4c20,0,36.3,16.2,36.3,36.3c0,20-16.2,36.2-36.3,36.2H2691.5z    M3446.1,2313.7c-20,0-36.3-16.2-36.3-36.2s16.2-36.3,36.3-36.3h444.5c20,0,36.3,16.2,36.3,36.3c0,20-16.2,36.2-36.3,36.2H3446.1z    M1489.1,2468.3c-20,0-36.2-16.2-36.2-36.2s16.2-36.3,36.2-36.3h137.6c20,0,36.3,16.2,36.3,36.3c0,20-16.2,36.3-36.3,36.3   L1489.1,2468.3z M1949.6,2468.3c-20,0-36.2-16.2-36.2-36.2s16.2-36.3,36.2-36.3h211c20,0,36.3,16.2,36.3,36.3   c0,20-16.2,36.3-36.3,36.3L1949.6,2468.3L1949.6,2468.3z M2459.7,2468.3c-20,0-36.3-16.2-36.3-36.2s16.2-36.3,36.3-36.3h390.1   c20,0,36.3,16.2,36.3,36.3c0,20-16.2,36.3-36.3,36.3L2459.7,2468.3z M3056,2468.3c-20,0-36.2-16.2-36.2-36.2s16.2-36.3,36.2-36.3   h559.6c20,0,36.3,16.2,36.3,36.3c0,20-16.2,36.3-36.3,36.3L3056,2468.3z M1489.1,2623.1c-20,0-36.2-16.2-36.2-36.2   s16.2-36.3,36.2-36.3h460.4c20,0,36.2,16.2,36.2,36.3c0,20-16.2,36.2-36.2,36.2H1489.1z"
   id="path48"
   style="fill:#ddfbf6;fill-opacity:1" />
	<path
   fill="#EBB5C9"
   d="M1849.5,1468c8,13,12.6,28.3,12.6,44.6v27.9h-190.7c-20,0-36.3-16.2-36.3-36.3c0-20,16.2-36.2,36.3-36.2   H1849.5z M1862.1,1622.7v72.5h-190.7c-20,0-36.3-16.2-36.3-36.3c0-20,16.2-36.2,36.3-36.2H1862.1z M1862.1,1777.3v72.5h-190.7   c-20,0-36.3-16.2-36.3-36.3c0-20,16.2-36.2,36.3-36.2H1862.1z M1862.1,2086.5v72.5h-142.7c-20,0-36.2-16.2-36.2-36.2   s16.2-36.3,36.2-36.3H1862.1z M1862.1,2550.5v72.5h-373c-20,0-36.2-16.2-36.2-36.2s16.2-36.3,36.2-36.3H1862.1L1862.1,2550.5z    M1489.1,2159.1c-20,0-36.2-16.2-36.2-36.2s16.2-36.3,36.2-36.3h105.5c20,0,36.3,16.2,36.3,36.3c0,20-16.2,36.2-36.3,36.2H1489.1z    M1489.1,2313.7c-20,0-36.2-16.2-36.2-36.2s16.2-36.3,36.2-36.3h312.1c20,0,36.2,16.2,36.2,36.3c0,20-16.2,36.2-36.2,36.2H1489.1z    M1489.1,2468.3c-20,0-36.2-16.2-36.2-36.2s16.2-36.3,36.2-36.3h137.6c20,0,36.3,16.2,36.3,36.3c0,20-16.2,36.2-36.3,36.2H1489.1z"
   id="path50"
   style="fill:#c6f0ea;fill-opacity:1" />
	<path
   fill="#FFFFFF"
   d="M1952.8,2004.4c-20,0-36.3-16.2-36.3-36.3c0-20,16.2-36.2,36.3-36.2h735.4c20,0,36.3,16.2,36.3,36.2   s-16.2,36.3-36.3,36.3H1952.8L1952.8,2004.4z M1306.4,2550.5c20,0,36.3,16.2,36.3,36.3s-16.2,36.2-36.3,36.2   c-20,0-36.2-16.2-36.2-36.2S1286.5,2550.5,1306.4,2550.5z M1306.4,849.4c20,0,36.3,16.2,36.3,36.3c0,20-16.2,36.2-36.3,36.2   c-20,0-36.2-16.2-36.2-36.2C1270.2,865.6,1286.5,849.4,1306.4,849.4z M1306.4,1004c20,0,36.3,16.2,36.3,36.3   c0,20-16.2,36.3-36.3,36.3c-20,0-36.2-16.2-36.2-36.3C1270.2,1020.3,1286.5,1004,1306.4,1004z M1306.4,1158.6   c20,0,36.3,16.2,36.3,36.3c0,20-16.2,36.3-36.3,36.3c-20,0-36.2-16.2-36.2-36.3C1270.2,1174.9,1286.5,1158.6,1306.4,1158.6z    M1306.4,1313.4c20,0,36.3,16.2,36.3,36.3c0,20-16.2,36.3-36.3,36.3c-20,0-36.2-16.2-36.2-36.3   C1270.2,1329.5,1286.5,1313.4,1306.4,1313.4z M1306.4,1468c20,0,36.3,16.2,36.3,36.3s-16.2,36.3-36.3,36.3   c-20,0-36.2-16.2-36.2-36.3S1286.5,1468,1306.4,1468z M1306.4,1622.7c20,0,36.3,16.2,36.3,36.2s-16.2,36.3-36.3,36.3   c-20,0-36.2-16.2-36.2-36.3C1270.2,1638.9,1286.5,1622.7,1306.4,1622.7z M1306.4,1777.3c20,0,36.3,16.2,36.3,36.2   s-16.2,36.3-36.3,36.3c-20,0-36.2-16.2-36.2-36.3C1270.2,1793.5,1286.5,1777.3,1306.4,1777.3z M1306.4,1931.9   c20,0,36.3,16.2,36.3,36.2s-16.2,36.3-36.3,36.3c-20,0-36.2-16.2-36.2-36.3C1270.2,1948.1,1286.5,1931.9,1306.4,1931.9z    M1306.4,2086.5c20,0,36.3,16.2,36.3,36.3c0,20-16.2,36.2-36.3,36.2c-20,0-36.2-16.2-36.2-36.2   C1270.2,2102.8,1286.5,2086.5,1306.4,2086.5z M1306.4,2241.2c20,0,36.3,16.2,36.3,36.3c0,20-16.2,36.2-36.3,36.2   c-20,0-36.2-16.2-36.2-36.2C1270.2,2257.4,1286.5,2241.2,1306.4,2241.2z M1306.4,2395.9c20,0,36.3,16.2,36.3,36.3   c0,20-16.2,36.2-36.3,36.2c-20,0-36.2-16.2-36.2-36.2C1270.2,2412,1286.5,2395.9,1306.4,2395.9z M1489.1,1231.2   c-20,0-36.2-16.2-36.2-36.3c0-20,16.2-36.3,36.2-36.3h522.8c20,0,36.3,16.2,36.3,36.3c0,20-16.2,36.3-36.3,36.3H1489.1z    M2192.6,1231.2c-20,0-36.3-16.2-36.3-36.3c0-20,16.2-36.3,36.3-36.3h669.2c20,0,36.2,16.2,36.2,36.3c0,20-16.2,36.3-36.2,36.3   H2192.6z M1489.1,2004.4c-20,0-36.2-16.2-36.2-36.3c0-20,16.2-36.2,36.2-36.2h265.4c20,0,36.2,16.2,36.2,36.2s-16.2,36.3-36.2,36.3   H1489.1z"
   id="path52" />
	<path
   fill="#EBB5C9"
   d="M3011.3,921.9c-20,0-36.2-16.2-36.2-36.2s16.2-36.3,36.2-36.3H3654c20,0,36.3,16.2,36.3,36.3   s-16.2,36.2-36.3,36.2H3011.3z M1917.7,1076.5c-20,0-36.3-16.2-36.3-36.2s16.2-36.3,36.3-36.3h460.4c20,0,36.3,16.2,36.3,36.3   c0,20-16.2,36.3-36.3,36.3L1917.7,1076.5L1917.7,1076.5z M3143.9,1385.8c-20,0-36.3-16.2-36.3-36.3s16.2-36.3,36.3-36.3H3598   c20,0,36.3,16.2,36.3,36.3s-16.2,36.3-36.3,36.3H3143.9z M2496.4,1695.2c-20,0-36.3-16.2-36.3-36.3c0-20,16.2-36.2,36.3-36.2h444.5   c20,0,36.3,16.2,36.3,36.2s-16.2,36.3-36.3,36.3H2496.4z M3740.3,2159.1c-20,0-36.2-16.2-36.2-36.2s16.2-36.3,36.2-36.3h354.9   c20,0,36.3,16.2,36.3,36.3c0,20-16.2,36.2-36.3,36.2H3740.3L3740.3,2159.1z M2219.8,2623.1c-20,0-36.3-16.2-36.3-36.2   s16.2-36.3,36.3-36.3h666.7c20,0,36.2,16.2,36.2,36.3s-16.2,36.2-36.2,36.2H2219.8z M3815.4,2468.3c-20,0-36.3-16.2-36.3-36.2   s16.2-36.3,36.3-36.3h279.9c20,0,36.2,16.2,36.2,36.3c0,20-16.2,36.3-36.2,36.3L3815.4,2468.3L3815.4,2468.3z"
   id="path54"
   style="fill:#8ccbbf;fill-opacity:1" />
	<g
   id="g74">
		<path
   fill="#FCDDE9"
   d="M1306.4,2550.5c20,0,36.3,16.2,36.3,36.3c0,20-16.2,36.2-36.3,36.2c-20,0-36.2-16.2-36.2-36.2    C1270.2,2566.8,1286.5,2550.5,1306.4,2550.5z M1306.4,1468c20,0,36.3,16.2,36.3,36.2s-16.2,36.3-36.3,36.3    c-20,0-36.2-16.2-36.2-36.3C1270.2,1484.3,1286.5,1468,1306.4,1468z M1306.4,1622.7c20,0,36.3,16.2,36.3,36.2    s-16.2,36.3-36.3,36.3c-20,0-36.2-16.2-36.2-36.3C1270.2,1638.9,1286.5,1622.7,1306.4,1622.7z M1306.4,1777.3    c20,0,36.3,16.2,36.3,36.2s-16.2,36.3-36.3,36.3c-20,0-36.2-16.2-36.2-36.3C1270.2,1793.5,1286.5,1777.3,1306.4,1777.3z     M1306.4,1931.9c20,0,36.3,16.2,36.3,36.2s-16.2,36.3-36.3,36.3c-20,0-36.2-16.2-36.2-36.3    C1270.2,1948.1,1286.5,1931.9,1306.4,1931.9z M1306.4,2086.5c20,0,36.3,16.2,36.3,36.3c0,20-16.2,36.2-36.3,36.2    c-20,0-36.2-16.2-36.2-36.2C1270.2,2102.8,1286.5,2086.5,1306.4,2086.5z M1306.4,2241.2c20,0,36.3,16.2,36.3,36.3    c0,20-16.2,36.2-36.3,36.2c-20,0-36.2-16.2-36.2-36.2C1270.2,2257.4,1286.5,2241.2,1306.4,2241.2z M1306.4,2395.9    c20,0,36.3,16.2,36.3,36.3c0,20-16.2,36.2-36.3,36.2c-20,0-36.2-16.2-36.2-36.2C1270.2,2412,1286.5,2395.9,1306.4,2395.9z     M1489.1,2004.4c-20,0-36.2-16.2-36.2-36.3c0-20,16.2-36.2,36.2-36.2h265.4c20,0,36.2,16.2,36.2,36.2s-16.2,36.3-36.2,36.3H1489.1    z"
   id="path56"
   style="fill:#81bbb0;fill-opacity:1" />
		<path
   fill="#C28A9E"
   d="M360.7,1307.4h1262.8c47,0,85.5,38.5,85.5,85.5v2153.8c0,47-38.5,85.5-85.5,85.5H360.7    c-47,0-85.5-38.5-85.5-85.5V1393C275.2,1345.9,313.7,1307.4,360.7,1307.4L360.7,1307.4z"
   id="path58"
   style="fill:#88c4b8;fill-opacity:1" />
		<path
   fill="#DBA4B8"
   d="M360.7,1476.7h1262.8c1.9,0,3.4,1.5,3.4,3.4v1979.4c0,1.9-1.5,3.4-3.4,3.4H360.7c-1.9,0-3.4-1.5-3.4-3.4    V1480.2C357.3,1478.3,358.9,1476.7,360.7,1476.7L360.7,1476.7z"
   id="path60"
   style="fill:#9ce1d4;fill-opacity:1" />
		<path
   fill="#996175"
   d="M861.9,1371h260.5c12.5,0,22.8,10.2,22.8,22.8l0,0c0,12.6-10.2,22.8-22.8,22.8H861.9    c-12.5,0-22.8-10.2-22.8-22.8l0,0C839.1,1381.3,849.4,1371,861.9,1371L861.9,1371z"
   id="path62"
   style="fill:#058a75;fill-opacity:1" />
		<path
   fill="#996175"
   d="M876,3517.4h232.2c20.3,0,36.9,16.6,36.9,36.9l0,0c0,20.3-16.6,36.9-36.9,36.9H876    c-20.3,0-36.9-16.6-36.9-36.9l0,0C839.1,3534,855.7,3517.4,876,3517.4z"
   id="path64"
   style="fill:#058a75;fill-opacity:1" />
		<g
   id="g72">
			<path
   fill="#FCDDE9"
   d="M599.8,1874.3c-16.5,0-29.9-13.4-29.9-29.9s13.4-29.9,29.9-29.9h190c16.5,0,29.9,13.4,29.9,29.9     s-13.4,29.9-29.9,29.9H599.8L599.8,1874.3z M1468.3,1874.3c-16.5,0-29.9-13.4-29.9-29.9s13.4-29.9,29.9-29.9h40.9     c16.5,0,29.9,13.4,29.9,29.9s-13.4,29.9-29.9,29.9H1468.3z M599.8,1746.7c-16.5,0-29.9-13.4-29.9-29.9s13.4-29.9,29.9-29.9H848     c16.5,0,29.9,13.4,29.9,29.9s-13.4,29.9-29.9,29.9H599.8z M1059.1,1746.7c-16.5,0-29.9-13.4-29.9-29.9s13.4-29.9,29.9-29.9h386.5     c16.5,0,29.9,13.4,29.9,29.9s-13.4,29.9-29.9,29.9H1059.1L1059.1,1746.7L1059.1,1746.7z M750.3,2129.6     c-16.5,0-29.9-13.4-29.9-29.9s13.4-29.9,29.9-29.9h444.8c16.5,0,29.9,13.4,29.9,29.9s-13.4,29.9-29.9,29.9H750.3L750.3,2129.6z      M1291,2129.6c-16.5,0-29.9-13.4-29.9-29.9s13.4-29.9,29.9-29.9h187.4c16.5,0,29.9,13.4,29.9,29.9s-13.4,29.9-29.9,29.9H1291z      M750.3,2257.3c-16.5,0-29.9-13.4-29.9-29.9s13.4-29.9,29.9-29.9H972c16.5,0,29.9,13.4,29.9,29.9s-13.4,29.9-29.9,29.9H750.3z      M1135.7,2257.3c-16.5,0-29.9-13.4-29.9-29.9s13.4-29.9,29.9-29.9h360.1c16.5,0,29.9,13.4,29.9,29.9s-13.4,29.9-29.9,29.9H1135.7     L1135.7,2257.3z M750.3,2385c-16.5,0-29.9-13.4-29.9-29.9s13.4-29.9,29.9-29.9H1236c16.5,0,29.9,13.4,29.9,29.9     s-13.4,29.9-29.9,29.9H750.3L750.3,2385z M750.3,2512.6c-16.5,0-29.9-13.4-29.9-29.9s13.4-29.9,29.9-29.9h571.5     c16.5,0,29.9,13.4,29.9,29.9s-13.4,29.9-29.9,29.9H750.3L750.3,2512.6z M599.8,2767.9c-16.5,0-29.9-13.4-29.9-29.9     s13.4-29.9,29.9-29.9h87.1c16.5,0,29.9,13.4,29.9,29.9s-13.4,29.9-29.9,29.9H599.8z M789.9,2767.9c-16.5,0-29.9-13.4-29.9-29.9     s13.4-29.9,29.9-29.9h260.9c16.5,0,29.9,13.4,29.9,29.9s-13.4,29.9-29.9,29.9H789.9L789.9,2767.9z M1214.4,2767.9     c-16.5,0-29.9-13.4-29.9-29.9s13.4-29.9,29.9-29.9h266.5c16.5,0,29.9,13.4,29.9,29.9s-13.4,29.9-29.9,29.9H1214.4z M599.8,2895.6     c-16.5,0-29.9-13.4-29.9-29.9s13.4-29.9,29.9-29.9h257.6c16.5,0,29.9,13.4,29.9,29.9s-13.4,29.9-29.9,29.9H599.8L599.8,2895.6z      M951.9,2895.6c-16.5,0-29.9-13.4-29.9-29.9s13.4-29.9,29.9-29.9H1236c16.5,0,29.9,13.4,29.9,29.9s-13.4,29.9-29.9,29.9H951.9     L951.9,2895.6z M1347.1,2895.6c-16.5,0-29.9-13.4-29.9-29.9s13.4-29.9,29.9-29.9h96.8c16.5,0,29.9,13.4,29.9,29.9     s-13.4,29.9-29.9,29.9H1347.1z M599.8,3023.2c-16.5,0-29.9-13.4-29.9-29.9s13.4-29.9,29.9-29.9h113.6c16.5,0,29.9,13.4,29.9,29.9     s-13.4,29.9-29.9,29.9H599.8z M980,3023.2c-16.5,0-29.9-13.4-29.9-29.9s13.4-29.9,29.9-29.9h174.2c16.5,0,29.9,13.4,29.9,29.9     s-13.4,29.9-29.9,29.9H980z M1401,3023.2c-16.5,0-29.9-13.4-29.9-29.9s13.4-29.9,29.9-29.9h99.2c16.5,0,29.9,13.4,29.9,29.9     s-13.4,29.9-29.9,29.9H1401z M599.8,3151c-16.5,0-29.9-13.4-29.9-29.9s13.4-29.9,29.9-29.9h380.1c16.5,0,29.9,13.4,29.9,29.9     s-13.4,29.9-29.9,29.9H599.8L599.8,3151z"
   id="path66"
   style="fill:#ddfbf6;fill-opacity:1" />
			<path
   fill="#FFFFFF"
   d="M982.6,2640.3c-16.5,0-29.9-13.4-29.9-29.9s13.4-29.9,29.9-29.9h449.6c16.5,0,29.9,13.4,29.9,29.9     s-13.4,29.9-29.9,29.9H982.6L982.6,2640.3L982.6,2640.3z M449,3091.1c16.5,0,29.9,13.4,29.9,29.9s-13.4,29.9-29.9,29.9     s-29.9-13.4-29.9-29.9S432.6,3091.1,449,3091.1z M449,1686.8c16.5,0,29.9,13.4,29.9,29.9s-13.4,29.9-29.9,29.9     s-29.9-13.4-29.9-29.9S432.6,1686.8,449,1686.8z M449,1814.4c16.5,0,29.9,13.4,29.9,29.9s-13.4,29.9-29.9,29.9     s-29.9-13.4-29.9-29.9S432.6,1814.4,449,1814.4z M449,1942.1c16.5,0,29.9,13.4,29.9,29.9s-13.4,29.9-29.9,29.9     s-29.9-13.4-29.9-29.9S432.6,1942.1,449,1942.1z M449,2069.8c16.5,0,29.9,13.4,29.9,29.9s-13.4,29.9-29.9,29.9     s-29.9-13.4-29.9-29.9C419.1,2083.1,432.6,2069.8,449,2069.8z M449,2197.5c16.5,0,29.9,13.4,29.9,29.9s-13.4,29.9-29.9,29.9     s-29.9-13.4-29.9-29.9S432.6,2197.5,449,2197.5z M449,2325.1c16.5,0,29.9,13.4,29.9,29.9s-13.4,30-29.9,30s-29.9-13.4-29.9-29.9     S432.6,2325.1,449,2325.1z M449,2452.8c16.5,0,29.9,13.4,29.9,29.9s-13.4,29.9-29.9,29.9s-29.9-13.4-29.9-29.9     S432.6,2452.8,449,2452.8z M449,2580.4c16.5,0,29.9,13.4,29.9,29.9s-13.4,29.9-29.9,29.9s-29.9-13.4-29.9-29.9     S432.6,2580.4,449,2580.4z M449,2708.1c16.5,0,29.9,13.4,29.9,29.9s-13.4,29.9-29.9,29.9s-29.9-13.4-29.9-29.9     S432.6,2708.1,449,2708.1z M449,2835.7c16.5,0,29.9,13.4,29.9,29.9s-13.4,29.9-29.9,29.9s-29.9-13.4-29.9-29.9     C419.1,2849.1,432.6,2835.7,449,2835.7z M449,2963.5c16.5,0,29.9,13.4,29.9,29.9s-13.4,29.9-29.9,29.9s-29.9-13.4-29.9-29.9     C419.1,2976.8,432.6,2963.5,449,2963.5z M599.8,2001.9c-16.5,0-29.9-13.4-29.9-29.9s13.4-29.9,29.9-29.9h431.6     c16.5,0,29.9,13.4,29.9,29.9s-13.4,29.9-29.9,29.9H599.8z M1180.5,2001.9c-16.5,0-29.9-13.4-29.9-29.9s13.4-29.9,29.9-29.9h304.9     c16.5,0,29.9,13.4,29.9,29.9s-13.4,29.9-29.9,29.9H1180.5z M599.8,2640.3c-16.5,0-29.9-13.4-29.9-29.9s13.4-29.9,29.9-29.9h219.1     c16.5,0,29.9,13.4,29.9,29.9s-13.4,29.9-29.9,29.9H599.8z"
   id="path68" />
			<path
   fill="#EBB5C9"
   d="M953.6,1874.3c-16.5,0-29.9-13.4-29.9-29.9s13.4-29.9,29.9-29.9h380.1c16.5,0,29.9,13.4,29.9,29.9     s-13.4,29.9-29.9,29.9H953.6L953.6,1874.3L953.6,1874.3z M1377.7,2385c-16.5,0-29.9-13.4-29.9-29.9s13.4-29.9,29.9-29.9h92.4     c16.5,0,29.9,13.4,29.9,29.9s-13.4,29.9-29.9,29.9H1377.7z M1203,3151c-16.5,0-29.9-13.4-29.9-29.9s13.4-29.9,29.9-29.9h239.8     c16.5,0,29.9,13.4,29.9,29.9s-13.4,29.9-29.9,29.9H1203L1203,3151z"
   id="path70"
   style="fill:#8ccbbf;fill-opacity:1" />
		</g>
	</g>
	<path
   fill="#C28A9E"
   d="M3839.1,1676.2h873.5c39.6,0,72,32.4,72,72v1812.2c0,39.6-32.4,72-72,72h-873.5c-39.6,0-72-32.4-72-72   V1748.2C3767.2,1708.6,3799.5,1676.2,3839.1,1676.2z"
   id="path76"
   style="fill:#88c4b8;fill-opacity:1" />
	<path
   fill="#DBA4B8"
   d="M3839.7,1818.7H4712c1.9,0,3.4,1.5,3.4,3.4v1664.3c0,1.9-1.5,3.4-3.4,3.4h-872.4c-1.9,0-3.4-1.5-3.4-3.4   V1822.1C3836.2,1820.2,3837.8,1818.7,3839.7,1818.7L3839.7,1818.7z"
   id="path78"
   style="fill:#9ce1d4;fill-opacity:1" />
	<path
   fill="#996175"
   d="M4166.3,1729.7h219.2c10.6,0,19.2,8.6,19.2,19.2l0,0c0,10.6-8.6,19.2-19.2,19.2h-219.2   c-10.6,0-19.2-8.6-19.2-19.2l0,0C4147.1,1738.3,4155.7,1729.7,4166.3,1729.7z"
   id="path80"
   style="fill:#058a75;fill-opacity:1" />
	<path
   fill="#996175"
   d="M4178.1,3535.7h195.4c17.1,0,31.1,14,31.1,31l0,0c0,17.1-14,31.1-31.1,31.1h-195.4   c-17.1,0-31.1-14-31.1-31.1l0,0C4147.1,3549.6,4161.1,3535.7,4178.1,3535.7z"
   id="path82"
   style="fill:#058a75;fill-opacity:1" />
	<g
   id="g90">
		<path
   fill="#FCDDE9"
   d="M4035.5,2153.2c-13.9,0-25.2-11.3-25.2-25.2s11.3-25.2,25.2-25.2h159.9c13.9,0,25.2,11.3,25.2,25.2    s-11.3,25.2-25.2,25.2H4035.5z M4536.7,2153.2c-13.9,0-25.2-11.3-25.2-25.2s11.3-25.2,25.2-25.2h34.4c13.9,0,25.2,11.3,25.2,25.2    s-11.3,25.2-25.2,25.2H4536.7z M4035.5,2045.7c-13.9,0-25.2-11.3-25.2-25.2c0-13.9,11.3-25.2,25.2-25.2h104.4    c13.9,0,25.2,11.3,25.2,25.2c0,13.9-11.3,25.2-25.2,25.2H4035.5z M4317.6,2045.7c-13.9,0-25.2-11.3-25.2-25.2    c0-13.9,11.3-25.2,25.2-25.2h325.2c13.9,0,25.2,11.3,25.2,25.2c0,13.9-11.3,25.2-25.2,25.2H4317.6L4317.6,2045.7z M4162.2,2368    c-13.9,0-25.2-11.3-25.2-25.2s11.3-25.2,25.2-25.2h232.5c13.9,0,25.2,11.3,25.2,25.2s-11.3,25.2-25.2,25.2H4162.2L4162.2,2368z     M4475.3,2368c-13.9,0-25.2-11.3-25.2-25.2s11.3-25.2,25.2-25.2H4633c13.9,0,25.2,11.3,25.2,25.2s-11.3,25.2-25.2,25.2H4475.3z     M4162.2,2475.4c-13.9,0-25.2-11.3-25.2-25.2s11.3-25.2,25.2-25.2h186.5c13.9,0,25.2,11.3,25.2,25.2s-11.3,25.2-25.2,25.2H4162.2z     M4486.4,2475.4c-13.9,0-25.2-11.3-25.2-25.2s11.3-25.2,25.2-25.2h64.4c13.9,0,25.2,11.3,25.2,25.2s-11.3,25.2-25.2,25.2H4486.4z     M4162.2,2582.8c-13.9,0-25.2-11.3-25.2-25.2s11.3-25.2,25.2-25.2h253.4c13.9,0,25.2,11.3,25.2,25.2s-11.3,25.2-25.2,25.2H4162.2z     M4162.2,2690.2c-13.9,0-25.2-11.3-25.2-25.2s11.3-25.2,25.2-25.2h480.9c13.9,0,25.2,11.3,25.2,25.2s-11.3,25.2-25.2,25.2H4162.2z     M4035.5,2905c-13.9,0-25.2-11.3-25.2-25.2s11.3-25.2,25.2-25.2h73.3c13.9,0,25.2,11.3,25.2,25.2s-11.3,25.2-25.2,25.2H4035.5z     M4195.5,2905c-13.9,0-25.2-11.3-25.2-25.2s11.3-25.2,25.2-25.2h75.4c13.9,0,25.2,11.3,25.2,25.2s-11.3,25.2-25.2,25.2H4195.5z     M4408.6,2905c-13.9,0-25.2-11.3-25.2-25.2s11.3-25.2,25.2-25.2h224.3c13.9,0,25.2,11.3,25.2,25.2s-11.3,25.2-25.2,25.2H4408.6z     M4035.5,3012.4c-13.9,0-25.2-11.3-25.2-25.2s11.3-25.2,25.2-25.2h216.8c13.9,0,25.2,11.3,25.2,25.2s-11.3,25.2-25.2,25.2H4035.5z     M4331.8,3012.4c-13.9,0-25.2-11.3-25.2-25.2s11.3-25.2,25.2-25.2h119.5c13.9,0,25.2,11.3,25.2,25.2s-11.3,25.2-25.2,25.2H4331.8    L4331.8,3012.4z M4544.7,3012.4c-13.9,0-25.2-11.3-25.2-25.2s11.3-25.2,25.2-25.2h81.4c13.9,0,25.2,11.3,25.2,25.2    s-11.3,25.2-25.2,25.2H4544.7z M4035.5,3119.8c-13.9,0-25.2-11.3-25.2-25.2s11.3-25.2,25.2-25.2h95.5c13.9,0,25.2,11.3,25.2,25.2    s-11.3,25.2-25.2,25.2H4035.5z M4253.5,3119.8c-13.9,0-25.2-11.3-25.2-25.2s11.3-25.2,25.2-25.2H4400c13.9,0,25.2,11.3,25.2,25.2    s-11.3,25.2-25.2,25.2H4253.5z M4522.5,3119.8c-13.9,0-25.2-11.3-25.2-25.2s11.3-25.2,25.2-25.2h83.5c13.9,0,25.2,11.3,25.2,25.2    s-11.3,25.2-25.2,25.2H4522.5z M4035.5,3227.3c-13.9,0-25.2-11.3-25.2-25.2s11.3-25.2,25.2-25.2h225.3c13.9,0,25.2,11.3,25.2,25.2    s-11.3,25.2-25.2,25.2H4035.5z"
   id="path84"
   style="fill:#ddfbf6;fill-opacity:1" />
		<path
   fill="#FFFFFF"
   d="M4357.6,2797.6c-13.9,0-25.2-11.3-25.2-25.2s11.3-25.2,25.2-25.2h214c13.9,0,25.2,11.3,25.2,25.2    s-11.3,25.2-25.2,25.2H4357.6L4357.6,2797.6z M3908.7,3177c13.9,0,25.2,11.3,25.2,25.2s-11.3,25.2-25.2,25.2s-25.2-11.3-25.2-25.2    C3883.5,3188.2,3894.8,3177,3908.7,3177z M3908.7,1995.4c13.9,0,25.2,11.3,25.2,25.2c0,13.9-11.3,25.2-25.2,25.2    s-25.2-11.3-25.2-25.2C3883.5,2006.6,3894.8,1995.4,3908.7,1995.4z M3908.7,2102.8c13.9,0,25.2,11.3,25.2,25.2    s-11.3,25.2-25.2,25.2s-25.2-11.3-25.2-25.2S3894.8,2102.8,3908.7,2102.8z M3908.7,2210.2c13.9,0,25.2,11.3,25.2,25.2    s-11.3,25.2-25.2,25.2s-25.2-11.3-25.2-25.2S3894.8,2210.2,3908.7,2210.2z M3908.7,2317.7c13.9,0,25.2,11.3,25.2,25.2    s-11.3,25.2-25.2,25.2s-25.2-11.3-25.2-25.2C3883.5,2328.9,3894.8,2317.7,3908.7,2317.7z M3908.7,2425.1    c13.9,0,25.2,11.3,25.2,25.2s-11.3,25.2-25.2,25.2s-25.2-11.3-25.2-25.2C3883.5,2436.3,3894.8,2425.1,3908.7,2425.1z     M3908.7,2532.5c13.9,0,25.2,11.3,25.2,25.2s-11.3,25.2-25.2,25.2s-25.2-11.3-25.2-25.2    C3883.5,2543.7,3894.8,2532.5,3908.7,2532.5z M3908.7,2639.9c13.9,0,25.2,11.3,25.2,25.2s-11.3,25.2-25.2,25.2    s-25.2-11.3-25.2-25.2C3883.5,2651.1,3894.8,2639.9,3908.7,2639.9z M3908.7,2747.3c13.9,0,25.2,11.3,25.2,25.2    s-11.3,25.2-25.2,25.2s-25.2-11.3-25.2-25.2C3883.5,2758.5,3894.8,2747.3,3908.7,2747.3z M3908.7,2854.7    c13.9,0,25.2,11.3,25.2,25.2s-11.3,25.2-25.2,25.2s-25.2-11.3-25.2-25.2C3883.5,2865.9,3894.8,2854.7,3908.7,2854.7z     M3908.7,2962.1c13.9,0,25.2,11.3,25.2,25.2s-11.3,25.2-25.2,25.2s-25.2-11.3-25.2-25.2    C3883.5,2973.4,3894.8,2962.1,3908.7,2962.1L3908.7,2962.1z M3908.7,3069.5c13.9,0,25.2,11.3,25.2,25.2s-11.3,25.2-25.2,25.2    s-25.2-11.3-25.2-25.2C3883.5,3080.7,3894.8,3069.5,3908.7,3069.5z M4035.5,2260.6c-13.9,0-25.2-11.3-25.2-25.2    s11.3-25.2,25.2-25.2h284.4c13.9,0,25.2,11.3,25.2,25.2s-11.3,25.2-25.2,25.2H4035.5z M4445.4,2260.6c-13.9,0-25.2-11.3-25.2-25.2    s11.3-25.2,25.2-25.2h83.6c13.9,0,25.2,11.3,25.2,25.2s-11.3,25.2-25.2,25.2H4445.4z M4035.5,2797.6c-13.9,0-25.2-11.3-25.2-25.2    s11.3-25.2,25.2-25.2h184.4c13.9,0,25.2,11.3,25.2,25.2s-11.3,25.2-25.2,25.2H4035.5z"
   id="path86" />
		<path
   fill="#EBB5C9"
   d="M4333.2,2153.2c-13.9,0-25.2-11.3-25.2-25.2s11.3-25.2,25.2-25.2h112.7c13.9,0,25.2,11.3,25.2,25.2    s-11.3,25.2-25.2,25.2H4333.2L4333.2,2153.2z M4530,2582.8c-13.9,0-25.2-11.3-25.2-25.2s11.3-25.2,25.2-25.2h77.7    c13.9,0,25.2,11.3,25.2,25.2s-11.3,25.2-25.2,25.2H4530z M4374.2,3227.3c-13.9,0-25.2-11.3-25.2-25.2s11.3-25.2,25.2-25.2H4576    c13.9,0,25.2,11.3,25.2,25.2s-11.3,25.2-25.2,25.2H4374.2z"
   id="path88"
   style="fill:#8ccbbf;fill-opacity:1" />
	</g>
	<path
   fill="#FFFFFF"
   d="M673.5,806.8c14.5,0,26.3,11.8,26.3,26.3s-11.8,26.3-26.3,26.3s-26.3-11.8-26.3-26.3   C647.3,818.5,659,806.8,673.5,806.8z M4379.5,1193.6c41.7,0,75.5,33.8,75.5,75.5s-33.8,75.4-75.5,75.4s-75.4-33.8-75.4-75.4   C4304.1,1227.3,4337.9,1193.6,4379.5,1193.6z M2849,244.4c24,0,43.4,19.4,43.4,43.5c0,24-19.4,43.4-43.4,43.4s-43.4-19.4-43.4-43.4   S2825,244.4,2849,244.4z M4933.8,2760c61.9,0,112,50.2,112,112c0,61.9-50.2,112-112,112c-61.9,0-112-50.2-112-112   C4821.7,2810.2,4871.9,2760,4933.8,2760z M3445.8,3394.7c29,0,52.5,23.5,52.5,52.5s-23.5,52.5-52.5,52.5s-52.5-23.5-52.5-52.5   C3393.3,3418.3,3416.8,3394.7,3445.8,3394.7z M1256.2,2505.8c17.7,0,32,14.3,32,32s-14.3,32-32,32s-32-14.3-32-32   S1238.5,2505.8,1256.2,2505.8z M1937,3328.5c63.1,0,114.3,51.2,114.3,114.3s-51.2,114.3-114.3,114.3s-114.3-51.2-114.3-114.3   S1873.9,3328.5,1937,3328.5z M315.6,1952.2c53.2,0,96.3,43.1,96.3,96.3c0,53.2-43.1,96.3-96.3,96.3s-96.3-43.1-96.3-96.3   C219.3,1995.3,262.4,1952.2,315.6,1952.2z"
   id="path92" />
	<g
   id="g102">
		<path
   fill="#FFE5EE"
   d="M4289.8,325.8c15.3,0,27.9,12.6,27.9,27.9v382.4c0,15.3-12.6,27.9-27.9,27.9c-297,0-335.2,0-632.2,0    c-15.4,0-27.9-12.6-27.9-27.9V353.7c0-15.4,12.6-27.9,27.9-27.9C3954.6,325.8,3992.9,325.8,4289.8,325.8L4289.8,325.8z"
   id="path94"
   style="fill:#d8f1e4;fill-opacity:1" />
		<path
   fill="#E0ACBF"
   d="M3657.7,325.8c-15.4,0-27.9,12.6-27.9,27.9V415c315.6,0,372.4,0,688,0v-61.3c0-15.4-12.6-27.9-27.9-27.9    C3992.9,325.8,3954.6,325.8,3657.7,325.8L3657.7,325.8z"
   id="path96"
   style="fill:#a1c9b4;fill-opacity:1" />
		<path
   fill="#FFFFFF"
   d="M4152.1,352.4c11.8,0,23.6,0,35.4,0c23.8,0,23.8,35.9,0,35.9c-11.8,0-23.6,0-35.4,0    C4128.4,388.3,4128.4,352.4,4152.1,352.4z M4233.3,352.4h35.4c23.8,0,23.8,35.9,0,35.9h-35.4    C4209.5,388.3,4209.5,352.4,4233.3,352.4z M4072.7,352.4h35.5c23.8,0,23.8,35.9,0,35.9h-35.5    C4048.9,388.3,4048.9,352.4,4072.7,352.4z"
   id="path98" />
		<path
   fill="#E0ACBF"
   d="M3896.7,654.3h154c19,0,34.4,15.4,34.4,34.4l0,0c0,19-15.4,34.4-34.4,34.4h-154c-19,0-34.4-15.4-34.4-34.4    l0,0C3862.3,669.7,3877.7,654.3,3896.7,654.3z"
   id="path100"
   style="fill:#a1c9b4;fill-opacity:1" />
	</g>
	<g
   id="g122">
		<path
   fill="#FFFFFF"
   d="M2759.4,2350.2h1233.4c11.1,0,20.1,19.3,20.1,43.2V3272c0,23.8-9,43.2-20.1,43.2H2759.4    c-11.1,0-20.1-19.3-20.1-43.2v-878.6C2739.3,2369.5,2748.3,2350.2,2759.4,2350.2z"
   id="path104" />
		<path
   fill="#FFE5EE"
   d="M3501.6,2776.8c29.4,0,58.8,0,88.1,0c13.6,0,24.7,11.1,24.7,24.7c0,14.9,0,29.8,0,44.7    c0,13.6-11.1,24.7-24.7,24.7c-29.4,0-58.8,0-88.1,0c-13.6,0-24.7-11.1-24.7-24.7c0-14.9,0-29.8,0-44.7    C3477,2787.9,3488.1,2776.8,3501.6,2776.8z M2993,2776.8c29.4,0,58.8,0,88.1,0c13.6,0,24.7,11.1,24.7,24.7c0,14.9,0,29.8,0,44.7    c0,13.6-11.1,24.7-24.7,24.7c-29.4,0-58.8,0-88.1,0c-13.6,0-24.7-11.1-24.7-24.7c0-14.9,0-29.8,0-44.7    C2968.3,2787.9,2979.4,2776.8,2993,2776.8z M3162.5,2645.6c29.4,0,58.8,0,88.1,0c13.6,0,24.7,11.1,24.7,24.7c0,14.9,0,29.8,0,44.7    c0,13.6-11.1,24.7-24.7,24.7c-29.4,0-58.8,0-88.1,0c-13.6,0-24.7-11.1-24.7-24.7c0-14.9,0-29.8,0-44.7    C3137.9,2656.6,3148.9,2645.6,3162.5,2645.6z M3332.1,2645.6c29.4,0,58.8,0,88.1,0c13.6,0,24.7,11.1,24.7,24.7    c0,14.9,0,29.8,0,44.7c0,13.6-11.1,24.7-24.7,24.7c-29.4,0-58.8,0-88.1,0c-13.6,0-24.7-11.1-24.7-24.7c0-14.9,0-29.8,0-44.7    C3307.4,2656.6,3318.5,2645.6,3332.1,2645.6z M3501.6,2645.6c29.4,0,58.8,0,88.1,0c13.6,0,24.7,11.1,24.7,24.7    c0,14.9,0,29.8,0,44.7c0,13.6-11.1,24.7-24.7,24.7c-29.4,0-58.8,0-88.1,0c-13.6,0-24.7-11.1-24.7-24.7c0-14.9,0-29.8,0-44.7    C3477,2656.6,3488.1,2645.6,3501.6,2645.6z M2993,2908.1c29.4,0,58.8,0,88.1,0c13.6,0,24.7,11.1,24.7,24.7c0,14.9,0,29.8,0,44.7    c0,13.6-11.1,24.7-24.7,24.7c-29.4,0-58.8,0-88.1,0c-13.6,0-24.7-11.1-24.7-24.7c0-14.9,0-29.8,0-44.7    C2968.3,2919.2,2979.4,2908.1,2993,2908.1L2993,2908.1z M2993,3039.3c29.4,0,58.8,0,88.1,0c13.6,0,24.7,11.1,24.7,24.7    c0,14.9,0,29.8,0,44.7c0,13.6-11.1,24.7-24.7,24.7c-29.4,0-58.8,0-88.1,0c-13.6,0-24.7-11.1-24.7-24.7c0-14.9,0-29.8,0-44.7    C2968.3,3050.4,2979.4,3039.3,2993,3039.3z M2993,3170.6c29.4,0,58.8,0,88.1,0c13.6,0,24.7,11.1,24.7,24.7c0,14.9,0,29.8,0,44.7    c0,13.6-11.1,24.7-24.7,24.7c-29.4,0-58.8,0-88.1,0c-13.6,0-24.7-11.1-24.7-24.7c0-14.9,0-29.8,0-44.7    C2968.3,3181.7,2979.4,3170.6,2993,3170.6z M2823.4,3170.6h88.2c13.6,0,24.7,11.1,24.7,24.7v44.7c0,13.6-11.1,24.7-24.7,24.7    h-88.2c-13.6,0-24.7-11.1-24.7-24.7v-44.7C2798.7,3181.7,2809.8,3170.6,2823.4,3170.6z M3162.5,3170.6c29.4,0,58.8,0,88.1,0    c13.6,0,24.7,11.1,24.7,24.7c0,14.9,0,29.8,0,44.7c0,13.6-11.1,24.7-24.7,24.7c-29.4,0-58.8,0-88.1,0c-13.6,0-24.7-11.1-24.7-24.7    c0-14.9,0-29.8,0-44.7C3137.9,3181.7,3148.9,3170.6,3162.5,3170.6z M3332.1,3170.6c29.4,0,58.8,0,88.1,0    c13.6,0,24.7,11.1,24.7,24.7c0,14.9,0,29.8,0,44.7c0,13.6-11.1,24.7-24.7,24.7c-29.4,0-58.8,0-88.1,0c-13.6,0-24.7-11.1-24.7-24.7    c0-14.9,0-29.8,0-44.7C3307.4,3181.7,3318.5,3170.6,3332.1,3170.6z M2823.4,3039.3c29.4,0,58.8,0,88.2,0    c13.6,0,24.7,11.1,24.7,24.7c0,14.9,0,29.8,0,44.7c0,13.6-11.1,24.7-24.7,24.7c-29.4,0-58.8,0-88.2,0c-13.6,0-24.7-11.1-24.7-24.7    c0-14.9,0-29.8,0-44.7C2798.7,3050.4,2809.8,3039.3,2823.4,3039.3z M3162.5,3039.3c29.4,0,58.8,0,88.1,0    c13.6,0,24.7,11.1,24.7,24.7c0,14.9,0,29.8,0,44.7c0,13.6-11.1,24.7-24.7,24.7c-29.4,0-58.8,0-88.1,0c-13.6,0-24.7-11.1-24.7-24.7    c0-14.9,0-29.8,0-44.7C3137.9,3050.4,3148.9,3039.3,3162.5,3039.3z M3332.1,3039.3c29.4,0,58.8,0,88.1,0    c13.6,0,24.7,11.1,24.7,24.7c0,14.9,0,29.8,0,44.7c0,13.6-11.1,24.7-24.7,24.7c-29.4,0-58.8,0-88.1,0c-13.6,0-24.7-11.1-24.7-24.7    c0-14.9,0-29.8,0-44.7C3307.4,3050.4,3318.5,3039.3,3332.1,3039.3z M3501.6,3039.3c29.4,0,58.8,0,88.1,0    c13.6,0,24.7,11.1,24.7,24.7c0,14.9,0,29.8,0,44.7c0,13.6-11.1,24.7-24.7,24.7c-29.4,0-58.8,0-88.1,0c-13.6,0-24.7-11.1-24.7-24.7    c0-14.9,0-29.8,0-44.7C3477,3050.4,3488.1,3039.3,3501.6,3039.3z M2823.4,2908.1c29.4,0,58.8,0,88.2,0c13.6,0,24.7,11.1,24.7,24.7    c0,14.9,0,29.8,0,44.7c0,13.6-11.1,24.7-24.7,24.7c-29.4,0-58.8,0-88.2,0c-13.6,0-24.7-11.1-24.7-24.7c0-14.9,0-29.8,0-44.7    C2798.7,2919.2,2809.8,2908.1,2823.4,2908.1z M3162.5,2908.1c29.4,0,58.8,0,88.1,0c13.6,0,24.7,11.1,24.7,24.7    c0,14.9,0,29.8,0,44.7c0,13.6-11.1,24.7-24.7,24.7c-29.4,0-58.8,0-88.1,0c-13.6,0-24.7-11.1-24.7-24.7c0-14.9,0-29.8,0-44.7    C3137.9,2919.2,3148.9,2908.1,3162.5,2908.1z M3332.1,2908.1c29.4,0,58.8,0,88.1,0c13.6,0,24.7,11.1,24.7,24.7    c0,14.9,0,29.8,0,44.7c0,13.6-11.1,24.7-24.7,24.7c-29.4,0-58.8,0-88.1,0c-13.6,0-24.7-11.1-24.7-24.7c0-14.9,0-29.8,0-44.7    C3307.4,2919.2,3318.5,2908.1,3332.1,2908.1z M3501.6,2908.1c29.4,0,58.8,0,88.1,0c13.6,0,24.7,11.1,24.7,24.7    c0,14.9,0,29.8,0,44.7c0,13.6-11.1,24.7-24.7,24.7c-29.4,0-58.8,0-88.1,0c-13.6,0-24.7-11.1-24.7-24.7c0-14.9,0-29.8,0-44.7    C3477,2919.2,3488.1,2908.1,3501.6,2908.1z M2823.4,2776.8c29.4,0,58.8,0,88.2,0c13.6,0,24.7,11.1,24.7,24.7c0,14.9,0,29.8,0,44.7    c0,13.6-11.1,24.7-24.7,24.7c-29.4,0-58.8,0-88.2,0c-13.6,0-24.7-11.1-24.7-24.7c0-14.9,0-29.8,0-44.7    C2798.7,2787.9,2809.8,2776.8,2823.4,2776.8z M3162.5,2776.8c29.4,0,58.8,0,88.1,0c13.6,0,24.7,11.1,24.7,24.7    c0,14.9,0,29.8,0,44.7c0,13.6-11.1,24.7-24.7,24.7c-29.4,0-58.8,0-88.1,0c-13.6,0-24.7-11.1-24.7-24.7c0-14.9,0-29.8,0-44.7    C3137.9,2787.9,3148.9,2776.8,3162.5,2776.8z M3332.1,2776.8c29.4,0,58.8,0,88.1,0c13.6,0,24.7,11.1,24.7,24.7    c0,14.9,0,29.8,0,44.7c0,13.6-11.1,24.7-24.7,24.7c-29.4,0-58.8,0-88.1,0c-13.6,0-24.7-11.1-24.7-24.7c0-14.9,0-29.8,0-44.7    C3307.4,2787.9,3318.5,2776.8,3332.1,2776.8z"
   id="path106"
   style="fill:#d8f1e4;fill-opacity:1" />
		<path
   fill="#E0ACBF"
   d="M3840.8,2908.1c29.4,0,58.8,0,88.2,0c13.6,0,24.7,11.1,24.7,24.7c0,14.9,0,29.8,0,44.7    c0,13.6-11.1,24.7-24.7,24.7c-29.4,0-58.8,0-88.2,0c-13.6,0-24.7-11.1-24.7-24.7c0-14.9,0-29.8,0-44.7    C3816.1,2919.2,3827.2,2908.1,3840.8,2908.1L3840.8,2908.1z M3840.8,3039.3c29.4,0,58.8,0,88.2,0c13.6,0,24.7,11.1,24.7,24.7    c0,14.9,0,29.8,0,44.7c0,13.6-11.1,24.7-24.7,24.7c-29.4,0-58.8,0-88.2,0c-13.6,0-24.7-11.1-24.7-24.7c0-14.9,0-29.8,0-44.7    C3816.1,3050.4,3827.2,3039.3,3840.8,3039.3z M3671.2,3039.3c29.4,0,58.8,0,88.1,0c13.6,0,24.7,11.1,24.7,24.7    c0,14.9,0,29.8,0,44.7c0,13.6-11.1,24.7-24.7,24.7c-29.4,0-58.8,0-88.1,0c-13.6,0-24.7-11.1-24.7-24.7c0-14.9,0-29.8,0-44.7    C3646.5,3050.4,3657.6,3039.3,3671.2,3039.3z M3671.2,2908.1c29.4,0,58.8,0,88.1,0c13.6,0,24.7,11.1,24.7,24.7    c0,14.9,0,29.8,0,44.7c0,13.6-11.1,24.7-24.7,24.7c-29.4,0-58.8,0-88.1,0c-13.6,0-24.7-11.1-24.7-24.7c0-14.9,0-29.8,0-44.7    C3646.5,2919.2,3657.6,2908.1,3671.2,2908.1z M3671.2,2776.8c29.4,0,58.8,0,88.1,0c13.6,0,24.7,11.1,24.7,24.7    c0,14.9,0,29.8,0,44.7c0,13.6-11.1,24.7-24.7,24.7c-29.4,0-58.8,0-88.1,0c-13.6,0-24.7-11.1-24.7-24.7c0-14.9,0-29.8,0-44.7    C3646.5,2787.9,3657.6,2776.8,3671.2,2776.8z M3671.2,2645.6c29.4,0,58.8,0,88.1,0c13.6,0,24.7,11.1,24.7,24.7    c0,14.9,0,29.8,0,44.7c0,13.6-11.1,24.7-24.7,24.7c-29.4,0-58.8,0-88.1,0c-13.6,0-24.7-11.1-24.7-24.7c0-14.9,0-29.8,0-44.7    C3646.5,2656.6,3657.6,2645.6,3671.2,2645.6z M3840.8,2645.6h88.2c13.6,0,24.7,11.1,24.7,24.7v44.7c0,13.6-11.1,24.7-24.7,24.7    h-88.2c-13.6,0-24.7-11.1-24.7-24.7v-44.7C3816.1,2656.6,3827.2,2645.6,3840.8,2645.6z M3840.8,2776.8c29.4,0,58.8,0,88.2,0    c13.6,0,24.7,11.1,24.7,24.7c0,14.9,0,29.8,0,44.7c0,13.6-11.1,24.7-24.7,24.7c-29.4,0-58.8,0-88.2,0c-13.6,0-24.7-11.1-24.7-24.7    c0-14.9,0-29.8,0-44.7C3816.1,2787.9,3827.2,2776.8,3840.8,2776.8z"
   id="path108"
   style="fill:#a1c9b4;fill-opacity:1" />
		<g
   id="g116">
			<path
   fill="#E0ACBF"
   d="M2835.2,2404.4h1082c20,0,36.4,16.4,36.4,36.4v84.2c0,20-16.4,36.4-36.4,36.4h-1082     c-20,0-36.4-16.4-36.4-36.4v-84.2C2798.7,2420.8,2815.1,2404.4,2835.2,2404.4z"
   id="path110"
   style="fill:#a1c9b4;fill-opacity:1" />
			<path
   fill="#B0798D"
   d="M3155,2428.2h442.3c14.4,0,26.3,11.8,26.3,26.3v20c0,14.4-11.8,26.3-26.3,26.3H3155     c-14.4,0-26.3-11.8-26.3-26.3v-20C3128.7,2440.1,3140.5,2428.2,3155,2428.2z"
   id="path112"
   style="fill:#7ba28d;fill-opacity:1" />
			<path
   fill="#FFE5EE"
   d="M2871,2585.2h1010.2c4.3,0,7.9,3.5,7.9,7.9l0,0c0,4.3-3.5,7.9-7.9,7.9H2871c-4.3,0-7.9-3.5-7.9-7.9l0,0     C2863.2,2588.7,2866.7,2585.2,2871,2585.2z"
   id="path114"
   style="fill:#d8f1e4;fill-opacity:1" />
		</g>
		
		
	</g>
</g>
<g
   id="_1921193460640_1_">
	<path
   fill="#5050D1"
   d="M2426.6,1250.5l-30.3,13.6c-61.2,27.5-112.3,73.2-146.5,131.1c-37.6,63.6-77.9,125.5-120.7,185.7   l-189.1-25.1c-23.8-3.2-47.8,4.5-65.3,21c-17.5,16.5-26.7,40-25,63.9c4.8,66.4,47.2,124.1,109.2,148.4   c58.7,23.1,118.6,43.3,179.2,60.4c56.8,16,117.4-5.5,151.5-53.5C2401.7,1637.7,2450.6,1443.1,2426.6,1250.5L2426.6,1250.5z"
   id="path125"
   style="fill:#445452;fill-opacity:1" />
	<path
   fill="#1B2D38"
   d="M2266.9,1950.5l56.1,678.6c4.9,59.5,12.8,118.7,23.6,177.3c37.4,202.4,51.2,408.7,41.3,614.5   c-0.7,13.1-4.7,25.8-11.8,36.7c-20.9,32.1-26.3,72.5-14.8,109.4l333.4,65l5.9-65c3.3-35.7,0.2-71.7-8.9-106.3   c-15.2-57.8-22.1-117.5-20.7-177.3c5.2-208.5-25.3-337.1-102.5-529.7l-53.8-736L2266.9,1950.5L2266.9,1950.5z"
   id="path127"
   style="fill:#153a27;fill-opacity:1" />
	<path
   fill="#273A47"
   d="M2731,1987.1l51.7,254.8c39.9,153.5,128.7,416.8,199.8,558.6c108.6,216.7,152.5,333.2,195.7,571.7   c5.2,28.6,17.4,55.4,35.4,78.2c41.1,51.8,48,122.9,17.7,181.7h-352.6c-1.8-41.6-3.2-79.4,1.5-121.2c1.9-16.9-0.1-34.2-5.9-50.2   c-87.6-243.5-134.8-388.2-161.5-645.5c-5-48.4-16.1-96-33-141.6l-173.4-473.4l-21.8-8.5c-96.2-31.6-174.1-103-213.8-196.1   L2731,1987.1z"
   id="path129"
   style="fill:#2d4137;fill-opacity:1" />
	
		<ellipse
   transform="matrix(0.842 -0.5395 0.5395 0.842 -161.1187 1495.1763)"
   fill="#F04141"
   cx="2471.9"
   cy="1022.6"
   rx="23.4"
   ry="47.4"
   id="ellipse131"
   style="fill:#ee212a;fill-opacity:1" />
	<path
   fill="#FF6666"
   d="M2509.3,1220.6c-7.6,53.1,20.8,78.9,66.9,78.9c46.1,0,75.3-48.8,109-104.6c-14.2-25.4-24.9-88.6-12.5-127.8   l13.2-42.1l-119.2,67.1c10.7,16.8,14,37.4,9,56.7c-5,19.3-8.2,36.7-25.7,46.2L2509.3,1220.6L2509.3,1220.6z"
   id="path133"
   style="fill:#fa555c;fill-opacity:1" />
	<path
   fill="#F04141"
   d="M2577.3,1121.1c1.2,9.1,0.8,18.5-1.6,27.7c-5,19.3-8.2,36.7-25.7,46.2l-3.4,2.2c8.5,6.6,20.8,9.4,34.3,6.8   c25.9-5,46.9-27.7,46.9-50.8c0-23.2-21-37.8-46.9-32.9C2579.7,1120.6,2578.4,1120.8,2577.3,1121.1L2577.3,1121.1z"
   id="path135"
   style="fill:#ee212a;fill-opacity:1" />
	<path
   fill="#FF6666"
   d="M2588.6,1177.1c-95.5,0-159.4-173.5-119.6-260.4c33.3-72.5,205.9-72.5,239.2,0   C2748,1003.5,2684.1,1177.1,2588.6,1177.1z"
   id="path137"
   style="fill:#fa555c;fill-opacity:1" />
	<path
   fill="#FFFFFF"
   d="M2576.2,1139.2c-19.5,0-35.3-16-42.1-33.8h84.3C2611.5,1123.2,2595.7,1139.2,2576.2,1139.2L2576.2,1139.2z"
   id="path139" />
	<path
   fill="#1B2D38"
   d="M2457.8,999l-13.9-45.5c-5.7-18.6-13.1-36.8-22.1-54.1c-12.2-23.2-6.7-51.7,13.2-68.6   c9.8-8.3,21.5-14.1,34-16.6l25-40.2c13.3-21.5,34.1-37.2,58.3-44.4c27.7-8.2,57.3-6.5,83.8,4.9c63.9,27.3,110.4,84.3,124.1,152.5   l6.9,13.2c6.5,12.4,8.9,26.5,6.9,40.2c-10.7,74-47.8,141.8-104.7,190.6l24.5-39.7c8.2-21.9,17.8-42.6,18.4-66l-31.8,1.9l27.4-90.2   c-30.9,19-108.9,17.6-129.8,16.2c-20.9-1.4-61.8-20.2-94.5-43.3C2469.4,934.8,2461.5,966.1,2457.8,999L2457.8,999z"
   id="path141" />
	<path
   fill="#273A47"
   d="M2484,789.9l9.9-15.9c13.3-21.5,34.1-37.2,58.3-44.4c27.7-8.2,57.3-6.5,83.8,4.9   c43.8,18.6,79.5,51.3,102,92.1c-19.3,34.2-66.8,58.3-122.3,58.3c-72.7,0-131.6-41.3-131.6-92.4C2484,791.6,2484,790.8,2484,789.9   L2484,789.9z"
   id="path143" />
	
		<ellipse
   transform="matrix(0.5395 -0.842 0.842 0.5395 393.5141 2769.7561)"
   fill="#FF6666"
   cx="2728.9"
   cy="1025.1"
   rx="47.4"
   ry="23.4"
   id="ellipse145" />
	<path
   fill="#333333"
   d="M2534.7,1001.9l-34.2-4.3c-4.4-0.6-8.5,1.8-11.1,6.5l-4.2-8.1c2.6-8.7,8.4-14.2,15.3-14.4l31.5-0.7   L2534.7,1001.9L2534.7,1001.9z"
   id="path147" />
	<path
   fill="#333333"
   d="M2589.9,1001.9l34.2-4.3c4.4-0.6,8.5,1.8,11.1,6.5l4.2-8.1c-2.6-8.7-8.4-14.2-15.3-14.4l-31.6-0.7   L2589.9,1001.9L2589.9,1001.9z"
   id="path149" />
	<path
   fill="#F04141"
   d="M2560.5,1085.6c-9.9,0-14.4-7-14.4-2.7s7.9,19.1,17.8,19.1s17.8-14.8,17.8-19.1   C2581.7,1078.5,2570.4,1085.6,2560.5,1085.6z"
   id="path151"
   style="fill:#ee212a;fill-opacity:1" />
	<path
   fill="#FFFFFF"
   d="M2618.3,969.2c-14.5,0-27.7,5.9-37.2,15.4c-3.1,3.1-5.8,6.5-7.9,10.2h-22.9c-2-3.6-4.4-7.2-7.2-10.1   c-8.7-9.7-20.8-15.6-34.1-15.6c-13.3,0-25.3,5.9-34.1,15.6c-8.6,9.5-14,22.7-14,37.1c0,14.4,5.3,27.6,14,37.1   c8.7,9.7,20.8,15.6,34.1,15.6c13.3,0,25.3-5.9,34.1-15.6c8.6-9.5,14-22.7,14-37.1c0-7.3-1.4-14.2-3.7-20.4h16.6   c-2.6,6.2-4.1,13.2-4.1,20.4c0,14.5,5.9,27.7,15.4,37.2c9.5,9.5,22.7,15.4,37.2,15.4c14.5,0,27.7-5.9,37.2-15.4   c9.5-9.5,15.4-22.7,15.4-37.2s-5.9-27.7-15.4-37.2C2646.1,975.1,2633,969.2,2618.3,969.2L2618.3,969.2z M2479.8,989.2   c7.5-8.3,17.8-13.4,29.2-13.4s21.7,5.1,29.2,13.4c7.6,8.4,12.3,20,12.3,32.8s-4.7,24.4-12.3,32.8c-7.5,8.3-17.8,13.4-29.2,13.4   s-21.7-5.1-29.2-13.4c-7.6-8.4-12.3-20-12.3-32.8S2472.2,997.6,2479.8,989.2z M2585.7,989.3c8.4-8.4,19.9-13.5,32.7-13.5   c12.7,0,24.3,5.2,32.6,13.5c8.3,8.3,13.5,19.9,13.5,32.6s-5.2,24.3-13.5,32.7c-8.4,8.4-19.9,13.5-32.6,13.5   c-12.7,0-24.3-5.1-32.7-13.5c-8.4-8.4-13.5-19.9-13.5-32.7C2572.2,1009.1,2577.3,997.7,2585.7,989.3z"
   id="path153" />
	<path
   fill="#6060DE"
   d="M2550.1,1195.1l-153.8,69.2l-44.4,91.4c-30.7,63-50.6,130.6-59.3,200.1c-16.2,130.8-35.7,277-58.4,413.3   c-10.9,65.8,28.6,128.4,92.7,146.8c109.6,31.5,239.6,8.4,355.4-30.8c50-16.9,77.8-70,63.3-120.6l-21-73.4l69.3-108   c52.9-82.4,95.3-171.3,125.9-264.3c31.3-95.1-6.4-199.2-91.4-251.9l-143.2-71.7C2546.6,1288.4,2498,1244.3,2550.1,1195.1   L2550.1,1195.1z"
   id="path155"
   style="fill:#516462;fill-opacity:1" />
	<path
   fill="#5050D1"
   d="M2380.6,2126.7c96.9,12.7,204.3-8.9,301.7-41.8c50-16.9,77.8-70,63.3-120.6l-21-73.4l69.3-108   c3-4.7,5.9-9.3,8.9-14l-26-308.5l-35.9,71.8c-41.6,82.9-119.7,141.5-210.9,158.1l-176.9,58.4l79.5,56.9   c58.3,41.7,86.5,113.7,72.3,183.9C2491.6,2054.7,2443.6,2107.2,2380.6,2126.7L2380.6,2126.7z"
   id="path157"
   style="fill:#445452;fill-opacity:1" />
	<ellipse
   fill="#333333"
   cx="2518.1"
   cy="1024.3"
   rx="11.8"
   ry="17.4"
   id="ellipse159" />
	<ellipse
   fill="#333333"
   cx="2613.2"
   cy="1024.3"
   rx="16.2"
   ry="17.4"
   id="ellipse161" />
	<path
   fill="#1B2D38"
   d="M2414,3465.9c-63.7,46.7-114.4,76.8-194.8,90.5c-9.2,1.6-17.3,7-22,15c-4.8,7.9-5.9,17.7-3,26.6   c5,15.3,16.5,27.7,31.3,34h469.2L2414,3465.9L2414,3465.9z"
   id="path163"
   style="fill:#153a27;fill-opacity:1" />
	<path
   fill="#273A47"
   d="M3054.2,3465.9c63.7,46.7,114.4,76.8,194.8,90.5c9.2,1.6,17.3,7,22,15c4.8,7.9,5.9,17.7,3,26.6   c-5,15.3-16.5,27.7-31.3,34h-202.7L3054.2,3465.9L3054.2,3465.9z"
   id="path165"
   style="fill:#2d4137;fill-opacity:1" />
	<path
   fill="#F04141"
   d="M1889.8,1582l-10.9,3.6c-11.7,3.9-24.5,3-35.5-2.7c-13.6-6.9-29.5-7.8-43.8-2.4c-4.4,1.7-7.6,5.6-8.5,10.2   s0.7,9.4,4.1,12.7c7.8,7.3,17.4,12.4,27.8,14.8c4,0.9,8.1,1.4,12.2,1.5c15.7,0.2,30.4,7.8,39.7,20.4l26.2-20.6L1889.8,1582   L1889.8,1582z"
   id="path167" />
	<g
   id="g177">
		<path
   fill="#633548"
   d="M3538,3107.2L1851.3,1606.7c-56.3-50.1-126.3-69.3-200.3-54.9c-71.2,13.9-145.9-3.3-204.4-48.6    c-106.1-82.2-189.6-190-243.1-313.1c-15.9-36.6,23.4-69,59.1-51.1l248.1,124.5c78.7,39.5,238.6-266.1,124.2-325.2l-228.1-118    c-25.7-13.3-22.1-51.3,5.5-59.7c136.5-41.2,283.6-27.9,410.5,37.1c70.2,36,122.8,98.7,145.9,174c12.5,40.7,19.2,81.8,20.4,122.4    c2,66.7,28.5,123.3,78.4,167.7l1686.7,1500.5c56.3,50.2,126.3,69.3,200.3,54.9c71.2-13.9,145.9,3.3,204.4,48.6    c106.1,82.3,189.6,190,243.1,313.2c15.9,36.6-23.4,69-59.1,51.1l-248.1-124.5c-78.7-39.5-238.6,266.1-124.2,325.2l228.1,118    c25.7,13.3,22.1,51.3-5.5,59.6c-136.5,41.2-283.7,27.9-410.5-37.1c-70.2-36-122.8-98.7-145.9-174c-12.5-40.7-19.2-81.8-20.4-122.4    C3614.4,3208.2,3587.9,3151.5,3538,3107.2L3538,3107.2z"
   id="path169"
   style="fill:#c9625e;fill-opacity:1" />
		<path
   fill="#894E66"
   d="M3970.6,3430.9l228.1,118c25.7,13.3,22.1,51.3-5.5,59.6c-136.5,41.2-283.7,27.9-410.5-37.1    c-70.2-36-122.8-98.7-145.9-174c-71.3-231.6,47.9-478.9,273.5-567.2c83.4-32.7,177.7-19.1,248.5,35.8    c106.1,82.3,189.6,190,243.1,313.2c15.9,36.6-23.4,69-59.1,51.1l-248-124.6C4016.3,3066.1,3856.2,3371.7,3970.6,3430.9    L3970.6,3430.9z"
   id="path171"
   style="fill:#d1716d;fill-opacity:1" />
		<path
   fill="#894E66"
   d="M1634.9,938.3l-228.1-118c-25.7-13.3-22.1-51.3,5.5-59.7c136.5-41.2,283.6-27.9,410.5,37.1    c70.2,36,122.8,98.7,145.9,174c71.3,231.6-47.9,478.9-273.5,567.2c-83.4,32.7-177.7,19.1-248.5-35.9    c-106.1-82.2-189.6-190-243.1-313.1c-15.9-36.6,23.4-69,59.1-51.1l248.1,124.5C1589.3,1303,1749.2,997.5,1634.9,938.3z"
   id="path173"
   style="fill:#d1716d;fill-opacity:1" />
		<path
   fill="#4C2738"
   d="M3308.1,2774.4l-1150-1023c-40.9-36.3-44.5-98.9-8.2-139.8l0,0c36.3-40.9,98.9-44.5,139.8-8.2l1150,1023    c40.9,36.3,44.5,98.9,8.2,139.8l0,0C3411.5,2807.1,3349,2810.7,3308.1,2774.4z"
   id="path175"
   style="fill:#ab443e;fill-opacity:1" />
	</g>
	<path
   fill="#FF6666"
   d="M1805.8,1651.2l7.6-15.4c9.1-18.4,20.8-35.3,34.9-50.3c3.1-3.2,7.4-4.8,11.8-4.1c4.3,0.7,8.2,3.4,10.1,7.3   c2.3,4.5,3.3,9.5,2.8,14.5l8.7-10.1c4.3-5,9.4-9.1,15.2-12c4-2,8.5-2.3,12.7-0.6c4.1,1.7,7.3,5.1,8.6,9.3   c3.6,11.1,1.8,23.3-4.8,32.8l4.9-0.7c4.2-0.7,8.5,0.5,11.8,3.2c3.4,2.6,5.5,6.6,5.8,10.8c1.6,19.1-2.8,38.3-12.7,54.7l8.7-10.6   c4.3-5.1,8.5-10.2,12.8-15.3c2.3-2.7,6-3.9,9.5-2.7c3.4,1.1,5.9,4.2,6.1,7.7c1.7,21-5.6,41.8-19.9,57.2c-5.2,5.6-12.9,8.1-20.3,6.6   c-7.5-1.5-13.6-6.8-16.2-14c-11.8,4.9-27.7,1.8-33.3-20.8c-11.6-1.5-28.3-12.5-32.3-25.9   C1813.5,1687.7,1797.9,1667.1,1805.8,1651.2L1805.8,1651.2z"
   id="path179"
   style="fill:#fa555c;fill-opacity:1" />
	<path
   fill="#6060DE"
   d="M2928.6,1419.3l12.4,92.9c12.7,96.2,38.4,146.5,68.6,238.6c40,121.9-1.4,206.3-65.4,280.4   c-68.5,79.3-169.4,153.8-271.3,178c-52.5,12.5-118.8-72.9-100.8-123.8c37.6-106.5,67.9-193.5,147.9-275.2   c21-21.3,36.2-47.7,44.4-76.5l-17.4-54.9c-12.8-94.8,6.9-191.1,55.9-273.3c14-23.4,40.2-36.5,67.3-33.6   C2897.1,1375,2925,1392.9,2928.6,1419.3L2928.6,1419.3z"
   id="path181"
   style="fill:#516462;fill-opacity:1" />
	<path
   fill="#FF6666"
   d="M2630.3,2217.1l-5.5,0.7l-66.9,31.8c-28,13.3-61.4,6.7-82.3-16.2c-15-16.5-31.8-31.1-50-43.8   c-24.9-17.3-13.3-39.2,3.9-55.8l18.7-18.2l-11.2-11.6c-5.2-5.3-6.7-13.2-3.9-20.1c2.8-6.8,9.4-11.5,16.9-11.6   c12.6-0.3,25.2,1.5,37.4,5.5c16.6,5.3,34,8.5,51.3,9.5c43,2.4,81.2,28.5,99,67.7l12.5,22.9c4.3,7.9,4.5,16.7,0.5,24.8   C2646.5,2210.7,2639.3,2215.9,2630.3,2217.1L2630.3,2217.1z"
   id="path183"
   style="fill:#fa555c;fill-opacity:1" />
</g>
</svg>
